<?xml version="1.0" encoding="UTF-8" standalone="no"?>
<svg
   version="1.1"
   viewBox="0 0 1293 1124"
   width="323.25"
   height="281"
   id="svg497"
   sodipodi:docname="hamcation.svg"
   inkscape:version="1.4 (e7c3feb1, 2024-10-09)"
   xmlns:inkscape="http://www.inkscape.org/namespaces/inkscape"
   xmlns:sodipodi="http://sodipodi.sourceforge.net/DTD/sodipodi-0.dtd"
   xmlns="http://www.w3.org/2000/svg"
   xmlns:svg="http://www.w3.org/2000/svg">
  <defs
     id="defs497" />
  <sodipodi:namedview
     id="namedview497"
     pagecolor="#ffffff"
     bordercolor="#000000"
     borderopacity="0.25"
     inkscape:showpageshadow="2"
     inkscape:pageopacity="0.0"
     inkscape:pagecheckerboard="0"
     inkscape:deskcolor="#d1d1d1"
     inkscape:zoom="0.19999878"
     inkscape:cx="215.00131"
     inkscape:cy="145.00089"
     inkscape:window-width="1104"
     inkscape:window-height="245"
     inkscape:window-x="0"
     inkscape:window-y="33"
     inkscape:window-maximized="0"
     inkscape:current-layer="svg497" />
  <path
     d="m 727,11 4,1 7,8 7,14 v 7 l 33,5 62,11 56,10 117,21 36,6 12,3 h 7 l 5,-4 9,-11 6,-5 2,4 3,1 7,8 2,4 h 2 l 5,6 v 6 l -24,32 -8,12 h -2 l -2,5 h -2 l -2,4 -7,10 h -2 l -2,5 -8,11 -14,20 -14,19 -32,44 -1,2 h -2 l -1,4 -8,10 -1,2 h -2 l -1,4 -12,17 -7,10 -11,16 -11,15 -28,38 -12,16 -16,22 -11,16 -18,24 -8,11 1,4 11,8 8,8 4,10 5,10 3,8 3,3 5,14 3,3 5,13 3,4 22,44 7,15 8,16 5,9 78,156 10,19 14,28 10,16 4,3 22,5 28,5 13,2 4,2 2,8 v 11 l -1,8 -7,6 -12,-1 -48,-8 -75,-13 -197,-32 -123,-19 -50,-8 -22,-4 -9,10 -12,16 -14,19 -9,12 -14,19 -8,11 -10,14 -10,13 -8,11 -12,16 -7,10 -1,2 h -2 l -2,4 -8,12 h -2 v 3 h -2 l -2,5 -8,11 -10,14 -8,11 -14,19 -6,8 h -2 l -2,5 -9,12 -10,14 -9,12 -9,11 -3,2 h -12 l -6,-3 -4,-6 -1,-11 4,-13 9,-13 14,-19 26,-36 7,-9 8,-11 11,-15 12,-17 7,-9 11,-16 10,-13 12,-17 11,-14 12,-17 12,-15 14,-19 10,-13 14,-20 10,-13 10,-14 10,-13 11,-14 12,-17 9,-12 4,-10 -8,5 -9,13 -4,7 -9,12 -10,13 -8,11 -14,19 -11,15 h -11 l -45,-7 -71,-12 -24,-6 -4,-2 v -3 l -6,-1 -27,-10 -94,-29 -33,-11 -2,5 -14,19 -16,21 -12,16 -14,18 -14,19 -14,18 -15,20 -10,13 -9,12 3,3 57,21 40,15 46,17 55,20 20,7 22,8 41,14 7,2 2,4 -10,16 -9,13 -3,1 v 2 h -6 l -36,-13 -22,-9 -16,-6 -45,-17 -34,-13 -40,-15 -22,-8 -16,-6 -33,-12 -27,-10 -4,1 -6,7 -14,22 -13,18 -8,10 -4,4 H 12 l -6,-3 -6,-12 1,-10 7,-13 13,-16 10,-14 14,-18 9,-12 8,-10 12,-16 11,-14 14,-19 10,-13 16,-21 13,-17 11,-14 32,-42 3,-5 -12,-2 -29,-9 -34,-10 -36,-9 -6,-4 -4,-6 v -8 l 9,-17 18,4 58,10 43,7 27,2 8,-14 16,-21 30,-40 13,-19 2,-9 3,-28 5,-20 5,-12 4,-9 6,-11 4,-7 h 2 v -3 h 2 l 1,-4 9,-10 4,-6 7,-7 7,-8 16,-13 12,-9 h 2 v -2 l 7,-4 15,-10 22,-13 13,-8 h 2 l 2,-4 11,-12 24,-32 8,-11 9,-12 9,-13 h 2 l 2,-5 14,-18 14,-19 10,-13 14,-19 33,-44 16,-21 9,-12 14,-19 15,-20 13,-17 14,-18 14,-19 10,-13 14,-19 9,-12 10,-13 z"
     fill="#a3774e"
     id="path1" />
  <path
     d="m 723,73 h 1 l -1,10 -12,36 -13,35 -7,19 -14,40 -15,37 -15,39 -13,30 -12,27 -5,10 13,1 23,6 22,9 9,3 8,-7 10,-10 5,-4 1,-4 v -15 l 5,-16 6,-10 7,-7 12,-7 7,-2 h 13 l 10,3 10,6 7,6 7,10 4,9 1,9 12,6 10,8 8,10 4,8 2,6 v 12 l -4,12 -9,11 -10,9 -11,4 h -23 l -9,-3 -7,-6 -28,22 h -2 l -1,7 2,8 1,10 v 26 l -2,30 -3,21 -6,26 v 1 l 9,-11 8,-11 14,-19 13,-18 12,-16 14,-19 12,-16 12,-17 10,-13 13,-18 42,-57 33,-44 8,-11 14,-19 9,-12 8,-11 28,-38 13,-18 9,-12 12,-19 5,-10 8,-21 4,-6 9,3 4,2 -1,4 -12,16 -11,15 -13,18 -70,95 -13,18 -11,15 -13,18 -12,16 -10,14 -12,16 -12,17 -9,12 -14,19 -10,14 -8,11 -28,38 -8,11 -14,19 -26,36 -12,16 -11,15 -7,10 -10,14 -10,13 -5,8 h -2 l -2,4 -9,14 -5,7 h -2 l -2,5 -10,12 -13,18 -8,12 -10,14 -7,8 -5,7 -1,-3 2,-4 -8,5 -9,13 -4,7 -9,12 -10,13 -8,11 -14,19 -11,15 h -11 l -45,-7 -71,-12 -24,-6 -4,-2 v -3 l -6,-1 -27,-10 -94,-29 -33,-11 -2,5 -14,19 -16,21 -12,16 -14,18 -14,19 -14,18 -15,20 -10,13 -9,12 3,3 57,21 40,15 46,17 55,20 20,7 22,8 41,14 7,2 2,4 -10,16 -9,13 -3,1 v 2 h -6 l -36,-13 -22,-9 -16,-6 -45,-17 -34,-13 -40,-15 -22,-8 -16,-6 -33,-12 -27,-10 -4,1 -6,7 -14,22 -13,18 -8,10 -4,4 H 12 l -6,-3 -6,-12 1,-10 7,-13 13,-16 10,-14 14,-18 9,-12 8,-10 12,-16 11,-14 14,-19 10,-13 16,-21 13,-17 11,-14 32,-42 3,-5 -12,-2 -29,-9 -34,-10 -36,-9 -6,-4 -4,-6 v -8 l 9,-17 18,4 58,10 43,7 27,2 8,-14 16,-21 30,-40 13,-19 2,-9 3,-28 5,-20 5,-12 4,-9 6,-11 4,-7 h 2 v -3 h 2 l 1,-4 9,-10 4,-6 7,-7 7,-8 16,-13 12,-9 h 2 v -2 l 7,-4 4,-3 7,-3 21,-12 20,-12 h 3 v -2 l 13,-5 30,-10 12,-6 9,-9 15,-20 16,-21 8,-11 14,-19 12,-16 16,-21 12,-16 10,-13 12,-16 8,-11 11,-15 9,-13 h 2 l 2,-5 2,-3 h 2 l 2,-5 10,-13 10,-14 h 2 l 2,-5 10,-13 8,-11 21,-28 z"
     fill="#350e10"
     id="path2" />
  <path
     d="m 727,11 4,1 7,8 7,14 v 7 l 33,5 62,11 56,10 117,21 36,6 3,1 v 2 l -6,5 -8,10 -5,11 -1,3 4,2 2,2 -7,-1 -6,12 -7,19 -11,18 -12,17 -12,16 -13,18 -12,16 -22,30 -12,16 -11,15 -18,24 -14,19 -15,20 -14,19 -26,36 -10,13 -10,14 -14,19 -12,16 -14,19 -13,18 -14,19 -9,12 -8,10 -3,3 4,-16 5,-25 2,-20 1,-20 v -26 l -2,-14 -1,-8 5,-5 13,-10 14,-11 7,6 9,3 h 23 l 11,-4 12,-11 7,-10 3,-10 v -12 l -5,-12 -4,-6 -7,-8 -10,-7 -10,-5 -2,-12 -6,-11 -5,-6 -8,-6 -12,-6 -5,-1 h -13 l -11,4 -10,7 -7,8 -5,11 -3,11 v 17 l -5,6 -8,7 -10,10 -3,1 -30,-12 -23,-6 -13,-2 2,-6 9,-19 9,-21 11,-26 16,-42 13,-32 14,-40 11,-30 11,-29 9,-28 1,-9 -5,5 -21,28 -8,11 -12,17 h -2 l -2,5 -9,11 -11,16 h -2 l -2,5 -2,3 h -2 l -2,5 -18,24 -8,11 -12,16 -10,13 -16,21 -14,19 -10,13 -13,18 -10,13 -14,19 -13,17 -9,10 -6,5 -15,6 -24,8 -9,4 h -4 v 2 l -11,6 -21,12 -15,9 -2,-1 19,-12 22,-13 5,-2 2,-4 11,-12 24,-32 8,-11 9,-12 9,-13 h 2 l 2,-5 14,-18 14,-19 10,-13 14,-19 33,-44 16,-21 9,-12 14,-19 15,-20 13,-17 14,-18 14,-19 10,-13 14,-19 9,-12 10,-13 z"
     fill="#d04d46"
     id="path3" />
  <path
     d="m 816,503 4,2 7,9 4,8 2,5 4,9 7,10 4,10 v 2 l 3,1 5,12 4,5 3,9 2,4 3,3 4,11 v 2 l 3,1 7,15 6,12 9,19 12,22 25,50 8,14 2,5 8,15 13,28 5,11 v 3 h 2 l 11,21 11,25 3,7 1,7 h -8 l -52,-9 -62,-10 -91,-15 -39,-6 -43,-7 -67,-11 -27,-5 -4,-2 2,-4 8,-9 10,-14 9,-12 13,-18 14,-19 10,-14 12,-16 10,-14 9,-12 11,-15 13,-18 10,-14 12,-22 13,-19 13,-18 11,-15 12,-16 8,-12 h 2 l 2,-4 z"
     fill="#d04d46"
     id="path4" />
  <path
     d="m 406,451 h 23 l 13,2 16,5 9,4 14,7 19,14 15,14 9,10 13,18 10,18 10,21 3,10 4,33 1,13 v 12 l -2,21 -5,19 -6,16 h -2 l -2,6 -6,10 h -2 l -1,4 h -2 l -2,5 -11,12 -10,9 -5,2 v 2 l -11,6 -5,1 v 2 l -12,4 -18,2 h -15 l -26,-5 -16,-5 -13,-5 -3,-3 -5,-3 -11,-8 -8,-7 -14,-14 -7,-8 -9,-12 -7,-11 -4,-7 v -2 h -2 l -5,-12 -8,-24 v -4 h -2 l -3,-29 v -30 l 3,-18 6,-19 h 2 l 1,-7 10,-19 9,-12 11,-12 12,-10 13,-8 15,-5 9,-2 z"
     fill="#eb8e91"
     id="path5" />
  <path
     d="m 288,574 h 1 l 1,18 1,20 4,19 v 9 l -10,14 -14,18 -11,15 v 4 l 11,2 20,2 h 34 l 7,7 9,11 13,13 11,9 15,11 16,8 11,5 14,4 16,3 11,2 35,2 h 21 l 26,-3 26,-6 10,-3 12,-4 9,-6 -2,5 -8,10 -13,18 -10,13 -11,15 -8,11 h -11 l -45,-7 -71,-12 -24,-6 -4,-2 v -3 l -6,-1 -27,-10 -94,-29 -33,-11 -2,5 -14,19 -16,21 -12,16 -14,18 -14,19 -14,18 -15,20 -10,13 -9,12 3,3 57,21 40,15 46,17 55,20 20,7 22,8 41,14 7,2 2,4 -10,16 -9,13 -3,1 v 2 h -6 l -36,-13 -22,-9 -16,-6 -45,-17 -34,-13 -40,-15 -22,-8 -16,-6 -33,-12 -27,-10 -4,1 -6,7 -14,22 -13,18 -8,10 -4,4 H 12 l -6,-3 -6,-12 1,-10 7,-13 13,-16 10,-14 14,-18 9,-12 8,-10 12,-16 11,-14 14,-19 10,-13 16,-21 13,-17 11,-14 32,-42 3,-5 -12,-2 -29,-9 -34,-10 -36,-9 -6,-4 -4,-6 v -8 l 9,-17 18,4 58,10 43,7 27,2 8,-14 16,-21 30,-40 13,-19 2,-9 z"
     fill="#a3774e"
     id="path6" />
  <path
     d="m 816,503 4,2 7,9 4,8 2,5 4,9 7,10 4,10 v 2 l 3,1 5,12 4,5 3,9 2,4 3,3 4,11 v 2 l 3,1 7,15 6,12 9,19 12,22 25,50 8,14 2,5 8,15 13,28 6,14 1,5 h -7 l -21,-6 -38,-13 -72,-24 -38,-13 -37,-12 -11,-4 -16,-5 -3,-2 2,-5 13,-12 7,-8 12,-14 11,-13 14,-19 12,-18 7,-10 12,-19 6,-11 10,-17 8,-14 -1,-7 -4,-6 -5,-10 -10,-19 -5,-12 -4,5 -13,18 -11,15 -7,10 -8,11 -10,14 -12,16 -11,15 -7,11 -12,16 -11,16 -9,12 -20,28 -11,15 -13,18 -12,16 -8,11 -12,16 -8,11 v 1 l 47,8 49,8 28,5 49,10 91,16 37,6 42,7 26,5 7,1 3,5 v 2 h -8 l -52,-9 -62,-10 -91,-15 -39,-6 -43,-7 -67,-11 -27,-5 -4,-2 2,-4 8,-9 10,-14 9,-12 13,-18 14,-19 10,-14 12,-16 10,-14 9,-12 11,-15 13,-18 10,-14 12,-22 13,-19 13,-18 11,-15 12,-16 8,-12 h 2 l 2,-4 z"
     id="path7" />
  <path
     d="m 600,373 h 17 l -1,4 -9,11 -3,4 6,2 10,7 16,10 15,11 4,-1 12,-11 10,-10 3,-2 4,1 5,5 -1,5 -6,5 -7,8 -9,9 1,4 23,23 11,14 2,3 h 2 l 1,-3 h 2 l 2,-6 4,-7 h 2 v 46 l -1,3 -3,-1 -1,-4 -4,-4 v -4 h -6 l -2,4 -8,7 -11,14 -4,6 h -2 l -1,4 h -2 l -1,5 7,6 v 2 h 2 l 3,7 9,11 6,7 1,9 -1,3 -4,-1 -11,-13 -18,-21 -5,1 -7,8 h -2 l -2,4 -7,8 -12,12 -6,7 1,4 2,5 4,1 12,15 4,6 3,6 v 3 h 2 l 2,4 4,-2 18,-18 9,-11 4,-3 h 5 l 1,5 -14,18 -9,11 -7,9 -2,3 h -2 v 12 l -4,-1 -2,-2 -5,1 -12,12 -9,11 -18,18 v 2 l 2,1 v 2 l 4,2 2,4 -1,4 -7,7 -5,-5 -4,-7 -4,2 -12,12 -7,8 -3,1 -2,4 -5,5 -5,3 -8,6 h -2 v 2 l -8,2 h -12 v -4 l 14,-9 5,-3 2,-3 5,-1 2,-4 7,-8 7,-6 2,-3 h 2 l 1,-3 8,-7 2,-2 -1,-6 -8,-7 -6,-10 v -10 l 5,1 11,10 7,9 4,2 v -2 l 6,-4 15,-15 3,-5 13,-12 5,-5 v -5 h -2 l -9,-12 -8,-10 -2,-2 -2,-5 -8,-8 -3,1 -4,5 -5,5 -8,9 h -2 l -2,4 -3,4 -4,-1 -1,-1 v -14 l 9,-9 7,-9 6,-6 v -2 l -5,-3 -13,-13 -11,-9 -8,-9 -5,-13 -4,-9 1,-6 39,-39 1,-3 -14,-11 -17,-13 -15,-10 -5,-3 -5,1 -11,10 -11,9 -8,8 -7,-4 -4,-3 1,-4 13,-12 10,-9 6,-5 1,-2 -5,-1 -26,-12 -16,-7 -13,-5 v -3 l 11,-5 h 10 l 15,7 19,9 10,6 6,1 13,-12 14,-11 7,-6 1,-2 -11,-3 -9,-4 4,-4 4,-2 11,-1 7,3 h 6 z"
     fill="#fefcf6"
     id="path8" />
  <path
     d="m 1031,128 9,3 4,2 -1,4 -12,16 -11,15 -13,18 -70,95 -13,18 -11,15 -13,18 -12,16 -10,14 -12,16 -12,17 -9,12 -14,19 -10,14 -8,11 -28,38 -8,11 -14,19 -26,36 -12,16 -11,15 -7,10 -10,14 -10,13 -5,8 h -2 l -2,4 -9,14 -5,7 h -2 l -2,5 -10,12 -13,18 -5,5 -4,5 -1,2 -3,-1 2,-6 -5,3 -7,-3 1,-8 15,-15 8,-6 1,-3 4,-1 v -2 l 3,-2 2,-6 4,-4 8,4 v -12 l 3,-3 7,-9 11,-13 12,-16 v -4 h -5 l -5,4 -9,11 -13,13 h -2 l -2,4 -4,2 -2,-2 v -3 h -2 l -4,-9 -9,-12 -7,-9 -3,-1 -4,-6 1,-4 13,-14 5,-5 4,-5 h 2 l 2,-4 7,-8 5,-4 4,1 9,10 9,11 9,10 2,3 3,-1 v -7 l -4,-7 -10,-11 -4,-6 v -4 h -2 l -8,-8 2,-5 h 2 l 1,-4 h 2 l 2,-5 9,-11 8,-9 5,-4 1,-2 4,-1 2,1 2,7 3,1 1,4 2,1 1,-16 1,-2 v -42 l -1,-5 3,-6 2,-6 v -8 l 7,-3 8,-6 19,-14 5,-4 4,2 7,6 9,4 h 13 l 9,-3 8,-7 5,-11 v -15 l -1,-5 -4,-1 -4,-5 -5,-5 -4,-2 -19,-2 -2,-1 2,-13 v -10 l -6,-9 -7,-5 v -2 l -6,-1 v -2 l -15,2 -10,4 h -2 v 2 l -5,4 -4,13 v 11 l 1,3 5,3 2,4 -1,2 h -2 v 2 h -2 v 2 l -5,2 v 2 l -6,4 -9,8 -5,2 v 2 l -4,3 2,4 10,11 7,10 -1,5 -4,1 -3,4 -5,-1 -6,-8 -7,-10 -3,-1 v -2 h -2 v -2 l -9,-3 -15,-7 -9,-3 v -2 l -10,-3 v -2 l -9,-2 -5,-4 v -2 l 9,-1 10,-1 10,2 10,4 v 2 l 17,2 8,-7 10,-10 5,-4 1,-4 v -15 l 5,-16 6,-10 7,-7 12,-7 7,-2 h 13 l 10,3 10,6 7,6 7,10 4,9 1,9 12,6 10,8 8,10 4,8 2,6 v 12 l -4,12 -9,11 -10,9 -11,4 h -23 l -9,-3 -7,-6 -28,22 h -2 l -1,7 2,8 1,10 v 26 l -2,30 -3,21 -6,26 v 1 l 9,-11 8,-11 14,-19 13,-18 12,-16 14,-19 12,-16 12,-17 10,-13 13,-18 42,-57 33,-44 8,-11 14,-19 9,-12 8,-11 28,-38 13,-18 9,-12 12,-19 5,-10 8,-21 z"
     fill="#350e10"
     id="path9" />
  <path
     d="m 723,73 h 1 l -1,10 -12,36 -13,35 -7,19 -14,40 -15,37 -15,39 -13,30 -12,27 -4,8 -2,2 -28,2 -25,4 -16,3 -8,1 v 2 l -16,3 -12,5 -12,3 -4,-1 1,-5 10,-11 14,-19 15,-20 14,-19 12,-16 16,-21 14,-19 14,-18 12,-16 8,-11 11,-15 9,-13 h 2 l 2,-5 2,-3 h 2 l 2,-5 10,-13 10,-14 h 2 l 2,-5 10,-13 8,-11 21,-28 z"
     fill="#010000"
     id="path10" />
  <path
     d="m 728,724 1,2 9,3 19,6 35,12 72,24 38,13 40,13 15,5 8,2 h 6 l 1,-4 11,21 11,25 3,7 -1,2 -1,-1 -29,-5 -34,-6 -77,-13 -69,-12 -33,-7 -26,-5 v -1 h 6 v -13 l 4,-15 5,-3 h 3 l -14,-2 v -2 l -13,-1 -15,-4 -5,-4 -1,-2 v -6 l 9,-8 5,-4 h 2 l 1,-3 8,-7 z"
     fill="#8b5a31"
     id="path11" />
  <path
     d="m 406,451 h 23 l 13,2 16,5 9,4 14,7 19,14 15,14 9,10 13,18 10,18 10,21 3,10 4,33 1,13 v 12 l -2,21 -5,19 -6,16 h -2 l -2,6 -6,10 h -2 l -1,4 h -2 l -2,5 -11,12 -10,9 -5,2 v 2 l -11,6 -5,1 v 2 l -12,4 -18,2 h -15 l -26,-5 -16,-5 -13,-5 -3,-3 -5,-3 -11,-8 -8,-7 -14,-14 -7,-8 -9,-12 -7,-11 -4,-7 v -2 h -2 l -5,-12 -8,-24 v -4 h -2 l -3,-29 v -30 l 3,-18 6,-19 h 2 l 1,-7 10,-19 9,-12 11,-12 12,-10 13,-8 15,-5 9,-2 z m 4,21 -14,2 -13,4 -13,7 -14,12 -8,8 -10,15 -9,21 -5,19 -1,8 v 33 l 3,18 9,27 12,25 9,13 11,12 9,9 18,13 16,8 16,5 14,2 h 21 l 15,-3 13,-5 10,-6 13,-11 9,-11 9,-14 7,-15 5,-17 2,-11 v -36 l -2,-19 -5,-17 -11,-23 -10,-16 -10,-13 -18,-18 -17,-12 -15,-7 -17,-5 -14,-2 z"
     fill="#fefcf5"
     id="path12" />
  <path
     d="m 727,11 4,1 7,8 6,12 v 11 l -6,9 -12,17 -1,9 -2,-4 -5,5 -21,28 -8,11 -12,17 h -2 l -2,5 -9,11 -11,16 h -2 l -2,5 -2,3 h -2 l -2,5 -18,24 -8,11 -12,16 -10,13 -16,21 -14,19 -10,13 -13,18 -10,13 -14,19 -13,17 -9,10 -6,5 -15,6 -24,8 -9,4 h -4 v 2 l -11,6 -21,12 -15,9 -2,-1 19,-12 22,-13 5,-2 2,-4 11,-12 24,-32 8,-11 9,-12 9,-13 h 2 l 2,-5 14,-18 14,-19 10,-13 14,-19 33,-44 16,-21 9,-12 14,-19 15,-20 13,-17 14,-18 14,-19 10,-13 14,-19 9,-12 10,-13 z"
     fill="#a3774e"
     id="path13" />
  <path
     d="m 1085,81 6,1 1,6 -5,4 h -2 v 2 h -2 v 2 h -2 l -1,4 h -2 l -2,5 -3,4 h -2 l -1,4 h -2 l -1,4 -3,3 -6,10 h -2 l -1,4 -6,11 h -2 l -1,4 -3,5 -2,1 v 3 h -2 v 2 h -2 l -1,4 -4,2 -2,4 -1,3 h -2 l -1,4 -5,6 -1,4 h -3 l -2,5 h -2 l -1,4 h -2 l -2,4 -2,5 h -2 l -1,4 -5,4 -5,8 -3,3 -3,6 -4,4 -6,8 -6,10 h -2 v 2 h -2 l -4,8 h -2 l -1,3 -6,9 h -2 l -2,5 -3,5 h -2 l -2,6 h -2 v 3 h -2 l -2,5 h -2 l -2,5 -4,7 -4,5 -2,4 h -2 l -2,5 -5,7 -4,4 -6,9 -4,7 h -2 v 2 h -2 l -2,6 h -2 v 2 h -2 v 3 h -3 l -2,4 -5,8 h -2 l -2,5 -2,4 h -2 l -2,6 -3,3 -5,8 -5,5 v 2 h -2 l -2,6 -7,8 -1,2 h -2 l -1,5 -4,4 h -2 l -1,6 -3,2 v 2 h -2 v 3 h -2 l -2,4 -5,6 -3,5 h -2 l -2,5 -4,6 h -2 l -2,4 h -2 l -1,4 -2,3 h -2 l -2,5 -3,5 h -2 v 3 h -2 l -2,4 -9,14 h -2 l -2,5 -5,6 -1,3 h -2 l -2,4 -6,10 h -2 l -2,5 -1,2 h -2 l -2,5 -16,22 -10,12 -1,2 h -2 l -3,6 h -2 l -2,4 -6,9 h -2 v 2 h -2 l -1,4 -6,7 -4,8 -10,13 -8,10 -4,7 h -2 l -1,4 -4,4 -12,17 -6,7 -3,5 -3,4 h -2 l -2,5 h -2 l -1,5 -4,6 -5,5 -12,15 -1,3 h -2 v 3 h -2 l -1,4 -4,6 h -2 l -1,4 -8,11 -10,14 -10,13 -1,2 h -2 l -2,5 -6,9 h -2 l -2,4 -5,6 -4,8 h -2 l -2,4 -8,11 -7,11 -7,10 -4,5 -4,7 -2,3 h -2 l -2,4 -9,13 -4,5 h -2 l -1,5 h -2 l -2,5 -5,6 -1,3 h -2 l -2,5 -4,5 h -2 l -2,5 -7,9 -6,9 -11,15 -1,2 h -2 l -1,4 -3,3 -1,2 h -2 l -2,5 -1,2 h -2 l -2,4 -7,8 -3,5 -2,3 h -2 l -2,4 -3,5 -3,1 -1,3 h -2 l -2,4 -3,1 -2,6 h -2 l -2,4 -5,7 -1,3 h -2 l -2,6 -4,6 h -2 v 2 h -2 l -2,7 -8,12 -3,4 -3,6 h -2 v 3 h -2 l -1,6 -3,7 -2,12 9,2 5,-1 v 5 l -1,1 h -12 l -6,-3 -4,-6 -1,-11 4,-13 9,-13 14,-19 26,-36 7,-9 8,-11 11,-15 12,-17 7,-9 11,-16 10,-13 12,-17 11,-14 12,-17 12,-15 14,-19 10,-13 14,-20 10,-13 10,-14 10,-13 11,-14 12,-17 21,-28 h 2 l 2,-5 8,-11 8,-12 14,-19 9,-11 3,-5 3,-3 10,-14 5,-8 h 2 l 2,-5 18,-24 9,-13 8,-11 6,-8 14,-19 26,-36 14,-19 12,-16 10,-14 12,-16 20,-28 12,-16 8,-11 13,-18 14,-19 13,-18 14,-19 13,-18 14,-19 13,-18 28,-38 16,-21 12,-17 11,-15 28,-38 2,-4 -6,-2 v -2 l -6,-3 1,-6 6,-11 11,-12 5,-1 13,1 5,-4 8,-10 z"
     fill="#b78b5f"
     id="path14" />
  <path
     d="m 288,574 h 1 l 1,18 1,20 4,19 v 9 l -10,14 -14,18 -11,15 v 4 l 11,2 v 2 h 7 l 5,1 v 1 l -6,1 -59,2 -2,1 1,3 9,2 40,13 41,14 40,13 29,10 14,4 1,4 -2,3 h -2 l 1,3 -3,2 -10,-4 -15,-3 -8,-5 h -7 v -2 l -11,-1 -6,-3 -14,-4 -8,-2 -6,-2 v -2 h -7 l -9,-2 -7,-2 -6,-2 -5,-1 v -2 l -9,-1 -12,-4 -3,-2 -6,-1 -16,-5 -7,-3 -11,-3 -9,-3 -22,-5 -12,-3 -6,-3 -14,-3 -8,-2 -23,-6 v -2 l -4,-1 -10,-4 -13,-4 H 71 l -2,7 3,3 -1,1 6,3 1,2 h -6 l -5,-3 -4,-6 v -8 l 9,-17 18,4 58,10 43,7 27,2 8,-14 16,-21 30,-40 13,-19 2,-9 z"
     fill="#cba379"
     id="path15" />
  <path
     d="m 745,293 h 13 l 10,3 10,6 7,6 7,10 4,9 1,9 12,6 10,8 8,10 4,8 2,6 v 12 l -4,12 -9,11 -10,9 -11,4 h -23 l -9,-3 -7,-6 -28,22 h -2 l -1,7 2,8 1,10 v 26 l -2,30 -6,4 -3,-4 -3,-7 -1,-19 v -42 l -1,-5 3,-6 2,-6 v -8 l 7,-3 8,-6 19,-14 5,-4 4,2 7,6 9,4 h 13 l 9,-3 8,-7 5,-11 v -15 l -1,-5 -4,-1 -4,-5 -5,-5 -4,-2 -19,-2 -2,-1 2,-13 v -10 l -6,-9 -7,-5 v -2 l -6,-1 v -2 l -15,2 -10,4 h -2 v 2 l -5,4 -4,13 v 11 l 1,3 5,3 2,4 -1,2 h -2 v 2 h -2 v 2 l -5,2 v 2 l -6,4 -9,8 -5,2 v 2 l -4,3 2,4 10,11 7,10 -1,5 -4,1 -3,4 -5,-1 -6,-8 -7,-10 -3,-1 v -2 h -2 v -2 l -9,-3 -15,-7 -9,-3 v -2 l -10,-3 v -2 l -9,-2 -5,-4 v -2 l 9,-1 10,-1 10,2 10,4 v 2 l 17,2 8,-7 10,-10 5,-4 1,-4 v -15 l 5,-16 6,-10 7,-7 12,-7 z"
     fill="#140a0b"
     id="path16" />
  <path
     d="m 748,309 h 11 v 2 l 6,1 v 2 l 5,2 7,8 2,4 v 10 l -2,11 -1,2 21,2 5,3 5,5 4,5 3,1 2,5 v 15 l -6,12 -9,8 -8,2 h -13 l -9,-4 -8,-7 h -4 l -21,16 -9,6 -4,3 h -3 l -8,-15 -8,-11 -10,-11 2,-4 3,-1 v -2 l 11,-8 7,-6 h 2 v -2 l 5,-2 v -2 h 2 v -2 h 2 l -1,-5 -6,-4 -1,-3 v -11 l 4,-13 4,-4 h 2 v -2 z"
     fill="#fefdf6"
     id="path17" />
  <path
     d="m 742,733 h 9 l 29,10 46,15 41,14 35,12 40,13 15,5 13,4 2,4 -1,4 4,6 -6,4 -1,4 -9,1 h -14 l -25,-8 -42,-13 -29,-9 -32,-10 v -2 l -6,-2 -2,-3 -4,-1 v -2 l -4,-2 -1,-4 -5,-1 -6,-1 v 3 l -4,1 v 2 h -2 v -2 l -5,-1 3,-1 4,-2 -2,-4 -3,-1 -1,2 -8,-1 -1,2 v -3 l -9,-1 h -5 v -5 l -1,-4 1,-2 -6,-2 -1,-2 -5,-1 -3,-3 v -2 l -4,-2 h -8 l -3,-2 4,-1 11,-1 -2,-2 h 2 z"
     fill="#965d38"
     id="path18" />
  <path
     d="m 727,11 4,1 7,8 6,12 v 11 l -6,9 -9,12 -1,-2 -9,-3 -3,-2 -1,2 -5,-2 -2,4 h -2 l -2,5 -3,3 -3,1 -2,4 h -2 l -1,3 -4,4 h -2 l -2,5 -4,5 -1,3 -4,4 -2,4 h -2 l -1,3 -5,5 -5,8 -2,1 -3,5 -3,6 -4,4 h -2 l -1,3 -9,13 -9,12 -5,8 h -2 v 2 h -2 v 2 h -2 v 3 h -2 l -2,5 -5,8 h -2 v 2 h -2 l -2,5 -5,7 -5,5 -7,11 -3,3 -5,7 h -2 l -1,4 -6,7 -7,10 h -2 l -2,5 -4,6 h -2 l -2,5 -7,9 -3,3 -7,9 -3,4 -3,5 h -2 l -2,5 h -2 l -2,5 h -2 l -2,6 -3,1 -2,4 -3,5 h -2 l -2,5 -1,2 h -2 l -5,10 -3,3 -4,5 -6,9 -5,6 h -2 v 2 h -2 l -1,5 -3,1 -2,5 -3,4 h -2 l -2,5 -2,3 10,-2 -1,2 -15,5 -9,4 h -4 v 2 l -11,6 -21,12 -15,9 -2,-1 19,-12 22,-13 5,-2 2,-4 11,-12 24,-32 8,-11 9,-12 9,-13 h 2 l 2,-5 14,-18 14,-19 10,-13 14,-19 33,-44 16,-21 9,-12 14,-19 15,-20 13,-17 14,-18 14,-19 10,-13 14,-19 9,-12 10,-13 z"
     fill="#c8a077"
     id="path19" />
  <path
     d="m 816,503 4,2 7,9 4,8 2,5 4,9 7,10 4,10 v 2 l 3,1 5,12 4,5 3,9 2,4 3,3 4,11 v 2 l 3,1 7,15 6,12 -1,3 v -2 h -2 l -13,-26 -5,-8 -3,-7 -4,-5 -4,-10 -5,-10 -2,-6 -3,-1 -1,8 -1,2 h -2 v 3 h -2 l 2,-6 1,-7 -5,-8 -5,-10 -10,-19 -5,-12 -4,5 -13,18 -11,15 -7,10 -8,11 -10,14 -12,16 -11,15 -7,11 -12,16 -11,16 -9,12 -20,28 -11,15 -13,18 -12,16 -8,11 -12,16 -8,11 v 1 l 47,8 49,8 28,5 49,10 91,16 37,6 42,7 26,5 7,1 3,5 v 2 h -8 l -52,-9 -62,-10 -91,-15 -39,-6 -43,-7 -67,-11 -27,-5 -4,-2 2,-4 8,-9 10,-14 9,-12 13,-18 14,-19 10,-14 12,-16 10,-14 9,-12 11,-15 13,-18 10,-14 12,-22 13,-19 13,-18 11,-15 12,-16 8,-12 h 2 l 2,-4 z"
     fill="#050102"
     id="path20" />
  <path
     d="m 271,694 h 13 l 7,1 h 34 l 7,7 9,11 13,13 11,9 15,11 16,8 11,5 14,4 16,3 11,2 35,2 h 21 l 26,-3 26,-6 10,-3 12,-4 9,-6 -2,5 -8,10 -13,18 -2,3 -4,2 h -13 l -39,-6 -25,-4 -5,-2 -13,-2 -17,-1 -13,-2 -1,-1 -20,-3 v -2 l -8,-1 -9,-1 -13,-2 -8,-3 -30,-10 -40,-13 -38,-13 -43,-14 -6,-2 -3,-4 4,-1 59,-2 1,-1 -7,-1 z"
     fill="#d04f47"
     id="path21" />
  <path
     d="m 390,760 h 11 l 11,3 v 2 l 12,1 8,1 1,1 13,2 17,1 13,2 5,2 25,4 39,6 h 13 3 l -13,17 -8,11 -5,7 h -11 l -45,-7 -71,-12 -4,-2 13,1 h 2 l -1,-3 -2,-1 -12,-1 -1,-2 -13,-5 -3,-3 v -3 l -2,-1 5,-13 5,-2 1,-3 -6,-2 z"
     fill="#a3774e"
     id="path22" />
  <path
     d="m 1085,81 6,1 1,6 -5,4 h -2 v 2 h -2 v 2 h -2 l -1,4 h -2 l -2,5 -3,4 h -2 l -1,4 h -2 l -1,4 -3,3 -6,10 h -2 l -1,4 -6,11 h -2 l -1,4 -3,5 -2,1 v 3 h -2 v 2 h -2 l -1,4 -4,2 -2,4 -1,3 h -2 l -1,4 -5,6 -1,4 h -3 l -2,5 h -2 l -1,4 h -2 l -2,4 -2,5 h -2 l -1,4 -5,4 -5,8 -3,3 -3,6 -4,4 -6,8 -6,10 h -2 v 2 h -2 l -4,8 h -2 l -1,3 -6,9 h -2 l -2,5 -3,5 h -2 l -2,6 h -2 v 3 h -2 l -2,5 h -2 l -2,5 -4,7 -4,5 -2,4 h -2 l -2,5 -5,7 -4,4 -6,9 -4,7 h -2 v 2 h -2 l -2,6 h -2 v 2 h -2 v 3 h -3 l -2,4 -5,8 h -2 l -2,5 -2,4 h -2 l -2,6 -3,3 -5,8 -5,5 v 2 h -2 l -2,6 -7,8 -1,2 h -2 l -1,5 -4,4 h -2 l -1,6 -3,2 v 2 h -2 v 3 h -2 l -2,4 -5,6 -3,5 h -2 l -2,5 -4,6 h -2 l -2,4 h -2 l -1,4 -2,3 h -2 l -2,5 -3,5 h -2 v 3 h -2 l -2,4 -9,14 h -2 l -2,5 -5,6 -1,3 h -2 l -2,4 -6,10 h -2 l -2,5 -1,2 h -2 l -2,5 -5,6 v -3 l 5,-7 2,-4 2,-1 3,-6 h 2 l 2,-6 9,-12 8,-11 3,-6 4,-4 5,-10 2,-3 h 2 l 2,-4 6,-10 4,-4 4,-7 4,-4 5,-9 3,-1 v -5 l -4,2 v -3 l 12,-17 12,-16 11,-15 13,-18 14,-19 13,-18 14,-19 13,-18 14,-19 13,-18 28,-38 16,-21 12,-17 11,-15 28,-38 2,-4 -6,-2 v -2 l -6,-3 1,-6 6,-11 11,-12 5,-1 13,1 5,-4 8,-10 z"
     fill="#b3865b"
     id="path23" />
  <path
     d="m 1031,128 9,3 4,2 -1,4 -12,16 -11,15 -13,18 -70,95 -13,18 -11,15 -13,18 -12,16 -10,14 -12,16 -12,17 -9,12 -14,19 -10,14 -8,11 -28,38 -8,11 -14,19 -26,36 -12,16 -11,15 -7,10 -10,14 -10,13 -5,8 h -2 l -2,4 -9,14 -5,7 h -2 l -2,5 -10,12 -13,18 -5,5 -4,5 -1,2 -3,-1 2,-6 -5,3 -7,-3 1,-8 15,-15 8,-6 1,-3 4,-1 v -2 l 3,-2 2,-6 4,-4 8,4 v -12 l 3,-3 7,-9 8,-9 5,-5 5,-6 h 4 l 2,-4 2,-8 4,-4 2,-7 1,-2 -1,-7 4,-1 5,2 8,-10 6,-9 7,-9 15,-20 13,-18 28,-38 15,-20 12,-17 10,-13 13,-18 42,-57 33,-44 8,-11 14,-19 9,-12 8,-11 28,-38 13,-18 9,-12 12,-19 5,-10 8,-21 z"
     fill="#19090b"
     id="path24" />
  <path
     d="m 288,574 h 1 l 1,18 1,20 4,19 v 9 l -10,14 -14,18 -11,15 v 4 l 11,2 v 2 h 7 l 5,1 v 1 l -6,1 -59,2 -2,1 1,2 -5,-1 -16,-6 -10,-3 -16,-3 -18,-6 4,-1 h 2 l -14,-3 -3,-3 -9,-1 -1,-1 -14,-1 -1,-3 16,2 33,6 26,4 27,2 8,-14 16,-21 30,-40 13,-19 2,-9 z"
     fill="#a3764d"
     id="path25" />
  <path
     d="m 617,374 13,1 22,6 16,6 8,4 7,3 2,1 v 2 h 2 v 2 l 4,1 7,10 5,7 4,1 3,-1 1,-3 4,-1 2,-2 5,10 v 12 l -1,4 -3,3 -1,5 1,3 v 43 h -3 l 1,-32 h -2 l -2,5 -4,8 h -2 l -1,4 -3,-1 -10,-13 -11,-12 -16,-16 1,-4 14,-14 6,-7 2,-1 -1,-5 -4,-4 -4,1 -8,7 -12,12 -5,4 -5,-1 -13,-10 -22,-14 -10,-6 2,-4 10,-12 z"
     fill="#330d0f"
     id="path26" />
  <path
     d="m 948,337 h 2 l -2,10 -7,17 -10,22 -10,23 -7,18 -10,19 -18,37 -11,23 -3,3 h -2 l -6,-16 -8,-11 -5,-8 1,-6 21,-28 13,-18 7,-10 26,-36 24,-34 z"
     fill="#cd4c45"
     id="path27" />
  <path
     d="m 71,679 h 10 l 13,4 11,5 3,1 v 2 l 7,1 24,6 7,1 18,6 14,4 22,5 10,3 1,2 3,-1 10,4 15,5 5,1 10,4 12,3 5,2 7,2 16,4 6,1 v 2 l 6,1 15,4 9,3 5,2 10,2 v 2 l 7,-1 8,5 10,2 14,4 h 3 v -3 h 2 l 1,-6 7,1 -2,4 -5,2 -2,9 -2,4 1,4 3,1 v 2 l 9,3 5,2 2,1 10,1 3,3 v 1 l 6,1 -2,2 -28,-4 -14,-4 -1,-4 -6,-1 -27,-10 -5,-2 -4,-3 2,-1 -2,-4 -4,-2 v 2 h -10 l -2,-2 h -3 l -5,-2 v -4 l -7,1 -9,-2 -1,-3 h -3 -2 l -2,-3 -7,-1 v -2 h -6 l -5,-3 -10,-3 -4,-1 -6,-2 v -2 h -2 v -2 l -5,1 -5,-2 h -4 v -2 l -7,-1 -14,-5 -10,-4 -16,-5 -3,-1 v -2 l -12,-2 -4,-2 -15,-3 -5,-2 -2,-1 -12,-2 -4,-2 -9,-1 -12,-3 -5,-3 H 95 v 2 l -4,-1 v 2 l 2,1 h -8 l -12,-3 4,-2 -7,-4 1,-2 -3,-3 h 2 l -1,-4 z"
     fill="#b4885c"
     id="path28" />
  <path
     d="m 607,492 4,1 7,7 11,9 11,12 12,12 -6,7 -7,7 -8,10 -10,11 -7,8 -3,1 -4,-2 -7,-9 -12,-13 -12,-11 -5,-4 v -2 l -4,-1 2,-5 12,-13 8,-7 z"
     fill="#330d0f"
     id="path29" />
  <path
     d="m 543,442 6,1 15,10 16,12 14,11 5,5 -7,8 -33,33 -2,5 -4,-5 -8,-14 -8,-10 -9,-10 -5,-5 -12,-11 6,-7 12,-11 11,-9 z"
     fill="#833c2d"
     id="path30" />
  <path
     d="m 821,443 2,1 -1,5 -3,2 -4,8 -3,4 h -2 l -1,5 -4,5 -4,4 -5,8 -2,3 h -2 l -7,14 -4,5 -2,1 -1,4 -7,10 -10,13 -2,5 h -2 l -2,6 -3,2 -5,9 -2,2 -3,7 -8,11 -10,12 -1,2 h -2 l -3,6 h -2 l -2,4 -6,9 h -2 v 2 h -2 l -1,4 -6,7 -4,8 -10,13 -8,10 -4,7 h -2 l -1,4 -4,4 -12,17 -6,7 -3,5 -3,4 h -2 l -2,5 h -2 l -1,5 -4,6 -5,5 -12,15 -1,3 h -2 v 3 h -2 l -1,4 -4,6 h -2 l -1,4 -5,7 -5,3 -5,6 -3,2 v 2 l -5,5 h -2 v 2 l -4,3 -1,3 -4,1 -1,-4 12,-15 10,-13 9,-13 21,-28 h 2 l 2,-5 8,-11 8,-12 14,-19 9,-11 3,-5 3,-3 10,-14 5,-8 h 2 l 2,-5 18,-24 9,-13 8,-11 6,-8 14,-19 26,-36 14,-19 12,-16 10,-14 12,-16 5,-5 h 2 z"
     fill="#c59c72"
     id="path31" />
  <path
     d="m 621,586 4,4 1,4 4,1 12,15 4,6 3,6 v 3 h 2 l 2,4 4,-2 18,-18 9,-11 4,-3 h 5 l 1,5 -14,18 -9,11 -7,9 -2,3 h -2 v 12 l -4,-1 -2,-2 -5,1 -12,12 -9,11 -18,18 v 2 l 2,1 v 2 l 4,2 2,4 -1,4 -7,7 -5,-5 -4,-7 -4,2 -12,12 -7,8 -3,1 -2,4 -5,5 -5,3 -8,6 h -2 v 2 l -8,2 h -12 v -4 l 14,-9 5,-3 2,-3 5,-1 2,-4 7,-8 7,-6 2,-3 h 2 l 1,-3 8,-7 2,-2 -1,-6 -8,-7 -6,-10 v -10 l 5,1 11,10 7,9 4,2 v -2 l 6,-4 15,-15 3,-5 13,-12 5,-5 v -5 h -2 l -9,-12 -8,-10 -2,-4 6,4 2,5 h 2 v 2 l 3,1 6,-1 h 2 l -7,-9 -13,-16 -2,-5 -2,-2 z"
     fill="#cba079"
     id="path32" />
  <path
     d="m 466,405 h 6 v 2 l 10,3 17,7 25,12 8,3 -2,4 -10,9 -12,11 -6,5 -2,2 -15,-9 -19,-9 -19,-6 -20,-4 -13,-2 -2,-2 13,-8 27,-13 z"
     fill="#833b2d"
     id="path33" />
  <path
     d="m 589,401 6,1 19,10 18,12 13,8 -6,7 -7,7 -7,8 -9,9 -7,8 -4,-1 -13,-12 -20,-15 -18,-11 1,-3 8,-7 10,-9 11,-9 z"
     fill="#843d2e"
     id="path34" />
  <path
     d="m 655,443 4,2 17,17 8,7 11,10 8,-2 v 2 h 2 l -4,8 -5,-1 -15,14 -9,10 -12,12 -4,-2 -12,-14 -26,-26 8,-8 7,-8 19,-19 z"
     fill="#330c0f"
     id="path35" />
  <path
     d="m 1071,155 h 2 l -1,5 -4,2 -1,4 -2,1 -3,6 -10,14 -5,5 -2,5 -14,19 -10,14 -10,15 -12,16 -8,12 -14,19 -5,8 -5,5 -7,11 -4,19 -9,21 -12,24 -4,11 -5,12 -4,11 -3,5 -4,10 -8,15 -10,19 -5,13 -3,5 -1,4 h -2 l -1,7 -3,5 h -2 l -2,6 -6,9 v 6 l 6,9 4,10 5,8 4,9 10,19 8,16 14,29 5,11 19,39 4,9 -1,3 -21,-42 -10,-19 -7,-15 -22,-44 -4,-7 -5,-11 -3,-5 -5,-12 -4,-6 -4,-11 -5,-9 -2,-5 -8,-8 -9,-6 -2,-2 1,-4 10,-14 10,-13 12,-17 8,-11 12,-17 10,-13 11,-15 14,-19 13,-18 10,-14 10,-15 9,-12 5,-7 1,-3 h 2 l 2,-5 7,-8 1,-3 h 2 l 2,-5 10,-13 8,-11 9,-13 14,-19 20,-28 7,-10 8,-10 z m -123,182 -5,5 -13,18 -11,16 -13,18 -16,22 -12,17 -14,19 -10,13 -3,5 1,5 10,16 4,6 4,12 4,-2 10,-19 16,-34 10,-19 8,-18 5,-12 14,-33 6,-12 6,-16 1,-7 z"
     fill="#1d090b"
     id="path36" />
  <path
     d="m 716,492 h 2 l 1,17 5,10 5,-2 v 9 l -6,30 -3,11 -4,6 -5,6 -5,-2 h -3 l -2,5 h -1 v -12 h -2 l -2,-5 -4,-2 -9,-10 -4,-6 v -4 h -2 l -8,-8 2,-5 h 2 l 1,-4 h 2 l 2,-5 9,-11 8,-9 5,-4 1,-2 4,-1 2,1 2,7 3,1 1,4 2,1 z"
     fill="#330d0f"
     id="path37" />
  <path
     d="m 695,754 h 2 l 1,7 4,2 8,3 14,3 7,1 v 2 h 10 l 6,1 -4,2 -5,2 -4,15 -1,13 h -12 l -91,-15 -11,-2 v -3 l 2,-2 1,2 13,3 15,-8 24,-14 11,-6 z"
     fill="#a3764e"
     id="path38" />
  <path
     d="m 816,503 4,2 7,9 4,8 2,5 4,9 7,10 4,10 v 2 l 3,1 5,12 4,5 3,9 2,4 3,3 4,11 v 2 l 3,1 7,15 6,12 -1,3 v -2 h -2 l -13,-26 -5,-8 -3,-7 -4,-5 -4,-10 -5,-10 -2,-6 -3,-1 -1,8 -1,2 h -2 v 3 h -2 l 2,-6 1,-7 -5,-8 -5,-10 -10,-19 -5,-12 -4,5 -13,18 -11,15 -7,10 -8,11 -10,14 -12,16 -11,15 -7,11 -12,16 -11,16 -9,12 -20,28 -11,15 -13,18 -12,16 -8,11 -12,16 -8,11 v 1 l 16,3 v 1 l -5,1 -15,1 -1,4 -8,-1 v -4 l 9,-10 10,-14 9,-12 13,-18 14,-19 10,-14 12,-16 10,-14 9,-12 11,-15 13,-18 10,-14 12,-22 13,-19 13,-18 11,-15 12,-16 8,-12 h 2 l 2,-4 z"
     fill="#15090a"
     id="path39" />
  <path
     d="m 185,728 4,2 2,2 -5,10 h -2 v 2 l -4,4 v 3 h -2 v 3 l -4,4 -3,6 h -2 l -2,5 -5,5 h -2 l -2,5 -4,7 h -2 l -2,4 h -2 l -1,5 -4,2 -1,4 -2,3 h -2 v 2 h -2 l -2,5 -6,5 -2,5 -4,6 -4,4 h -2 l -1,5 -3,3 -1,3 -5,5 h -2 l -2,6 -4,6 h -2 l -2,4 -4,6 h -2 l -1,4 h -2 l -2,4 -6,8 h -2 l -1,5 h -2 v 3 h -2 v 2 h -2 l -1,4 -4,2 v 2 l -3,3 -2,3 h -2 l -1,4 -5,5 h -2 l -1,5 h -2 l -2,6 -3,3 h -2 v 2 h -2 l -1,3 -4,1 -2,4 h -2 l -1,5 -5,7 -4,4 h -2 l -2,7 -2,1 -6,16 H 3 l -1,-2 1,-13 7,-12 11,-13 10,-14 14,-18 9,-12 8,-10 12,-16 11,-14 14,-19 10,-13 16,-21 13,-17 11,-14 32,-42 z"
     fill="#c59b71"
     id="path40" />
  <path
     d="m 726,23 h 7 l 5,3 h 3 l 3,6 v 11 l -6,9 -9,12 -1,-2 -9,-3 -3,-2 -1,2 -5,-2 -2,4 h -2 l -2,5 -3,3 -3,1 -2,4 h -2 l -1,3 -4,4 h -2 l -2,5 -4,5 -1,3 -4,4 -2,4 h -2 l -1,3 -5,5 -5,8 -2,1 -3,5 -3,6 -4,4 h -2 l -1,3 -9,13 -9,12 -5,8 h -2 v 2 h -2 v 2 h -2 v 3 h -2 l -2,5 -5,8 h -2 v 2 h -2 l -2,5 -5,7 -5,5 -7,11 -3,3 -5,7 h -2 l -1,4 -6,7 -7,10 h -2 l -2,5 -4,6 h -2 l -2,5 -7,9 -3,3 -7,9 -3,4 -3,5 h -2 l -2,5 h -2 l -2,5 h -2 l -2,6 -3,1 -2,4 -3,5 h -2 l -2,5 -1,2 h -2 l -5,10 -3,3 -4,5 -6,9 -5,6 h -2 v 2 h -2 l -1,5 -3,1 -2,5 -3,4 h -2 l -2,5 -2,3 10,-2 -1,2 -11,3 h -5 l 2,-4 2,-1 5,-9 9,-12 5,-6 5,-8 4,-4 10,-14 4,-5 7,-10 2,-1 3,-5 4,-6 h 2 l 2,-4 6,-9 5,-3 2,-3 2,-6 9,-12 h 2 l 2,-5 6,-8 h 2 l 2,-4 4,-1 v -3 h 2 l 1,-4 h 2 l 2,-5 1,-3 5,-5 1,-3 h 3 v -3 h 2 l 2,-6 3,-1 v -2 h 2 l 1,-4 h 2 l 2,-5 7,-9 3,-5 h 2 l 2,-4 1,-3 h 2 v -2 h 2 v -2 h 2 l 2,-5 4,-8 8,-11 h 3 l 1,-4 h 2 l 2,-4 8,-12 h 2 l 2,-6 4,-4 1,-3 3,-3 h 2 l 2,-6 4,-4 2,-4 h 2 l 1,-5 6,-9 4,-4 h 3 v -2 h 2 l 2,-4 3,-5 1,-5 6,-6 3,-6 5,-5 2,-4 3,-2 2,-5 3,-1 2,-5 5,-5 2,-5 5,-5 z"
     fill="#b5895d"
     id="path41" />
  <path
     d="m 925,640 2,3 v 3 l 3,1 3,9 h 2 l 4,7 1,6 2,1 3,5 3,3 7,12 3,10 4,7 3,1 46,92 10,19 14,28 10,16 4,3 22,5 28,5 13,2 4,2 2,8 v 11 l -1,8 -7,6 -12,-1 -3,-3 3,-2 8,-2 3,-3 2,-9 -2,-3 v -3 h -2 v -3 l -5,-1 -2,-1 -7,-2 -7,-1 -14,-1 -21,-6 -8,-3 -6,-4 -2,-5 h -2 v -2 h -2 v -2 h -2 l -7,-14 -3,-4 v -4 h -2 l -2,-8 h -2 l -2,-5 v -3 h -2 l -15,-30 -8,-15 -8,-17 -3,-6 -8,-15 -8,-16 -7,-15 -1,-5 -2,-1 -7,-15 -4,-9 -3,-6 v -3 h -2 l -3,-7 -4,-8 -2,-6 z"
     fill="#b3875b"
     id="path42" />
  <path
     d="m 726,307 h 5 l -1,6 -5,7 -3,12 v 11 l 2,5 5,3 2,4 -1,2 h -2 v 2 h -2 v 2 l -5,2 v 2 l -6,4 -9,8 -5,2 v 2 l -4,3 2,4 10,11 7,10 -1,5 -4,1 -3,4 -5,-1 -6,-8 -7,-10 -3,-1 v -2 h -2 v -2 l -9,-3 -15,-7 -9,-3 v -2 l -10,-3 v -2 l -9,-2 -5,-4 v -2 l 9,-1 10,-1 10,2 10,4 v 2 l 17,2 8,-7 10,-10 7,-3 1,-2 1,-19 3,-12 7,-12 z"
     fill="#1f0a0c"
     id="path43" />
  <path
     d="m 466,547 5,1 11,16 10,13 32,47 6,10 1,8 -2,2 h -5 l -7,-9 -10,-16 -12,-17 -14,-20 -13,-18 h -2 l -10,18 -7,10 -11,16 -9,12 -12,19 -4,4 -7,1 -2,-2 1,-5 12,-20 7,-10 36,-53 z"
     fill="#fffef8"
     id="path44" />
  <path
     d="m 1088,77 2,4 3,1 7,8 2,4 h 2 l 5,6 v 6 l -24,32 -8,12 h -2 l -2,5 h -2 l -2,4 -7,10 h -2 l -2,5 -8,11 -14,20 -14,19 -32,44 -1,2 h -2 l -1,4 -8,10 -1,2 h -2 l -1,4 -12,17 -7,10 -11,16 -11,15 -28,38 -12,16 -16,22 -11,16 -18,24 -8,11 1,4 11,8 8,8 4,10 5,10 3,8 3,3 5,14 3,3 5,13 3,4 22,44 7,15 8,16 5,9 31,62 v 2 l -3,-1 -5,-9 -3,-9 -8,-15 -9,-19 -8,-14 -6,-12 -6,-10 -8,-15 -8,-16 v -3 h -2 l -3,-8 -9,-16 -4,-7 -3,-7 -5,-10 -2,-8 -5,-9 -3,-9 -5,-8 v -7 h -3 l -4,-6 -6,-5 -6,-3 -3,-2 1,-8 12,-16 7,-10 1,-2 h 2 l 1,-4 h 2 l 2,-5 h 2 l 2,-5 11,-15 4,-5 1,-3 h 2 v -3 h 2 l 2,-4 4,-6 16,-22 4,-6 h 2 l 2,-5 2,-3 h 2 l 2,-5 2,-3 h 2 l 2,-5 8,-11 6,-10 4,-4 3,-6 3,-7 8,-10 1,-3 h 2 l 2,-5 6,-9 10,-14 h 2 l 2,-5 9,-12 2,-3 h 2 l 1,-4 10,-13 2,-4 h 2 l 1,-4 7,-8 10,-15 7,-9 1,-3 3,-3 1,-2 h 2 v -3 h 2 v -2 h 2 l 2,-5 4,-2 1,-5 1,-2 h 2 v -2 h 2 v -2 h 2 l 1,-4 h 3 l 2,-4 9,-12 4,-6 h 2 l 1,-4 10,-12 7,-10 1,-5 -5,-5 -10,-13 -6,-1 h -3 z"
     fill="#8c5632"
     id="path45" />
  <path
     d="m 95,695 h 12 l 5,3 11,3 12,2 4,2 9,1 7,3 15,3 4,2 10,2 2,1 v 2 l 11,2 12,4 13,6 14,4 9,3 h 5 v 2 h 2 v 2 l 10,2 11,3 5,3 5,1 v 2 h 7 l 2,4 h 2 l 1,-2 3,2 v 3 l 16,1 1,4 4,1 h 3 l 6,2 6,1 v -2 l 5,2 2,4 v 2 l 1,2 -11,-3 -78,-24 -33,-11 -2,5 -14,19 -16,21 -18,24 -2,-1 1,-3 h 2 l 2,-5 4,-6 h 2 l 2,-5 15,-20 5,-7 h 2 l 2,-4 9,-14 1,-3 -5,-3 -20,-7 -6,-1 v -2 l -12,-2 -29,-9 -34,-10 -20,-5 2,-4 3,-1 z"
     fill="#a1754c"
     id="path46" />
  <path
     d="m 617,374 13,1 22,6 16,6 11,6 8,7 -1,2 -3,-3 -4,1 -8,7 -12,12 -5,4 -5,-1 -13,-10 -22,-14 -10,-6 2,-4 10,-12 z"
     fill="#843d2e"
     id="path47" />
  <path
     d="m 271,694 h 13 l 7,1 h 34 l 7,7 9,11 13,13 11,9 15,11 16,8 11,5 14,4 16,3 11,2 35,2 h 21 l 26,-3 26,-6 10,-3 12,-4 9,-6 -2,5 -8,10 -13,18 -2,3 -4,2 h -13 l -39,-6 -25,-4 -5,-2 -13,-2 -17,-1 -13,-2 -1,-1 -20,-3 v -2 l -8,-1 -7,-2 v -2 l -5,-1 -20,-12 v -2 l -5,-2 -15,-13 -17,-17 -7,-9 -3,-2 v -2 h -11 l -7,1 h -11 l -13,-2 -12,-2 z"
     fill="#d14d46"
     id="path48" />
  <path
     d="m 760,396 4,2 7,6 9,4 4,2 v 6 l -2,2 h -13 l -7,-6 h -3 l -4,5 -10,8 -13,10 h -2 l -1,7 2,8 1,10 v 26 l -2,30 -6,4 -3,-4 -3,-7 -1,-19 v -42 l -1,-5 3,-6 2,-6 v -8 l 7,-3 8,-6 19,-14 z"
     fill="#1f0a0c"
     id="path49" />
  <path
     d="m 741,538 3,3 h 3 l -13,18 -9,12 -11,15 -7,10 -10,14 -10,13 -5,8 h -2 l -2,4 -9,14 -5,7 h -2 l -2,5 -10,12 -13,18 -5,5 -4,5 -1,2 -3,-1 2,-6 -5,3 -7,-3 1,-8 15,-15 8,-6 1,-3 4,-1 v -2 l 3,-2 2,-6 4,-4 8,4 v -12 l 3,-3 7,-9 8,-9 5,-5 5,-6 h 4 l 2,-4 2,-8 4,-4 2,-7 1,-2 -1,-7 4,-1 5,2 8,-10 6,-9 7,-9 z"
     fill="#220b0c"
     id="path50" />
  <path
     d="m 552,382 h 7 v 2 l 19,7 -2,4 -13,11 -10,8 -10,9 -6,-1 -18,-10 -22,-10 -4,-2 -8,-1 v -1 l 9,-2 13,-4 40,-9 z"
     fill="#843e2e"
     id="path51" />
  <path
     d="m 296,641 4,5 4,12 8,16 10,15 -1,4 -12,1 h -38 l -11,-2 -2,-2 4,-7 16,-21 10,-13 4,-6 h 4 z"
     fill="#010000"
     id="path52" />
  <path
     d="m 906,325 3,2 -1,4 -4,6 h -2 l -2,5 h -2 l -2,9 -3,3 h -2 l -2,5 -2,2 -2,5 -3,7 -2,3 h -2 l -2,5 -2,4 h -2 l -2,6 -3,3 -5,8 -5,5 v 2 h -2 l -2,6 -7,8 -1,2 h -2 l -1,5 -4,4 h -2 l -1,6 -3,2 v 2 h -2 v 3 h -2 l -2,4 -5,6 -3,5 h -2 l -2,5 -4,6 h -2 l -2,4 h -2 l -1,4 -2,3 h -2 l -2,5 -3,5 h -2 v 3 h -2 l -2,4 -9,14 h -2 l -2,5 -5,6 -1,3 h -2 l -2,4 -6,10 h -2 l -2,5 -1,2 h -2 l -2,5 -5,6 v -3 l 5,-7 2,-4 2,-1 3,-6 h 2 l 2,-6 9,-12 8,-11 3,-6 4,-4 5,-10 2,-3 h 2 l 2,-4 6,-10 4,-4 4,-7 4,-4 5,-9 3,-1 v -5 l -4,2 v -3 l 12,-17 12,-16 11,-15 13,-18 14,-19 13,-18 9,-12 z"
     fill="#ba8e61"
     id="path53" />
  <path
     d="m 310,517 3,2 -4,8 h -2 l -2,12 h -2 v 13 h -2 l 1,37 4,31 1,5 h 2 l 2,10 1,3 2,1 2,12 5,10 1,5 -5,-1 -4,-6 -3,-1 -5,-10 -4,-1 -1,3 -3,-7 -4,-1 1,-2 v -9 l -4,-19 -1,-28 -1,-11 3,-24 3,-11 2,-1 -1,5 2,-1 3,-12 5,-10 z"
     fill="#1e0a0c"
     id="path54" />
  <path
     d="m 655,443 4,2 17,17 8,7 11,10 8,-2 v 2 h 2 l -4,8 -5,-1 -5,4 2,-4 -1,-6 -1,-3 -4,-2 -3,-3 -6,2 -4,3 -24,6 -9,2 -12,2 -3,1 -8,-7 6,-7 5,-5 9,-10 14,-14 z"
     fill="#843e2f"
     id="path55" />
  <path
     d="m 1085,81 6,1 1,6 -5,4 h -2 v 2 h -2 v 2 h -2 l -1,4 h -2 l -2,5 -3,4 h -2 l -1,4 h -2 l -1,4 -3,3 -6,10 h -2 l -1,4 -4,1 -2,5 -1,2 h -2 l -1,4 -5,8 h -2 l -1,4 h -2 v 2 h -2 l -1,3 -5,4 h -2 v -2 h 2 l 1,-6 9,-13 4,-5 3,-8 -6,-2 v -2 l -6,-3 1,-6 6,-11 11,-12 5,-1 13,1 5,-4 8,-10 z"
     fill="#be9366"
     id="path56" />
  <path
     d="m 71,679 h 10 l 13,4 11,5 3,1 v 2 l 7,1 24,6 7,1 18,6 14,4 22,5 10,3 1,2 3,-1 10,4 15,5 5,1 10,4 12,3 5,2 7,2 16,4 6,1 v 2 l 6,1 15,4 9,3 5,2 10,2 v 2 l 7,-1 8,5 10,2 14,4 2,3 -1,3 h -3 v 2 h -4 v -2 h -6 l -3,-2 v -2 h -5 l -1,-4 -6,1 v -2 l -8,-1 -6,-3 -7,-1 v -2 l -3,1 v -2 h -7 l -5,-3 -10,-2 v -2 l -13,-2 -7,-3 -8,-3 -8,-1 -8,-3 -9,-2 -17,-6 -8,-2 v -2 h -7 l -7,-3 v -2 l -7,-1 -10,-4 -13,-3 -9,-2 -2,-1 -9,-2 -17,-5 -13,-3 -3,-2 -12,-2 -16,-5 -6,-1 -11,-4 -8,-1 -1,5 3,5 -1,1 h -7 l -4,-2 4,-1 -7,-4 1,-2 -3,-3 h 2 l -1,-4 z"
     fill="#bf9466"
     id="path57" />
  <path
     d="m 409,547 h 8 l 1,4 -10,17 -16,23 -10,15 -16,23 -10,13 -3,3 -4,-1 -1,-1 v -7 l 14,-23 17,-25 16,-23 9,-13 z"
     fill="#fffef8"
     id="path58" />
  <path
     d="m 607,492 4,1 7,7 11,9 2,3 h -2 v 3 h -2 l -2,4 -7,3 -6,1 -17,6 -5,3 h -3 l -1,2 -2,-1 v 2 l -9,6 -4,-3 v -2 l -4,-1 2,-5 12,-13 8,-7 z"
     fill="#843e2f"
     id="path59" />
  <path
     d="m 812,367 h 2 l 2,5 v 15 l -6,12 -9,8 -8,2 h -13 l -9,-4 -8,-7 h -4 l -21,16 -9,6 h -3 l 5,-6 -5,-2 v -3 l 10,-8 10,-7 11,-9 5,2 9,4 11,3 h 9 l 9,-3 8,-5 4,-5 1,-8 z"
     fill="#c8a076"
     id="path60" />
  <path
     d="m 860,381 h 2 l -1,4 -16,22 -14,19 -10,14 -8,11 -28,38 -8,11 -14,19 -13,18 -2,3 -5,2 -1,-5 10,-14 13,-18 12,-16 14,-19 12,-16 12,-17 10,-13 13,-18 14,-19 3,-4 z"
     fill="#16090a"
     id="path61" />
  <path
     d="m 287,591 h 1 l -1,10 h -2 v 3 l -2,2 -2,6 -4,7 -2,6 -3,1 -2,5 -6,10 -4,2 -2,4 -1,3 h -2 l -1,4 h -2 l -1,4 -5,5 h -2 l -1,5 -12,13 -6,7 -7,1 3,-10 8,-12 32,-42 13,-18 10,-14 z m -13,28 1,2 1,-2 z"
     fill="#c9a076"
     id="path62" />
  <path
     d="m 314,677 4,2 4,-1 6,1 4,8 8,7 10,10 9,11 5,4 v 2 l 4,2 6,5 v 2 h 2 l 2,3 6,2 2,1 v 2 l 5,2 11,6 11,5 v 2 h -2 v 2 l -11,-2 -9,-4 -5,-2 v -2 l -5,-2 -5,-3 -8,-6 v -2 l -4,-1 -3,-3 v -2 l -5,-2 -7,-6 -4,-4 v -2 l -5,-2 -2,-5 -3,-1 v -2 h -2 l -2,-4 -4,-3 -21,1 h -15 l -7,-1 v -1 l 25,-1 12,-1 -1,-4 -6,-9 z"
     fill="#1e0a0c"
     id="path63" />
  <path
     d="m 689,404 5,4 8,13 3,6 1,6 -2,5 -9,3 -4,5 -5,3 -5,1 -16,-16 1,-4 14,-14 6,-7 2,-1 z"
     fill="#833c2d"
     id="path64" />
  <path
     d="m 576,832 3,1 -8,9 -12,16 -28,38 -11,15 -10,14 -18,24 -14,19 -8,11 -1,2 h -2 l -2,4 -8,12 h -2 v 3 h -2 l -2,5 -8,11 -10,14 -8,11 -14,19 -6,8 h -2 l -2,5 -9,12 -10,14 -9,12 -5,5 1,-4 4,-7 h 2 l 2,-5 13,-18 1,-2 h 2 l 2,-4 7,-9 3,-5 12,-15 16,-22 9,-13 5,-9 3,-3 2,-6 6,-9 h 2 l 2,-5 5,-7 2,-1 3,-6 2,-1 1,-3 4,-4 3,-1 3,-5 h 2 l 1,-5 5,-5 11,-14 12,-17 11,-15 14,-19 10,-14 12,-16 11,-13 z"
     fill="#884d30"
     id="path65" />
  <path
     d="m 954,328 h 1 l -1,11 -7,17 -12,24 -4,11 -5,12 -4,11 -3,5 -4,10 -8,15 -10,19 -5,13 -3,5 -1,4 h -2 l -1,7 -3,5 h -2 l -2,6 -6,9 v 6 l 6,9 4,10 5,8 4,9 10,19 8,16 14,29 5,11 19,39 4,9 -1,3 -21,-42 -10,-19 -7,-15 -22,-44 -4,-7 -5,-11 -3,-5 -5,-12 -4,-6 -4,-11 v -3 l 2,1 v -5 l 2,2 1,6 5,-5 8,-16 16,-34 10,-19 8,-18 5,-12 14,-33 6,-12 6,-16 2,-7 -4,1 -2,4 -6,8 -1,-2 5,-8 9,-10 z"
     fill="#1f090b"
     id="path66" />
  <path
     d="m 905,389 2,1 -3,6 h -2 l -1,7 -9,11 -7,11 -24,32 -9,13 1,5 10,16 4,6 v 9 l -4,-1 -5,-11 -8,-8 -9,-6 -2,-2 1,-4 10,-14 10,-13 12,-17 8,-11 12,-17 3,-4 h 3 l 2,-4 z"
     fill="#1f090b"
     id="path67" />
  <path
     d="m 490,884 2,1 -9,13 -21,28 -10,14 -10,13 -10,15 -7,9 -12,17 -10,13 -6,8 -26,36 -2,1 2,-6 1,-2 -11,-2 -10,-4 -1,-2 10,3 5,2 6,1 v -2 l 5,-5 10,-15 6,-10 -1,-3 -31,-10 -17,-6 -22,-8 -13,-5 4,-1 20,7 22,8 42,14 2,-6 9,-11 h 2 v 3 l 4,-6 4,-4 3,-5 8,-8 2,-6 5,-5 11,-15 h 2 l 2,-5 9,-13 8,-11 4,-4 5,-9 7,-8 4,-6 z"
     fill="#19090b"
     id="path68" />
  <path
     d="m 718,598 h 2 l 1,3 -2,1 1,2 -5,2 1,3 h -3 l -1,5 h -2 v 3 l -2,2 -1,2 h -2 l -1,4 h -2 l -1,4 -3,4 h -2 l -1,4 -3,1 -2,5 -10,13 -2,5 -5,5 -8,10 -12,17 -9,12 -6,9 -6,8 -1,3 -2,1 -2,3 -1,-1 -2,4 -4,-2 1,-5 6,-7 2,-1 3,-5 2,-5 3,-3 1,-2 h 2 l 2,-4 8,-11 10,-13 6,-9 h 2 l 1,-4 h 2 l 2,-5 7,-10 h 2 l 2,-5 9,-11 4,-8 6,-7 1,-3 h 2 v -2 h 2 v -2 h 3 l 2,-4 z"
     fill="#86442f"
     id="path69" />
  <path
     d="m 652,649 4,2 4,3 -3,11 -7,8 -13,18 -5,5 -4,5 -1,2 -3,-1 2,-6 -5,3 -7,-3 1,-8 15,-15 8,-6 1,-3 4,-1 v -2 l 3,-2 2,-6 z"
     fill="#1e0a0c"
     id="path70" />
  <path
     d="m 760,396 4,2 7,6 9,4 4,2 v 6 l -2,2 h -13 l -7,-6 h -3 l -4,5 -20,16 -6,-1 -3,-7 2,-5 8,-6 19,-14 z"
     fill="#13090a"
     id="path71" />
  <path
     d="m 185,728 4,2 2,2 -5,10 h -2 v 2 l -4,4 v 3 h -2 v 3 l -4,4 -3,6 h -2 l -2,5 -5,5 h -2 l -2,5 -4,7 h -2 l -2,4 h -2 l -1,5 -4,2 -1,4 -2,3 h -2 v 2 h -2 l -2,5 -6,5 -2,5 -4,6 -4,4 h -2 l -1,5 -3,3 -1,3 -5,5 h -2 l -2,6 -4,6 h -2 l -2,4 -4,6 h -2 l -1,4 h -2 l -2,4 -6,8 h -2 l -1,5 h -2 v 3 h -2 v 2 h -2 l -1,4 -4,2 v 2 l -3,3 -2,3 h -2 l -1,4 -5,5 h -2 l -1,5 h -2 l -2,6 -3,3 h -2 v 2 h -2 l -1,3 -1,-3 3,-1 1,-5 h 2 l 2,-5 3,-3 3,-5 4,-6 h 2 l 1,-3 2,-1 2,-4 2,-2 4,-7 h 2 v -2 l 5,-5 7,-10 1,-4 3,-2 h 3 l 1,-3 h 2 l 2,-5 3,-5 h 2 v -3 h 2 l 1,-4 h 2 l 2,-4 4,-7 6,-5 2,-5 2,-1 1,-3 h 2 l 1,-4 h 2 v -2 h 2 l 2,-5 2,-1 1,-3 h 2 l 2,-5 4,-4 1,-3 5,-5 4,-7 5,-5 6,-8 h 2 l 1,-6 5,-2 2,-4 1,-3 h 3 l 1,-5 3,-3 3,-5 2,-5 h 2 l 1,-8 -2,-2 z"
     fill="#b5895d"
     id="path72" />
  <path
     d="m 726,307 h 5 l -1,6 -5,7 -3,12 v 11 l 2,5 5,3 2,4 -1,2 h -2 v 2 l -5,1 -1,2 h -5 l -4,-1 -7,9 -7,3 -4,-1 6,-11 3,-4 5,-2 1,-2 1,-19 3,-12 7,-12 z"
     fill="#010000"
     id="path73" />
  <path
     d="m 799,783 6,1 34,11 84,26 57,18 11,3 1,5 -10,-2 -55,-17 -36,-12 -37,-12 -38,-13 -16,-4 z"
     fill="#150809"
     id="path74" />
  <path
     d="m 816,503 4,2 7,9 4,8 2,5 4,9 7,10 4,10 v 2 l 3,1 5,12 4,5 3,9 2,4 3,3 4,11 v 2 l 3,1 7,15 6,12 -1,3 v -2 h -2 l -13,-26 -5,-8 -3,-7 -4,-5 -4,-10 -5,-10 -2,-6 -3,-1 -1,8 -1,2 h -2 v 3 h -2 l 2,-6 1,-7 -5,-8 -5,-10 -10,-19 -5,-12 h -2 v -3 l -3,1 -6,7 -3,3 -6,8 -12,17 -8,10 -1,-2 11,-15 9,-12 8,-12 h 2 l 2,-4 z"
     fill="#260a0c"
     id="path75" />
  <path
     d="m 817,499 8,5 1,3 3,2 1,5 2,3 v 4 l 4,2 5,8 4,10 3,4 3,8 5,6 7,14 2,7 5,7 3,11 3,3 4,9 2,5 7,15 5,9 4,10 4,8 -1,4 -9,-17 -9,-20 -4,-7 -5,-11 -3,-3 -4,-11 v -2 l -3,-1 -4,-8 -2,-6 -4,-7 -4,-9 -3,-3 -5,-12 -6,-8 -4,-9 -7,-14 -7,-9 -4,2 -7,8 h -2 l -2,5 -6,8 -1,-2 4,-6 2,-4 h 2 l 2,-5 5,-5 4,-5 z"
     fill="#8a5031"
     id="path76" />
  <path
     d="m 271,694 h 13 l 7,1 h 34 l 7,7 9,11 13,13 11,9 15,11 16,8 11,5 14,4 16,3 11,2 35,2 h 21 l 26,-3 26,-6 10,-3 6,-2 4,1 -9,4 -29,7 -15,3 -10,1 h -50 l -17,-1 -13,-2 -1,-1 -20,-3 v -2 l -8,-1 -7,-2 v -2 l -5,-1 -20,-12 v -2 l -5,-2 -15,-13 -17,-17 -7,-9 -3,-2 v -2 h -11 l -7,1 h -11 l -13,-2 -12,-2 z"
     fill="#823a2c"
     id="path77" />
  <path
     d="m 814,508 3,1 -2,6 -11,16 -12,16 -9,13 -8,11 -10,14 -11,15 -5,-1 2,-7 6,-9 h 2 l 2,-5 7,-10 4,-4 3,-6 10,-13 12,-17 6,-8 7,-8 h 2 z"
     fill="#070202"
     id="path78" />
  <path
     d="m 608,724 1,2 -2,3 -2,6 -13,17 -8,12 -13,16 -13,18 -18,24 -5,-2 2,-4 14,-19 9,-12 13,-18 8,-10 8,-11 5,-9 8,-10 z"
     fill="#14090a"
     id="path79" />
  <path
     d="m 590,694 2,1 -11,11 -1,5 -1,2 -3,1 1,4 2,1 v -3 h 2 v -2 h 2 l 1,4 -5,5 -4,2 -2,4 -5,5 -5,3 -8,6 h -2 v 2 l -8,2 h -12 v -4 l 14,-9 5,-3 2,-3 5,-1 2,-4 7,-8 7,-6 2,-3 h 2 l 1,-3 8,-7 z"
     fill="#c89874"
     id="path80" />
  <path
     d="m 292,555 1,4 -2,15 3,34 6,18 3,6 5,2 -1,-9 h 2 l 2,10 1,3 2,1 2,12 5,10 1,5 -5,-1 -4,-6 -3,-1 -5,-10 -4,-1 -1,3 -3,-7 -4,-1 1,-2 v -9 l -4,-19 -1,-28 -1,-11 2,-16 h 2 z"
     fill="#1e0a0c"
     id="path81" />
  <path
     d="m 781,739 11,2 24,5 25,7 13,4 v 2 l 9,1 18,6 v 2 l 9,2 37,12 27,10 10,5 -2,2 -42,-15 -38,-13 -4,-1 v 6 l -11,-3 v -1 l 6,-2 -4,-3 -15,-5 -17,-5 -36,-11 -19,-5 z"
     fill="#12090a"
     id="path82" />
  <path
     d="m 878,770 7,1 47,16 30,11 v -2 l 5,1 1,-4 4,11 v 1 h -7 l -21,-6 -38,-13 -27,-9 -2,-3 z"
     fill="#080203"
     id="path83" />
  <path
     d="m 600,831 10,1 194,30 36,6 v 1 l -11,1 -17,-3 -3,-1 -7,-1 -4,-1 h -2 v -2 l -10,1 -33,-4 -5,-2 -36,-5 -15,-3 -7,-2 -14,-1 -21,-3 -8,-3 -14,-1 -14,-2 -16,-3 z"
     fill="#16090a"
     id="path84" />
  <path
     d="m 829,366 2,2 2,6 v 12 l -4,12 -9,11 -10,9 -11,4 h -23 l -9,-3 -7,-6 -2,-1 4,-1 7,6 h 13 l 1,-3 -1,-5 16,-2 7,-4 4,-3 -2,6 -4,2 v 2 l -4,2 3,2 7,-1 8,-7 7,-12 5,-9 1,-1 v -12 z"
     fill="#200a0c"
     id="path85" />
  <path
     d="m 1031,128 9,3 4,2 -1,4 -12,16 -11,15 -13,18 -4,4 h -3 l -2,1 2,-5 4,-5 11,-18 4,-8 8,-21 z"
     fill="#1a090b"
     id="path86" />
  <path
     d="m 726,23 h 7 l 5,3 h 3 l 3,6 v 11 l -6,9 h -10 l -2,-8 4,-10 -2,-2 -5,4 -4,5 h -3 l -1,4 -3,4 h -2 v 2 l -4,1 v 2 h -2 l -2,4 -2,-1 2,-4 3,-2 2,-5 3,-1 2,-5 5,-5 2,-5 5,-5 z"
     fill="#bf9466"
     id="path87" />
  <path
     d="m 867,516 3,3 4,6 5,12 3,5 5,11 8,16 10,19 8,16 7,15 8,16 5,9 31,62 v 2 l -3,-1 -5,-9 -3,-9 -8,-15 -9,-19 -8,-14 -6,-12 -6,-10 -8,-15 -8,-16 v -3 h -2 l -3,-8 -9,-16 -4,-7 -3,-7 -5,-10 -2,-8 -5,-9 z"
     fill="#8a5431"
     id="path88" />
  <path
     d="m 377,1045 h 1 l -1,8 -3,3 -1,5 h -2 l -1,4 -5,5 -3,7 h -2 l -2,5 -8,12 -4,16 -1,7 -1,2 h -3 l -3,-9 1,-11 4,-9 7,-11 10,-13 13,-18 z"
     fill="#bc9164"
     id="path89" />
  <path
     d="m 971,800 4,5 13,27 5,11 v 5 l -3,-1 h 2 l -1,-5 -11,-2 -32,-10 v -1 l 15,-1 5,-1 1,-4 2,-3 h 3 l -4,-7 1,-5 -3,-3 3,-1 z"
     fill="#8b5931"
     id="path90" />
  <path
     d="m 591,765 2,1 -7,10 -6,8 -4,1 -2,4 -4,4 -8,10 -5,5 -2,4 -8,9 -3,7 -6,10 -8,7 -1,3 -4,1 2,-10 13,-18 9,-12 8,-11 6,-8 h 3 l 3,1 1,-4 4,-2 v -2 l 5,-5 h 2 l -1,-3 4,-1 1,-3 h 2 l 2,-4 z"
     fill="#bb8f62"
     id="path91" />
  <path
     d="m 948,337 h 2 l -2,10 -7,17 -10,22 -10,23 -7,18 -10,19 -18,37 -11,23 -3,3 h -2 l -3,-8 1,-4 4,8 3,-5 8,-18 24,-48 9,-21 4,-9 12,-28 8,-18 v -4 l -4,1 -4,4 2,-5 10,-13 z"
     fill="#823a2c"
     id="path92" />
  <path
     d="m 296,575 4,1 6,44 2,7 v 7 l -3,1 v -2 l -3,-1 -4,-8 -3,-10 -2,-6 -1,-8 v -13 l 1,-10 z"
     fill="#11090a"
     id="path93" />
  <path
     d="m 916,301 1,2 h 2 l -1,4 -8,11 -11,15 -13,18 -14,19 -9,13 -1,-2 -6,2 2,-4 13,-18 16,-21 8,-11 18,-24 z"
     fill="#18090b"
     id="path94" />
  <path
     d="m 71,933 9,2 21,8 43,16 39,14 18,7 -3,1 -12,-4 -4,-2 -9,-2 -11,-4 -3,-2 -10,-2 -7,-3 -4,-2 -14,-2 -6,-3 v -2 l -13,-2 -7,-1 -4,-5 -9,-2 -9,-1 -2,-1 h -9 l 2,-4 z"
     fill="#1a090b"
     id="path95" />
  <path
     d="m 527,291 1,2 -2,4 h -2 l -2,5 h -2 l -2,5 h -2 l -2,6 -3,1 -2,4 -3,5 h -2 l -2,5 -1,2 h -2 l -5,10 -3,3 -4,5 -6,9 -5,6 h -2 v 2 h -2 l -1,5 -3,1 -2,5 -3,4 h -2 l -2,5 -2,3 10,-2 -1,2 -11,3 h -5 l 2,-4 2,-1 5,-9 9,-12 5,-6 5,-8 4,-4 10,-14 4,-5 7,-10 2,-1 3,-5 4,-6 h 2 l 2,-4 6,-9 4,-1 z"
     fill="#b78c5f"
     id="path96" />
  <path
     d="m 650,649 2,1 -4,4 -2,6 -3,1 v 2 l -4,1 -1,4 -11,9 -11,11 -2,8 8,2 5,-3 -2,7 2,-1 6,-8 2,-1 -2,5 -10,14 -5,8 -5,5 -6,8 -1,-3 2,-4 -5,2 2,-5 4,-5 2,-5 6,-6 -1,-4 -2,-4 -2,-1 v -2 l -3,-1 2,-4 17,-17 9,-11 z"
     fill="#220b0c"
     id="path97" />
  <path
     d="m 922,360 v 3 l -9,12 -13,18 -10,13 -7,10 -8,11 -10,14 -8,11 -9,12 -8,11 1,4 11,8 8,8 4,10 5,10 -1,2 -5,-8 -4,-6 v -7 h -3 l -4,-6 -6,-5 -6,-3 -3,-2 1,-8 12,-16 7,-10 1,-2 h 2 l 1,-4 h 2 l 2,-5 h 2 l 2,-5 11,-15 4,-5 1,-3 h 2 v -3 h 2 l 2,-4 4,-6 16,-22 4,-6 h 2 l 1,-3 z"
     fill="#895230"
     id="path98" />
  <path
     d="m 705,92 h 2 l -2,5 -9,11 -7,10 -12,17 h -2 l -2,5 -9,11 -11,16 h -2 l -2,5 -2,3 h -2 l -2,5 -18,24 -8,11 -12,16 -2,1 2,-5 10,-14 6,-9 h 2 l 2,-5 12,-16 5,-7 2,-6 6,-4 3,-6 4,-5 h 2 l 1,-4 5,-7 h 2 l 1,-6 4,-4 h 2 v -2 h 2 l 2,-4 4,-5 3,-5 4,-6 h 2 l 2,-4 7,-11 3,-1 z"
     fill="#884a2f"
     id="path99" />
  <path
     d="m 896,58 24,4 21,3 8,2 16,3 19,3 12,3 v 3 l 2,-1 20,1 10,2 1,2 h -12 l -14,-2 v 3 l 5,2 v 1 h -7 l -27,-5 v -1 h 12 l 5,-2 -11,-3 -34,-6 -50,-10 z"
     fill="#11090a"
     id="path100" />
  <path
     d="m 116,671 16,2 33,6 26,4 v 2 l 24,1 -3,3 h -6 l -1,3 -3,-1 v -2 l -23,1 3,2 -8,-1 -20,-6 -2,-2 13,1 -12,-2 -9,-2 -3,-3 -9,-1 -1,-1 -14,-1 z"
     fill="#ba8e61"
     id="path101" />
  <path
     d="m 984,272 3,1 -9,11 -1,2 h -2 l -1,4 -12,17 -7,10 -11,16 -11,15 -9,12 -5,3 2,-5 h 2 l 2,-5 2,-3 h 2 l 2,-5 8,-11 6,-10 4,-4 3,-6 3,-7 8,-10 1,-3 h 2 l 2,-5 6,-9 5,-5 z"
     fill="#8a5231"
     id="path102" />
  <path
     d="m 1071,155 h 2 l -1,5 -4,2 -1,4 -2,1 -3,6 -10,14 -5,5 -2,5 -14,19 -10,14 -7,10 -5,5 -11,15 -1,2 h -2 l -2,5 -7,9 -9,13 -4,6 h -2 l 2,-5 2,-4 h 2 l 2,-5 7,-8 1,-3 h 2 l 2,-5 10,-13 8,-11 9,-13 14,-19 20,-28 7,-10 8,-10 z"
     fill="#270a0c"
     id="path103" />
  <path
     d="m 776,555 v 3 l -5,8 h -2 l -2,5 -8,12 h -2 l -2,5 -4,6 -1,5 3,2 -11,15 -7,11 -12,16 -5,7 -4,-1 2,-5 13,-18 10,-15 9,-17 13,-19 13,-18 z"
     fill="#19090b"
     id="path104" />
  <path
     d="m 760,396 4,2 6,6 v 6 h -11 l -9,6 -8,4 -6,1 v 2 h -2 l -1,-7 14,-10 z"
     fill="#030101"
     id="path105" />
  <path
     d="m 454,997 1,3 h -2 l -2,5 -8,11 -10,14 -8,11 -14,19 -6,8 h -2 l -2,5 -9,12 -10,14 -9,12 -5,5 1,-4 4,-7 h 2 l 2,-5 13,-18 1,-2 h 2 l 2,-4 7,-9 3,-5 12,-15 16,-22 9,-13 5,-9 z"
     fill="#8c5532"
     id="path106" />
  <path
     d="m 729,455 2,1 1,4 v 26 l -2,12 h -5 l -2,-9 h -2 l -1,-4 3,-14 1,-4 -1,-4 2,-6 z"
     fill="#12090a"
     id="path107" />
  <path
     d="m 816,503 4,2 7,9 4,8 2,5 2,7 1,7 -4,-2 -3,-3 -9,-19 -2,-5 h -2 v -3 l -3,1 -6,7 -3,3 -6,8 -12,17 -8,10 -1,-2 11,-15 9,-12 8,-12 h 2 l 2,-4 z"
     fill="#240a0c"
     id="path108" />
  <path
     d="m 954,328 h 1 l -1,11 -7,17 -12,24 -4,11 -5,12 -4,11 -3,5 -4,10 -8,15 -10,19 -1,2 -2,-1 10,-20 9,-17 8,-20 15,-35 6,-12 6,-16 2,-7 -4,1 -2,4 -6,8 -1,-2 5,-8 9,-10 z"
     fill="#2b0a0d"
     id="path109" />
  <path
     d="m 905,389 2,1 -3,6 h -2 l -1,7 -9,11 -7,11 -21,28 h -4 v -4 h 2 l 1,-4 5,-5 4,-7 3,-3 3,-6 4,-5 7,-10 5,-6 2,-5 h 2 l 2,-4 z"
     fill="#0b0304"
     id="path110" />
  <path
     d="m 490,884 2,1 -9,13 -21,28 -10,14 -10,13 -10,15 -7,9 -12,17 -3,3 v -4 l 3,-7 4,-4 3,-5 8,-8 2,-6 5,-5 11,-15 h 2 l 2,-5 9,-13 8,-11 4,-4 5,-9 7,-8 4,-6 z"
     fill="#1a090b"
     id="path111" />
  <path
     d="m 799,783 6,1 34,11 58,18 1,2 h -2 v 2 l -12,-3 -38,-13 -37,-12 -9,-2 z"
     fill="#1b090b"
     id="path112" />
  <path
     d="m 815,459 2,2 -4,7 -3,5 h -2 l -2,4 h -2 l -1,4 -2,3 h -2 l -2,5 -3,5 h -2 v 3 h -2 l -2,4 -9,14 h -2 l -2,5 -5,6 -1,3 h -2 l -2,4 -6,10 h -2 l -2,5 -1,2 h -2 l -2,5 -5,6 v -3 l 5,-7 2,-4 2,-1 3,-6 h 2 l 2,-6 9,-12 8,-11 3,-6 4,-4 5,-10 2,-3 h 2 l 2,-4 6,-10 4,-4 4,-7 z"
     fill="#bd9164"
     id="path113" />
  <path
     d="m 600,831 10,1 97,15 19,3 -2,2 h -12 l -15,-3 -7,-2 -14,-1 -21,-3 -8,-3 -14,-1 -14,-2 -16,-3 z"
     fill="#19090b"
     id="path114" />
  <path
     d="m 389,1014 1,2 -7,11 -9,13 -3,1 v 2 h -6 l -36,-13 -17,-7 v -1 h 6 l 6,2 2,-1 1,2 8,4 5,2 1,1 13,1 5,-1 h 4 l 4,4 2,1 1,-2 h 5 l 2,-4 8,-11 z"
     fill="#955c38"
     id="path115" />
  <path
     d="m 723,359 3,1 -3,3 h -2 v 2 l -5,2 h -2 l -10,9 h -2 v 2 l -10,6 h -7 l -5,-1 6,-7 12,-12 1,2 -3,6 6,-1 6,-4 5,-7 h 5 l 4,2 z"
     fill="#140b0b"
     id="path116" />
  <path
     d="m 184,727 9,1 29,10 -2,1 -2,5 -14,19 -16,21 -18,24 -2,-1 1,-3 h 2 l 2,-5 4,-6 h 2 l 2,-5 15,-20 5,-7 h 2 l 2,-4 9,-14 1,-3 -5,-3 -20,-7 -6,-1 z"
     fill="#8d5a33"
     id="path117" />
  <path
     d="m 276,619 1,2 -3,5 h -2 l -2,5 -6,10 -4,2 -2,4 -1,3 h -2 l -1,4 h -2 l -1,4 -5,5 h -2 l -1,5 -12,13 -6,7 -7,1 3,-2 5,-5 10,-12 5,-7 3,-5 3,-4 h 2 l 2,-5 3,-1 2,-5 h 2 l 1,-4 7,-8 6,-9 z"
     fill="#b88d60"
     id="path118" />
  <path
     d="m 875,528 h 2 l 4,10 4,6 4,10 4,7 5,10 10,19 11,23 4,8 2,1 4,9 17,35 5,11 -1,3 -21,-42 -10,-19 -7,-15 -22,-44 -4,-7 -5,-11 -3,-5 z"
     fill="#310b0e"
     id="path119" />
  <path
     d="m 704,97 1,2 -7,10 h -2 v 3 h -2 l -2,5 -2,3 h -2 l -2,5 -11,16 -5,6 h -2 v 3 h -2 l -2,6 h -2 l -2,5 -7,9 -9,12 -8,11 h -2 l -2,5 -4,6 -9,9 2,-5 10,-13 8,-11 6,-9 h 2 l 2,-5 2,-3 h 2 l 2,-5 10,-13 10,-14 h 2 l 2,-5 10,-13 8,-11 z"
     fill="#240a0c"
     id="path120" />
  <path
     d="m 714,459 h 2 v 46 l -1,3 -3,-1 -1,-4 -4,-4 v -4 h -6 l -2,4 -3,2 2,-4 3,-4 h 2 l 1,-4 7,-9 3,-8 v -8 l -1,-3 z"
     fill="#a25f4a"
     id="path121" />
  <path
     d="m 1088,77 2,4 3,1 7,8 2,4 h 2 l 5,6 v 6 l -24,32 -8,12 h -2 l -2,5 h -2 l -2,4 -7,10 -2,-1 3,-7 4,-1 2,-6 6,-8 10,-14 h 2 l 1,-4 10,-12 7,-10 1,-5 -5,-5 -10,-13 -6,-1 h -3 z"
     fill="#87472f"
     id="path122" />
  <path
     d="m 875,766 9,2 43,14 27,10 10,5 -2,2 -42,-15 -44,-15 -2,-2 z"
     fill="#895230"
     id="path123" />
  <path
     d="m 895,398 1,3 -3,5 -3,3 -7,10 -5,6 -4,8 -3,3 -6,9 -2,1 -1,3 h -2 v 4 h 3 l -2,4 -5,7 -5,1 -1,-1 -5,8 -1,6 1,4 -4,-2 -2,-2 1,-4 10,-14 10,-13 12,-17 8,-11 12,-17 z"
     fill="#260a0c"
     id="path124" />
  <path
     d="m 439,801 11,2 21,3 9,1 1,2 10,2 h 8 l 6,2 v 2 l -20,-1 -48,-8 -5,-2 v -2 h 6 z"
     fill="#aa7b52"
     id="path125" />
  <path
     d="m 860,576 2,1 1,4 4,1 3,5 3,11 3,3 4,9 2,5 7,15 5,9 4,10 4,8 -1,4 -9,-17 -9,-20 -4,-7 -5,-11 -3,-3 -4,-11 v -2 l -3,-1 -4,-8 z"
     fill="#8b5031"
     id="path126" />
  <path
     d="m 718,598 h 2 l 1,3 -2,1 1,2 -5,2 1,3 h -3 l -1,5 h -2 v 3 l -2,2 -1,2 h -2 l -1,4 h -2 l -1,4 -3,4 h -2 l -1,4 -3,1 -2,5 -2,1 1,-9 4,-5 4,-8 6,-7 1,-3 h 2 v -2 h 2 v -2 h 3 l 2,-4 z"
     fill="#98613c"
     id="path127" />
  <path
     d="m 608,724 1,2 -2,3 -2,6 -13,17 -5,8 -1,-2 -4,2 -4,6 h -3 l 2,-4 12,-16 5,-9 8,-10 z"
     fill="#15090a"
     id="path128" />
  <path
     d="m 564,632 h 1 l 2,9 1,2 -2,10 v 8 l 1,2 v 7 l -7,7 v 7 l -8,5 1,-7 6,-16 4,-19 z"
     fill="#371d18"
     id="path129" />
  <path
     d="m 518,913 v 3 l -12,17 -8,11 h -2 l -2,5 -10,14 -8,11 -4,6 h -2 l -2,5 -2,3 h -2 l -1,4 -7,9 h -2 l -1,4 -1,2 h -2 l -2,5 -12,16 v -3 l 7,-10 10,-15 h 2 v -3 h 2 l 2,-5 8,-11 h 2 l 2,-5 12,-16 11,-15 10,-13 10,-14 z"
     fill="#220a0c"
     id="path130" />
  <path
     d="m 115,950 8,1 21,8 39,14 18,7 -3,1 -12,-4 -4,-2 -9,-2 -11,-4 -3,-2 -10,-2 -7,-3 -4,-2 -14,-2 -6,-3 v -2 l -3,-1 z"
     fill="#19090b"
     id="path131" />
  <path
     d="m 71,930 10,3 15,6 v 2 l -5,-1 -17,-6 -4,1 -6,7 -14,22 -13,18 -7,9 -2,-2 8,-11 6,-9 h 2 v -3 h 2 l 2,-5 7,-11 6,-10 h 2 l 2,-4 z"
     fill="#894f30"
     id="path132" />
  <path
     d="m 1031,130 7,2 4,2 -1,6 -4,5 h -3 l -2,4 h -2 l -1,3 -5,2 -1,-3 3,-10 z"
     fill="#010000"
     id="path133" />
  <path
     d="m 937,790 6,1 20,7 -1,-2 5,1 1,-4 4,11 v 1 h -7 l -21,-6 -8,-3 3,-3 z"
     fill="#17080a"
     id="path134" />
  <path
     d="m 578,784 v 3 l -8,11 h -2 l -2,5 -6,9 h -2 l -2,4 -5,6 -4,8 h -2 l -2,4 -8,11 -2,-4 5,-4 5,-9 3,-7 10,-11 v -3 l 4,-2 4,-6 3,-4 h 2 l 2,-5 z"
     fill="#b5895d"
     id="path135" />
  <path
     d="m 825,528 3,3 7,14 7,13 2,3 -1,7 -8,14 -10,17 -8,14 -7,11 -2,1 2,-5 5,-10 3,-4 5,-10 4,-7 9,-15 4,-7 v -7 l -5,-10 -6,-11 -4,-9 z"
     fill="#823a2c"
     id="path136" />
  <path
     d="m 572,756 4,1 -9,4 -29,7 -15,3 -10,1 h -50 l -12,-1 v -2 h 12 l 20,1 h 21 l 26,-3 26,-6 10,-3 z"
     fill="#823a2c"
     id="path137" />
  <path
     d="m 728,724 1,2 9,3 10,3 v 1 l -6,1 -1,3 1,2 -13,1 -5,-1 -1,-4 v -5 z"
     fill="#8a5631"
     id="path138" />
  <path
     d="m 916,301 1,2 h 2 l -1,4 -8,11 -11,15 -4,6 -1,-2 -6,3 2,-4 8,-11 14,-19 z"
     fill="#200a0c"
     id="path139" />
  <path
     d="m 478,960 2,3 -2,5 -8,11 -1,2 h -2 l -2,4 -8,12 -6,3 v -5 l 7,-10 h 2 l 2,-5 5,-7 2,-1 3,-6 2,-1 1,-3 z"
     fill="#965d38"
     id="path140" />
  <path
     d="m 292,555 1,4 -2,15 3,34 1,11 3,12 v 7 l -3,1 -3,-16 -2,-11 -1,-28 -1,-11 2,-16 h 2 z"
     fill="#310b0e"
     id="path141" />
  <path
     d="m 745,293 h 13 l 10,3 10,6 7,6 7,10 v 2 l -4,-2 -5,-4 v -3 l -5,-1 -3,-1 v -2 l -5,-2 -3,-2 v -2 l -6,-2 -4,-2 -1,-2 -11,-1 z"
     fill="#210a0c"
     id="path142" />
  <path
     d="m 650,649 2,1 -4,4 -2,6 -3,1 v 2 l -4,1 -1,4 -11,9 -11,11 -2,8 8,2 5,-3 -2,4 -5,5 -2,1 -4,-7 -2,-1 v -2 l -3,-1 2,-4 17,-17 9,-11 z"
     fill="#501c19"
     id="path143" />
  <path
     d="m 1012,240 1,2 -14,19 -8,12 -14,19 -5,8 -5,5 -7,11 -3,14 h -1 v -6 h -2 l 1,-5 7,-11 8,-11 1,-2 h 2 l 2,-5 12,-16 8,-12 h 2 l 2,-5 10,-13 z"
     fill="#13090a"
     id="path144" />
  <path
     d="m 765,404 12,5 2,1 v 6 l -2,2 h -13 l -7,-6 -3,-1 v -2 l 11,1 z"
     fill="#12090a"
     id="path145" />
  <path
     d="m 302,977 6,1 15,6 20,7 41,14 7,2 2,4 -2,2 -4,-4 -13,-3 -11,-5 -10,-3 -7,-3 -16,-6 -28,-11 z"
     fill="#8b5331"
     id="path146" />
  <path
     d="m 996,77 m -2,1 4,1 v -1 l 20,1 10,2 1,2 h -12 l -14,-2 v 3 l 5,2 v 1 h -7 l -27,-5 v -1 h 12 z"
     fill="#12090a"
     id="path147" />
  <path
     d="m 347,1087 2,1 -2,6 -1,16 -1,7 -1,2 h -3 l -3,-9 1,-11 4,-9 z"
     fill="#c39970"
     id="path148" />
  <path
     d="m 288,574 h 1 l 1,18 v 23 l -3,-1 -4,2 -2,-1 -2,4 -3,-1 5,-7 2,-7 h 2 l 2,-12 -2,1 z m -14,45 2,1 -2,1 z"
     fill="#b4885c"
     id="path149" />
  <path
     d="m 1067,154 h 2 l -2,6 h -2 l -8,16 -10,13 -5,3 -5,7 h -2 l -1,4 h -2 l 2,-5 7,-9 1,-3 3,-3 1,-2 h 2 v -3 h 2 v -2 h 2 l 2,-5 4,-2 1,-5 1,-2 h 2 v -2 h 2 v -2 h 2 z"
     fill="#955d37"
     id="path150" />
  <path
     d="m 948,830 7,1 25,8 11,3 1,5 -10,-2 -32,-10 2,-2 z"
     fill="#16090a"
     id="path151" />
  <path
     d="m 362,1060 h 2 l -2,4 -10,14 -7,10 -4,8 -2,8 v 10 l -2,-2 v -15 l -1,-2 v -3 l 1,-6 2,-2 4,-1 6,-7 h 3 l 3,-9 4,-1 2,-5 z"
     fill="#19090b"
     id="path152" />
  <path
     d="m 1052,96 9,1 v 1 l -10,1 -3,3 -1,3 -6,5 -2,3 v 3 l 5,2 1,2 -5,8 6,3 -1,5 -1,-3 -6,-2 v -2 l -6,-3 1,-6 6,-11 11,-12 z"
     fill="#a2754d"
     id="path153" />
  <path
     d="m 308,978 6,1 67,23 11,4 3,5 -3,5 -2,-2 2,-5 -3,-2 -17,-5 -29,-10 -22,-8 -13,-5 z"
     fill="#1a090b"
     id="path154" />
  <path
     d="m 650,664 h 7 l -6,8 -14,19 -2,1 v -5 l -3,2 -1,-4 2,-3 h 6 l 1,-6 v -2 h 2 l 2,-4 2,-1 z"
     fill="#320c0e"
     id="path155" />
  <path
     d="m 699,754 4,2 7,5 18,6 10,3 v 1 l -14,-1 -21,-5 -4,-4 -1,-6 z"
     fill="#19090b"
     id="path156" />
  <path
     d="m 423,446 20,1 8,4 2,2 -1,1 2,2 -10,-1 -2,-1 -19,-3 -4,-2 v -2 z"
     fill="#271010"
     id="path157" />
  <path
     d="m 116,693 8,1 9,3 13,2 18,6 16,5 -2,2 -9,-2 -17,-5 -13,-3 -3,-2 -12,-2 -8,-3 z"
     fill="#c09567"
     id="path158" />
  <path
     d="m 956,311 1,3 -13,19 -11,15 -9,12 -5,3 2,-5 h 2 l 2,-5 2,-3 h 2 l 2,-5 8,-11 6,-10 4,-4 3,-6 z"
     fill="#8a5231"
     id="path159" />
  <path
     d="m 13,964 2,4 -2,4 -2,1 -2,8 h 2 l 1,7 -3,3 2,2 -4,1 -5,-8 -2,-6 1,-9 2,-1 v 12 l 2,-1 2,-7 4,-9 z"
     fill="#b3865b"
     id="path160" />
  <path
     d="m 1045,105 2,3 -3,3 -2,1 6,3 v 2 l 5,2 v 3 l -4,2 -3,7 -5,-1 -2,-3 5,-7 -3,-3 h -3 l 1,-5 z"
     fill="#b5895d"
     id="path161" />
  <path
     d="m 534,827 2,1 -11,15 -30,40 -1,-3 4,-6 6,-8 3,-3 3,-5 h 2 l 2,-5 4,-5 5,-10 h 3 l 2,-5 3,-1 2,-4 z"
     fill="#1b090b"
     id="path162" />
  <path
     d="m 846,758 h 8 l 16,4 11,4 -3,1 h -3 l 4,3 -1,6 -11,-3 v -1 l 6,-2 -4,-3 -15,-5 -7,-2 z"
     fill="#2c0b0d"
     id="path163" />
  <path
     d="m 922,360 v 3 l -9,12 -13,18 -10,13 -2,3 -2,-1 1,-4 h 2 l 2,-4 4,-6 16,-22 4,-6 h 2 l 1,-3 z"
     fill="#884c30"
     id="path164" />
  <path
     d="m 636,706 1,2 -1,1 h 3 l 1,3 -7,8 -2,5 -2,1 -2,3 -1,-1 -2,4 -4,-2 1,-5 6,-7 2,-1 3,-5 2,-5 z"
     fill="#8f5e36"
     id="path165" />
  <path
     d="m 1048,87 h 11 l 3,2 v 2 l -3,2 1,4 -8,-1 -14,-3 -12,-2 v -1 h 12 l 9,1 z"
     fill="#19090b"
     id="path166" />
  <path
     d="m 576,832 3,1 -8,9 -12,16 -14,19 h -3 l 4,-7 10,-14 13,-16 z"
     fill="#8b5631"
     id="path167" />
  <path
     d="m 799,783 6,1 34,11 10,3 v 3 l -9,-2 -31,-10 -9,-2 z"
     fill="#1b090b"
     id="path168" />
  <path
     d="m 756,306 h 7 v 2 l 4,1 6,5 7,13 v 12 l -2,2 v -13 l -6,-9 -7,-5 v -2 l -6,-1 v -2 l -15,2 -4,2 -3,-1 11,-5 z"
     fill="#6d4533"
     id="path169" />
  <path
     d="m 116,671 16,2 33,6 13,2 v 1 h -25 l -9,-2 -3,-3 -9,-1 -1,-1 -14,-1 z"
     fill="#ae8157"
     id="path170" />
  <path
     d="m 726,302 2,1 -6,6 -3,6 -5,9 -2,10 -1,19 -4,4 -2,-1 3,-4 v -17 l 5,-16 6,-10 z"
     fill="#1f090b"
     id="path171" />
  <path
     d="m 823,517 4,1 4,4 2,5 2,7 1,7 -4,-2 -3,-3 -6,-12 z"
     fill="#230a0c"
     id="path172" />
  <path
     d="m 407,990 h 2 v 3 l 3,-3 -2,7 -2,5 -3,3 -5,3 -5,5 -2,-6 h 3 l 2,-6 z"
     fill="#11080a"
     id="path173" />
  <path
     d="m 471,914 v 3 l -5,11 -5,7 -5,5 -5,6 -5,5 -10,14 v -3 l 11,-16 10,-13 12,-17 z"
     fill="#97653f"
     id="path174" />
  <path
     d="m 494,375 4,5 -3,1 v 2 l -5,3 h -2 l -1,3 -7,-1 -9,-1 1,-2 16,-6 z"
     fill="#1f0a0c"
     id="path175" />
  <path
     d="m 1086,81 5,1 1,6 -5,4 h -2 v 2 h -2 v 2 h -2 l -1,4 h -2 l -2,5 -3,4 h -2 l -1,4 h -2 l -1,4 -3,1 2,-5 3,-3 3,-6 2,-2 2,-5 h 2 l 2,-4 h 2 l 1,-3 3,-3 z"
     fill="#b4885c"
     id="path176" />
  <path
     d="m 810,394 h 2 l -2,5 -9,8 -8,2 h -13 l -9,-4 -4,-4 h 4 v 2 l 6,-1 3,2 h 5 v 2 l 15,-1 5,-5 z"
     fill="#a0734b"
     id="path177" />
  <path
     d="m 181,682 10,1 v 2 l 24,1 -3,3 h -6 l -1,3 -3,-1 v -2 h -17 v -1 l -11,-1 1,-2 6,-1 z"
     fill="#b08358"
     id="path178" />
  <path
     d="m 699,620 6,1 -1,4 h -2 l -1,4 -3,4 h -2 l -1,4 -3,1 -2,5 -2,1 1,-9 4,-5 4,-8 z"
     fill="#8f5d35"
     id="path179" />
  <path
     d="m 885,407 2,1 -1,4 -9,12 -11,16 -7,9 -4,2 2,-5 1,-2 h 2 l 1,-4 h 2 l 2,-5 h 2 l 2,-5 11,-15 4,-5 z"
     fill="#8b5031"
     id="path180" />
  <path
     d="m 762,396 6,1 15,4 11,2 10,-1 -4,4 h -15 l -7,-2 -2,-1 h -5 v -2 h -5 z"
     fill="#b2855a"
     id="path181" />
  <path
     d="m 1012,238 v 3 l -9,12 -6,9 h -2 l -2,5 -7,9 -9,13 -4,6 h -2 l 2,-5 2,-4 h 2 l 2,-5 7,-8 1,-3 h 2 l 2,-5 10,-13 8,-11 z"
     fill="#310b0e"
     id="path182" />
  <path
     d="m 182,730 4,1 -1,4 -3,8 -3,3 -3,5 -2,2 -1,4 h -3 l -1,4 -5,5 h -2 l 1,-4 5,-5 6,-8 5,-8 v -3 l -3,2 2,-4 z"
     fill="#bc9165"
     id="path183" />
  <path
     d="m 621,586 4,4 1,4 4,1 12,15 4,6 2,6 -3,-3 v -2 l -4,-1 -11,-14 -6,-7 -2,-5 -2,-2 z"
     fill="#a8644d"
     id="path184" />
  <path
     d="m 779,508 h 3 l -2,5 -1,2 h -2 l -2,5 -5,6 -1,3 h -2 l -2,4 -6,10 h -2 l -2,5 -1,2 h -2 l -2,5 -5,6 v -3 l 5,-7 2,-4 2,-1 3,-6 h 2 l 2,-6 9,-12 8,-11 z"
     fill="#bb9062"
     id="path185" />
  <path
     d="m 470,806 10,1 1,2 10,2 h 8 l 6,2 v 2 l -20,-1 -12,-2 -4,-2 z"
     fill="#ae8156"
     id="path186" />
  <path
     d="m 320,765 6,2 2,1 6,1 v -2 l 5,2 2,4 v 2 l 1,2 -11,-3 -16,-5 z"
     fill="#9f7149"
     id="path187" />
  <path
     d="m 1014,895 15,1 1,1 15,1 v 2 h 8 l 1,3 h -9 l -29,-5 -2,-1 z"
     fill="#af8157"
     id="path188" />
  <path
     d="m 674,557 7,6 9,11 4,5 3,-1 v -7 l -2,-6 2,-1 1,6 h 2 v 12 l -2,3 h -2 l -5,-6 -5,-5 -11,-13 z"
     fill="#c0906c"
     id="path189" />
  <path
     d="m 834,530 2,3 4,8 4,5 -1,4 -1,-5 h -4 l 4,11 3,2 v 11 l -1,2 h -2 v 3 h -2 l 2,-6 1,-7 -5,-8 -5,-10 -2,-5 5,3 -2,-7 z"
     fill="#2f0a0d"
     id="path190" />
  <path
     d="m 817,499 8,5 1,3 3,2 v 5 l -5,-5 -3,-4 -5,-1 -8,8 -1,2 h -2 l -2,5 -6,8 -1,-2 4,-6 2,-4 h 2 l 2,-5 5,-5 4,-5 z"
     fill="#8d5833"
     id="path191" />
  <path
     d="m 1089,74 h 2 v 3 h 2 l -1,-3 4,2 1,5 2,1 3,6 2,5 3,1 2,6 -5,-4 v -2 h -2 l -14,-16 v -3 z"
     fill="#1c090b"
     id="path192" />
  <path
     d="m 928,356 2,1 v 5 l -8,11 -5,2 v -7 l 9,-11 z"
     fill="#1a090b"
     id="path193" />
  <path
     d="m 731,625 v 3 l -3,8 -10,14 -4,-1 2,-5 13,-18 z"
     fill="#19090b"
     id="path194" />
  <path
     d="m 1093,876 15,1 8,3 2,8 v 11 l -2,2 -1,-1 -1,-11 -5,-5 2,-2 2,-1 -7,-2 -13,-1 z"
     fill="#ab7c54"
     id="path195" />
  <path
     d="m 575,661 5,1 10,11 v 2 l -8,-1 -5,-3 h -2 z"
     fill="#f2e7db"
     id="path196" />
  <path
     d="m 715,365 1,3 -10,9 -5,2 v 2 l -4,3 2,4 2,3 -1,3 -4,-1 -4,-2 1,-5 3,-5 3,-3 h 3 v -2 l 11,-9 z"
     fill="#3d1614"
     id="path197" />
  <path
     d="m 724,851 h 8 l 21,3 7,4 v 1 h -7 l -5,-2 -31,-4 v -1 z"
     fill="#18090b"
     id="path198" />
  <path
     d="m 925,625 3,4 19,39 4,9 -1,3 -26,-52 z"
     fill="#280a0d"
     id="path199" />
  <path
     d="m 970,295 1,2 -10,14 -14,21 -5,6 -6,8 -2,1 2,-5 10,-13 12,-18 11,-15 z"
     fill="#310b0e"
     id="path200" />
  <path
     d="m 689,592 h 4 l 2,3 v 10 l -3,4 -5,2 -5,5 2,-4 9,-12 v -4 h -5 l -5,4 -5,5 2,-5 3,-5 z m -8,24 v 3 h -3 z"
     fill="#491c17"
     id="path201" />
  <path
     d="m 419,797 12,1 2,1 v 2 l 4,-1 1,3 -6,-1 v 2 l 3,1 -16,-2 -15,-3 v -1 l 13,1 h 2 z"
     fill="#a97b51"
     id="path202" />
  <path
     d="m 374,782 6,2 h 2 l 5,6 5,2 v 2 h -2 v 2 l -9,-2 -1,-4 -4,-1 v -2 l -5,-2 3,-1 z"
     fill="#bb9063"
     id="path203" />
  <path
     d="m 954,328 h 1 l -1,11 -2,5 h -3 l 1,-7 -4,1 -2,4 -6,8 -1,-2 5,-8 9,-10 z"
     fill="#2f0a0d"
     id="path204" />
  <path
     d="m 478,964 2,1 -10,14 -1,2 h -2 l -2,4 -8,12 h -2 l 1,-6 h 3 l 1,-5 3,-5 h 2 v -2 h 2 l 1,-4 3,-1 v -3 l 4,-4 h 2 z"
     fill="#874c2f"
     id="path205" />
  <path
     d="m 146,961 7,1 19,7 29,11 -3,1 -12,-4 -4,-2 -9,-2 -11,-4 -7,-3 v -2 l -9,-2 z"
     fill="#1f090b"
     id="path206" />
  <path
     d="m 796,862 h 8 l 36,6 v 1 l -11,1 -17,-3 -3,-1 -7,-1 -4,-1 h -2 z"
     fill="#15090a"
     id="path207" />
  <path
     d="m 839,574 1,2 -6,12 h -2 l -1,5 -4,7 h -2 l -1,4 -4,8 h -2 l -2,5 -4,4 2,-5 8,-14 10,-17 z"
     fill="#280a0c"
     id="path208" />
  <path
     d="m 759,411 4,1 8,6 3,1 h 23 l 3,-1 h 8 l -3,2 -6,2 h -23 l -9,-3 -7,-6 -2,-1 z"
     fill="#310b0e"
     id="path209" />
  <path
     d="m 137,847 h 2 l -2,4 -12,16 -16,21 -1,-3 10,-13 8,-11 9,-11 z"
     fill="#905a35"
     id="path210" />
  <path
     d="m 878,770 7,1 9,3 -2,5 h -7 l -7,-3 -1,-2 z"
     fill="#070202"
     id="path211" />
  <path
     d="m 622,679 v 3 l -6,6 -2,8 8,2 5,-3 -2,4 -5,5 -2,1 -4,-7 -2,-1 v -2 l -3,-1 2,-4 z"
     fill="#623024"
     id="path212" />
  <path
     d="m 312,1022 h 6 l 6,2 2,-1 1,2 8,4 5,2 6,2 v 2 l 7,1 4,2 -3,1 -27,-10 -15,-6 z"
     fill="#8e5333"
     id="path213" />
  <path
     d="m 964,827 4,1 3,3 1,6 -11,-3 -13,-4 v -1 l 15,-1 z"
     fill="#8b5831"
     id="path214" />
  <path
     d="m 1088,77 2,4 3,1 7,8 2,4 h 2 l 5,6 v 6 l -4,5 -3,-1 4,-5 -1,-6 -6,-5 -8,-11 -6,-1 h -3 z"
     fill="#8d5734"
     id="path215" />
  <path
     d="m 96,941 9,1 17,7 31,12 -3,1 -16,-6 -33,-12 -5,-2 z"
     fill="#87492f"
     id="path216" />
  <path
     d="m 594,745 2,2 -9,13 -1,-2 -4,2 -4,6 h -3 l 2,-4 10,-14 4,-1 1,3 1,-4 z"
     fill="#19090b"
     id="path217" />
  <path
     d="m 797,462 4,1 2,-1 -1,4 -9,12 -3,-1 -1,-4 z"
     fill="#15090a"
     id="path218" />
  <path
     d="m 707,488 5,2 2,3 v 13 l -5,-4 -2,-3 -1,-8 z"
     fill="#f9f5ec"
     id="path219" />
  <path
     d="m 527,291 1,2 -2,4 h -2 l -2,5 h -2 l -2,5 -5,3 -7,6 2,-4 4,-6 h 2 l 2,-4 6,-9 4,-1 z"
     fill="#b98d60"
     id="path220" />
  <path
     d="m 741,538 3,3 h 3 l -8,11 h -2 v -3 l -5,5 -3,2 2,-5 z"
     fill="#240a0c"
     id="path221" />
  <path
     d="m 584,702 h 2 v 3 l 2,1 -2,6 -2,2 h -3 v 2 h -2 v 3 l -3,-1 1,-3 -2,-1 3,-3 h 2 v -5 z"
     fill="#fefcf6"
     id="path222" />
  <path
     d="m 860,576 2,1 1,4 4,1 3,5 2,6 v 7 l -3,-1 -2,-9 -3,-1 -4,-8 z"
     fill="#884b2f"
     id="path223" />
  <path
     d="m 826,401 1,2 -1,2 h -2 l -2,4 -9,9 -12,5 -8,1 h -10 l -7,-1 v -1 l 23,-1 11,-4 12,-11 z"
     fill="#823a2c"
     id="path224" />
  <path
     d="m 433,398 2,2 -27,16 -17,10 -2,-1 19,-12 22,-13 z"
     fill="#93603b"
     id="path225" />
  <path
     d="m 535,832 2,1 -1,5 -6,8 -3,3 h -2 l 2,-10 4,-5 z"
     fill="#c39970"
     id="path226" />
  <path
     d="m 454,997 1,3 h -2 l -2,5 -8,11 -7,10 -2,-2 12,-18 1,-3 z"
     fill="#87492f"
     id="path227" />
  <path
     d="m 1031,128 9,3 4,2 -1,4 -1,-3 -4,-1 -7,-3 -3,9 -3,8 -2,5 -4,8 -1,-2 9,-24 z"
     fill="#220a0c"
     id="path228" />
  <path
     d="m 243,664 1,2 -9,11 -10,11 -7,1 3,-2 5,-5 10,-12 1,-2 5,-3 z"
     fill="#b68a5e"
     id="path229" />
  <path
     d="m 1291,0 h 2 v 8 l -8,7 -5,3 -2,-1 8,-10 z"
     fill="#874b2f"
     id="path230" />
  <path
     d="m 418,763 9,1 10,2 14,3 v 2 l -11,-1 -7,-1 -1,-1 -20,-3 v -1 z"
     fill="#86442e"
     id="path231" />
  <path
     d="m 296,592 3,2 1,10 -2,6 -3,-1 -2,-12 z"
     id="path232" />
  <path
     d="m 1030,126 5,1 3,3 -7,-1 -6,12 -7,19 -8,13 -1,-2 7,-12 9,-24 z"
     fill="#823a2c"
     id="path233" />
  <path
     d="m 359,995 16,5 17,6 3,5 -3,5 -2,-2 2,-5 -3,-2 -17,-5 -15,-5 z"
     fill="#1e090b"
     id="path234" />
  <path
     d="m 967,793 3,4 2,8 h -7 l -8,-2 5,-4 v -3 l 5,1 z"
     fill="#2d0b0e"
     id="path235" />
  <path
     d="m 600,831 10,1 19,3 5,2 -1,2 -14,-2 -16,-3 z"
     fill="#16090a"
     id="path236" />
  <path
     d="m 741,612 3,1 -9,14 -5,7 -1,-4 4,-10 3,-4 h 4 z"
     fill="#200a0c"
     id="path237" />
  <path
     d="m 33,937 2,2 h -2 l -2,6 -3,3 h -2 v 2 h -2 l -4,10 h -2 l -2,4 h -2 l -1,-3 6,-7 h 2 l 2,-5 3,-4 1,-3 z"
     fill="#b5895d"
     id="path238" />
  <path
     d="m 856,871 41,6 v 1 h -19 l -13,-2 v -2 l -8,-1 z"
     fill="#19090b"
     id="path239" />
  <path
     d="m 849,474 2,1 v 3 h 2 l 5,10 -1,2 -3,-2 v -2 l -5,-2 -4,-4 1,-5 z"
     fill="#010000"
     id="path240" />
  <path
     d="m 776,555 v 3 l -5,8 h -2 l -2,5 -8,12 h -2 l -2,5 -6,8 v -3 l 7,-11 11,-15 8,-11 z"
     fill="#250a0c"
     id="path241" />
  <path
     d="m 965,296 m -2,1 4,2 -6,9 -4,5 -4,-1 2,-5 z"
     fill="#8d5632"
     id="path242" />
  <path
     d="m 385,1089 2,1 -2,5 -12,16 -5,5 1,-4 4,-7 h 2 l 2,-5 z"
     fill="#8d5a32"
     id="path243" />
  <path
     d="m 661,152 2,1 -10,14 h -2 l -2,5 -2,3 -4,1 1,-6 6,-4 3,-6 4,-5 z"
     fill="#894a30"
     id="path244" />
  <path
     d="m 1063,901 h 8 l 6,2 1,3 h -17 l -5,-2 3,-2 z"
     fill="#b68a5e"
     id="path245" />
  <path
     d="m 1115,900 2,1 v 6 l -7,6 h -5 v -5 l 7,-4 z"
     fill="#b6895d"
     id="path246" />
  <path
     d="m 945,671 3,2 11,23 5,10 v 2 l -3,-1 -5,-9 -3,-9 -8,-15 z"
     fill="#8b5431"
     id="path247" />
  <path
     d="m 71,930 10,3 15,6 v 2 l -5,-1 -17,-6 -4,1 -6,5 v -3 z"
     fill="#8c4f32"
     id="path248" />
  <path
     d="m 906,879 33,5 v 1 h -9 l -2,1 -17,-3 -5,-2 z"
     fill="#17090a"
     id="path249" />
  <path
     d="m 577,683 4,1 5,5 -1,7 -5,-1 -3,-8 z"
     fill="#1e0a0c"
     id="path250" />
  <path
     d="m 804,516 1,2 -6,9 -11,15 -9,12 -2,1 2,-5 18,-24 z"
     fill="#250a0c"
     id="path251" />
  <path
     d="m 674,132 2,1 -3,7 -9,11 -5,3 2,-4 4,-6 h 2 l 1,-6 4,-4 h 2 z"
     fill="#8d5133"
     id="path252" />
  <path
     d="m 838,545 h 4 l 5,12 v 2 l 3,1 -1,2 -3,-1 -1,4 v -7 l -4,-2 -3,-7 z"
     fill="#14090a"
     id="path253" />
  <path
     d="m 404,1065 1,3 h -2 l -2,5 -9,12 -4,6 -2,-1 2,-5 3,-5 h 2 l 2,-4 7,-9 z"
     fill="#895030"
     id="path254" />
  <path
     d="m 857,563 2,3 5,8 1,8 -4,-2 v -3 l -5,-5 -1,-5 z"
     fill="#8c5432"
     id="path255" />
  <path
     d="m 711,331 1,3 -1,19 -4,4 -2,-1 3,-4 v -17 z"
     fill="#15090a"
     id="path256" />
  <path
     d="m 1027,217 1,3 -14,20 -2,-3 8,-12 z"
     fill="#290a0d"
     id="path257" />
  <path
     d="m 389,1014 1,2 -7,11 -9,13 -3,1 v 2 h -6 l -2,-2 7,-1 3,-1 2,-6 6,-7 z"
     fill="#8b5231"
     id="path258" />
  <path
     d="m 938,344 1,2 -3,7 -5,7 -3,-3 -2,-1 7,-9 4,-2 z"
     fill="#250a0c"
     id="path259" />
  <path
     d="m 956,311 1,3 -13,19 h -1 l 1,-7 5,-6 3,-6 z"
     fill="#894e30"
     id="path260" />
  <path
     d="m 158,682 h 23 v 2 l 4,1 -11,1 -2,1 -9,-1 2,-2 -7,-1 z"
     fill="#be9365"
     id="path261" />
  <path
     d="m 288,574 h 1 l 1,18 v 17 l -2,-4 -1,-13 -2,1 z"
     fill="#945e3e"
     id="path262" />
  <path
     d="m 855,453 1,3 -6,8 -5,8 -1,6 1,4 -4,-2 -2,-2 1,-4 10,-14 z"
     fill="#2d0a0d"
     id="path263" />
  <path
     d="m 759,294 7,1 12,7 7,6 v 2 l -4,-2 -10,-6 -9,-6 z"
     fill="#310b0e"
     id="path264" />
  <path
     d="m 534,827 2,1 -11,15 -4,5 h -2 l 1,-4 3,-6 h 3 l 2,-5 3,-1 2,-4 z"
     fill="#14090a"
     id="path265" />
  <path
     d="m 803,358 6,2 6,4 3,10 v 8 l -1,5 h -1 l -1,-15 -1,-5 -4,-1 -4,-5 z"
     fill="#5e3429"
     id="path266" />
  <path
     d="m 946,835 12,3 v 2 l -3,2 h -10 l -1,-2 z"
     fill="#975e39"
     id="path267" />
  <path
     d="m 542,809 2,2 2,-1 1,3 -7,9 -5,-2 2,-4 z"
     fill="#1b090b"
     id="path268" />
  <path
     d="m 713,754 10,2 3,1 v 2 h 3 l 1,6 -5,-1 -1,-3 -4,-1 -5,-4 z"
     fill="#823a2c"
     id="path269" />
  <path
     d="m 735,796 6,1 v 2 l 4,1 -3,6 -4,-1 -4,-5 z"
     fill="#975e39"
     id="path270" />
  <path
     d="m 881,809 9,2 8,3 -2,1 v 2 l -12,-3 -4,-2 z"
     fill="#17090a"
     id="path271" />
  <path
     d="m 625,720 1,2 h 5 v 3 l -2,1 -2,3 -1,-1 -2,4 -4,-2 1,-5 z"
     fill="#9a633d"
     id="path272" />
  <path
     d="m 936,74 h 18 l 8,3 v 2 l -10,-1 -16,-3 z"
     fill="#1b090b"
     id="path273" />
  <path
     d="m 743,31 h 2 v 2 h 3 l -1,3 4,5 16,1 5,2 v 1 l -12,-1 -13,-2 -2,-1 z"
     fill="#1f0a0c"
     id="path274" />
  <path
     d="m 2,970 1,4 v 8 l 2,-1 2,-7 1,2 v 10 l -2,2 H 3 l -3,-8 1,-9 z"
     fill="#af8157"
     id="path275" />
  <path
     d="m 491,945 1,2 -2,5 -9,12 -2,-1 v -5 l 3,-1 3,-5 h 2 l 1,-5 z"
     fill="#8a5031"
     id="path276" />
  <path
     d="m 397,795 13,1 9,3 6,1 -2,2 -23,-3 -3,-2 z"
     fill="#bc9063"
     id="path277" />
  <path
     d="m 810,394 h 2 l -2,5 -9,8 -8,2 h -13 l -3,-2 h 15 l 9,-3 5,-5 z"
     fill="#905d38"
     id="path278" />
  <path
     d="m 777,346 11,3 6,1 v 3 l -16,-1 -2,-1 z"
     fill="#361612"
     id="path279" />
  <path
     d="m 1023,163 1,2 -6,9 h -2 l -2,5 -12,16 -2,-1 12,-16 8,-11 z"
     fill="#95633e"
     id="path280" />
  <path
     d="m 1102,111 h 2 l -2,4 -10,14 -2,2 h -3 l 2,-4 z"
     fill="#895130"
     id="path281" />
  <path
     d="m 799,783 6,1 15,5 v 3 l -11,-3 -9,-2 z"
     fill="#1a090b"
     id="path282" />
  <path
     d="m 558,676 2,1 v 7 l -8,5 1,-7 3,-5 z"
     fill="#321815"
     id="path283" />
  <path
     d="m 931,641 2,3 13,26 h -3 l -12,-24 z"
     fill="#894f30"
     id="path284" />
  <path
     d="m 704,847 22,3 -2,2 h -12 l -7,-1 z"
     fill="#1e090b"
     id="path285" />
  <path
     d="m 908,595 h 2 l 13,26 2,1 v 6 l -3,-4 -8,-16 -6,-11 z"
     fill="#2f0a0d"
     id="path286" />
  <path
     d="m 777,343 1,3 -2,5 21,2 5,3 1,2 -16,-4 h -8 l -4,-1 1,-8 z"
     fill="#ba8f66"
     id="path287" />
  <path
     d="m 923,291 3,1 -1,6 -5,6 -3,-1 1,-5 z"
     fill="#17090a"
     id="path288" />
  <path
     d="m 619,207 1,4 -9,12 -7,9 -1,-2 11,-16 z"
     fill="#8c5432"
     id="path289" />
  <path
     d="m 518,851 1,2 -7,10 -3,5 h -2 v 3 l -5,5 -3,4 -2,-1 10,-13 z"
     fill="#95623d"
     id="path290" />
  <path
     d="m 177,746 1,3 -4,4 -1,4 h -3 l -1,4 -5,5 h -2 l 1,-4 5,-5 6,-8 z"
     fill="#c09567"
     id="path291" />
  <path
     d="m 606,719 v 3 l -8,11 -8,12 -1,-3 7,-11 9,-11 z"
     fill="#8c5434"
     id="path292" />
  <path
     d="m 829,366 2,2 2,6 v 12 l -4,12 -4,4 2,-7 4,-10 -1,-13 z"
     fill="#310b0e"
     id="path293" />
  <path
     d="m 633,628 5,2 1,9 h -5 l -2,-6 z"
     fill="#1e0a0c"
     id="path294" />
  <path
     d="m 686,454 4,2 7,8 6,8 5,-1 -2,1 -1,4 -3,-1 -10,-13 z"
     fill="#a0684b"
     id="path295" />
  <path
     d="m 905,389 2,1 -3,6 h -2 l -1,7 -5,5 1,-5 1,-3 h -2 v -2 h 2 l 2,-4 z"
     fill="#0f0506"
     id="path296" />
  <path
     d="m 994,202 1,3 -8,11 -10,13 -3,4 -2,-1 16,-21 z"
     fill="#95633d"
     id="path297" />
  <path
     d="m 541,877 3,1 -12,16 -4,2 2,-4 z"
     fill="#895130"
     id="path298" />
  <path
     d="m 856,492 4,3 4,10 5,10 -1,2 -5,-8 -4,-6 v -7 h -3 z"
     fill="#895130"
     id="path299" />
  <path
     d="m 857,449 2,1 -9,11 -4,6 h -3 l 2,-5 9,-11 z"
     fill="#894e30"
     id="path300" />
  <path
     d="m 515,307 1,2 -3,5 h -2 l -2,4 -3,5 h -3 l 2,-6 z"
     fill="#b5895d"
     id="path301" />
  <path
     d="m 576,832 3,1 -8,9 -5,6 -4,2 2,-4 9,-11 z"
     fill="#8e5a33"
     id="path302" />
  <path
     d="m 951,796 9,1 2,1 -1,4 h -7 l -6,-3 3,-1 z"
     fill="#050102"
     id="path303" />
  <path
     d="m 586,748 v 3 l -8,11 -6,7 v -3 l 7,-9 -3,-2 9,-6 z"
     fill="#986342"
     id="path304" />
  <path
     d="m 711,480 1,3 -3,3 2,3 -4,-1 v 7 h -6 l -2,4 -3,2 2,-4 3,-4 h 2 l 1,-4 z"
     fill="#b27b5b"
     id="path305" />
  <path
     d="m 895,398 1,3 -3,5 -3,3 -7,10 -5,5 2,-5 12,-17 z"
     fill="#240a0c"
     id="path306" />
  <path
     d="m 891,66 h 16 l 8,2 3,3 -10,-1 -17,-3 z"
     fill="#1c090b"
     id="path307" />
  <path
     d="m 159,925 7,1 10,4 1,3 h -5 l -5,-3 -6,-2 -2,-1 z"
     fill="#a97a52"
     id="path308" />
  <path
     d="m 741,853 12,1 7,4 v 1 h -7 l -5,-2 -8,-2 z"
     fill="#14090a"
     id="path309" />
  <path
     d="m 160,766 3,1 -2,5 -5,5 -6,8 -1,-3 7,-9 2,-5 z"
     fill="#c09567"
     id="path310" />
  <path
     d="m 815,504 4,2 1,3 -3,1 -1,2 v -3 l -3,1 -6,7 h -2 v -3 h 2 l 2,-4 z"
     fill="#19090b"
     id="path311" />
  <path
     d="m 715,365 1,3 -10,9 -5,2 v 2 l -5,1 3,-4 h 3 v -2 l 11,-9 z"
     fill="#2f1311"
     id="path312" />
  <path
     d="m 1092,128 v 3 l -6,9 h -2 l -1,4 -8,11 h -2 l 2,-5 h 2 l 2,-5 12,-16 z"
     fill="#200a0c"
     id="path313" />
  <path
     d="m 183,788 v 3 l -13,17 -2,-1 1,-3 h 2 l 2,-5 4,-6 h 2 v -2 z"
     fill="#8f5834"
     id="path314" />
  <path
     d="m 1009,79 h 9 l 10,2 1,2 h -12 l -8,-1 z"
     fill="#17090a"
     id="path315" />
  <path
     d="m 894,775 5,1 6,2 v 1 h -6 v 2 l -5,1 -6,-2 4,-2 z"
     fill="#150809"
     id="path316" />
  <path
     d="m 614,700 4,3 v 2 l -5,3 -4,2 -2,-4 z"
     fill="#fffef8"
     id="path317" />
  <path
     d="m 689,592 h 4 l 2,3 -1,4 -1,-3 h -5 l -5,4 -5,5 2,-5 3,-5 z"
     fill="#98503c"
     id="path318" />
  <path
     d="m 674,557 7,6 8,10 -1,3 -10,-11 -4,-6 z"
     fill="#aa6e53"
     id="path319" />
  <path
     d="m 799,338 7,2 12,9 4,4 -1,2 -10,-9 -12,-6 z"
     fill="#2c0a0d"
     id="path320" />
  <path
     d="m 983,840 8,2 1,5 -10,-2 -3,-2 z"
     fill="#240a0c"
     id="path321" />
  <path
     d="m 835,531 h 2 l 2,4 4,2 3,5 v 2 l -5,-1 -5,-7 z"
     fill="#87492f"
     id="path322" />
  <path
     d="m 539,275 1,2 -2,4 -5,5 -3,6 -3,-2 3,-6 h 2 l 2,-4 z"
     fill="#b5895d"
     id="path323" />
  <path
     d="m 657,160 1,3 -8,11 -5,5 -2,1 2,-5 h 2 l 2,-5 2,-3 h 2 l 2,-5 z"
     fill="#260a0c"
     id="path324" />
  <path
     d="m 705,92 h 2 l -2,5 -9,11 h -2 l 2,-5 5,-7 h 2 z"
     fill="#8c5332"
     id="path325" />
  <path
     d="m 341,1091 1,4 -3,9 v 10 l -2,-2 v -15 l -1,-2 3,-3 z"
     fill="#1f0c0c"
     id="path326" />
  <path
     d="m 374,1003 7,1 10,3 2,4 -2,2 -4,-4 -9,-2 v -2 l -4,-1 z"
     fill="#8a4f31"
     id="path327" />
  <path
     d="m 40,972 h 2 l -1,4 -10,14 h -3 l 6,-9 z"
     fill="#8c5632"
     id="path328" />
  <path
     d="m 478,964 2,1 -10,14 -1,2 h -2 l -1,2 1,-7 4,-2 v -3 l 4,-4 h 2 z"
     fill="#86482e"
     id="path329" />
  <path
     d="m 968,828 7,1 -1,2 h 3 l 2,3 -4,3 -4,-1 -1,-2 1,-3 -3,-1 z"
     fill="#965d38"
     id="path330" />
  <path
     d="m 703,576 4,1 4,2 -5,7 -3,-2 -1,-7 z"
     fill="#1b090b"
     id="path331" />
  <path
     d="m 892,337 h 2 l -1,4 -6,9 -2,-4 2,-6 z"
     fill="#13090a"
     id="path332" />
  <path
     d="m 963,244 1,3 -10,13 -8,11 -2,-1 12,-16 z"
     fill="#94613d"
     id="path333" />
  <path
     d="m 699,58 1,3 -4,7 -4,4 h -2 v 3 l -4,2 v -3 l 6,-6 3,-6 z"
     fill="#c09567"
     id="path334" />
  <path
     d="m 390,761 7,1 -2,4 -5,2 -1,4 -3,1 1,-6 h 2 z"
     fill="#b98d60"
     id="path335" />
  <path
     d="m 722,731 2,4 v 3 l -7,2 -3,2 -3,-1 h 2 l 1,-3 z"
     fill="#975e39"
     id="path336" />
  <path
     d="m 660,646 h 1 v 6 l 6,-2 -3,6 h -2 l -2,5 -2,1 1,-6 1,-2 -2,-1 h 2 z"
     fill="#4c1f18"
     id="path337" />
  <path
     d="m 819,504 4,2 5,7 4,4 v 5 l -3,-1 -4,-8 z"
     fill="#86442e"
     id="path338" />
  <path
     d="m 700,477 h 3 v 2 h 2 l -4,8 -5,-2 3,-4 -4,-1 z"
     fill="#cfa07d"
     id="path339" />
  <path
     d="m 717,464 h 1 v 27 h -3 l 1,-21 z"
     fill="#310b0e"
     id="path340" />
  <path
     d="m 812,367 h 2 l 2,5 v 15 l -3,7 -1,-3 3,-18 h -2 z"
     fill="#a1724b"
     id="path341" />
  <path
     d="m 1041,138 1,3 -9,12 -6,9 -3,1 2,-4 10,-14 z"
     fill="#94623c"
     id="path342" />
  <path
     d="m 1079,906 h 10 l 5,3 v 1 h -9 l -6,-1 z"
     fill="#af8257"
     id="path343" />
  <path
     d="m 496,880 1,2 -4,8 -4,5 h -2 v 2 l -3,1 2,-4 7,-10 z"
     fill="#986540"
     id="path344" />
  <path
     d="m 718,765 10,2 10,3 v 1 l -14,-1 -6,-1 2,-2 z"
     fill="#310b0e"
     id="path345" />
  <path
     d="m 688,595 h 4 l -1,7 -3,2 -3,-1 1,-6 z"
     fill="#fffef8"
     id="path346" />
  <path
     d="m 146,961 7,1 19,7 v 1 h -8 l -5,-3 -4,-1 v -2 l -9,-2 z"
     fill="#260a0c"
     id="path347" />
  <path
     d="m 122,868 v 3 l -13,17 -1,-3 10,-13 z"
     fill="#8f5934"
     id="path348" />
  <path
     d="m 938,829 h 10 v 2 l 5,1 -1,2 -9,-1 -3,-1 v -2 z"
     fill="#090303"
     id="path349" />
  <path
     d="m 439,801 9,3 3,2 -16,-1 -3,-1 v -2 h 6 z"
     fill="#b98e61"
     id="path350" />
  <path
     d="m 1045,189 v 3 l -9,13 -2,2 v -6 l 6,-7 z"
     fill="#874b2f"
     id="path351" />
  <path
     d="m 1072,150 h 1 v 5 h -2 l -2,4 -7,10 -2,-1 3,-7 4,-1 2,-6 z"
     fill="#874a2f"
     id="path352" />
  <path
     d="m 338,1084 h 5 l -2,2 3,1 -1,4 -5,2 -2,-1 1,-6 z"
     fill="#120809"
     id="path353" />
  <path
     d="m 679,545 3,1 2,3 v 3 l 4,2 4,6 3,3 -1,2 -7,-7 -8,-11 z"
     fill="#b58060"
     id="path354" />
  <path
     d="m 823,517 4,1 2,1 1,8 -5,-2 -2,-3 z"
     fill="#100709"
     id="path355" />
  <path
     d="m 974,81 17,1 9,2 v 2 l -10,-1 -16,-3 z"
     fill="#260a0c"
     id="path356" />
  <path
     d="m 137,918 10,1 6,3 v 4 l -5,-2 -2,-2 -9,-3 z"
     fill="#ac7f54"
     id="path357" />
  <path
     d="m 778,858 h 15 l 10,2 v 1 h -13 l -12,-2 z"
     fill="#a2734b"
     id="path358" />
  <path
     d="m 771,769 h 2 v 2 h 2 v 2 l -6,2 -6,-1 2,-4 z"
     fill="#975e39"
     id="path359" />
  <path
     d="m 873,768 6,1 -1,7 -11,-3 v -1 l 6,-2 z"
     fill="#18090b"
     id="path360" />
  <path
     d="m 925,625 3,4 6,13 -2,1 -8,-14 z"
     fill="#260a0c"
     id="path361" />
  <path
     d="m 916,370 h 1 v 5 l 4,-2 -2,4 -4,4 v -4 h -3 v 2 l -2,-1 z"
     fill="#270a0d"
     id="path362" />
  <path
     d="m 1059,169 1,2 -7,10 -5,7 h -1 v -5 l 5,-5 1,-2 h 2 l 1,-4 z"
     fill="#874d2f"
     id="path363" />
  <path
     d="m 564,848 2,1 -9,12 -5,2 2,-4 5,-7 z"
     fill="#8c5732"
     id="path364" />
  <path
     d="m 594,745 2,2 -6,8 -5,-3 3,-4 3,-1 1,3 1,-4 z"
     fill="#1d090b"
     id="path365" />
  <path
     d="m 233,674 v 3 l -5,8 -5,4 h -5 l 3,-2 5,-5 z"
     fill="#bd9264"
     id="path366" />
  <path
     d="m 309,623 2,4 6,17 -1,2 -2,-4 v -3 l -3,-1 -2,-7 z"
     fill="#85563f"
     id="path367" />
  <path
     d="m 1028,212 2,1 -9,12 -2,1 1,-8 z"
     fill="#884e2f"
     id="path368" />
  <path
     d="m 756,855 15,2 1,2 -2,1 h -7 l -6,-3 z"
     fill="#1d090b"
     id="path369" />
  <path
     d="m 912,825 4,1 1,4 -2,2 -5,-1 -1,-4 z"
     fill="#975e39"
     id="path370" />
  <path
     d="m 1002,788 h 3 l 6,12 v 3 l -3,-1 -6,-13 z"
     fill="#ba8f62"
     id="path371" />
  <path
     d="m 543,735 2,1 -12,8 v 2 l 5,1 v 1 h -7 l -1,-4 8,-7 z"
     fill="#894131"
     id="path372" />
  <path
     d="m 872,598 3,1 4,8 v 2 l -4,-1 -4,-5 z"
     fill="#8d5632"
     id="path373" />
  <path
     d="m 621,586 4,4 1,4 h 2 l 4,7 3,4 -1,2 -10,-12 -2,-5 -2,-2 z"
     fill="#cf997a"
     id="path374" />
  <path
     d="m 298,526 2,1 v 6 l -3,9 h -2 v -8 z"
     fill="#2c0a0d"
     id="path375" />
  <path
     d="m 850,463 5,1 -4,9 -5,-3 2,-4 z"
     fill="#240a0c"
     id="path376" />
  <path
     d="m 632,192 v 3 l -10,13 -2,2 1,-6 h 2 l 2,-5 5,-5 z"
     fill="#87482f"
     id="path377" />
  <path
     d="m 1030,126 5,1 3,3 -7,-1 -8,16 -1,-2 5,-12 z"
     fill="#84422d"
     id="path378" />
  <path
     d="m 483,898 1,2 -2,5 -3,3 h -2 l -1,4 -4,2 2,-4 z"
     fill="#96643e"
     id="path379" />
  <path
     d="m 855,456 h 3 l -1,7 -6,2 -1,-3 z"
     fill="#0f0607"
     id="path380" />
  <path
     d="m 815,387 h 3 l -2,9 -4,4 -1,-4 z"
     fill="#1f0a0c"
     id="path381" />
  <path
     d="m 434,1025 1,3 -7,9 -2,3 h -2 l 2,-5 6,-9 z"
     fill="#895130"
     id="path382" />
  <path
     d="m 463,989 v 3 l -7,9 h -2 l -1,4 -2,2 1,-5 1,-2 h 2 v -3 h 2 l 2,-5 z"
     fill="#210a0c"
     id="path383" />
  <path
     d="m 532,846 1,2 -6,9 -3,5 h -2 l 2,-6 h 2 l 1,-4 z"
     fill="#b5895d"
     id="path384" />
  <path
     d="m 858,450 h 2 v 3 h 3 l -2,4 -4,4 1,-5 h -2 l 1,-5 z"
     fill="#1a090b"
     id="path385" />
  <path
     d="m 885,407 2,1 -1,4 -8,11 -1,-4 7,-9 z"
     fill="#894e30"
     id="path386" />
  <path
     d="m 1004,181 3,1 1,3 -5,5 h -3 l -2,1 2,-5 z"
     fill="#1f0a0c"
     id="path387" />
  <path
     d="m 847,58 h 11 l 10,2 v 2 l -11,-1 -10,-2 z"
     fill="#1b090b"
     id="path388" />
  <path
     d="m 49,960 3,1 -9,13 -2,-3 1,-2 h 2 v -3 h 2 l 2,-5 z"
     fill="#87492f"
     id="path389" />
  <path
     d="m 921,831 h 7 l 9,3 -1,3 -13,-3 z"
     fill="#975e39"
     id="path390" />
  <path
     d="m 934,717 h 3 l -1,7 5,2 -3,3 -3,-1 -1,-3 z"
     fill="#ae8156"
     id="path391" />
  <path
     d="m 876,609 4,1 2,5 1,1 v 7 l -3,-3 -4,-9 z"
     fill="#894e30"
     id="path392" />
  <path
     d="m 287,596 h 1 v 14 l -2,-3 -2,2 -2,-2 1,-3 h 2 l 1,-6 z"
     fill="#bf9466"
     id="path393" />
  <path
     d="m 690,476 4,2 1,3 h 4 l -1,3 h -2 l -2,4 -3,2 2,-4 -1,-6 z"
     fill="#9e5d44"
     id="path394" />
  <path
     d="m 845,470 4,1 2,4 -5,1 1,6 -3,-1 -1,-5 z"
     fill="#12090a"
     id="path395" />
  <path
     d="m 686,409 2,1 -7,8 -8,8 -2,-1 9,-9 z"
     fill="#9e6748"
     id="path396" />
  <path
     d="m 1011,175 3,1 -6,8 -3,-1 1,-5 z"
     fill="#16090a"
     id="path397" />
  <path
     d="m 1014,895 15,1 1,2 -8,1 -8,-2 z"
     fill="#b2855a"
     id="path398" />
  <path
     d="m 490,884 2,1 -9,13 -2,-2 6,-9 z"
     fill="#1b090b"
     id="path399" />
  <path
     d="m 916,879 19,1 v 2 h -14 l -5,-2 z"
     fill="#b4875c"
     id="path400" />
  <path
     d="m 490,811 h 9 l 6,2 v 2 l -14,-1 -3,-2 z"
     fill="#b5895d"
     id="path401" />
  <path
     d="m 834,437 1,3 -3,2 v 2 h -2 v 3 h -2 l -2,4 -2,2 -1,-2 2,-3 h 2 v -3 h 2 l 1,-5 h 2 v -2 z"
     fill="#b5895d"
     id="path402" />
  <path
     d="m 775,317 4,2 2,5 v 13 h -1 l -1,-10 -4,-7 z"
     fill="#270a0c"
     id="path403" />
  <path
     d="m 1034,898 h 11 v 2 h 8 l 1,3 -7,-1 -13,-3 z"
     fill="#b78c5f"
     id="path404" />
  <path
     d="m 94,854 h 2 v 2 h -2 l -2,5 -3,5 -4,3 1,-5 5,-7 h 2 z"
     fill="#c09567"
     id="path405" />
  <path
     d="m 885,485 h 1 l -1,7 -3,5 h -2 l -1,3 -1,-2 6,-12 z"
     fill="#270a0c"
     id="path406" />
  <path
     d="m 984,266 h 3 l 1,3 -1,3 -7,3 -2,1 2,-4 z"
     fill="#8d5933"
     id="path407" />
  <path
     d="m 398,1004 4,1 -6,8 -2,-2 -1,-4 z"
     fill="#090505"
     id="path408" />
  <path
     d="m 824,866 16,2 v 1 l -11,1 -6,-1 z"
     fill="#19090b"
     id="path409" />
  <path
     d="m 919,822 10,2 6,2 -1,2 -12,-2 v -2 h -3 z"
     fill="#020000"
     id="path410" />
  <path
     d="m 438,767 10,1 3,1 v 2 l -11,-1 -7,-1 v -1 z"
     fill="#86472e"
     id="path411" />
  <path
     d="m 340,700 h 4 l 3,5 -6,1 -3,-2 v -3 z"
     fill="#10090a"
     id="path412" />
  <path
     d="m 292,555 1,4 -2,13 -2,1 v -9 l 1,-7 h 2 z"
     fill="#3e1313"
     id="path413" />
  <path
     d="m 843,544 5,1 3,9 -4,-2 v -2 h -3 z"
     fill="#8e5533"
     id="path414" />
  <path
     d="m 896,395 v 3 l -8,11 -2,-1 1,-4 h 2 l 2,-4 z"
     fill="#87472f"
     id="path415" />
  <path
     d="m 821,865 21,1 v 2 l 2,1 -16,-2 -7,-1 z"
     fill="#986741"
     id="path416" />
  <path
     d="m 295,537 1,2 -2,10 -1,2 -1,6 h -2 l 2,-12 z"
     fill="#12090a"
     id="path417" />
  <path
     d="m 870,512 h 1 l 2,8 3,3 v 5 l -5,-5 -2,-4 z"
     fill="#230a0c"
     id="path418" />
  <path
     d="m 760,412 7,6 9,3 v 1 l -8,-1 -5,-3 -2,-4 -4,1 z"
     fill="#823a2c"
     id="path419" />
  <path
     d="m 864,392 h 3 l -2,5 -3,5 -3,1 v -4 l 5,-6 z"
     fill="#b4885c"
     id="path420" />
  <path
     d="m 725,349 4,2 2,4 -1,2 h -2 l -1,2 -2,-6 z"
     fill="#653f2d"
     id="path421" />
  <path
     d="m 1050,185 v 3 l -3,4 -2,5 -5,2 6,-10 z"
     fill="#2c0a0d"
     id="path422" />
  <path
     d="m 1041,189 2,2 -6,8 h -2 l -1,4 h -2 l 2,-5 z"
     fill="#975e39"
     id="path423" />
  <path
     d="m 1053,134 1,2 -5,9 h -3 v -3 h 2 l 2,-5 z"
     fill="#b5895d"
     id="path424" />
  <path
     d="m 458,987 1,4 h -3 l -2,7 -3,2 v -5 z"
     fill="#945d37"
     id="path425" />
  <path
     d="m 471,976 1,4 h -2 l -2,5 -5,5 -2,1 2,-4 4,-6 h 2 z"
     fill="#280a0c"
     id="path426" />
  <path
     d="m 71,930 5,2 v 1 l -6,2 -6,5 v -3 z"
     fill="#8e5a33"
     id="path427" />
  <path
     d="m 62,894 h 2 l -2,6 -3,2 -2,4 -3,1 1,-4 3,-3 2,-4 h 2 z"
     fill="#c09567"
     id="path428" />
  <path
     d="m 960,800 h 6 l 4,2 v 2 h -9 l -4,-2 z"
     fill="#17090a"
     id="path429" />
  <path
     d="m 620,783 5,3 8,2 v 2 l -14,-2 v -3 z"
     fill="#9d5d40"
     id="path430" />
  <path
     d="m 869,587 3,6 v 7 l -3,-1 -1,-8 z"
     fill="#894d30"
     id="path431" />
  <path
     d="m 689,404 5,4 5,9 h -3 l -5,-8 -2,-1 z"
     fill="#915e38"
     id="path432" />
  <path
     d="m 864,371 2,2 -3,1 -1,7 -6,2 2,-4 z"
     fill="#240a0c"
     id="path433" />
  <path
     d="m 675,90 1,2 -3,5 h -2 v 3 l -4,4 -1,2 -2,-1 7,-11 z"
     fill="#c09567"
     id="path434" />
  <path
     d="m 443,954 1,2 -9,13 -4,1 3,-5 5,-5 z"
     fill="#a3754c"
     id="path435" />
  <path
     d="m 968,884 16,1 v 2 h -12 z"
     fill="#b98e62"
     id="path436" />
  <path
     d="m 993,846 3,3 1,6 -8,-3 2,-1 v -3 h 2 z"
     fill="#8c5b32"
     id="path437" />
  <path
     d="m 534,827 2,1 -8,11 h -2 l 1,-4 2,-3 h 2 l 2,-4 z"
     fill="#17090b"
     id="path438" />
  <path
     d="m 619,776 3,1 2,2 -5,7 -1,-4 v -5 z"
     fill="#220a0c"
     id="path439" />
  <path
     d="m 628,594 5,5 6,7 -1,2 -5,-4 -5,-7 z"
     fill="#9c4a39"
     id="path440" />
  <path
     d="m 958,317 h 1 l -1,8 -1,5 h -1 v -6 h -2 l 1,-5 z"
     fill="#12090a"
     id="path441" />
  <path
     d="m 360,1066 1,2 -8,12 h -2 v 2 l -2,-1 8,-11 z"
     fill="#a5774d"
     id="path442" />
  <path
     d="m 940,883 15,1 1,2 h -11 l -5,-2 z"
     fill="#b5885c"
     id="path443" />
  <path
     d="m 585,826 h 9 l 5,2 v 1 h -11 l -3,-1 z"
     fill="#ac7e54"
     id="path444" />
  <path
     d="m 271,694 h 13 l 5,1 v 3 l -11,-2 -7,-1 z"
     fill="#8c5832"
     id="path445" />
  <path
     d="m 937,660 3,1 6,13 -1,2 -2,-4 -3,-3 z"
     fill="#a4784f"
     id="path446" />
  <path
     d="m 743,423 3,1 -11,9 h -2 l 2,-4 2,-2 h 3 v -2 z"
     fill="#240a0c"
     id="path447" />
  <path
     d="m 1021,227 v 3 l -7,10 -2,-3 4,-5 z"
     fill="#1e090b"
     id="path448" />
  <path
     d="m 668,143 v 3 l -5,6 -4,2 2,-4 4,-6 z"
     fill="#8c5232"
     id="path449" />
  <path
     d="m 385,1089 2,1 -2,5 -4,4 h -2 l 2,-5 z"
     fill="#8b5531"
     id="path450" />
  <path
     d="m 364,1000 8,1 3,2 3,3 -5,-1 -9,-4 z"
     fill="#8e5633"
     id="path451" />
  <path
     d="m 583,827 5,1 -4,2 -10,10 v -3 z"
     fill="#140608"
     id="path452" />
  <path
     d="m 956,695 5,5 3,6 v 2 l -3,-1 -5,-9 z"
     fill="#9c6e45"
     id="path453" />
  <path
     d="m 635,686 1,2 -3,7 -2,1 v -3 l -2,2 -2,-2 z"
     fill="#12090a"
     id="path454" />
  <path
     d="m 831,530 4,4 1,7 -3,-1 -2,-4 z"
     fill="#13090a"
     id="path455" />
  <path
     d="m 851,474 3,3 6,9 -1,2 -4,-4 -2,-3 v -3 h -2 z"
     fill="#250a0c"
     id="path456" />
  <path
     d="m 874,379 h 2 l -2,6 h -2 l -2,6 -3,1 -1,-3 h 3 l 1,-4 2,-3 h 2 z"
     fill="#b4885c"
     id="path457" />
  <path
     d="m 601,356 h 14 v 1 h -7 v 2 h -8 z"
     fill="#200a0c"
     id="path458" />
  <path
     d="m 348,1082 h 3 l 2,2 -1,2 h -2 v 2 l -4,1 -2,1 2,-5 z"
     fill="#ba8e66"
     id="path459" />
  <path
     d="m 352,995 5,1 9,3 -3,2 -10,-3 z"
     fill="#884e30"
     id="path460" />
  <path
     d="m 958,884 12,3 2,2 -10,-1 -5,-2 z"
     fill="#ab7c53"
     id="path461" />
  <path
     d="m 77,876 1,2 -9,12 -2,-1 8,-11 z"
     fill="#c09567"
     id="path462" />
  <path
     d="m 799,783 6,1 3,2 v 2 l -8,-1 z"
     fill="#2b0a0d"
     id="path463" />
  <path
     d="m 615,705 3,1 -8,8 -3,-3 6,-4 z"
     fill="#c0976d"
     id="path464" />
  <path
     d="m 142,677 h 11 l -1,3 h -8 z"
     fill="#ba8e62"
     id="path465" />
  <path
     d="m 793,470 2,3 -2,5 -3,-1 -1,-4 1,-2 z"
     fill="#060202"
     id="path466" />
  <path
     d="m 861,440 2,1 -1,4 -5,5 -2,1 2,-5 1,-2 h 2 z"
     fill="#8c5432"
     id="path467" />
  <path
     d="m 752,304 4,3 -10,2 -4,1 1,-4 8,-1 z"
     fill="#1f0a0c"
     id="path468" />
  <path
     d="m 26,942 1,3 -6,9 -3,1 2,-5 z"
     fill="#c09567"
     id="path469" />
  <path
     d="m 191,937 6,1 5,2 v 2 h -7 l -4,-3 z"
     fill="#aa7d53"
     id="path470" />
  <path
     d="m 988,853 h 7 l 3,5 v 2 h -8 v -1 l 5,-1 -2,-3 -5,-1 z"
     fill="#1b090b"
     id="path471" />
  <path
     d="m 939,731 h 3 l 1,2 2,1 -1,4 1,4 -4,-4 -2,-4 z"
     fill="#b2865b"
     id="path472" />
  <path
     d="m 718,641 2,3 -1,5 h -3 -2 l 2,-5 z"
     fill="#1d090b"
     id="path473" />
  <path
     d="m 856,407 1,2 h -2 l -2,6 -4,4 -1,-2 4,-7 h 2 v -2 z"
     fill="#b5895d"
     id="path474" />
  <path
     d="m 645,178 v 3 l -7,9 -1,-4 5,-6 z"
     fill="#1d090b"
     id="path475" />
  <path
     d="m 1071,155 h 2 l -1,5 -4,2 -1,4 -2,-3 z"
     fill="#230a0c"
     id="path476" />
  <path
     d="m 345,1105 h 1 v 9 l -2,5 h -3 l 1,-4 h 2 v -8 z"
     fill="#be9466"
     id="path477" />
  <path
     d="m 984,884 8,2 v 1 h -11 l -6,-1 v -1 z"
     fill="#ab7d53"
     id="path478" />
  <path
     d="m 875,766 9,2 3,2 -5,1 -8,-3 z"
     fill="#7f382a"
     id="path479" />
  <path
     d="m 581,714 h 2 l 1,4 -5,5 -3,2 3,-9 h 2 z"
     fill="#b8795e"
     id="path480" />
  <path
     d="m 832,521 4,2 3,6 -4,-1 -3,-3 -1,-3 z"
     fill="#905c34"
     id="path481" />
  <path
     d="m 804,513 2,1 -8,12 -2,1 2,-5 4,-7 h 2 z"
     fill="#8b5431"
     id="path482" />
  <path
     d="m 494,375 4,5 -1,1 h -7 v -3 z"
     fill="#14090a"
     id="path483" />
  <path
     d="m 344,1081 h 3 l -1,5 -2,2 -4,-2 3,-1 z"
     fill="#1b090b"
     id="path484" />
  <path
     d="m 96,941 9,1 7,3 v 1 l -9,-1 -7,-3 z"
     fill="#894b30"
     id="path485" />
  <path
     d="m 50,910 1,2 -4,5 -3,5 -2,1 2,-5 4,-6 z"
     fill="#bf9466"
     id="path486" />
  <path
     d="m 994,892 h 9 l 5,2 v 1 h -9 l -5,-2 z"
     fill="#b68b5f"
     id="path487" />
  <path
     d="m 935,880 6,2 1,3 -14,-2 v -1 h 7 z"
     fill="#9f6e47"
     id="path488" />
  <path
     d="m 590,694 2,1 -10,10 -3,-1 10,-9 z"
     fill="#b4855f"
     id="path489" />
  <path
     d="m 314,645 4,2 2,8 -3,-1 -3,-7 z"
     fill="#471c19"
     id="path490" />
  <path
     d="m 823,522 5,5 2,3 v 6 l -2,-3 -5,-9 z"
     fill="#310b0e"
     id="path491" />
  <path
     d="m 764,506 1,4 -1,3 h -3 l -2,4 -2,1 2,-5 z"
     fill="#230a0c"
     id="path492" />
  <path
     d="m 856,492 4,3 3,9 -4,-1 v -7 h -3 z"
     fill="#86462e"
     id="path493" />
  <path
     d="m 841,416 1,4 -5,5 -3,-1 z"
     fill="#cca47a"
     id="path494" />
  <path
     d="m 922,360 v 3 l -6,8 h -1 v -5 h 2 l 1,-3 z"
     fill="#86452e"
     id="path495" />
  <path
     d="m 1042,198 v 3 l -5,7 -2,-3 5,-6 z"
     fill="#230a0c"
     id="path496" />
  <path
     d="m 1060,122 2,2 -4,6 h -2 l -1,4 -1,-3 4,-7 h 2 z"
     fill="#b5895d"
     id="path497" />
</svg>
