<svg xmlns="http://www.w3.org/2000/svg" width="563" height="494" viewBox="0 0 563 494"><path d="M0 0v289h1c.011-17.07 5.502-35.252 11.8-51C42.38 164.041 117.024 122.215 188 95.065c10.077-3.855 20.035-3.956 30-7.065v-1h-2v-1l65-12-2-2v-1l66-5v1h-6v1l37 3c.662 4.87 15.461 8.782 20 8l8 5-1 2c6.19.926 10.999-4.885 16-8l-1-3 17-10c-.362-8.428-2.396-17.58-1.07-26C436.793 20.81 452.567 3.494 471 1c-10.98-4.607-30.056-1-42-1z" style="fill:#040202;stroke:none"/><path d="M435 65c-13.912.739-18.049 20.695-32 21l1-2-8-5-24.09-8.296L339 68l1-2c-14.957 0-30.177.75-45 2.74-4.67.628-12.441-.068-14 5.26l-65 12v1h2v1c-72.343 14.844-154.485 58.474-193.547 124C-32.49 307.52 18.332 438.572 118 480.716 151.512 494.886 191.237 494 227 494v-1h-6v-1c20.943 0 39.72-2.579 60-8 0-3.163 5.051-4.088 8-4.333 10.774-.898 21.506-8.49 31-13.5 28.207-14.887 51.878-35.171 71.667-60.167 7.009-8.854 13.311-18.248 19-28 1.692-2.901 3.811-9.679 6.333-11l-1-3c2.713 0 2.383-1.384 2-4l3-1 2-9 2 1 9-23c.782-4.691 2.858-21.035 7-20l-1-5 6-15 7-33-1-7 4-12c-.658-3.95-1.838-13.959 2-13l-2-55h-1l-1 3-1-22 8-3-1-3 30-24-1-4h4l-1 12 5 1-2 3c16.81 5.468 36.442 6.436 50.816-5.9 5.425-4.656 8.045-11.585 13.184-16.1-.687-7.557 2.393-15.168 1.957-23-.523-9.37-7.129-20.6-12.772-27.828-4.279-5.48-13.643-5.587-19.211-9.511C522.757 44.279 519.826 30.118 520 23c-5.735-3.478-18.986-12.607-21-19-9.409 1.647-17.235-5.095-27-3.7-19.232 2.748-35.616 19.358-38.393 38.7-1.179 8.212.743 17.76 1.393 26" style="fill:#3d0f18;stroke:none"/><path d="m483.667.333.666.334z" style="fill:#876d6d;stroke:none"/><path d="M483 1v1l16 2c1.125 6.076 15.301 16.677 21 19l3 20 2-2h1c.145 12.254 12.654 9.847 20.296 15.845 3.787 2.973 8.035 12 10.616 16.245 7.663 12.598-.461 23.676 2.088 35.91l-9 10c-1.364 4.741-6.879 7.744-11 10.124-14.801 8.549-28.466 5.47-44 1.876l2-3-5-1 1-12h-4l1 4c-6.238.843-6.967 5.018-10.848 9.196-5.305 5.711-12.278 11.207-19.152 14.804l1 3-8 3 1 22 1-3h1l2 57h-1v-3h-1v16h-1v-3h-1l-12 70h-1v-2h-1l1 5c-5.882.799-6.372 15.078-7 20-4.075.554-7.814 18.424-9 23l-2-1-2 9-3 1 1 4h-3l1 3c-3.126 1.687-5.099 7.805-7 11-5.618 9.443-11.527 18.408-18.389 27-19.87 24.881-43.253 46.008-71.611 60.778-8.448 4.4-18.54 11.798-28 13.528-3.581.654-11 .018-11 4.694l-60 8v1l342 1V0c-25.017 0-55.679-4.79-80 1" style="fill:#040202;stroke:none"/><path d="m489.667 1.333.666.334zM493 2l1 1zm3 1 1 1zm8 4 1 1zm4 3 1 1zm-33.333 7.333.666.334z" style="fill:#876d6d;stroke:none"/><path d="M476 17v1h7z" style="fill:#a7a39e;stroke:none"/><path d="m483.667 17.333.666.334z" style="fill:#574544;stroke:none"/><path d="m442 18 1 1z" style="fill:#876d6d;stroke:none"/><path d="M448 133h1c-.395-2.556-2.273-6.278-1.502-8.79 1.099-3.584 7.597-6.324 10.502-8.326 8.56-5.899 21.994-12.535 27-21.884 7.221 4.756 14.192 9.401 23 10.699 17.418 2.567 47.189-12.158 30.316-32.606C529.255 61.114 514.988 61 502 61c3.554-7.6 6.985-17.607 4.146-26-6.103-18.045-30.517-21.147-45.146-12.637-10.435 6.07-15.813 21.047-11.772 32.533 1.271 3.612 7.562 5.857 7.002 9.978-.426 3.134-6.009 5.448-8.23 7.225-6.232 4.986-12.024 10.527-18 15.811-2.218 1.962-6.519 4.09-7.248 7.194-.998 4.246 4.71 8.273 7.209 10.896 7.445 7.816 13.417 17.291 18.039 27" style="fill:#fdfbeb;stroke:none"/><path d="m516 18 1 1zm-24 2 1 1zm-30 1 1 1zm58 3 1 1zm-64 1 1 1z" style="fill:#876d6d;stroke:none"/><path d="m499 25 1 1z" style="fill:#a7a39e;stroke:none"/><path d="m455 26 1 1z" style="fill:#876d6d;stroke:none"/><path d="m500 26 1 1zm1 1 1 1z" style="fill:#a7a39e;stroke:none"/><path d="m504 31 1 1z" style="fill:#876d6d;stroke:none"/><path d="m508 39-5 22c12.547 0 20.435 2.791 32 7-3.069-4.922-11.311-8.34-17-8l-1-1 1-4c-12.701-.15-6.611-7.92-10-16" style="fill:#040202;stroke:none"/><path d="m448.333 40.667.334.666z" style="fill:#a7a39e;stroke:none"/><path d="M525 41v3h1z" style="fill:#574544;stroke:none"/><path d="M432 44v14h1z" style="fill:#3d0f18;stroke:none"/><path d="m506.333 47.667.334.666z" style="fill:#876d6d;stroke:none"/><path d="M448 51v3h1z" style="fill:#a7a39e;stroke:none"/><path d="m543 53 1 1z" style="fill:#876d6d;stroke:none"/><path d="m448 57 6 5z" style="fill:#040202;stroke:none"/><path d="m502 60 1 1zm14 1v1h3z" style="fill:#876d6d;stroke:none"/><path d="M455 62v4h2v-4z" style="fill:#040202;stroke:none"/><path d="m457.333 64.667.334.666z" style="fill:#876d6d;stroke:none"/><path d="M315 66v1h10z" style="fill:#574544;stroke:none"/><path d="M340 66v1h5z" style="fill:#876d6d;stroke:none"/><path d="m531 66 1 1z" style="fill:#a7a39e;stroke:none"/><path d="M303 67v1h4zm49 0v1h4z" style="fill:#574544;stroke:none"/><path d="m427 67 1 1z" style="fill:#876d6d;stroke:none"/><path d="m454.667 67.333.666.334z" style="fill:#a7a39e;stroke:none"/><path d="m295.667 68.333.666.334z" style="fill:#876d6d;stroke:none"/><path d="M359 68v1h3z" style="fill:#574544;stroke:none"/><path d="m534 68 1 1z" style="fill:#876d6d;stroke:none"/><path d="M365 69v1h3z" style="fill:#574544;stroke:none"/><path d="m371 70 1 1z" style="fill:#876d6d;stroke:none"/><path d="m279.667 71.333.666.334z" style="fill:#574544;stroke:none"/><path d="m375 71 1 1z" style="fill:#876d6d;stroke:none"/><path d="m274.667 72.333.666.334z" style="fill:#574544;stroke:none"/><path d="m538 72 1 1z" style="fill:#a7a39e;stroke:none"/><path d="m446 73 1 1zm-62 1 1 1z" style="fill:#876d6d;stroke:none"/><path d="m445 74 1 1z" style="fill:#a7a39e;stroke:none"/><path d="m387 75 1 1zm31 0 1 1z" style="fill:#876d6d;stroke:none"/><path d="m542.333 79.667.334.666z" style="fill:#a7a39e;stroke:none"/><path d="m239.667 80.333.666.334z" style="fill:#574544;stroke:none"/><path d="M425 81c-.341 3.987-2.214 5.873-6 7 0 18.237 17.397 27.84 26 43h1c-1.631-9.146-9.107-18.204-15.174-25-2.119-2.373-8.604-6.785-8.044-10.409.692-4.479 8.871-8.433 11.218-12.591l-4 1c-.654-3.054-2.007-2.936-5-3" style="fill:#040202;stroke:none"/><path d="m409 82 1 1zm134 0-5 14c3.658-2.083 4.578-4.909 5-9h1v9h1zm-219 1v1h11z" style="fill:#876d6d;stroke:none"/><path d="m223.667 84.333.666.334z" style="fill:#574544;stroke:none"/><path d="m321 84 1 1z" style="fill:#876d6d;stroke:none"/><path d="M277 91v1l21 10c-6.836 9.678-18.154 16.491-27 24.285-2.654 2.339-6.108 7.294-10 7.269-6.045-.039-15.716-7.771-21-10.693-8.504-4.703-23.189-13.75-33-13.717-6.42.022-12.255 3.467-18 5.856v2l62 27-32 30v1c2.707 2.365 7.158 7.795 11 7.795 7.191 0 19.845-15.303 25-19.965 2.879-2.603 6.58-8.107 11-7.438 4.767.722 9.987 5.312 14 7.8 13.965 8.658 26.286 22.987 41 29.808-7.748 12.829-22.573 23.17-32.961 33.999-2.918 3.043-11.373 9.579-11.408 14.04-.029 3.73 4.148 7.69 5.725 10.961 2.944 6.11 4.809 13.609 9.062 18.96 4.956 6.234 12.878 10.407 18.582 16.044 3.948 3.902 12.283 10.059 13.097 15.957.754 5.459-10.655 13.37-13.923 17.039-6.556 7.358-5.883 13.797-4.174 23l20.985-19 8.105-7.37L344 321l3-6 8 5h1l-9.408-16 8.372-10.996L375.925 270l10.061-8.654L396 271h2l1-1c-.221-4.642.433-7.325 5-9l-10-12c8.416-11.958 24.262-23.035 29-37h-12l3-2 4-9c-11.669 8.589-25.767 24.427-33 37h-1c-9.658-14.124-27.295-35.719-43-43 7.564-10.738 18.717-19.718 28-29 2.83-2.83 7.34-9.422 12-8.029 16.517 4.935 25.611 29.575 40 38.029l-8-13 12-1c-8.685-12.342-22.496-28.994-36-36 6.882-9.77 17.214-21.107 27-28-7.338-19.074-21.97.428-31 9.039-2.305 2.198-5.403 6.644-9 6.419-5.043-.315-11.046-7.854-15-10.713-11.071-8.003-23.434-16.33-36-21.745v-2c6.769-2.618 13.913-8.384 17-15l-20 .728-11 6.05-15-3.695z" style="fill:#fdfbeb;stroke:none"/><path d="M320 85c-1.993 0-4.014-.084-6.004.044-2.308.148-10.334 4.165-4.673 6.081 3.97 1.344 8.491-3.48 10.677-6.125m5 14v2l38 23.898 14 9.185 9-7.044L407 108c-9.825-11.47-31.671-17.918-46-21.116-5.182-1.156-11.711-2.89-17-1.566-6.976 1.746-12.7 10.058-19 13.682" style="fill:#8d3829;stroke:none"/><path d="m432 85 1 1z" style="fill:#876d6d;stroke:none"/><path d="M545 85c-.001 13.082-5.957 19.254-12 30 8.84-4.682 19.326-20.33 12-30" style="fill:#040202;stroke:none"/><path d="m431 86 1 1z" style="fill:#876d6d;stroke:none"/><path d="m211.667 87.333.666.334z" style="fill:#574544;stroke:none"/><path d="m430 87 1 1z" style="fill:#876d6d;stroke:none"/><path d="M543 87c-3.547 23.031-29.965 19.083-46 15.148-3.524-.864-6.359-4.24-10-4.537-3.722-.304-9.888 4.371-13.06 6.37-7.6 4.79-20.882 11.605-26.44 18.57-2.69 3.371 1.101 9.456 4.5 10.449l7-8 8-3c2.133-4.658 5.875-7.521 11-8l9-11c8.624 8.936 18.886 16.078 32 14.83 14.075-1.339 30.687-14.895 24-30.83m-241 1 1 1zm127 0 1 1zm-125 1 1 1z" style="fill:#a7a39e;stroke:none"/><path d="m279.667 90.333.666.334z" style="fill:#8d3829;stroke:none"/><path d="m281.667 90.333.666.334z" style="fill:#a7a39e;stroke:none"/><path d="m427 90 1 1z" style="fill:#876d6d;stroke:none"/><path d="M207 108v1l38 17.219 16 7.953 10-7.002L296 105l-3-3 5 2c-7.619-11.87-23.117-12.235-35-9.662-18.827 4.076-37.291 9.231-56 13.662" style="fill:#8d3829;stroke:none"/><path d="m425 91 1 1z" style="fill:#876d6d;stroke:none"/><path d="m485.667 94.333.666.334z" style="fill:#a7a39e;stroke:none"/><path d="M477 103c6.55-3.257 8.718-5.158 16-3-5.653-6.269-11.994-3.924-16 3" style="fill:#574544;stroke:none"/><path d="m421 96 1 1z" style="fill:#a7a39e;stroke:none"/><path d="m532 102 7-6z" style="fill:#574544;stroke:none"/><path d="m562 97 1 1z" style="fill:#876d6d;stroke:none"/><path d="m294 100 1 1z" style="fill:#a7a39e;stroke:none"/><path d="M493 100v1l6 2v-1zm68 1 1 1zm-268 1 4 3zm226 3v1l14-3z" style="fill:#876d6d;stroke:none"/><path d="m487 103 5 5z" style="fill:#fdfbeb;stroke:none"/><path d="m472 119 10-4h1c.971-3.344 2.496-5.92 6-4l3-1-1 3 10 2c-9.715-10.019-21.615-8.206-29 4m-62-12 7 9z" style="fill:#040202;stroke:none"/><path d="m478 112 6-4z" style="fill:#fdfbeb;stroke:none"/><path d="m484 108 1 1zm7 0 1 1z" style="fill:#876d6d;stroke:none"/><path d="m202.667 109.333.666.334z" style="fill:#a7a39e;stroke:none"/><path d="m433 109 1 1z" style="fill:#876d6d;stroke:none"/><path d="M275 141v2l40 28 14.925 12.793L340.001 175 368 145c-13.329-8.78-26.364-17.854-40-26.189-4.278-2.615-11.674-8.428-17-7.117-5.44 1.338-9.517 7.307-13.285 11.017-6.778 6.673-14.997 12.74-22.715 18.289" style="fill:#8d3829;stroke:none"/><path d="m480 111 1 1z" style="fill:#876d6d;stroke:none"/><path d="m318 113 1 1zm28 0 1 1z" style="fill:#a7a39e;stroke:none"/><path d="m436 113 1 1z" style="fill:#876d6d;stroke:none"/><path d="m467 120 10-7z" style="fill:#fdfbeb;stroke:none"/><path d="m306 114 1 1z" style="fill:#a7a39e;stroke:none"/><path d="m414 114 1 1zm62 0 1 1zm79 0 1 1z" style="fill:#876d6d;stroke:none"/><path d="m134 140-1 4v1c19.684.163 41.204 6.155 59 14.309 7.142 3.272 18.383 14.361 26 14.425 3.904.033 7.456-4.28 10-6.748 7.333-7.114 18.626-13.608 23-22.986-15.872-6.599-30.788-14.765-47-20.695-4.908-1.796-9.67-5.317-15-5.552-19.219-.847-39.052 12.575-55 22.247" style="fill:#8d3829;stroke:none"/><path d="m509.667 117.333.666.334zm12 0 .666.334z" style="fill:#876d6d;stroke:none"/><path d="m414 118 1 1z" style="fill:#a7a39e;stroke:none"/><path d="m389 146 24 19c2.497-10.758 9.586-13.553 20-14-.166-7.982-6.641-31.704-17.015-31.704-8.011 0-23.861 20.004-26.985 26.704" style="fill:#8d3829;stroke:none"/><path d="m440 119 1 1zm29 0 1 1z" style="fill:#876d6d;stroke:none"/><path d="m470 119-18 15c5.066-2.121 18.146-8.891 18-15" style="fill:#040202;stroke:none"/><path d="m550 120 1 1z" style="fill:#876d6d;stroke:none"/><path d="M459 125v1l7-5z" style="fill:#fdfbeb;stroke:none"/><path d="m549 121 1 1z" style="fill:#876d6d;stroke:none"/><path d="m298 122 1 1z" style="fill:#a7a39e;stroke:none"/><path d="m465 122 1 1zm83 0 1 1z" style="fill:#876d6d;stroke:none"/><path d="m297 123 1 1zm147 2 1 1z" style="fill:#a7a39e;stroke:none"/><path d="m461 125 1 1zm27 0 2 2z" style="fill:#876d6d;stroke:none"/><path d="m365 126 1 1z" style="fill:#a7a39e;stroke:none"/><path d="m445 127 1 1z" style="fill:#876d6d;stroke:none"/><path d="M451 131v1l6-4z" style="fill:#fdfbeb;stroke:none"/><path d="m446 129 1 1zm10 0 1 1z" style="fill:#876d6d;stroke:none"/><path d="m402 130 1 1zm-31 1 1 1z" style="fill:#a7a39e;stroke:none"/><path d="m477 132 1 1zm55 0 1 1zm-83.333 1.333.666.334zm75 1 .666.334zM96 140l1 1zm35 4 4-3zm-39-1 1 1z" style="fill:#876d6d;stroke:none"/><path d="m366 144 1 1z" style="fill:#a7a39e;stroke:none"/><path d="m274 239 6-2 28-29 13-15c-13.986-9.736-26.464-21.374-41-30.424-3.921-2.44-11.086-8.731-16-7.748-5.589 1.118-11.789 9.62-16 13.327-3.759 3.309-16.799 11.096-16.079 16.756.67 5.262 11.46 12.344 15.04 16.089 10.221 10.693 21.146 24.343 27.039 38" style="fill:#8d3829;stroke:none"/><path d="m378.667 156.333.666.334z" style="fill:#a7a39e;stroke:none"/><path d="m341 195 16 11c6.648-10.998 17.079-8.19 27.576-11.7 6.974-2.332 14.088-6.813 21.424-7.3-.106-8.944-18.131-31.901-29-28.629-4.252 1.28-7.97 6.599-11 9.629-8.01 8.01-20.185 16.675-25 27" style="fill:#8d3829;stroke:none"/><path d="M378 157v1l8 4z" style="fill:#3d0f18;stroke:none"/><path d="m403 158 1 1zm1 1 1 1z" style="fill:#a7a39e;stroke:none"/><path d="m457.333 159.667.334.666z" style="fill:#574544;stroke:none"/><path d="m302 160 1 1z" style="fill:#a7a39e;stroke:none"/><path d="M119 162v1h4z" style="fill:#574544;stroke:none"/><path d="M123 162v1h14z" style="fill:#a7a39e;stroke:none"/><path d="M137 162v1h6zm-23.333 1.333.666.334z" style="fill:#876d6d;stroke:none"/><path d="m115.667 163.333.666.334z" style="fill:#a7a39e;stroke:none"/><path d="M117 163.428C60.086 171.582 27.432 223.274 18.586 276 8.456 336.389 36.618 396.748 80 437.09c26.244 24.404 66.171 42.756 103 37.482 64.701-9.265 101.296-70.726 103.961-131.572 3.816-87.148-75.082-193.164-169.961-179.572" style="fill:#fdfbeb;stroke:none"/><path d="m147.667 163.333.666.334z" style="fill:#876d6d;stroke:none"/><path d="m109.667 164.333.666.334z" style="fill:#a7a39e;stroke:none"/><path d="m153.667 164.333.666.334z" style="fill:#876d6d;stroke:none"/><path d="m458.333 164.667.334.666z" style="fill:#574544;stroke:none"/><path d="m105.667 165.333.666.334z" style="fill:#a7a39e;stroke:none"/><path d="m157.667 165.333.666.334z" style="fill:#876d6d;stroke:none"/><path d="m251 165 1 1zm-148.333 1.333.666.334z" style="fill:#a7a39e;stroke:none"/><path d="m161.667 166.333.666.334z" style="fill:#876d6d;stroke:none"/><path d="m411 166 1 1zm-311.333 1.333.666.334z" style="fill:#a7a39e;stroke:none"/><path d="m412 167 1 1zm-322 3 1 1z" style="fill:#876d6d;stroke:none"/><path d="M459 170v3h1z" style="fill:#574544;stroke:none"/><path d="m86 172 1 1zm354 0 1 1z" style="fill:#876d6d;stroke:none"/><path d="m441 172-11.039 11.423-8.922-2.805L413 183l7.083 12.611L411 212l20-3c8.223-9.613 17.515-24.474 10-37" style="fill:#f9898e;stroke:none"/><path d="m55 173 1 1z" style="fill:#876d6d;stroke:none"/><path d="m295 173 1 1z" style="fill:#a7a39e;stroke:none"/><path d="m417 173 1 1z" style="fill:#876d6d;stroke:none"/><path d="m442.333 173.667.334.666z" style="fill:#8d3829;stroke:none"/><path d="m53 175 1 1z" style="fill:#876d6d;stroke:none"/><path d="m185 175 1 1z" style="fill:#a7a39e;stroke:none"/><path d="m79 176 1 1zm-29 2 1 1z" style="fill:#876d6d;stroke:none"/><path d="m76 178 1 1zm115 0 1 1zm32 0 1 1z" style="fill:#a7a39e;stroke:none"/><path d="m49 179 1 1z" style="fill:#876d6d;stroke:none"/><path d="m74.667 179.333.666.334zM193 179l1 1zm31 0 1 1z" style="fill:#a7a39e;stroke:none"/><path d="m443.333 179.667.334.666z" style="fill:#8d3829;stroke:none"/><path d="m304 180 1 1z" style="fill:#a7a39e;stroke:none"/><path d="M406 181v6c-7.787.23-14.942 4.881-22.285 7.3-11.841 3.9-20.401 1.459-28.715 12.7 8.385 8.385 19.559 26.721 31 30 6.989-10.221 16.561-18.703 24.715-28 2.661-3.033 8.585-7.633 8.537-12-.067-6.084-8.807-12.869-13.252-16" style="fill:#3d0f18;stroke:none"/><path d="M460 181v17h1z" style="fill:#574544;stroke:none"/><path d="m198 182 1 1z" style="fill:#a7a39e;stroke:none"/><path d="m69 183 1 1zm131 0 1 1z" style="fill:#876d6d;stroke:none"/><path d="m66.667 185.333.666.334z" style="fill:#a7a39e;stroke:none"/><path d="M120 185.439C69.219 193.37 37 245.438 37 294c0 22.775 1.96 44.452 10.065 66C67.415 414.109 120.8 462.958 182 452.715c47.806-8.002 75.231-51.752 81.424-96.715C274.255 277.357 209.925 171.394 120 185.439" style="fill:#f9898e;stroke:none"/><path d="m203 185 1 1z" style="fill:#a7a39e;stroke:none"/><path d="m42 187 1 1z" style="fill:#876d6d;stroke:none"/><path d="m206 187 1 1z" style="fill:#a7a39e;stroke:none"/><path d="m210 190 1 1zm4 3 1 1z" style="fill:#876d6d;stroke:none"/><path d="m215 194 1 1z" style="fill:#a7a39e;stroke:none"/><path d="m34 197 1 1zm185 0 1 1zm1 1 1 1zm-188 2 1 1z" style="fill:#876d6d;stroke:none"/><path d="m52 200-2 1v1zm383 0c-.285 3.724-3.467 5.944-3.752 9.209-.403 4.608 5.49 10.273 8.752 12.791 1.807-3.514 5.433-15.317 0-16l-3-6z" style="fill:#a7a39e;stroke:none"/><path d="M436 201v1l4 4c.673-3.179-1.115-4.132-4-5" style="fill:#fdfbeb;stroke:none"/><path d="m49 202 1 1zm281 4 1 1z" style="fill:#a7a39e;stroke:none"/><path d="M307 263v-1c-3.191-4.212-2.79-10.359 2-13 1.009-6.329 5.326-5.327 10.424-7.015 8.007-2.65 16.452-3.454 24.575-6.004 5.525-1.734 8.997-5.283 15.001-4.981-4.388-6.1-19.198-23.602-27-24.002-4.624-.238-9.097 6.1-12 9.002-8.042 8.039-26.748 20.263-29.248 31.997-1.299 6.094 11.245 14.231 16.248 15.003" style="fill:#8d3829;stroke:none"/><path d="m412 206 1 1zm47.333 1.667.334.666z" style="fill:#876d6d;stroke:none"/><path d="m335 208 1 1z" style="fill:#a7a39e;stroke:none"/><path d="m428.667 208.333.666.334z" style="fill:#876d6d;stroke:none"/><path d="m43 211 3-2z" style="fill:#a7a39e;stroke:none"/><path d="M442 211v6h1zm-38 4 1 1zm54 0v3h1z" style="fill:#876d6d;stroke:none"/><path d="m364 216 1 1zm1 1 1 1z" style="fill:#a7a39e;stroke:none"/><path d="m36 218 1 2-3-1v6h1z" style="fill:#574544;stroke:none"/><path d="m240 218 1 1z" style="fill:#a7a39e;stroke:none"/><path d="m366 218 1 1z" style="fill:#876d6d;stroke:none"/><path d="m241 219 1 1z" style="fill:#a7a39e;stroke:none"/><path d="m417 220 1 1z" style="fill:#876d6d;stroke:none"/><path d="m36 222-1 3z" style="fill:#a7a39e;stroke:none"/><path d="m457.333 223.667.334.666z" style="fill:#876d6d;stroke:none"/><path d="m352 224 1 1z" style="fill:#a7a39e;stroke:none"/><path d="m246 225 1 1zm165 2 1 1z" style="fill:#876d6d;stroke:none"/><path d="m307 228 1 1z" style="fill:#a7a39e;stroke:none"/><path d="M456 229v3h1z" style="fill:#574544;stroke:none"/><path d="m250 230 1 1z" style="fill:#876d6d;stroke:none"/><path d="m305 230 1 1z" style="fill:#a7a39e;stroke:none"/><path d="M309 249c-5.623 1.866-4.921 9.83-2 14l5.961 8.715L334 295c6.896-4.96 11.76-12.877 17.463-19.17 6.569-7.249 17.405-16.088 21.661-24.83 2.938-6.034-9.785-18.303-15.123-19.877-5.026-1.482-8.619 2.576-13.005 4.185-8.3 3.045-35.244 4.034-35.996 13.692" style="fill:#3d0f18;stroke:none"/><path d="m379 232 1 1z" style="fill:#876d6d;stroke:none"/><path d="m30.333 233.667.334.666z" style="fill:#a7a39e;stroke:none"/><path d="m406 233 1 1zm-153 1 1 1zm133 1 1 1z" style="fill:#876d6d;stroke:none"/><path d="m29.333 236.667.334.666z" style="fill:#a7a39e;stroke:none"/><path d="m455.333 236.667.334.666z" style="fill:#876d6d;stroke:none"/><path d="m255 237 1 1z" style="fill:#a7a39e;stroke:none"/><path d="m384 237 1 1z" style="fill:#876d6d;stroke:none"/><path d="m27 238-1 7h1z" style="fill:#574544;stroke:none"/><path d="M28 238v3h1zm374 0 1 1z" style="fill:#a7a39e;stroke:none"/><path d="m367 239 1 1zm-110 1 1 1z" style="fill:#876d6d;stroke:none"/><path d="m289 250 8-10c-4.363 2.036-8.075 4.967-8 10" style="fill:#3d0f18;stroke:none"/><path d="m27.333 241.667.334.666z" style="fill:#a7a39e;stroke:none"/><path d="M454 241v3h1z" style="fill:#574544;stroke:none"/><path d="M275 242c.63 3.187.898 8.51 5 7l1 4h1z" style="fill:#040202;stroke:none"/><path d="m25.333 245.667.334.666zM260 245l1 1z" style="fill:#a7a39e;stroke:none"/><path d="m279 246 1 1zm94 0 1 1zm22 0 1 1z" style="fill:#876d6d;stroke:none"/><path d="m394.333 247.667.334.666z" style="fill:#a7a39e;stroke:none"/><path d="M453 247v3h1z" style="fill:#574544;stroke:none"/><path d="m281 249 1 1z" style="fill:#876d6d;stroke:none"/><path d="m288 249 1 1z" style="fill:#a7a39e;stroke:none"/><path d="m374 249 1 1zm23 2 1 1z" style="fill:#876d6d;stroke:none"/><path d="m282 254 3 5z" style="fill:#040202;stroke:none"/><path d="m294 254 1 1zm76 0 1 1z" style="fill:#a7a39e;stroke:none"/><path d="m369 255 1 1zm83 0 1 1z" style="fill:#876d6d;stroke:none"/><path d="m22.333 256.667.334.666zM284 256l1 1z" style="fill:#a7a39e;stroke:none"/><path d="m403 258 1 1zm-38 1 1 1zm86.333.667.334.666zM268 260l1 1zm96 0 1 1z" style="fill:#876d6d;stroke:none"/><path d="m380 266 6-6z" style="fill:#040202;stroke:none"/><path d="M377 348c15.342-7.159 25.612-38.968 44-38l-2.979-13-18.926-23-11.261-12.503-11.748 7.632L354.039 293l-8.122 11 8.079 12z" style="fill:#3d0f18;stroke:none"/><path d="M425 299c3.116-13.63-4.137-19.616-12.449-30-2.504-3.128-7.189-10.648-11.986-6.891-2.948 2.309-3.25 8.793-1.748 11.891 3.964 8.177 16.765 24.692 26.183 25" style="fill:#f9898e;stroke:none"/><path d="m20 262-2 9z" style="fill:#574544;stroke:none"/><path d="m21.333 262.667.334.666z" style="fill:#a7a39e;stroke:none"/><path d="m124 262-47.667 70L60 357l10 5 64-95z" style="fill:#fdfbeb;stroke:none"/><path d="m269 262 1 1z" style="fill:#876d6d;stroke:none"/><path d="m185 279 22.001 30L243 362l10-5c-10.641-25.296-33.295-49.191-48.67-72-3.486-5.173-11.244-21.364-18.327-21.364-6.267 0-12.323 12.846-15.336 17.364-12.33 18.485-25.34 36.514-37.667 55-2.956 4.434-14.633 16.326-11.289 21.811 6.69 10.972 16.16-9.219 19.43-13.811 14.563-20.452 33.136-42.333 43.859-65" style="fill:#fdfbeb;stroke:none"/><path d="m304 263 1 1z" style="fill:#a7a39e;stroke:none"/><path d="m390 263 1 1zm-10 1 1 1zm70 0v3h1z" style="fill:#876d6d;stroke:none"/><path d="m288 265 1 1zm91 0 1 1z" style="fill:#a7a39e;stroke:none"/><path d="m358 267 1 1zm91.333 3.667.334.666zM273 271l1 1zm18 0 1 1zm1 1 1 1zm105 0 1 1zm-82 1 1 1zm57 0 1 1zm-56 1 1 1z" style="fill:#876d6d;stroke:none"/><path d="m371 274 1 1zm-352.667 1.667.334.666z" style="fill:#a7a39e;stroke:none"/><path d="m296 275 1 1z" style="fill:#876d6d;stroke:none"/><path d="m351 275 1 1z" style="fill:#a7a39e;stroke:none"/><path d="m448.333 275.667.334.666z" style="fill:#574544;stroke:none"/><path d="m275 276 1 1z" style="fill:#876d6d;stroke:none"/><path d="m299 277 1 1z" style="fill:#a7a39e;stroke:none"/><path d="m348 278 1 1z" style="fill:#876d6d;stroke:none"/><path d="M1 279v4h1z" style="fill:#574544;stroke:none"/><path d="M17 279v4h1z" style="fill:#876d6d;stroke:none"/><path d="m304 281 1 1zm18 0 1 1z" style="fill:#a7a39e;stroke:none"/><path d="m323 282 1 1zm40 1 1 1z" style="fill:#876d6d;stroke:none"/><path d="m278.333 284.667.334.666z" style="fill:#a7a39e;stroke:none"/><path d="m362 284 1 1z" style="fill:#876d6d;stroke:none"/><path d="m361 285 1 1z" style="fill:#a7a39e;stroke:none"/><path d="m446 286 1 1z" style="fill:#876d6d;stroke:none"/><path d="m359 287 1 1z" style="fill:#a7a39e;stroke:none"/><path d="m427.333 288.667.334.666z" style="fill:#8d3829;stroke:none"/><path d="M0 289v23h1z" style="fill:#574544;stroke:none"/><path d="m329 289 1 1zm84 2 1 1zm-131.667 1.667.334.666zM319 296l1 1zm124.333.667.334.666z" style="fill:#876d6d;stroke:none"/><path d="m282.333 297.667.334.666z" style="fill:#a7a39e;stroke:none"/><path d="m349 298 1 1z" style="fill:#876d6d;stroke:none"/><path d="m420 299 2 5h1l1-5z" style="fill:#a7a39e;stroke:none"/><path d="m419 300 2 10h1z" style="fill:#040202;stroke:none"/><path d="M17 303v8h1z" style="fill:#a7a39e;stroke:none"/><path d="m283.333 303.667.334.666zM441 304l1 1z" style="fill:#876d6d;stroke:none"/><path d="m322 306 1 1z" style="fill:#a7a39e;stroke:none"/><path d="m284.333 309.667.334.666zM319 309l1 1z" style="fill:#876d6d;stroke:none"/><path d="m353 318-5 3-4-3-2 4 27 36c-13.193 6.153-25.182 24.365-35.09 35-2.632 2.826-8.944 11.505-13.598 9.779-3.743-1.389-4.063-6.822-5.952-9.779-3.992-6.248-9.963-12.302-16.36-16-.675 5.337-2.475 12.111.603 17 2.942 4.672 13.719 11.803 12.781 18-.661 4.371-7.331 9.981-10.399 12.91-9.934 9.487-19.681 19.784-30.985 27.651-3.54 2.464-17.364 6.364-17.364 11.396 0 5.412 13.428 2.414 16.364 2.043l-1-3c4.159-.99 9.164-.261 13-2.179 8.67-4.335 16.196-15.017 23-21.821 4.003-4.003 11.187-14.513 17-15.373 4.309-.638 9.599 5.422 12 8.373l8-2h-4l2-5 6 3c-2.152-6.329-7.634-11.22-13-15v-1c12.313-8.672 34.489-27.091 31-43l3 2 1-4 5 3h1c6.227-3.779 9.176 7.073 14 10l2-7-3-1v-8l3-1c-2.884-7.307 2.189-9.979 7-15 7.738-8.074 16.271-16.93 21.167-27 1.32-2.716 3.768-6.799 2.666-10-1.729-5.022-9.814 2.152-11.833 4-7.503 6.869-15.272 16.061-21.667 24-1.914 2.376-5.815 8.694-9.333 8-4.301-.848-3.924-6.136-5.833-9-4.488-6.731-10.361-17.491-18.167-20" style="fill:#f9898e;stroke:none"/><path d="M420 310v3h1z" style="fill:#8d3829;stroke:none"/><path d="m439 310 1 1z" style="fill:#876d6d;stroke:none"/><path d="M17 311v4h1z" style="fill:#574544;stroke:none"/><path d="M0 312v182h191v-1c-79.339 0-141.84-44.253-174.691-116-6.147-13.424-9.971-28.554-12.86-43-1.38-6.906-.77-15.619-3.449-22m331 7 4-4z" style="fill:#040202;stroke:none"/><path d="m347 315 1 6h5l1-4zm-328.667 2.667.334.666z" style="fill:#a7a39e;stroke:none"/><path d="m285.333 317.667.334.666zM1 319v3h1zm17.333.667.334.666z" style="fill:#876d6d;stroke:none"/><path d="m285.333 319.667.334.666z" style="fill:#a7a39e;stroke:none"/><path d="m306 323 1 1zm37 0 1 1z" style="fill:#876d6d;stroke:none"/><path d="M19 324v3h1z" style="fill:#a7a39e;stroke:none"/><path d="m323 326 1 1zM2.333 327.667l.334.666zm17 0 .334.666z" style="fill:#876d6d;stroke:none"/><path d="M286 327v4h1z" style="fill:#a7a39e;stroke:none"/><path d="m302 327 1 14h1z" style="fill:#040202;stroke:none"/><path d="m303 327 1 1zm19 0 1 1zm-1 1 1 1zm91 0 1 1zm-92 1 1 1zm-1 1 1 1z" style="fill:#876d6d;stroke:none"/><path d="M303 331v4h1z" style="fill:#574544;stroke:none"/><path d="m318 331 1 1zm-1 1 1 1zM3.333 333.667l.334.666z" style="fill:#876d6d;stroke:none"/><path d="m20.333 333.667.334.666z" style="fill:#a7a39e;stroke:none"/><path d="m316 333 1 1zm-1 1 1 1z" style="fill:#876d6d;stroke:none"/><path d="m20.333 335.667.334.666z" style="fill:#574544;stroke:none"/><path d="m314 335 1 1zm-1 1 1 1z" style="fill:#876d6d;stroke:none"/><path d="m4.333 337.667.334.666z" style="fill:#574544;stroke:none"/><path d="m312 337 1 1zm-1 1 1 1zm118 0 1 1zm-119 1 1 1z" style="fill:#876d6d;stroke:none"/><path d="M304 340v3h1z" style="fill:#a7a39e;stroke:none"/><path d="M5 341v3h1z" style="fill:#574544;stroke:none"/><path d="m372 341 4 6z" style="fill:#fdfbeb;stroke:none"/><path d="m306 342 1 1z" style="fill:#a7a39e;stroke:none"/><path d="m22.333 343.667.334.666zM426 346l1 1z" style="fill:#876d6d;stroke:none"/><path d="M286 347v6h1z" style="fill:#a7a39e;stroke:none"/><path d="M287 347v12h1z" style="fill:#040202;stroke:none"/><path d="m362 348 1 1zM7.333 349.667l.334.666zm1 4 .334.666z" style="fill:#876d6d;stroke:none"/><path d="M286 353v4h1zm-259.667 3.667.334.666z" style="fill:#574544;stroke:none"/><path d="m368.333 356.667.334.666z" style="fill:#8d3829;stroke:none"/><path d="m27.333 359.667.334.666z" style="fill:#876d6d;stroke:none"/><path d="m387 359 2 4-3 1c.769 3.52-1.271 8.318 3 9l-3 5 2 6c7.155-8.545 10.411-18.295-1-25" style="fill:#a7a39e;stroke:none"/><path d="m10.333 360.667.334.666z" style="fill:#876d6d;stroke:none"/><path d="M285 360v3h1z" style="fill:#a7a39e;stroke:none"/><path d="m419 361 1 1zm-1 2 1 1zm-406 4 1 1z" style="fill:#876d6d;stroke:none"/><path d="m367 367-1 4-3-2v10l9-10z" style="fill:#a7a39e;stroke:none"/><path d="m375 367-10 13 13-9z" style="fill:#040202;stroke:none"/><path d="m284.333 368.667.334.666z" style="fill:#574544;stroke:none"/><path d="m377 368 1 1zm-364 2 1 1z" style="fill:#876d6d;stroke:none"/><path d="m283.333 371.667.334.666zM32 372l1 1z" style="fill:#a7a39e;stroke:none"/><path d="m283.333 373.667.334.666zM15 375l1 1zm351 1 1 1zm-83.667 1.667.334.666zM365 377l1 1zm-1 1 1 1z" style="fill:#876d6d;stroke:none"/><path d="m36 381 1 1z" style="fill:#a7a39e;stroke:none"/><path d="m281.333 381.667.334.666z" style="fill:#574544;stroke:none"/><path d="m37 383 1 1zm1 2 1 1z" style="fill:#876d6d;stroke:none"/><path d="m296.333 385.667.334.666z" style="fill:#8d3829;stroke:none"/><path d="m279.333 387.667.334.666z" style="fill:#574544;stroke:none"/><path d="M296 387v5h1z" style="fill:#a7a39e;stroke:none"/><path d="m404 387 1 1zm-363 3 1 1zm-17 3 1 1z" style="fill:#876d6d;stroke:none"/><path d="m43 393 1 1z" style="fill:#a7a39e;stroke:none"/><path d="m25 395 1 1zm19 0 1 1z" style="fill:#876d6d;stroke:none"/><path d="m315 395 6 9z" style="fill:#fdfbeb;stroke:none"/><path d="m276 396 1 1z" style="fill:#a7a39e;stroke:none"/><path d="m277 396-14 27c5.559-4.594 16.066-19.472 14-27" style="fill:#040202;stroke:none"/><path d="m398 396 1 1zm-372 1 1 1zm20 1 1 1z" style="fill:#876d6d;stroke:none"/><path d="m346 398 1 1z" style="fill:#8d3829;stroke:none"/><path d="m48 401 1 1z" style="fill:#a7a39e;stroke:none"/><path d="m343 401 1 1zm-2 2 1 1zm-311 1 1 1zm20 0 1 1z" style="fill:#876d6d;stroke:none"/><path d="M334 413h1l8-8c-4.783-.959-7.842 3.879-9 8" style="fill:#040202;stroke:none"/><path d="m32 407 1 1zm20 0 1 1zm217 4 1 1zm-234 1 1 1zm233 1 1 1z" style="fill:#876d6d;stroke:none"/><path d="m266 416 1 1z" style="fill:#a7a39e;stroke:none"/><path d="m60 417 1 1zm1 1 1 1z" style="fill:#876d6d;stroke:none"/><path d="m262 422 1 1z" style="fill:#a7a39e;stroke:none"/><path d="M320 422v3h3v-3z" style="fill:#040202;stroke:none"/><path d="m260 425 1 1z" style="fill:#876d6d;stroke:none"/><path d="m339 425-2 5 7-1zm-11 2c2.422 5.087 6.054 10.715 11 5h-6z" style="fill:#a7a39e;stroke:none"/><path d="m257 429 1 1z" style="fill:#876d6d;stroke:none"/><path d="m256 430 1 1z" style="fill:#a7a39e;stroke:none"/><path d="m257 430-4 6z" style="fill:#040202;stroke:none"/><path d="m77 434 1 1zm1 1 1 1zm174 0 1 1zm-173 1 1 1z" style="fill:#876d6d;stroke:none"/><path d="m251 436 1 1z" style="fill:#a7a39e;stroke:none"/><path d="m56 438 1 1zm1 1 1 1zm1 1 1 1zm1 1 1 1zm1 1 1 1zm1 1 1 1zm1 1 1 1zm290 1 1 1zm-112 2 1 1zm-1 1 1 1zm106 2 1 1z" style="fill:#876d6d;stroke:none"/><path d="m235 451 1 1z" style="fill:#a7a39e;stroke:none"/><path d="m71 452 1 1zm34 4 1 1zm-28 1 1 1zm30 0 1 1z" style="fill:#876d6d;stroke:none"/><path d="M268 463v1l11-1z" style="fill:#a7a39e;stroke:none"/><path d="m326 462 1 1zm-241 1 1 1zm34 0 1 1zm98 0 1 1z" style="fill:#876d6d;stroke:none"/><path d="m251.333 463.667.334.666zm18.334 1.666.666.334z" style="fill:#8d3829;stroke:none"/><path d="m265.667 466.333.666.334z" style="fill:#876d6d;stroke:none"/><path d="m130.667 467.333.666.334z" style="fill:#a7a39e;stroke:none"/><path d="M255 467v1h6z" style="fill:#8d3829;stroke:none"/><path d="m206 468 1 1z" style="fill:#876d6d;stroke:none"/><path d="m140.667 470.333.666.334zm4 1 .666.334zm4 1 .666.334z" style="fill:#a7a39e;stroke:none"/><path d="m153.667 473.333.666.334zm36 0 .666.334zM305 473l1 1zm-147 1v1h3z" style="fill:#876d6d;stroke:none"/><path d="m183.667 474.333.666.334z" style="fill:#a7a39e;stroke:none"/><path d="M167 475v1h10zm125 4 1 1zm-3 1 1 1zm-3 1 1 1zm-3 1 1 1zm-11 4 1 1zm-3 1 1 1z" style="fill:#876d6d;stroke:none"/><path d="m143.667 488.333.666.334z" style="fill:#574544;stroke:none"/><path d="m263.667 488.333.666.334zm-6 1 .666.334zm-6 1 .666.334z" style="fill:#876d6d;stroke:none"/><path d="M163 491v1h4zm82 0v1h3zm-68 1v1h6zm62 0v1h3zm-48 1v1h4zm36 0v1h7z" style="fill:#574544;stroke:none"/></svg>