<svg xmlns="http://www.w3.org/2000/svg" viewBox="0 0 231.5 61.5" xml:space="preserve">
  <path d="M116.9 50.9h-1.7l-.9-5.8-1.7 4.5h-1.2l-1.7-4.5-.9 5.8h-1.7l1.6-9h1.2l2 5.1 2.1-5.1h1.2l1.7 9zM109.4 35.4h-4.2L93.4 18.6v16.7h-4.5V10.9h4.2L105 27.7V10.9h4.5l-.1 24.5zM139.4 23.2c0 7.6-5.5 12.7-12.8 12.7-7.3 0-12.8-5.2-12.8-12.7 0-7.6 5.5-12.7 12.8-12.7 7.3-.1 12.8 5.1 12.8 12.7zm-20.6 0c0 4.8 3.3 8.2 7.9 8.2 4.6 0 7.9-3.3 7.9-8.2 0-4.8-3.3-8.2-7.9-8.2-4.6 0-7.9 3.3-7.9 8.2zM150.4 25.6h-1.7v9.7h-4.5V10.9h9c4.8 0 7.9 3 7.9 7.4 0 3.6-2.1 6.3-5.7 7.1l7.2 9.9H157l-6.6-9.7zm-1.7-3.9h3.8c2.6 0 3.8-1.2 3.8-3.3 0-2-1.2-3.3-3.8-3.3h-3.8v6.6zM187 23.2c0 7.6-5.3 12.2-12.7 12.2h-7.8V11h7.8c7.4 0 12.7 4.6 12.7 12.2zm-16-8.1v16.2h3.6c4.4 0 7.7-2.8 7.7-8.1s-3.3-8.1-7.7-8.1H171zM196.3 35.4h-4.5V11h4.5v24.4zM201.1 23.2c0-7.7 5.5-12.7 13.2-12.7 3.8 0 6.5 1.2 8.7 2.7l-2.6 3.9c-1.5-1-3.6-2-6.2-2-4.7 0-8.3 3.2-8.3 8.2 0 5 3.5 8.2 8.3 8.2 2.6 0 4.7-1 6.2-2l2.6 3.9c-2.2 1.5-5 2.7-8.7 2.7-7.7-.2-13.2-5.2-13.2-12.9zM88.3 50.2l.7-1.5c.7.4 1.6.8 2.4.8.9 0 1.3-.4 1.3-.9s-.3-.8-.9-1.2l-1.5-1c-1-.7-1.4-1.4-1.4-2.4 0-1.4 1-2.3 2.7-2.3.9 0 1.8.2 2.6.6l-.7 1.5c-.7-.3-1.3-.6-1.9-.6-.7 0-.9.3-.9.7 0 .3.2.6.7.9l1.6 1.1c1 .7 1.5 1.4 1.5 2.5 0 1.7-1.2 2.6-3.1 2.6-1.1.1-2.2-.3-3.1-.8M103.6 49.3v1.5h-5.4v-9h5.4v1.5h-3.7v1.8h3.4v1.5h-3.4v2.6l3.7.1zM122.2 50.9h-1.7v-9h1.7v9z"/>
  <path d="M122.2 50.9h-1.7v-9h1.7v9zM125.6 46.4c0-2.9 2-4.7 4.9-4.7 1.4 0 2.4.4 3.2 1l-1 1.4c-.6-.4-1.3-.7-2.3-.7-1.8 0-3.1 1.2-3.1 3s1.3 3 3.1 3c1 0 1.7-.4 2.3-.7l1 1.4c-.8.6-1.8 1-3.2 1-2.9 0-4.9-1.9-4.9-4.7zM145.9 46.4c0 2.8-2.1 4.7-4.7 4.7-2.7 0-4.7-1.9-4.7-4.7s2-4.7 4.7-4.7c2.7-.1 4.7 1.9 4.7 4.7zm-7.6 0c0 1.8 1.2 3 2.9 3s2.9-1.2 2.9-3-1.2-3-2.9-3c-1.7-.1-2.9 1.2-2.9 3zM157 50.9h-1.5l-4.4-6.2v6.2h-1.7v-9h1.5l4.4 6.2v-6.2h1.7v9zM168.7 46.3c0 2.8-2 4.5-4.7 4.5h-2.9v-9h2.9c2.7 0 4.7 1.7 4.7 4.5zm-6-3v6h1.3c1.6 0 2.8-1 2.8-3 0-1.9-1.2-3-2.8-3h-1.3zM179.6 47.3c0 2.3-1.4 3.7-3.7 3.7-2.4 0-3.7-1.5-3.7-3.7v-5.5h1.7v5.4c0 1.3.8 2.1 2 2.1s2-.8 2-2.1v-5.4h1.7v5.5zM183 46.3c0-2.9 2-4.7 4.9-4.7 1.4 0 2.4.4 3.2 1l-1 1.4c-.6-.4-1.3-.7-2.3-.7-1.8 0-3.1 1.2-3.1 3s1.3 3 3.1 3c1 0 1.7-.4 2.3-.7l1 1.4c-.8.6-1.8 1-3.2 1-2.9 0-4.9-1.8-4.9-4.7zM200.4 43.4h-2.5v7.5h-1.7v-7.5h-2.5v-1.5h6.6v1.5zM212.4 46.3c0 2.8-2.1 4.7-4.7 4.7-2.7 0-4.7-1.9-4.7-4.7s2-4.7 4.7-4.7c2.6 0 4.7 1.9 4.7 4.7zm-7.7 0c0 1.8 1.2 3 2.9 3s2.9-1.2 2.9-3-1.2-3-2.9-3c-1.6 0-2.9 1.2-2.9 3zM218.1 47.2h-.6v3.6h-1.7v-9h3.3c1.8 0 2.9 1.1 2.9 2.7 0 1.3-.8 2.4-2.1 2.6l2.7 3.7h-2.1l-2.4-3.6zm-.7-1.4h1.4c1 0 1.4-.5 1.4-1.2s-.5-1.2-1.4-1.2h-1.4v2.4zM228 14v1.3h-.2v-2.8h1.2c.5 0 .9.2.9.7 0 .3-.1.6-.5.7.2.1.5.2.5.7v.7h-.3v-.7c0-.5-.2-.6-.7-.6h-.9zm0-.3h.9c.5 0 .8-.2.8-.6 0-.4-.3-.5-.7-.5h-.9l-.1 1.1z"/>
  <path d="M230 15.3h-.4v-.8c0-.4-.1-.5-.7-.5h-.8v1.3h-.4v-3h1.3c.6 0 1 .3 1 .8 0 .3-.1.6-.4.7.2.1.3.4.3.7v.1c0 .3 0 .5.1.7zm-.3-.1h.1v-.6c0-.5-.2-.6-.4-.6l-.3-.1.3-.1c.3-.1.5-.3.5-.6 0-.6-.6-.7-.9-.7h-1.2v2.7h.1v-1.3h1c.5 0 .8.1.8.7V15.2zm-.8-1.4h-1v-1.2h1c.7 0 .8.3.8.6.1.4-.2.6-.8.6zm-.8-.1h.9c.6 0 .7-.3.7-.5 0-.1 0-.4-.7-.4h-.9v.9z"/>
  <g>
    <path d="M228.8 16.5c-1.5 0-2.7-1.2-2.7-2.7 0-1.5 1.2-2.7 2.7-2.7 1.5 0 2.7 1.2 2.7 2.7 0 1.5-1.2 2.7-2.7 2.7zm0-5.1c-1.3 0-2.4 1.1-2.4 2.4 0 1.3 1.1 2.4 2.4 2.4 1.3 0 2.4-1.1 2.4-2.4 0-1.3-1.1-2.4-2.4-2.4z"/>
    <path d="M228.8 16.5c-1.5 0-2.7-1.2-2.7-2.7 0-1.5 1.2-2.7 2.7-2.7s2.7 1.2 2.7 2.7-1.2 2.7-2.7 2.7zm0-5.3c-1.4 0-2.6 1.2-2.6 2.6s1.2 2.6 2.6 2.6c1.4 0 2.6-1.2 2.6-2.6 0-1.4-1.2-2.6-2.6-2.6zm0 5.1c-1.4 0-2.5-1.1-2.5-2.5s1.1-2.5 2.5-2.5 2.5 1.1 2.5 2.5-1.1 2.5-2.5 2.5zm0-4.8c-1.3 0-2.3 1.1-2.3 2.3s1.1 2.3 2.3 2.3 2.3-1.1 2.3-2.3-1-2.3-2.3-2.3z"/>
  </g>
  <g>
    <g fill="#00a9ce">
      <path d="M50.2.4s-.1 0-.1.1c-.2.1-.3.1-.5.2l-15 8.6L52 19.4V0c-.5 0-1.2.1-1.8.4z" opacity=".6"/>
      <path d="m19.6 61 15.8-9.1-17.4-10v19.6c.6 0 1.1-.2 1.6-.5z" opacity=".8"/>
      <path d="M69.9 50.7 34.2 30.1l-1.7-1L.4 10.6c-.3.6-.4 1.2-.4 1.8v37.3c0 1.2.6 2.2 1.7 2.8l14.7 8.6c.5.3 1.1.4 1.6.4V41.9l33.3 19.2c.1.1.2.1.3.1h.1c1 .4 1.8.1 2.6-.5l5.6-3.2 8.9-5.3c.5-.3.9-.9 1.1-1.5z" opacity=".5"/>
      <path d="M70.1 26.4v-14c0-1.8-1-3.4-2.5-4.3L54.6.6C53.8.2 53 0 52.1 0v19.4L23 2.5 19.8.7c-1.4-.8-2.7-.9-4.1-.2 0 0-.1 0-.1.1-.2.1-.3.2-.5.3l-5.1 3-7.5 4.2C1.5 8.7.7 9.6.3 10.6l32.2 18.6 1.7 1 35.7 20.6c.2-.7.2-1.9.2-1.9V26.4z"/>
    </g>
  </g>
</svg>