<?xml version="1.0" encoding="UTF-8" standalone="no"?>
<svg
   height="250"
   width="900"
   version="1.1"
   id="svg23"
   sodipodi:docname="rp2040.svg"
   inkscape:version="1.3.2 (091e20e, 2023-11-25, custom)"
   xmlns:inkscape="http://www.inkscape.org/namespaces/inkscape"
   xmlns:sodipodi="http://sodipodi.sourceforge.net/DTD/sodipodi-0.dtd"
   xmlns="http://www.w3.org/2000/svg"
   xmlns:svg="http://www.w3.org/2000/svg">
  <defs
     id="defs23" />
  <sodipodi:namedview
     id="namedview23"
     pagecolor="#ffffff"
     bordercolor="#000000"
     borderopacity="0.25"
     inkscape:showpageshadow="2"
     inkscape:pageopacity="0.0"
     inkscape:pagecheckerboard="0"
     inkscape:deskcolor="#d1d1d1"
     inkscape:zoom="0.87375"
     inkscape:cx="706.15164"
     inkscape:cy="153.93419"
     inkscape:window-width="1920"
     inkscape:window-height="1111"
     inkscape:window-x="-9"
     inkscape:window-y="-9"
     inkscape:window-maximized="1"
     inkscape:current-layer="svg23" />
  <filter
     id="a"
     filterUnits="userSpaceOnUse">
    <feOffset
       dx="8.504"
       dy="10"
       id="feOffset1" />
    <feGaussianBlur
       result="blur"
       stdDeviation="10"
       id="feGaussianBlur1" />
    <feFlood
       flood-color="#262626"
       flood-opacity=".15"
       id="feFlood1" />
    <feComposite
       in2="blur"
       operator="in"
       id="feComposite1" />
    <feComposite
       in="SourceGraphic"
       id="feComposite2" />
  </filter>
  <filter
     id="b"
     filterUnits="userSpaceOnUse">
    <feOffset
       dx="8.504"
       dy="10"
       id="feOffset2" />
    <feGaussianBlur
       result="blur-2"
       stdDeviation="10"
       id="feGaussianBlur2" />
    <feFlood
       flood-color="#262626"
       flood-opacity=".15"
       id="feFlood2" />
    <feComposite
       in2="blur-2"
       operator="in"
       id="feComposite3" />
    <feComposite
       in="SourceGraphic"
       id="feComposite4" />
  </filter>
  <filter
     id="c"
     filterUnits="userSpaceOnUse">
    <feOffset
       dx="8.504"
       dy="10"
       id="feOffset4" />
    <feGaussianBlur
       result="blur-3"
       stdDeviation="10"
       id="feGaussianBlur4" />
    <feFlood
       flood-color="#262626"
       flood-opacity=".15"
       id="feFlood4" />
    <feComposite
       in2="blur-3"
       operator="in"
       id="feComposite5" />
    <feComposite
       in="SourceGraphic"
       id="feComposite6" />
  </filter>
  <filter
     id="d"
     filterUnits="userSpaceOnUse">
    <feOffset
       dx="8.504"
       dy="10"
       id="feOffset6" />
    <feGaussianBlur
       result="blur-4"
       stdDeviation="10"
       id="feGaussianBlur6" />
    <feFlood
       flood-color="#262626"
       flood-opacity=".15"
       id="feFlood6" />
    <feComposite
       in2="blur-4"
       operator="in"
       id="feComposite7" />
    <feComposite
       in="SourceGraphic"
       id="feComposite8" />
  </filter>
  <filter
     id="e"
     filterUnits="userSpaceOnUse">
    <feOffset
       dx="8.504"
       dy="10"
       id="feOffset8" />
    <feGaussianBlur
       result="blur-5"
       stdDeviation="10"
       id="feGaussianBlur8" />
    <feFlood
       flood-color="#262626"
       flood-opacity=".15"
       id="feFlood8" />
    <feComposite
       in2="blur-5"
       operator="in"
       id="feComposite9" />
    <feComposite
       in="SourceGraphic"
       id="feComposite10" />
  </filter>
  <filter
     id="f"
     filterUnits="userSpaceOnUse">
    <feOffset
       dx="8.504"
       dy="10"
       id="feOffset10" />
    <feGaussianBlur
       result="blur-6"
       stdDeviation="10"
       id="feGaussianBlur10" />
    <feFlood
       flood-color="#262626"
       flood-opacity=".15"
       id="feFlood10" />
    <feComposite
       in2="blur-6"
       operator="in"
       id="feComposite11" />
    <feComposite
       in="SourceGraphic"
       id="feComposite12" />
  </filter>
  <clipPath
     id="g">
    <path
       d="m -8349.608,286.418 h 6720 v 1807.433 h -6720 z"
       id="path12" />
  </clipPath>
  <g
     clip-path="url(#g)"
     fill="#ffffff"
     id="g19">
    <path
       d="M -2281.383,288.193 H 3135.591 V 2093.851 H -2281.383 Z"
       id="path13" />
    <path
       d="M -114.594,286.418 H 65.972 v 180.566 h -180.566 z"
       filter="url(#a)"
       id="path14" />
    <path
       d="M 246.538,286.418 H 427.104 V 466.984 H 246.538 Z"
       filter="url(#b)"
       transform="rotate(180,336.821,376.7)"
       id="path15" />
    <path
       d="M 65.972,286.418 H 246.538 V 466.984 H 65.972 Z"
       filter="url(#c)"
       transform="rotate(180,156.255,376.7)"
       id="path16" />
    <path
       d="M 788.236,288.193 H 968.802 V 468.759 H 788.236 Z"
       filter="url(#d)"
       id="path17" />
    <path
       d="M 607.67,288.193 H 788.236 V 468.759 H 607.67 Z"
       filter="url(#e)"
       id="path18" />
    <path
       d="M 427.104,288.193 H 607.67 V 468.759 H 427.104 Z"
       filter="url(#f)"
       id="path19" />
  </g>
  <rect
     fill="#d72555"
     height="136.601"
     rx="17.669001"
     width="136.601"
     x="22.686129"
     y="66.0467"
     id="rect19" />
  <path
     d="m 132.34913,142.3587 c -0.475,-4.934 -2.692,-9.322 -5.841,-11.635 -0.562,-1.99 -1.472,-3.76 -2.712,-5.273 -0.186,-2.324 -1.177,-6.866 -5.755,-10.872 0.51,-0.45 0.99,-0.992 1.333,-1.624 3.822,-1.707 6.517,-5.292 6.83,-7.959 2.039,-2.04 3.206,-4.452 3.304,-6.850999 0.047,-1.132 -0.157,-2.186 -0.584,-3.085005 1.688,-1.823 2.245,-3.971 1.527,-6.05 -1.14,-3.305 -5.14,-5.45 -10.51,-5.679 -1.44,-1.313 -3.448,-2.004 -5.853,-2.004 -1.028,0 -2.109,0.134 -3.16,0.39 -0.86,-0.414 -1.919,-0.63 -3.105,-0.63 -2.01301,0 -4.22001,0.61 -5.92501,1.615 a 5.453,5.453 0 0 0 -0.716,-0.046 c -2.665995,0 -5.330995,1.837 -6.681995,2.932 a 20.257,20.257 0 0 0 -3.513,3.66 20.277,20.277 0 0 0 -3.512,-3.66 c -1.352,-1.094 -4.017,-2.932 -6.683,-2.932 a 5.46,5.46 0 0 0 -0.716,0.046 c -1.705,-1.005 -3.912,-1.615 -5.924,-1.615 -1.187,0 -2.245,0.216 -3.106,0.63 a 13.534,13.534 0 0 0 -3.16,-0.39 c -2.405,0 -4.413,0.69 -5.853,2.004 -5.37,0.228 -9.37,2.374 -10.51,5.68 -0.718,2.078 -0.16,4.226 1.527,6.05 -0.427,0.898005 -0.63,1.953005 -0.584,3.084005 0.098,2.399999 1.265,4.811999 3.304,6.850999 0.312,2.667 3.008,6.252 6.83,7.96 0.343,0.63 0.823,1.172 1.332,1.623 -4.577,4.006 -5.568,8.548 -5.754,10.873 -1.24,1.512 -2.15,3.281 -2.712,5.272 -3.149,2.313 -5.366,6.702 -5.84,11.634 -0.473,4.904 0.873,9.481 3.61,12.38 0.376,2.2 1.63,5.08 2.978,6.837 0.27,3.717 1.854,7.382 4.49,10.377 2.656,3.015 6.157,5.092 9.904,5.885 2.263,2.117 4.671,3.607 7.92,4.903 1.419,1.43 5.553,4.869 12.459,4.869 6.906,0 11.039995,-3.44 12.458995,-4.869 3.249,-1.296 5.65701,-2.786 7.92001,-4.903 3.746,-0.793 7.248,-2.87 9.903,-5.885 2.637,-2.995 4.22,-6.66 4.491,-10.377 1.349,-1.757 2.603,-4.636 2.977,-6.836 2.738,-2.9 4.083,-7.477 3.612,-12.38 z m -18.498,-14.996 c -3.242,-1.767 -6.306,-4.346 -8.62101,-7.226 -3.092,-3.674 -1.082,-5.31 3.78801,-4.428 3.63,0.88 7.064,3.76 8.556,7.181 1.73,4.603 0.382,6.817 -3.723,4.473 z m -12.824,-39.128004 a 0.423,0.423 0 0 1 0.53799,0.45 c -0.134,1.267 0.632,1.107 0.814,0.882 1.995,-2.48 4.108,-3.045 6.00001,-2.879 0.333,0.03 0.492,0.418 0.29,0.684 -0.752,1.115 0.058,1.327 0.357,1.126 3.07,-1.92 6,-1.923 7.124,-1.117 0.218,0.157 0.226,0.48 0.025,0.658 -1.136,0.968 -0.5,1.45 -0.099,1.303 3.118,-1.1 7.422,-0.127 8.923,1.142 0.199,0.169 0.205,0.473 0.01,0.646 -1.897,1.682 -2.83,3.032 -3.255,5.679005 -0.084,0.747 1.155,0.59 1.677,0.455 0.26,-0.067 0.52,0.127 0.528,0.395 0.047,1.795 -1.65,3.767999 -4.176,5.454999 -0.338,0.226 -0.29,0.768 0.482,0.788 0.349,0.026 0.51,0.35 0.36,0.63 -0.901,1.671 -2.126,3.245 -6.297,4.326 -0.398,0.103 -0.43,0.645 -0.06,0.806 0.371,0.161 0.375,0.516 0.134,0.723 -4.153,3.568 -14.680005,2.161 -16.017005,-3.844 a 0.421,0.421 0 0 1 0.076,-0.344 c 2.498005,-3.332 8.303995,-9.852999 17.458005,-13.283004 0.371,-0.139 0.228,-0.697 -0.164,-0.639 -8.89101,1.32 -15.152,6.262005 -18.960005,11.430004 a 0.428,0.428 0 0 1 -0.543,0.123 c -6.748,-3.484 -1.207,-13.771004 4.775005,-15.595004 z M 90.987125,114.8337 c 1.295,0 4.658,0.12 8.175,2.877 5.869995,4.88 -0.855,8.333 -8.175,8.333 -7.32,0 -14.046,-3.454 -8.175,-8.333 3.517,-2.758 6.88,-2.877 8.175,-2.877 z m -29.636,-10.303 c -0.151,-0.28 0.01,-0.604 0.359,-0.63 0.772,-0.02 0.82,-0.562 0.482,-0.788 -2.526,-1.687 -4.223,-3.659999 -4.176,-5.454999 a 0.423,0.423 0 0 1 0.527,-0.395 c 0.523,0.134 1.762,0.292 1.678,-0.455 -0.426,-2.647005 -1.358,-3.997005 -3.256,-5.679005 a 0.427,0.427 0 0 1 0.01,-0.645 c 1.502,-1.27 5.806,-2.243 8.923,-1.143 0.402,0.147 1.038,-0.335 -0.098,-1.303 a 0.423,0.423 0 0 1 0.025,-0.658 c 1.124,-0.806 4.053,-0.802 7.124,1.117 0.3,0.2 1.109,-0.011 0.357,-1.126 -0.202,-0.266 -0.043,-0.654 0.29,-0.684 1.892,-0.166 4.005,0.398 6,2.879 0.181,0.225 0.948,0.385 0.814,-0.882 a 0.423,0.423 0 0 1 0.537,-0.45 c 5.983,1.824 11.524,12.111004 4.776,15.595004 a 0.428,0.428 0 0 1 -0.543,-0.123 c -3.809,-5.167999 -10.07,-10.110004 -18.96,-11.430004 -0.392,-0.058 -0.536,0.5 -0.164,0.64 9.153,3.430005 14.96,9.950004 17.458,13.282004 a 0.422,0.422 0 0 1 0.076,0.344 c -1.336,6.005 -11.864,7.412 -16.017,3.844 -0.241,-0.207 -0.237,-0.562 0.133,-0.723 0.37,-0.16 0.339,-0.703 -0.059,-0.806 -4.171,-1.081 -5.396,-2.655 -6.296,-4.326 z m 3.05,18.358 c 1.49,-3.42 4.924,-6.3 8.555,-7.18 4.87,-0.883 6.88,0.753 3.788,4.427 -2.316,2.88 -5.38,5.459 -8.621,7.226 -4.105,2.344 -5.453,0.13 -3.723,-4.473 z m -8.492,25.58 c -1.356,-3.55 -1.018,-7.866 0.975,-11.184 2.17,-3.69 4.352,-3.543 5.218,-0.417 1.117,4.128 0.687,9.052 -1.13,12.923 -1.606,3.193 -3.614,2.114 -5.063,-1.323 z m 15.64,23.902 c -5.207,-1.097 -9.629,-6.342 -9.828,-11.66 0.814,-18.946 28.119,14.888 9.828,11.66 z m 0.555,-23.597 c -4.579,-2.643 -5.79,-9.117 -2.706,-14.46 3.084,-5.341 9.296,-7.529 13.875,-4.885 4.579,2.644 5.79,9.117 2.706,14.46 -3.084,5.341 -9.296,7.529 -13.875,4.885 z m 26.524,30.828 a 13.013,13.013 0 0 1 -7.641,2.464 c -2.853,0 -5.491,-0.914 -7.64,-2.464 -4.538,-3.134 0.027,-6.739 7.64,-6.739 7.613,0 12.177995,3.605 7.64,6.739 z m -7.641,-11.485 c -5.87,0 -10.628,-4.078 -10.628,-9.11 0,-5.03 4.758,-9.11 10.628,-9.11 5.87,0 10.627995,4.08 10.627995,9.11 0,5.032 -4.757995,9.11 -10.627995,9.11 z m 5.007,-24.228 c -3.084,-5.342 -1.872,-11.815 2.707,-14.459 4.578995,-2.644 10.790005,-0.456 13.875005,4.886 3.084,5.342 1.873,11.816 -2.706,14.46 -4.57901,2.643 -10.791005,0.455 -13.876005,-4.887 z m 14.431005,28.483 c -18.291005,3.228 9.014,-30.606 9.828,-11.66 -0.2,5.318 -4.621,10.563 -9.828,11.66 z m 15.64,-23.903 c -1.449,3.437 -3.457,4.515 -5.064,1.323 -1.816,-3.871 -2.246,-8.795 -1.13,-12.923 0.867,-3.126 3.05,-3.273 5.219,0.417 1.993,3.318 2.331,7.635 0.975,11.183 z"
     fill="#ffffff"
     id="path20" />
  <path
     d="m 199.3076,138.44868 h -9.995 v 21.12 c 0,0.647 -0.525,1.172 -1.173,1.172 h -10.202 a 1.172,1.172 0 0 1 -1.172,-1.172 v -58.55 c 0,-0.648 0.524,-1.172 1.172,-1.172 h 21.454 c 7.193,0 12.741,1.604 16.645,4.81 3.904,3.206 5.856,7.737 5.856,13.592 0,4.155 -0.9,7.619 -2.698,10.393 -1.798,2.775 -4.524,4.984 -8.176,6.629 l 12.578,23.75 c 0.413,0.78 -0.153,1.72 -1.036,1.72 h -10.975 a 1.407,1.407 0 0 1 -1.252,-0.765 l -11.027,-21.527 z m -9.995,-10.163 h 10.12 c 3.151,0 5.59,-0.8 7.32,-2.404 1.728,-1.603 2.593,-3.813 2.593,-6.63 0,-2.87 -0.816,-5.129 -2.447,-6.775 -1.631,-1.644 -4.134,-2.467 -7.507,-2.467 h -10.08 v 18.276 z m 66.14,31.772 c -0.397,-0.955 -0.696,-2.08 -0.897,-3.374 -2.927,3.262 -6.733,4.893 -11.417,4.893 -4.434,0 -8.108,-1.281 -11.02,-3.847 -2.915,-2.565 -4.371,-5.8 -4.371,-9.703 0,-4.795 1.777,-8.476 5.332,-11.041 3.555,-2.565 8.692,-3.862 15.412,-3.89 h 5.562 v -2.593 c 0,-2.091 -0.537,-3.764 -1.61,-5.019 -1.074,-1.254 -2.767,-1.882 -5.081,-1.882 -2.036,0 -3.633,0.488 -4.789,1.464 -0.93,0.785 -1.487,1.804 -1.669,3.057 -0.08,0.558 -0.582,0.958 -1.145,0.958 h -9.768 c -0.71,0 -1.246,-0.626 -1.169,-1.332 0.23,-2.116 1.015,-4.097 2.354,-5.945 1.617,-2.23 3.903,-3.98 6.86,-5.249 2.954,-1.268 6.273,-1.903 9.953,-1.903 5.576,0 10.002,1.401 13.279,4.203 3.276,2.802 4.914,6.741 4.914,11.815 v 19.615 c 0.022,3.422 0.347,6.411 1.405,8.774 0.354,0.791 -0.18,1.682 -1.047,1.682 h -10.014 c -0.461,0 -0.896,-0.257 -1.074,-0.683 z m -9.68,-7.723 c 1.784,0 3.43,-0.398 4.936,-1.192 1.505,-0.795 2.62,-1.862 3.345,-3.2 v -7.779 h -4.516 c -6.051,0 -9.272,2.091 -9.662,6.273 l -0.041,0.711 c 0,1.506 0.529,2.747 1.589,3.723 1.06,0.976 2.51,1.464 4.35,1.464 z m 53.294,-4.099 c 0,-1.478 -0.731,-2.641 -2.195,-3.492 -1.464,-0.85 -3.813,-1.61 -7.047,-2.28 -10.764,-2.258 -16.144,-6.83 -16.144,-13.718 0,-4.015 1.666,-7.367 4.998,-10.058 3.331,-2.69 7.688,-4.036 13.07,-4.036 5.743,0 10.336,1.353 13.78,4.057 3.113,2.445 4.82,5.552 5.118,9.319 0.052,0.664 -0.507,1.22 -1.173,1.22 h -9.782 c -0.568,0 -1.072,-0.408 -1.148,-0.971 -0.174,-1.3 -0.711,-2.405 -1.61,-3.316 -1.115,-1.129 -2.858,-1.693 -5.227,-1.693 -2.036,0 -3.612,0.46 -4.726,1.38 -1.116,0.92 -1.673,2.09 -1.673,3.513 0,1.338 0.633,2.42 1.903,3.241 1.268,0.823 3.408,1.534 6.42,2.133 3.01,0.6 5.547,1.276 7.611,2.029 6.385,2.342 9.578,6.398 9.578,12.17 0,4.127 -1.771,7.465 -5.312,10.017 -3.541,2.55 -8.113,3.826 -13.718,3.826 -3.792,0 -7.159,-0.676 -10.1,-2.028 -2.942,-1.352 -5.249,-3.206 -6.922,-5.562 -1.398,-1.97 -2.212,-4.07 -2.441,-6.303 -0.073,-0.706 0.458,-1.33 1.168,-1.33 h 9.174 c 0.555,0 1.059,0.386 1.146,0.934 0.268,1.696 1.031,3.03 2.287,4.001 1.478,1.144 3.457,1.715 5.94,1.715 2.313,0 4.062,-0.44 5.248,-1.318 1.185,-0.878 1.777,-2.028 1.777,-3.45 z m 59.728,-9.703 c 0,6.97 -1.583,12.554 -4.747,16.75 -3.165,4.197 -7.438,6.294 -12.819,6.294 -4.573,0 -8.267,-1.589 -11.083,-4.767 v 20.157 c 0,0.648 -0.525,1.172 -1.172,1.172 h -9.743 a 1.172,1.172 0 0 1 -1.172,-1.172 v -60.306 c 0,-0.648 0.525,-1.172 1.172,-1.172 h 8.97 c 0.605,0 1.11,0.46 1.167,1.062 l 0.318,3.37 c 2.928,-3.512 6.747,-5.269 11.46,-5.269 5.576,0 9.912,2.064 13.006,6.19 3.095,4.127 4.643,9.815 4.643,17.064 z m -12.087,-0.878 c 0,-4.21 -0.747,-7.458 -2.238,-9.745 -1.492,-2.286 -3.659,-3.43 -6.503,-3.43 -3.792,0 -6.399,1.45 -7.82,4.35 v 18.528 c 1.476,2.984 4.111,4.475 7.904,4.475 5.771,0 8.657,-4.726 8.657,-14.178 z m 59.948,0.878 c 0,7.25 -1.547,12.902 -4.642,16.96 -3.095,4.056 -7.418,6.084 -12.966,6.084 -4.907,0 -8.824,-1.882 -11.752,-5.646 l -0.426,3.77 a 1.172,1.172 0 0 1 -1.165,1.04 h -8.654 a 1.172,1.172 0 0 1 -1.172,-1.172 v -61.896 c 0,-0.647 0.524,-1.172 1.172,-1.172 h 9.742 c 0.648,0 1.172,0.525 1.172,1.172 v 21.872 c 2.788,-3.262 6.455,-4.893 11,-4.893 5.52,0 9.85,2.028 12.986,6.085 3.137,4.057 4.705,9.766 4.705,17.127 z m -12.087,-0.878 c 0,-4.573 -0.725,-7.911 -2.175,-10.017 -1.45,-2.105 -3.611,-3.158 -6.482,-3.158 -3.848,0 -6.497,1.576 -7.947,4.726 v 17.859 c 1.478,3.178 4.154,4.768 8.03,4.768 3.904,0 6.468,-1.924 7.696,-5.772 0.585,-1.84 0.878,-4.642 0.878,-8.406 z m 39.76,23.922 c -6.636,0 -12.039,-2.034 -16.206,-6.106 -4.169,-4.07 -6.253,-9.494 -6.253,-16.269 v -1.17 c 0,-4.545 0.879,-8.61 2.635,-12.192 1.757,-3.582 4.245,-6.343 7.465,-8.281 3.22,-1.938 6.894,-2.907 11.02,-2.907 6.19,0 11.063,1.952 14.618,5.855 3.555,3.904 5.332,9.439 5.332,16.604 v 3.763 c 0,0.647 -0.524,1.172 -1.172,1.172 h -27.644 c 0.39,2.956 1.569,5.326 3.534,7.11 1.966,1.785 4.455,2.677 7.466,2.677 4.19,0 7.556,-1.366 10.099,-4.1 0.464,-0.498 1.273,-0.45 1.727,0.058 l 4.382,4.907 c 0.375,0.42 0.414,1.06 0.064,1.5 -1.744,2.197 -4.003,3.938 -6.778,5.226 -3.095,1.435 -6.525,2.153 -10.289,2.153 z m -1.38,-37.18 c -2.399,0 -4.343,0.812 -5.834,2.437 -1.492,1.624 -2.447,3.95 -2.865,6.973 h 16.813 v -0.966 c -0.057,-2.69 -0.781,-4.768 -2.175,-6.24 -1.395,-1.47 -3.374,-2.204 -5.939,-2.204 z m 52.228,1.123 a 1.168,1.168 0 0 1 -1.282,1.15 29.404,29.404 0 0 0 -3.086,-0.182 c -4.573,0 -7.57,1.547 -8.992,4.642 v 28.439 c 0,0.647 -0.525,1.172 -1.172,1.172 h -9.743 a 1.172,1.172 0 0 1 -1.172,-1.172 v -42.908 c 0,-0.648 0.525,-1.172 1.172,-1.172 h 9.144 c 0.62,0 1.132,0.481 1.17,1.1 l 0.267,4.295 c 2.425,-4.154 5.784,-6.232 10.079,-6.232 1.007,0 1.967,0.103 2.88,0.308 0.525,0.118 0.879,0.613 0.87,1.15 z m 30.548,0 a 1.168,1.168 0 0 1 -1.283,1.15 29.415,29.415 0 0 0 -3.085,-0.182 c -4.572,0 -7.57,1.547 -8.992,4.642 v 28.439 c 0,0.647 -0.525,1.172 -1.172,1.172 h -9.743 a 1.172,1.172 0 0 1 -1.172,-1.172 v -42.908 c 0,-0.648 0.525,-1.172 1.172,-1.172 h 9.144 c 0.619,0 1.131,0.481 1.17,1.1 l 0.266,4.295 c 2.426,-4.154 5.786,-6.232 10.08,-6.232 1.007,0 1.967,0.103 2.88,0.308 0.524,0.118 0.878,0.613 0.87,1.15 z m 24.37,18.115 8.116,-27.308 a 1.172,1.172 0 0 1 1.123,-0.838 h 10.442 c 0.807,0 1.372,0.795 1.107,1.557 l -17.651,50.721 -1.004,2.384 c -2.704,5.91 -7.166,8.867 -13.383,8.867 -1.471,0 -2.961,-0.187 -4.471,-0.558 a 1.18,1.18 0 0 1 -0.882,-1.146 v -7.031 c 0,-0.666 0.553,-1.197 1.218,-1.171 l 1.2,0.047 c 2.286,0 3.416,-0.403 4.545,-1.099 1.13,-0.697 2.014,-1.855 2.656,-3.471 l 1.422,-3.723 -15.307,-43.819 a 1.172,1.172 0 0 1 1.107,-1.558 h 10.483 c 0.518,0 0.974,0.34 1.123,0.836 z m 60.769,-4.349 v 20.283 c 0,0.647 -0.525,1.172 -1.172,1.172 h -10.203 a 1.172,1.172 0 0 1 -1.172,-1.172 v -58.55 c 0,-0.647 0.525,-1.172 1.172,-1.172 h 22.584 c 4.573,0 8.594,0.836 12.065,2.51 3.472,1.672 6.142,4.05 8.01,7.13 1.867,3.081 2.802,6.587 2.802,10.518 0,5.967 -2.043,10.673 -6.127,14.116 -4.084,3.444 -9.739,5.165 -16.96,5.165 z m 0,-10.163 h 11.209 c 3.318,0 5.848,-0.78 7.59,-2.342 1.742,-1.561 2.614,-3.792 2.614,-6.692 0,-2.983 -0.878,-5.395 -2.635,-7.235 -1.756,-1.84 -4.182,-2.788 -7.277,-2.844 h -11.501 z m 40.016,-25.345 c 0,-1.812 0.607,-3.304 1.82,-4.475 1.212,-1.171 2.864,-1.757 4.955,-1.757 2.064,0 3.708,0.586 4.936,1.757 1.227,1.171 1.84,2.663 1.84,4.475 0,1.84 -0.621,3.346 -1.861,4.517 -1.24,1.171 -2.88,1.757 -4.915,1.757 -2.035,0 -3.674,-0.586 -4.914,-1.757 -1.24,-1.171 -1.86,-2.677 -1.86,-4.517 z m 11.668,56.963 h -9.785 a 1.172,1.172 0 0 1 -1.172,-1.172 v -42.908 c 0,-0.648 0.525,-1.172 1.172,-1.172 h 9.785 c 0.647,0 1.172,0.524 1.172,1.172 v 42.908 c 0,0.647 -0.525,1.172 -1.172,1.172 z"
     fill="#1d1d1b"
     id="path21" />
  <path
     d="m 869.83288,89.376665 a 6.93,6.93 0 0 1 6.922,6.922 v 72.377995 a 6.93,6.93 0 0 1 -6.922,6.923 h -178.156 a 6.93,6.93 0 0 1 -6.921,-6.923 V 96.298665 a 6.93,6.93 0 0 1 6.921,-6.922 z m 0,-5.707 h -178.156 c -6.974,0 -12.629,5.654 -12.629,12.629 v 72.377995 c 0,6.975 5.655,12.63 12.63,12.63 h 178.155 c 6.975,0 12.63,-5.655 12.63,-12.63 V 96.298665 c 0,-6.975 -5.655,-12.63 -12.63,-12.63 z"
     fill="#d72555"
     id="path22" />
  <path
     d="m 712.60288,139.36566 v 23.826 h -8.026 v -60.861 h 22.447 c 6.66,0 11.878,1.7 15.654,5.1 3.776,3.4 5.664,7.9 5.664,13.501 0,5.908 -1.846,10.457 -5.538,13.648 -3.693,3.19 -8.98,4.786 -15.864,4.786 z m 0,-6.563 h 14.42 c 4.292,0 7.58,-1.012 9.866,-3.035 2.285,-2.024 3.427,-4.949 3.427,-8.773 0,-3.63 -1.142,-6.532 -3.427,-8.709 -2.285,-2.179 -5.42,-3.309 -9.405,-3.392 h -14.881 v 23.91 z m 43.946,-26.836 c 0,-1.254 0.383,-2.312 1.15,-3.176 0.767,-0.864 1.901,-1.296 3.406,-1.296 1.505,0 2.648,0.432 3.428,1.296 0.78,0.864 1.17,1.922 1.17,3.176 0,1.254 -0.39,2.3 -1.17,3.136 -0.78,0.836 -1.923,1.254 -3.428,1.254 -1.505,0 -2.64,-0.418 -3.407,-1.254 -0.767,-0.836 -1.149,-1.882 -1.149,-3.136 z m 8.36,57.225 h -7.733 v -45.228 h 7.733 z m 29.727,-5.476 c 2.759,0 5.17,-0.836 7.232,-2.508 2.062,-1.672 3.204,-3.762 3.427,-6.27 h 7.316 c -0.139,2.592 -1.03,5.058 -2.675,7.399 -1.644,2.34 -3.839,4.208 -6.583,5.601 -2.744,1.393 -5.65,2.09 -8.716,2.09 -6.158,0 -11.056,-2.055 -14.693,-6.165 -3.636,-4.11 -5.455,-9.733 -5.455,-16.867 v -1.296 c 0,-4.403 0.808,-8.318 2.425,-11.745 1.617,-3.427 3.936,-6.09 6.96,-7.984 3.024,-1.894 6.597,-2.843 10.721,-2.843 5.072,0 9.287,1.519 12.645,4.556 3.358,3.037 5.148,6.981 5.371,11.83 h -7.315 c -0.223,-2.926 -1.33,-5.33 -3.323,-7.21 -1.992,-1.882 -4.452,-2.822 -7.378,-2.822 -3.929,0 -6.973,1.414 -9.133,4.243 -2.16,2.829 -3.24,6.918 -3.24,12.268 v 1.463 c 0,5.211 1.073,9.224 3.219,12.039 2.146,2.814 5.211,4.221 9.196,4.221 z m 24.568,-17.556 c 0,-4.43 0.871,-8.416 2.613,-11.955 1.742,-3.539 4.166,-6.27 7.273,-8.193 3.107,-1.923 6.653,-2.884 10.638,-2.884 6.159,0 11.14,2.132 14.944,6.396 3.804,4.263 5.706,9.934 5.706,17.012 v 0.544 c 0,4.403 -0.843,8.353 -2.53,11.85 -1.685,3.498 -4.096,6.222 -7.23,8.172 -3.136,1.95 -6.737,2.926 -10.806,2.926 -6.13,0 -11.098,-2.132 -14.902,-6.395 -3.804,-4.264 -5.706,-9.907 -5.706,-16.93 z m 7.775,0.92 c 0,5.016 1.164,9.043 3.49,12.08 2.326,3.037 5.442,4.556 9.343,4.556 3.93,0 7.05,-1.54 9.363,-4.619 2.313,-3.079 3.47,-7.391 3.47,-12.937 0,-4.96 -1.178,-8.98 -3.532,-12.06 -2.355,-3.078 -5.483,-4.618 -9.385,-4.618 -3.817,0 -6.897,1.519 -9.238,4.556 -2.34,3.038 -3.51,7.385 -3.51,13.042 z"
     fill="#1d1d1b"
     id="path23" />
</svg>
