<?xml version="1.0" encoding="UTF-8"?>
<svg id="Layer_1" xmlns="http://www.w3.org/2000/svg" version="1.1" viewBox="0 0 595.28 620.31">
  <!-- Generator: Adobe Illustrator 29.5.0, SVG Export Plug-In . SVG Version: 2.1.0 Build 137)  -->
  <defs>
    <style>
      .st0 {
        fill: none;
      }

      .st1 {
        fill: #918833;
      }

      .st2 {
        fill: #cb4;
      }

      .st3 {
        fill: #208a44;
      }

      .st4 {
        fill: #15562c;
      }

      .st5 {
        fill: #268842;
      }
    </style>
  </defs>

  <circle class="st4" cx="426.89" cy="482.35" r="43.4" transform="translate(-182.1 692.16) rotate(-67.5)"/>
  <path class="st5" d="M564.8,438.58h-18.27c-.79,0-1.43.64-1.43,1.43v43.93c0,1.03-1.26,1.52-1.96.76-.23-.25-.43-.48-.63-.72-11.76-14.39-23.49-28.8-35.29-43.16-.82-1-2.06-2.3-3.15-2.31-4.68-.07-9.35-.13-14.13-.11-.78,0-1.42.64-1.42,1.42v84.12c0,.79.64,1.43,1.43,1.43h18.31c.79,0,1.43-.64,1.43-1.43v-43.23c0-1.07,1.34-1.55,2.02-.72l35.52,43.09c.83,1.01,2.02,2.38,3.1,2.41,5.15.14,9.61.13,14.49.12.79,0,1.42-.64,1.42-1.42v-84.15c0-.79-.64-1.43-1.43-1.43Z"/>
  <path class="st5" d="M77.58,439.37c-14.94-1.37-29.75-.69-44.79-.86-.46,0-.91.17-1.23.5-.33.32-.51.76-.51,1.22v83.92c0,.79.64,1.43,1.43,1.43,12.91,0,25.44.06,37.97-.05,2.33-.02,4.65-.21,6.94-.6,22.47-3.86,34.88-18.37,35.99-41.78,1.07-22.7-13.83-41.77-35.8-43.78ZM89.86,487.74c-2.51,13.22-10.26,19.46-23.81,19.54-3.56.02-7.11,0-10.84,0-.79,0-1.45-.64-1.45-1.43v-47.33c0-.78.63-1.41,1.41-1.42,6.08-.08,11.98-.32,17.73.41,9.55,1.22,16.68,10.26,17.22,20.76.16,3.14.32,6.39-.26,9.45Z"/>
  <path class="st5" d="M194.09,508.09h-36.2c-.79,0-1.43-.64-1.43-1.43v-15.42c0-.79.64-1.43,1.43-1.43h32.34c.79,0,1.43-.64,1.43-1.43v-14.59c0-.79-.64-1.43-1.43-1.43h-32.32c-.79,0-1.43-.64-1.43-1.43v-13.27c0-.79.64-1.43,1.43-1.43h34.99c.79,0,1.43-.64,1.43-1.43v-14.73c0-.79-.64-1.43-1.43-1.43h-57.82c-.79,0-1.43.64-1.43,1.43v83.78c0,.79.64,1.43,1.43,1.43h59.01c.79,0,1.43-.64,1.43-1.43v-14.35c0-.79-.64-1.43-1.43-1.43Z"/>
  <path class="st5" d="M371.26,511.24c-1.68-3.21-5.21-8.57-5.21-8.57,0,0-.87-1.37-2.88-.35-.01,0-.03.01-.04.02-8.08,4.08-16.45,6.01-25.54,4.13-10.9-2.25-18.6-11.12-19.48-22.79-.86-11.39,5.74-21.79,16.26-25.21,10.01-3.26,19.51-1.55,28.55,3.52.01,0,.02.01.03.02,1.62.91,2.28-.37,2.28-.37l6.11-11.64c.89-1.99-1.14-3.32-2.99-4.66-10.32-7.4-26.34-8.13-37.58-5.8-35.99,7.43-42.91,46.03-27.1,67.6,10.07,13.74,24.34,18.8,40.91,18.44,7.25-.16,16.13-1.11,26.15-7.89.55-.3,1.16-.83,1.62-1.41.62-.79.71-1.88.25-2.77-.46-.88-1.08-1.8-1.32-2.27Z"/>
  <path class="st5" d="M285.69,438.58s-.1,0-.15,0h-64.62c-.79,0-1.43.64-1.43,1.43v83.94c0,.79.64,1.43,1.43,1.43h19.77c.79,0,1.43-.64,1.43-1.43v-27.96c0-.79.64-1.43,1.43-1.43h29.48c.79,0,1.43-.64,1.43-1.43v-15.65c0-.79-.64-1.43-1.43-1.43h-29.39c-.79,0-1.43-.64-1.43-1.43v-16.14c0-.79.64-1.43,1.43-1.43h33.13c.79,0,.97-.68,1.43-1.43l8.46-15.05c.46-.82-.03-1.89-.97-1.98Z"/>
  <path class="st5" d="M579.95,521.28c0-.96-.58-1.4-1.82-1.4h-1.28c-.26,0-.48.21-.48.48v3.78c0,.19.16.35.35.35h.36c.19,0,.35-.16.35-.35v-1.4c0-.08.06-.14.14-.14h.17c.06,0,.12.03.15.09l.93,1.63c.06.11.18.18.3.18h.31c.13,0,.24-.07.3-.18.06-.11.06-.24,0-.35l-.77-1.26h0s-.02-.09,0-.11c.02-.04.05-.07.1-.08.6-.15.92-.57.92-1.22ZM578.12,521.73h-.43c-.14,0-.26-.12-.26-.26v-.46c0-.15.12-.26.26-.26h.39c.73,0,.82.26.82.46,0,.44-.26.52-.78.52Z"/>
  <path class="st5" d="M578.01,518.42c-2.08,0-3.76,1.68-3.76,3.76s1.68,3.76,3.76,3.76,3.76-1.68,3.76-3.76-1.68-3.76-3.76-3.76ZM578.03,525.19c-1.68,0-2.99-1.33-2.99-3.02s1.32-2.99,2.99-2.99,2.96,1.31,2.96,2.99-1.3,3.02-2.96,3.02Z"/>
  <path class="st5" d="M426.84,438.23c-24.1,0-43.64,19.54-43.64,43.64s19.54,43.64,43.64,43.64,43.64-19.54,43.64-43.64-19.54-43.64-43.64-43.64ZM423.85,497.23l-6.36,3.71-4.39,2.63c-.35.21-.66.42-.92.64l-.07.06c-.99.88-1.67,2.05-1.95,3.34l-.04.19c-.18.82-.34,1.59-.61,2.27-.37.95-1.13,1.69-2.1,2.02-1.38.46-2.95.25-4.06-.69-.08-.06-.15-.13-.22-.2-.24-.23-.45-.51-.62-.8l-.02-.02c-.15-.25-.26-.51-.34-.77-.25-.93-.19-1.54-.03-2.08.04-.16.19-.58.22-.78h0s.01-.08.01-.12c.02-.24,0-.51-.14-.76-.27-.47-1.12-.63-1.12-.63-.71-.18-1.96-.7-2.63-1.86-.17-.28-.29-.59-.37-.9-.04-.14-.06-.29-.09-.43,0-.02,0-.03,0-.05-.02-.13-.03-.27-.04-.4-.03-1.29.59-2.54,1.6-3.38.75-.63,1.74-.87,2.71-.72.72.12,1.47.36,2.27.62l.19.06c1.26.4,2.61.41,3.87,0l.09-.03,1.01-.52,1.09-.63s0,0,0,0l4.61-2.66,2.25-1.34c.41-.24.91-.24,1.32,0l4.89,2.83c.53.31.53,1.07,0,1.38ZM457.73,467.57c.12.09.23.19.33.29.23.23.44.49.6.77.67,1.16.5,2.5.3,3.21,0,0-.28.82-.01,1.28.14.24.37.4.58.5.04.02.07.03.11.05,0,0,0,0,0,0,.19.07.63.15.79.2.55.14,1.11.39,1.79,1.07.18.2.35.43.49.68h0c.17.28.29.59.37.9.03.11.05.23.08.34.29,1.66-.56,3.36-2,4.28-.52.33-1.13.48-1.74.44-.88-.06-1.78-.35-2.77-.67l-.19-.06c-1.26-.4-2.61-.39-3.87.02l-.09.03c-.33.12-.67.27-1.02.48l-10.78,6.12-4.56,2.64c-.32.19-.72.2-1.06.03l-2.7-1.34c-.38-.2-.83-.2-1.2.02l-.49.29c-.36.21-.36.73,0,.94l2.52,1.43,10.77,6.12c.35.2.69.36,1.02.48l.09.03c1.25.42,2.61.42,3.87.02l.19-.06c.99-.32,1.89-.61,2.77-.67.61-.04,1.22.11,1.73.44,1.44.92,2.29,2.62,2,4.28-.02.12-.05.23-.08.34-.08.31-.21.62-.37.9,0,0,0,0,0,0-.15.25-.31.48-.49.68-.68.68-1.23.93-1.79,1.07-.16.05-.6.13-.78.2,0,0,0,0,0,0-.04.01-.07.03-.11.05-.22.1-.44.26-.58.5-.27.47.01,1.28.01,1.28.2.71.37,2.05-.3,3.21-.16.29-.37.54-.6.77-.11.1-.21.2-.33.29-.01,0-.03.02-.04.03-.11.08-.21.16-.33.23-1.32.8-3.06.77-4.45-.04-.4-.23-.73-.58-.95-.98-.46-.84-.67-1.84-.9-2.94l-.04-.19c-.28-1.29-.95-2.47-1.94-3.35l-.06-.06-.96-.62-.12-.07s0,0,0,0l-20.47-11.81-16.72-9.65s0,0,0,0l-1.09-.63-1.01-.52-.09-.03c-1.25-.41-2.61-.41-3.87,0l-.19.06c-1.07.35-2.04.67-2.99.69-.46.01-.92-.1-1.33-.33-1.39-.79-2.29-2.28-2.26-3.83,0-.13.02-.27.04-.4,0-.01,0-.03,0-.05.02-.14.05-.29.09-.43.08-.32.2-.62.37-.9.67-1.16,1.91-1.68,2.63-1.86,0,0,.85-.16,1.12-.63.14-.24.17-.52.14-.76,0-.04,0-.08-.01-.12,0,0,0,0,0,0-.03-.2-.18-.62-.22-.78-.16-.55-.22-1.16.03-2.08.09-.26.2-.51.34-.77l.03-.05c.17-.27.36-.53.58-.75.08-.08.16-.15.24-.22,1.34-1.13,3.32-1.2,4.87-.33.41.23.76.58.99,1,.46.84.68,1.83.91,2.93l.04.19c.29,1.29.97,2.46,1.95,3.34l.07.06c.27.23.57.44.92.64l4.39,2.63.19.11c-2.28-3.28-3.62-7.25-3.62-11.55,0-12.71,11.71-22.68,24.93-19.71,7.22,1.62,13.01,7.18,14.86,14.35,1.61,6.26.3,12.22-2.86,16.81l4.47-2.58s0,0,0,0l.11-.07.96-.62.07-.06c.98-.88,1.66-2.06,1.94-3.35l.04-.19c.23-1.1.44-2.1.9-2.94.22-.41.55-.75.95-.98,1.38-.81,3.12-.84,4.45-.04.11.07.22.15.33.23.01,0,.02.02.04.03Z"/>
  <ellipse class="st5" cx="419.37" cy="460.71" rx="4.1" ry="4.14"/>
  <ellipse class="st5" cx="434.23" cy="460.71" rx="4.1" ry="4.14"/>
  <path class="st5" d="M441.76,467.21c-.1-.04-.22-.07-.36-.09-.2-.03-.43-.05-.71-.05-1.06,0-1.58.28-1.58.92,0,.1.02.19.05.29.02.07.05.13.09.19.13.22.23.46.23.71,0,.23-.03.51-.12,1.05l-.13.52c-.54,2.08-1.56,3.94-2.93,5.45-.02.02-.03.04-.05.06-.06.06-.11.12-.17.18-.06.07-.13.13-.19.2-.04.04-.08.08-.12.11-.09.09-.18.17-.27.26-.02.02-.04.04-.06.06-2.29,2.1-5.33,3.35-8.6,3.35-5.84,0-10.93-3.97-12.4-9.66l-.13-.52c-.09-.54-.13-.82-.12-1.05,0-.25.1-.5.23-.71.04-.07.07-.13.1-.21.03-.09.05-.18.05-.27,0-.64-.52-.92-1.58-.92-.25,0-.46.01-.64.04-.19.03-.35.07-.48.13-.3.13-.44.35-.46.67-.01.21.05.42.17.61.12.19.22.39.28.6.05.15.09.3.11.45.21,1.54.66,3.02,1.31,4.38,0,0,0,0,0,0,.02.05.05.09.07.14.01.03.03.05.04.08.07.14.14.28.21.42.03.06.07.13.1.19.03.06.07.12.1.18.07.12.14.24.21.35.02.03.04.06.06.09.08.12.15.24.23.37,0,0,.01.02.02.03,2.7,4.1,7.34,6.82,12.54,6.82,5.94,0,11.16-3.56,13.58-8.65,0,0,0,0,0,0,.11-.23.21-.46.31-.7.03-.08.07-.17.1-.25.01-.03.03-.07.04-.1.41-1.06.7-2.18.86-3.35.02-.15.06-.3.11-.45.07-.21.17-.41.28-.6.11-.18.18-.39.17-.61-.02-.33-.18-.56-.52-.69Z"/>
  <circle class="st4" cx="426.89" cy="482.35" r="43.4" transform="translate(-182.1 692.16) rotate(-67.5)"/>
  <path class="st5" d="M564.8,438.58h-18.27c-.79,0-1.43.64-1.43,1.43v43.93c0,1.03-1.26,1.52-1.96.76-.23-.25-.43-.48-.63-.72-11.76-14.39-23.49-28.8-35.29-43.16-.82-1-2.06-2.3-3.15-2.31-4.68-.07-9.35-.13-14.13-.11-.78,0-1.42.64-1.42,1.42v84.12c0,.79.64,1.43,1.43,1.43h18.31c.79,0,1.43-.64,1.43-1.43v-43.23c0-1.07,1.34-1.55,2.02-.72l35.52,43.09c.83,1.01,2.02,2.38,3.1,2.41,5.15.14,9.61.13,14.49.12.79,0,1.42-.64,1.42-1.42v-84.15c0-.79-.64-1.43-1.43-1.43Z"/>
  <path class="st5" d="M77.58,439.37c-14.94-1.37-29.75-.69-44.79-.86-.46,0-.91.17-1.23.5-.33.32-.51.76-.51,1.22v83.92c0,.79.64,1.43,1.43,1.43,12.91,0,25.44.06,37.97-.05,2.33-.02,4.65-.21,6.94-.6,22.47-3.86,34.88-18.37,35.99-41.78,1.07-22.7-13.83-41.77-35.8-43.78ZM89.86,487.74c-2.51,13.22-10.26,19.46-23.81,19.54-3.56.02-7.11,0-10.84,0-.79,0-1.45-.64-1.45-1.43v-47.33c0-.78.63-1.41,1.41-1.42,6.08-.08,11.98-.32,17.73.41,9.55,1.22,16.68,10.26,17.22,20.76.16,3.14.32,6.39-.26,9.45Z"/>
  <path class="st5" d="M194.09,508.09h-36.2c-.79,0-1.43-.64-1.43-1.43v-15.42c0-.79.64-1.43,1.43-1.43h32.34c.79,0,1.43-.64,1.43-1.43v-14.59c0-.79-.64-1.43-1.43-1.43h-32.32c-.79,0-1.43-.64-1.43-1.43v-13.27c0-.79.64-1.43,1.43-1.43h34.99c.79,0,1.43-.64,1.43-1.43v-14.73c0-.79-.64-1.43-1.43-1.43h-57.82c-.79,0-1.43.64-1.43,1.43v83.78c0,.79.64,1.43,1.43,1.43h59.01c.79,0,1.43-.64,1.43-1.43v-14.35c0-.79-.64-1.43-1.43-1.43Z"/>
  <path class="st5" d="M371.26,511.24c-1.68-3.21-5.21-8.57-5.21-8.57,0,0-.87-1.37-2.88-.35-.01,0-.03.01-.04.02-8.08,4.08-16.45,6.01-25.54,4.13-10.9-2.25-18.6-11.12-19.48-22.79-.86-11.39,5.74-21.79,16.26-25.21,10.01-3.26,19.51-1.55,28.55,3.52.01,0,.02.01.03.02,1.62.91,2.28-.37,2.28-.37l6.11-11.64c.89-1.99-1.14-3.32-2.99-4.66-10.32-7.4-26.34-8.13-37.58-5.8-35.99,7.43-42.91,46.03-27.1,67.6,10.07,13.74,24.34,18.8,40.91,18.44,7.25-.16,16.13-1.11,26.15-7.89.55-.3,1.16-.83,1.62-1.41.62-.79.71-1.88.25-2.77-.46-.88-1.08-1.8-1.32-2.27Z"/>
  <path class="st5" d="M285.69,438.58s-.1,0-.15,0h-64.62c-.79,0-1.43.64-1.43,1.43v83.94c0,.79.64,1.43,1.43,1.43h19.77c.79,0,1.43-.64,1.43-1.43v-27.96c0-.79.64-1.43,1.43-1.43h29.48c.79,0,1.43-.64,1.43-1.43v-15.65c0-.79-.64-1.43-1.43-1.43h-29.39c-.79,0-1.43-.64-1.43-1.43v-16.14c0-.79.64-1.43,1.43-1.43h33.13c.79,0,.97-.68,1.43-1.43l8.46-15.05c.46-.82-.03-1.89-.97-1.98Z"/>
  <path class="st5" d="M579.95,521.28c0-.96-.58-1.4-1.82-1.4h-1.28c-.26,0-.48.21-.48.48v3.78c0,.19.16.35.35.35h.36c.19,0,.35-.16.35-.35v-1.4c0-.08.06-.14.14-.14h.17c.06,0,.12.03.15.09l.93,1.63c.06.11.18.18.3.18h.31c.13,0,.24-.07.3-.18.06-.11.06-.24,0-.35l-.77-1.26h0s-.02-.09,0-.11c.02-.04.05-.07.1-.08.6-.15.92-.57.92-1.22ZM578.12,521.73h-.43c-.14,0-.26-.12-.26-.26v-.46c0-.15.12-.26.26-.26h.39c.73,0,.82.26.82.46,0,.44-.26.52-.78.52Z"/>
  <path class="st5" d="M578.01,518.42c-2.08,0-3.76,1.68-3.76,3.76s1.68,3.76,3.76,3.76,3.76-1.68,3.76-3.76-1.68-3.76-3.76-3.76ZM578.03,525.19c-1.68,0-2.99-1.33-2.99-3.02s1.32-2.99,2.99-2.99,2.96,1.31,2.96,2.99-1.3,3.02-2.96,3.02Z"/>
  <path class="st5" d="M426.84,438.23c-24.1,0-43.64,19.54-43.64,43.64s19.54,43.64,43.64,43.64,43.64-19.54,43.64-43.64-19.54-43.64-43.64-43.64ZM423.85,497.23l-6.36,3.71-4.39,2.63c-.35.21-.66.42-.92.64l-.07.06c-.99.88-1.67,2.05-1.95,3.34l-.04.19c-.18.82-.34,1.59-.61,2.27-.37.95-1.13,1.69-2.1,2.02-1.38.46-2.95.25-4.06-.69-.08-.06-.15-.13-.22-.2-.24-.23-.45-.51-.62-.8l-.02-.02c-.15-.25-.26-.51-.34-.77-.25-.93-.19-1.54-.03-2.08.04-.16.19-.58.22-.78h0s.01-.08.01-.12c.02-.24,0-.51-.14-.76-.27-.47-1.12-.63-1.12-.63-.71-.18-1.96-.7-2.63-1.86-.17-.28-.29-.59-.37-.9-.04-.14-.06-.29-.09-.43,0-.02,0-.03,0-.05-.02-.13-.03-.27-.04-.4-.03-1.29.59-2.54,1.6-3.38.75-.63,1.74-.87,2.71-.72.72.12,1.47.36,2.27.62l.19.06c1.26.4,2.61.41,3.87,0l.09-.03,1.01-.52,1.09-.63s0,0,0,0l4.61-2.66,2.25-1.34c.41-.24.91-.24,1.32,0l4.89,2.83c.53.31.53,1.07,0,1.38ZM457.73,467.57c.12.09.23.19.33.29.23.23.44.49.6.77.67,1.16.5,2.5.3,3.21,0,0-.28.82-.01,1.28.14.24.37.4.58.5.04.02.07.03.11.05,0,0,0,0,0,0,.19.07.63.15.79.2.55.14,1.11.39,1.79,1.07.18.2.35.43.49.68h0c.17.28.29.59.37.9.03.11.05.23.08.34.29,1.66-.56,3.36-2,4.28-.52.33-1.13.48-1.74.44-.88-.06-1.78-.35-2.77-.67l-.19-.06c-1.26-.4-2.61-.39-3.87.02l-.09.03c-.33.12-.67.27-1.02.48l-10.78,6.12-4.56,2.64c-.32.19-.72.2-1.06.03l-2.7-1.34c-.38-.2-.83-.2-1.2.02l-.49.29c-.36.21-.36.73,0,.94l2.52,1.43,10.77,6.12c.35.2.69.36,1.02.48l.09.03c1.25.42,2.61.42,3.87.02l.19-.06c.99-.32,1.89-.61,2.77-.67.61-.04,1.22.11,1.73.44,1.44.92,2.29,2.62,2,4.28-.02.12-.05.23-.08.34-.08.31-.21.62-.37.9,0,0,0,0,0,0-.15.25-.31.48-.49.68-.68.68-1.23.93-1.79,1.07-.16.05-.6.13-.78.2,0,0,0,0,0,0-.04.01-.07.03-.11.05-.22.1-.44.26-.58.5-.27.47.01,1.28.01,1.28.2.71.37,2.05-.3,3.21-.16.29-.37.54-.6.77-.11.1-.21.2-.33.29-.01,0-.03.02-.04.03-.11.08-.21.16-.33.23-1.32.8-3.06.77-4.45-.04-.4-.23-.73-.58-.95-.98-.46-.84-.67-1.84-.9-2.94l-.04-.19c-.28-1.29-.95-2.47-1.94-3.35l-.06-.06-.96-.62-.12-.07s0,0,0,0l-20.47-11.81-16.72-9.65s0,0,0,0l-1.09-.63-1.01-.52-.09-.03c-1.25-.41-2.61-.41-3.87,0l-.19.06c-1.07.35-2.04.67-2.99.69-.46.01-.92-.1-1.33-.33-1.39-.79-2.29-2.28-2.26-3.83,0-.13.02-.27.04-.4,0-.01,0-.03,0-.05.02-.14.05-.29.09-.43.08-.32.2-.62.37-.9.67-1.16,1.91-1.68,2.63-1.86,0,0,.85-.16,1.12-.63.14-.24.17-.52.14-.76,0-.04,0-.08-.01-.12,0,0,0,0,0,0-.03-.2-.18-.62-.22-.78-.16-.55-.22-1.16.03-2.08.09-.26.2-.51.34-.77l.03-.05c.17-.27.36-.53.58-.75.08-.08.16-.15.24-.22,1.34-1.13,3.32-1.2,4.87-.33.41.23.76.58.99,1,.46.84.68,1.83.91,2.93l.04.19c.29,1.29.97,2.46,1.95,3.34l.07.06c.27.23.57.44.92.64l4.39,2.63.19.11c-2.28-3.28-3.62-7.25-3.62-11.55,0-12.71,11.71-22.68,24.93-19.71,7.22,1.62,13.01,7.18,14.86,14.35,1.61,6.26.3,12.22-2.86,16.81l4.47-2.58s0,0,0,0l.11-.07.96-.62.07-.06c.98-.88,1.66-2.06,1.94-3.35l.04-.19c.23-1.1.44-2.1.9-2.94.22-.41.55-.75.95-.98,1.38-.81,3.12-.84,4.45-.04.11.07.22.15.33.23.01,0,.02.02.04.03Z"/>
  <ellipse class="st5" cx="419.37" cy="460.71" rx="4.1" ry="4.14"/>
  <ellipse class="st5" cx="434.23" cy="460.71" rx="4.1" ry="4.14"/>
  <path class="st5" d="M441.76,467.21c-.1-.04-.22-.07-.36-.09-.2-.03-.43-.05-.71-.05-1.06,0-1.58.28-1.58.92,0,.1.02.19.05.29.02.07.05.13.09.19.13.22.23.46.23.71,0,.23-.03.51-.12,1.05l-.13.52c-.54,2.08-1.56,3.94-2.93,5.45-.02.02-.03.04-.05.06-.06.06-.11.12-.17.18-.06.07-.13.13-.19.2-.04.04-.08.08-.12.11-.09.09-.18.17-.27.26-.02.02-.04.04-.06.06-2.29,2.1-5.33,3.35-8.6,3.35-5.84,0-10.93-3.97-12.4-9.66l-.13-.52c-.09-.54-.13-.82-.12-1.05,0-.25.1-.5.23-.71.04-.07.07-.13.1-.21.03-.09.05-.18.05-.27,0-.64-.52-.92-1.58-.92-.25,0-.46.01-.64.04-.19.03-.35.07-.48.13-.3.13-.44.35-.46.67-.01.21.05.42.17.61.12.19.22.39.28.6.05.15.09.3.11.45.21,1.54.66,3.02,1.31,4.38,0,0,0,0,0,0,.02.05.05.09.07.14.01.03.03.05.04.08.07.14.14.28.21.42.03.06.07.13.1.19.03.06.07.12.1.18.07.12.14.24.21.35.02.03.04.06.06.09.08.12.15.24.23.37,0,0,.01.02.02.03,2.7,4.1,7.34,6.82,12.54,6.82,5.94,0,11.16-3.56,13.58-8.65,0,0,0,0,0,0,.11-.23.21-.46.31-.7.03-.08.07-.17.1-.25.01-.03.03-.07.04-.1.41-1.06.7-2.18.86-3.35.02-.15.06-.3.11-.45.07-.21.17-.41.28-.6.11-.18.18-.39.17-.61-.02-.33-.18-.56-.52-.69Z"/>
  <g>
    <path class="st0" d="M107.78,362.89c-.67.14-1.34.26-2.02.35.67-.09,1.35-.21,2.02-.35Z"/>
    <path class="st0" d="M92.64,362.25c-.09-.02-.17-.06-.26-.09.09.04.17.07.26.09Z"/>
    <path class="st0" d="M100.7,363.5c-.67-.02-1.35-.06-2.02-.13.67.06,1.35.11,2.02.13Z"/>
    <path class="st0" d="M309.38,82.41c-1.8.8-3.57,1.66-5.33,2.56,1.75-.9,3.53-1.76,5.33-2.56Z"/>
    <path class="st0" d="M89.82,298c-13.69,4.26-22.8,19.35-22.01,33.29.81,14.15,10.42,25.99,23.72,30.41,0,0,0,0,0,0,0,0,0,0,0,0-8.12-20.07-8.91-43.16-1.72-63.7Z"/>
    <path class="st0" d="M326.85,209.81c-14.43-8.95-26.76-20.11-36.24-34.29-.93.89-1.46,2.06-2.2,3.08-9,12.33-20.12,22.36-32.97,30.53-3.96,2.52-8.11,4.7-12.19,7.01-6.64,1.81-13.35,3.23-20.15,4.11,6.8-.88,13.51-2.3,20.15-4.11,19.65,7.04,37.19,18.51,47.24,37.36.06-.07.14-.13.19-.21,6.47-12.14,15.96-21.35,27.58-28.5,6.15-3.78,12.76-6.54,19.61-8.76,7.73-1.38,15.21-3.11,22.86-4.19-7.66,1.08-15.13,2.81-22.86,4.19-3.77-1.9-7.43-4.01-11.02-6.24Z"/>
    <path class="st0" d="M125.76,265.81c-7.33,1.72-14.11,4.45-20.14,9.34-1.39,1.12-2.69,2.32-3.92,3.58,1.23-1.26,2.53-2.45,3.92-3.58,6.04-4.89,12.81-7.62,20.14-9.34Z"/>
    <path class="st0" d="M97.21,284.08c1.37-1.89,2.86-3.68,4.49-5.36-1.63,1.68-3.13,3.47-4.49,5.36Z"/>
    <path class="st0" d="M91.16,294.73c.47-1.08.98-2.14,1.51-3.18-.53,1.04-1.03,2.1-1.51,3.18Z"/>
    <path class="st0" d="M303.88,133.51c-.01-.92-.05-1.84-.1-2.75.05.91.09,1.83.1,2.75Z"/>
    <path class="st0" d="M301.43,152.35c.18-.65.36-1.31.52-1.97-.16.66-.34,1.32-.52,1.97Z"/>
    <path class="st0" d="M299.16,159.08c.37-.94.72-1.89,1.05-2.85-.33.96-.68,1.91-1.05,2.85Z"/>
    <path class="st0" d="M223.1,220.26c-1.24.16-2.48.3-3.72.43,1.24-.12,2.48-.27,3.72-.43Z"/>
    <path class="st0" d="M372.55,210.86c-.41,0-.81.01-1.21.03.4-.01.81-.02,1.21-.03Z"/>
    <path class="st0" d="M303.88,133.51c.01.92,0,1.84-.02,2.77.03-.93.03-1.85.02-2.77Z"/>
    <path class="st0" d="M301.95,150.39c.25-.99.47-1.99.67-2.99-.2,1.01-.42,2-.67,2.99Z"/>
    <path class="st0" d="M303.86,136.28c-.07,2.32-.26,4.67-.57,7.04-.18,1.37-.41,2.73-.68,4.07.27-1.34.49-2.7.68-4.07.32-2.37.51-4.72.57-7.04Z"/>
    <path class="st0" d="M302.76,122.67c-.17-.89-.37-1.77-.58-2.64.21.88.4,1.76.58,2.64Z"/>
    <path class="st0" d="M161.06,374.05c3.07,1.97,7.23,2.84,11,3.59-3.77-.74-7.94-1.61-11-3.59,6.42.99,12.17,1.95,18.69.87,4.97-.83,9.83-2.37,14.35-4.59,9.25-4.54,17.74-12.15,22.8-21.17-13.23,0-26.46,0-39.69,0-1.97,0-6.31-.86-7.66.77-1.34,1.63-2.06,5.09-3,7.09-2.59,5.47-5.41,10.66-9.08,15.5-.22.22-.47.42-.69.65.22-.22.46-.43.68-.65,1.2.51,2.4,1.03,3.59,1.54Z"/>
    <path class="st0" d="M128.23,265.28c-.83.17-1.65.35-2.47.54.81-.19,1.64-.37,2.47-.54Z"/>
    <g>
      <path class="st2" d="M289.96,326.77c-1.35-4.04-2.42-8.15-3.76-12.24h-.06s-114.61-.17-114.61-.17c-.89,0-1.08-.41-1.25-1.11-.74-3-1.49-5.99-2.82-8.8h0c-7.44,3.06-14.07,6.95-19.55,12.03-3.43,3.17-6.4,6.81-8.85,11-.49.84-.96,1.7-1.4,2.58-.89,1.76-1.7,3.62-2.41,5.57-.03.09-.07.17-.11.26-.11.26-.25.5-.37.76-1.88,7.32-5.19,13.23-9.96,17.68-.56.52-1.14,1.03-1.74,1.51-1.5,1.21-3.13,2.29-4.89,3.24-.7.38-1.42.74-2.17,1.08s-1.51.66-2.29.96c-.78.3-1.59.58-2.41.83-.82.26-1.67.49-2.53.71-.34.08-.67.16-1.01.23-.67.14-1.34.26-2.02.35-1.68.23-3.37.31-5.06.26-.67-.02-1.35-.06-2.02-.13-.34-.03-.67-.07-1.01-.11-1.01-.13-2.02-.3-3.03-.52-.34-.07-.67-.15-1.01-.23-.34-.08-.67-.17-1-.26,0,0,0,0,0,0-.09-.02-.17-.06-.26-.09-.32-.13-.63-.33-.84-.46,0,0,0,0,0,0-13.31-4.42-22.91-16.26-23.72-30.41-.8-13.94,8.32-29.03,22.01-33.29.42-1.1.87-2.19,1.34-3.27.47-1.08.98-2.14,1.51-3.18,1.33-2.61,2.83-5.11,4.54-7.47,1.37-1.89,2.86-3.68,4.49-5.36,1.23-1.26,2.53-2.45,3.92-3.58,6.04-4.89,12.81-7.62,20.14-9.34.81-.19,1.64-.37,2.47-.54.55-.11,1.11-.22,1.67-.32-8.99-5.54-22.52-6.6-32.77-5.92-10.23.67-20.37,3.43-29.37,8.37-31.08,17.03-44.6,54.99-32.06,87.93,13.73,36.08,56.15,53.65,91.74,39.86.46-.6,1.21-.68,1.84-.95,10.8-4.73,19.9-11.68,27.31-20.84.07-.08.13-.16.21-.23.22-.22.46-.43.69-.65,3.67-4.84,6.49-10.02,9.08-15.5.95-2,1.67-5.46,3-7.09,1.34-1.63,5.69-.77,7.66-.77,13.23,0,26.46,0,39.69,0h62.3c7.47,0,14.94,0,22.41,0-3.29-5.65-6.95-10.89-9.58-16.92-.79-1.8-1.46-3.63-2.08-5.47Z"/>
      <path class="st2" d="M566.08,323.01c-.53-6.47-5.17-7.95-10.7-8.74-6.87-.99-7.18-7.06-7.2-12.73-.02-6.52-4.06-9.62-10.31-9.56-7.8.09-15.59.17-23.38.03-5.88-.1-11.74,1.28-12.06,8.29-.25,5.33.82,14.41-7.35,13.98l-51.52.03c-26.39.45-52.81-.59-79.2.07,2.86,12.59,7.92,24.08,16.84,33.64.38.41.84.74,1.26,1.11l165.54.02c5.77,0,13.62,1.44,16.98-4.58,1.7-3.03,1.12-6.91,1.12-10.24,0-3.73.28-7.6-.02-11.32Z"/>
    </g>
    <g>
      <polygon class="st4" points="409.89 215.78 409.89 215.78 409.89 215.78 409.89 215.78 409.89 215.78"/>
      <path class="st4" d="M409.11,215.56c-1.67-.51-5.05-1.69-5.54-1.86-19.96-6.97-37-18.2-50.32-34.74-10.23-12.71-17.24-26.93-19.15-43.3-1.09-9.37-.45-18.47,4.46-26.98,3.72-6.44,8.76-11.08,15.66-13.67,6.81-2.56,13.87-2.87,20.97-1.68,9.5,1.59,17.33,5.96,22.62,14.28.13.2.74,1.14,1.13,1.78l-.81-2.47c-7.35-17.61-20.5-28.11-39.18-31.65-15.17-2.87-29.82-.46-44.1,4.88-1.85.69-3.67,1.44-5.47,2.25-1.8.8-3.57,1.66-5.33,2.56-1.17.6-2.33,1.22-3.48,1.86-.43.24-1.46.72-2.24,1.07-2.89,2.31-5.28,5.11-7.71,7.87,1.17,1.74,2.4,3.45,3.5,5.23,3.77,6.1,6.46,12.45,8.05,19.03.21.88.4,1.76.58,2.64.52,2.66.86,5.35,1.02,8.09.05.91.09,1.83.1,2.75.01.92,0,1.84-.02,2.77-.07,2.32-.26,4.67-.57,7.04-.18,1.37-.41,2.73-.68,4.07-.2,1.01-.42,2-.67,2.99-.16.66-.34,1.32-.52,1.97-.37,1.3-.77,2.6-1.21,3.87-.33.96-.68,1.91-1.05,2.85-1.98,5.03-4.51,9.84-7.46,14.49-.1.16-.21.31-.32.46-.04.06-.08.11-.12.17-.28.4-.55.82-.65,1.32h0c9.48,14.17,21.81,25.33,36.24,34.29,3.59,2.23,7.24,4.33,11.02,6.24,7.73-1.38,15.21-3.11,22.86-4.19,1.39-.2,2.79-.37,4.2-.52.7-.07,1.41-.14,2.12-.2,1.42-.12,2.84-.2,4.28-.25,0,0,0,0,.01,0,.4-.01.8-.02,1.21-.03,11.45-.17,26.43,2.62,37.34,4.91-.16-.03-.43-.11-.78-.22Z"/>
      <path class="st4" d="M243.25,216.15c-6.64,1.81-13.35,3.23-20.15,4.11-1.24.16-2.48.3-3.72.43-1.86.19-3.74.33-5.62.43-10.12.54-20.16-.05-30.13-1.92-2.44-.46-4.8-1.28-7.28-1.54,9.78,4.84,18.68,9.61,26.66,17.23,6.57,6.27,12.15,13.53,16.42,21.56,9.57,18.01,11.44,37.82,9.69,57.84l57,.24h.06s0,0,0,0c-.03-.37-.02-.75-.1-1.12-1.5-6.78-2.54-13.62-2.85-20.58-.46-10.36.7-20.49,3.84-30.39.96-3.04,2.4-5.9,3.39-8.93-10.05-18.85-27.59-30.32-47.24-37.36Z"/>
      <path class="st4" d="M185.92,103.84c6.93-7.9,17.66-11.28,27.93-11.09,11.42.21,20.63,4.66,27.49,13.79,0,0,0,0,.01.01.29-.46-.08-.8-.25-1.15-3.62-7.3-8.16-13.94-14.15-19.52-7.71-7.18-16.66-11.75-27.24-12.97-3.42-.39-6.84-.42-10.26-.56-13.98,2.95-27.96,9.53-38.81,18.87-18.74,16.13-29.5,45.57-15.67,68.32,13.72,22.58,43.98,14.86,59.98-.69-20.25-7.25-21.66-40.61-9.02-55.02Z"/>
      <path class="st4" d="M410.26,287.61c5.38.62,10.7,1.95,15.52,4.47,8.86,4.63,14.69,12.88,17.78,22.23l51.52-.03c-1.6-13.13-6.55-26.44-16.1-35.88-9.08-8.98-21.22-13.46-33.87-13.91-12.07-.44-25.56,1.62-33.19,12.02-1.6,2.19-2.83,4.62-3.68,7.19-.97,2.95-1.09,3.56,2.01,3.91Z"/>
      <path class="st4" d="M422.79,372.92c-9.89,3.8-19.86,3.28-29.78-.09-.9-.19-1.01-.29-1.85-.46,0,0,0,0,0,0,.57.4.67.48.99.73,18.47,9.68,38.12,14.8,58.97,15.07,7.56.1,14.78-1.67,21.55-5.13l1.83-.77c.13-.12.25-.23.38-.35,9.7-8.9,15.38-20.21,18.96-32.75h-49.44c-3.44,11.33-10.48,19.47-21.62,23.76Z"/>
      <path class="st4" d="M269.69,361.4c.56-.66,1.12-1.33,1.69-1.99,2.81-3.27,5.32-6.75,7.82-10.26h-62.3c-5.06,9.03-13.55,16.64-22.8,21.18-4.53,2.22-9.38,3.76-14.35,4.59-6.52,1.09-12.27.13-18.69-.87,3.07,1.97,7.23,2.84,11,3.59.87.17,1.72.34,2.53.51,4.92,1.04,9.88,2.03,14.85,2.81,9.63,1.5,19.43,1.99,29.14,1.03,18.35-1.8,35.13-8.55,49.75-19.67l1.36-.92Z"/>
    </g>
    <path class="st1" d="M135.17,327.83c-.26,2.3-.58,4.6-.4,6.93,0,.63,0,1.26,0,1.88.12-.25.26-.5.37-.76.04-.09.07-.17.11-.26.71-1.95,1.51-3.81,2.41-5.57.45-.88.91-1.74,1.4-2.58,2.45-4.19,5.42-7.83,8.85-11,5.48-5.08,12.11-8.97,19.55-12.03,0,0,0,0,0,0,.05-.59-.26-1.08-.47-1.59-1.85-4.5-4.15-8.76-6.87-12.8-16.35,4.68-23.9,22.32-24.95,37.76Z"/>
    <path class="st1" d="M139.06,327.49c-.49.84-.96,1.7-1.4,2.58.45-.88.91-1.74,1.4-2.58Z"/>
    <path class="st1" d="M134.77,336.65c.12-.25.26-.5.37-.76-.11.26-.25.5-.37.76h0Z"/>
    <path class="st1" d="M147.91,316.49c5.48-5.08,12.11-8.97,19.55-12.03h0s0,0,0,0c-7.44,3.06-14.07,6.95-19.55,12.03Z"/>
    <path class="st1" d="M381.2,348.02c-8.92-9.56-13.98-21.05-16.84-33.64-4.12-.01-8.24-.02-12.37-.03.84,6.72,2.13,13.32,4.55,19.67,1.15,3.02,2.42,5.97,3.89,8.83,1.14,2.22,2.4,4.38,3.82,6.47,0,0,0,0,0,0,5.51-.02,11.03-.03,16.54-.06.55,0,1.12.11,1.66-.13h0c-.42-.37-.88-.71-1.26-1.11Z"/>
    <path class="st1" d="M360.44,342.85c1.14,2.22,2.4,4.38,3.82,6.47h0s0,0,0,0c-1.41-2.08-2.68-4.24-3.82-6.47Z"/>
    <path class="st1" d="M381.2,348.02c.38.41.84.74,1.26,1.11h0c-.42-.37-.88-.71-1.26-1.11Z"/>
    <g>
      <path class="st3" d="M474.88,381.91c-.13.12-.25.23-.38.35l-1.83.77c-6.77,3.45-14,5.23-21.55,5.13-20.85-.27-40.5-5.4-58.97-15.07-.32-.24-.42-.32-.99-.73,0,0,0,0,0,0l.02.04-1.1-.54c-.91-.47-1.8-.96-2.72-1.42-9.72-4.84-17.43-11.87-23.09-21.13h0c-1.41-2.08-2.68-4.25-3.82-6.47-1.47-2.86-2.74-5.81-3.89-8.83-2.42-6.35-3.72-12.96-4.55-19.67-2.34-22.79,1.13-45.36,13.75-64.85,10.54-16.27,26.24-26.93,44.14-33.72h0s0,0,0,0l-.78-.22c.34.1.62.18.78.22-10.91-2.29-25.89-5.08-37.34-4.91-.4,0-.8.01-1.21.03,0,0,0,0-.01,0-1.44.05-2.87.14-4.28.25-.71.06-1.41.12-2.12.2-1.41.15-2.81.32-4.2.52-7.66,1.08-15.13,2.81-22.86,4.19-6.85,2.22-13.46,4.98-19.61,8.76-11.63,7.14-21.12,16.36-27.58,28.5-.04.08-.12.14-.19.21-1,3.03-2.43,5.88-3.39,8.93-3.14,9.9-4.3,20.03-3.84,30.39.31,6.96,1.35,13.8,2.85,20.58.08.36.07.74.1,1.12,0,0,0,0,0,0,1,3.07,1.85,6.14,2.79,9.2.31,1.02.63,2.03.97,3.04.62,1.84,1.29,3.66,2.08,5.47,2.63,6.03,6.3,11.27,9.58,16.92,4.34,4.96,7.94,10.47,12.47,15.3,4.7,5.03,9.83,9.66,15.33,13.81,20.4,15.39,45.53,24.12,71.02,25.24,13.57.6,27.53-.49,40.64-4.11,6.18-1.7,12.27-3.86,18.01-6.72,4.95-2.46,12.35-6.28,15.79-10.77,0,0,0,0,0,0Z"/>
      <path class="st3" d="M290.61,175.52h0c.12-.57.45-1.03.77-1.49.11-.15.22-.31.32-.46,2.96-4.65,5.49-9.47,7.46-14.49.37-.94.72-1.89,1.05-2.85.44-1.28.84-2.57,1.21-3.87.18-.65.36-1.31.52-1.97.25-.99.47-1.99.67-2.99.27-1.34.49-2.7.68-4.07.32-2.37.51-4.72.57-7.04.03-.93.03-1.85.02-2.77-.01-.92-.05-1.84-.1-2.75-.16-2.73-.5-5.43-1.02-8.09-.17-.89-.37-1.77-.58-2.64-1.59-6.58-4.29-12.92-8.05-19.03-1.1-1.78-2.33-3.49-3.5-5.23-6.09-5.95-11.64-11.48-19.19-15.66-7.99-4.42-16.67-7.48-25.62-9.3-18.1-3.69-38.56-3.59-56.38,1.55,3.42.14,6.85.17,10.26.56,10.58,1.21,19.53,5.79,27.24,12.97,5.99,5.58,10.53,12.22,14.15,19.52.17.35.54.69.25,1.15,0,0,0,0-.01-.01l.55,1c10.71,23.61,2.09,50.1-13.17,69.69-14.77,18.97-34.82,31.04-57.47,38.34,0,.1,0,.2,0,.29,1.7.6,3.4,1.2,5.1,1.8,2.48.25,4.84,1.08,7.28,1.54,9.97,1.87,20,2.46,30.13,1.92,1.88-.1,3.75-.25,5.62-.43,1.24-.12,2.48-.27,3.72-.43,6.8-.88,13.51-2.3,20.15-4.11,4.08-2.31,8.23-4.49,12.19-7.01,12.85-8.17,23.97-18.2,32.97-30.53.74-1.02,1.27-2.19,2.2-3.08Z"/>
      <path class="st3" d="M304.06,84.97c1.75-.9,3.53-1.76,5.33-2.56,1.8-.8,3.62-1.56,5.47-2.25,14.29-5.34,28.94-7.76,44.1-4.88,18.67,3.54,31.83,14.04,39.18,31.65l.81,2.47.07.21c7.4,16.07,5.26,41.6-12.95,49.28,13.93,13.1,37.92,22.13,54.19,7.62,14.1-12.57,14.38-35.87,7.46-52.16-6.97-16.4-21.26-28.38-37.22-35.65-18.13-8.25-39.29-11.17-59.07-10-9.77.58-19.53,2.29-28.78,5.55-4.56,1.61-8.99,3.59-13.21,5.96-2.92,1.64-7.6,4.94-11.1,7.69.77-.35,1.8-.83,2.24-1.07,1.15-.64,2.31-1.26,3.48-1.86Z"/>
      <path class="st3" d="M134.77,336.65h0c0-.63,0-1.26,0-1.88-.18-2.33.14-4.63.4-6.93,1.04-15.45,8.6-33.08,24.95-37.76,3.18-1.3,6.57-1.96,9.98-2.33,3.14-.34,3.8-.26,2.86-3.52-1.38-4.79-4.23-9.07-8.07-12.24-9.94-8.22-22.89-7.74-35-7.02-.56.1-1.11.21-1.67.32-.83.17-1.65.35-2.47.54-7.33,1.72-14.11,4.45-20.14,9.34-1.39,1.12-2.69,2.32-3.92,3.58-1.63,1.68-3.13,3.47-4.49,5.36-1.71,2.36-3.21,4.86-4.54,7.47-.53,1.04-1.03,2.1-1.51,3.18-.47,1.08-.92,2.17-1.34,3.27-7.2,20.54-6.4,43.63,1.72,63.7,0,0,0,0,0,0,.21.13.52.33.84.46.09.04.17.07.26.09,0,0,0,0,0,0,.33.09.67.18,1,.26.34.08.67.16,1.01.23,1.01.22,2.02.39,3.03.52.34.04.67.08,1.01.11.67.06,1.35.11,2.02.13,1.69.05,3.37-.03,5.06-.26.67-.09,1.35-.21,2.02-.35.34-.07.67-.15,1.01-.23.87-.21,1.71-.45,2.53-.71.82-.26,1.63-.53,2.41-.83.78-.3,1.55-.62,2.29-.96s1.47-.7,2.17-1.08c1.76-.95,3.38-2.03,4.89-3.24.6-.48,1.18-.99,1.74-1.51,1.19-1.11,2.29-2.32,3.3-3.61,3.03-3.88,5.24-8.58,6.65-14.07Z"/>
      <path class="st3" d="M268.34,362.32c-14.62,11.12-31.4,17.86-49.75,19.67-9.71.95-19.51.46-29.14-1.03-4.97-.77-9.93-1.77-14.85-2.81-.81-.17-1.66-.34-2.53-.51-3.77-.74-7.94-1.61-11-3.59-1.2-.51-2.4-1.03-3.59-1.54-.22.22-.47.42-.68.65-.07.07-.14.15-.21.23-7.41,9.17-16.51,16.11-27.31,20.84-.63.27-1.37.35-1.84.95.18.04.38.06.55.13,10.36,4.24,21.14,6.68,32.29,7.65,8.2.72,16.39.89,24.61.25,10.34-.81,20.42-2.77,30.26-6.01,20.25-6.66,37.74-17.66,52.26-33.3.41-.44,1.57-1.7,2.29-2.51l-1.36.92Z"/>
    </g>
  </g>
</svg>