<?xml version="1.0" encoding="UTF-8"?>
<svg id="Layer_1" data-name="Layer 1" xmlns="http://www.w3.org/2000/svg" viewBox="0 0 1000 331.25">
  <defs>
    <style>
      .cls-1 {
        fill: #67EA94;
        stroke-width: 0px;
      }
    </style>
  </defs>
  <g>
    <g>
      <rect class="cls-1" x="-20.2" y="130.73" width="312.7" height="37.05" transform="translate(-63.83 177.91) rotate(-55.79)"/>
      <path class="cls-1" d="m228.52,287.97l-30.16-20.56L366.67,20.58c3.4-4.98,9.03-7.96,15.06-7.97h.02c6.02,0,11.66,2.97,15.06,7.94l168.7,246.45-30.12,20.62L381.78,63.21l-153.26,224.76Z"/>
    </g>
    <g>
      <path class="cls-1" d="m930.41,12.08h-272.66c-16.57,0-30,13.43-30,30v207.66c0,20.26,16.42,36.69,36.69,36.69h265.97c20.26,0,36.69-16.42,36.69-36.69V48.76c0-20.26-16.42-36.69-36.69-36.69Zm10.34,228.15c0,11.05-8.95,20-20,20h-247.01c-11.05,0-20-8.95-20-20V58.28c0-11.05,8.95-20,20-20h247.01c11.05,0,20,8.95,20,20v181.95Z"/>
      <g>
        <path class="cls-1" d="m718.54,87.24h25.25v75.01c0,3.93.67,7.53,2.03,10.78,1.35,3.26,3.25,5.99,5.71,8.2,2.46,2.21,5.37,3.9,8.75,5.07,3.38,1.17,7.1,1.75,11.15,1.75s7.77-.58,11.15-1.75c3.38-1.17,6.27-2.86,8.66-5.07,2.4-2.21,4.3-4.94,5.71-8.2,1.41-3.25,2.12-6.85,2.12-10.78v-75.01h25.25v77.4c0,7.37-1.29,13.95-3.87,19.72-2.58,5.78-6.24,10.66-10.97,14.65-4.73,3.99-10.32,7.04-16.77,9.12-6.45,2.09-13.55,3.13-21.29,3.13s-14.83-1.04-21.29-3.13c-6.45-2.09-12.01-5.13-16.68-9.12-4.67-3.99-8.32-8.87-10.97-14.65-2.64-5.77-3.96-12.35-3.96-19.72v-77.4Z"/>
        <path class="cls-1" d="m850.68,87.24h25.8v122.19h-25.8v-122.19Z"/>
      </g>
    </g>
  </g>
  <rect class="cls-1" x="717.62" y="297.89" width="159.6" height="23.82" rx="11.91" ry="11.91"/>
</svg>