<svg id="Layer_1" data-name="Layer 1" xmlns="http://www.w3.org/2000/svg" viewBox="21.48 12.39 957.04 127.27">   <defs>     <style>       .cls-1 {         fill: #67EA94;         stroke-width: 0px;       }     </style>   </defs>   <g>     <rect class="cls-1" x="6.7" y="63.3" width="87.03" height="10.31" transform="translate(-34.63 71.49) rotate(-55.79)"></rect>     <rect class="cls-1" x="669.66" y="63.55" width="85.91" height="10.72" transform="translate(254.91 619.43) rotate(-55.78)"></rect>     <g>       <path class="cls-1" d="m182.4,107.86V30h56.19v9.24h-45.89v23.81h42.96v9.13h-42.96v26.53h47.62v9.13h-57.93Z"></path>       <path class="cls-1" d="m251.06,82.85l9.65-.87c.54,3.91,1.52,7.07,3.25,9.57,1.63,2.5,4.23,4.57,7.81,6.09,3.47,1.52,7.49,2.28,11.93,2.28,3.91,0,7.38-.54,10.31-1.74,3.04-1.2,5.32-2.72,6.73-4.78,1.52-2.07,2.17-4.24,2.17-6.63s-.65-4.57-2.06-6.42c-1.41-1.85-3.8-3.37-7.05-4.57-2.06-.87-6.62-2.17-13.78-3.81-7.16-1.74-12.15-3.37-14.97-4.89-3.69-1.96-6.51-4.35-8.35-7.29-1.74-2.83-2.71-6.09-2.71-9.68,0-3.91,1.19-7.61,3.36-10.98,2.28-3.37,5.42-5.98,9.76-7.83,4.23-1.74,9-2.61,14.21-2.61,5.75,0,10.85.98,15.3,2.83,4.34,1.85,7.7,4.57,10.09,8.16,2.39,3.59,3.69,7.72,3.8,12.29l-9.87.76c-.43-5-2.28-8.7-5.32-11.2-3.04-2.5-7.59-3.81-13.56-3.81s-10.74,1.2-13.56,3.48c-2.82,2.28-4.23,5-4.23,8.26,0,2.83.98,5.11,2.93,6.85,2.06,1.85,7.16,3.7,15.51,5.55,8.35,1.96,14.1,3.59,17.25,5,4.45,2.07,7.81,4.78,9.98,7.94,2.17,3.26,3.25,6.85,3.25,11.09s-1.19,8.05-3.58,11.74c-2.39,3.59-5.75,6.42-10.2,8.48-4.45,2.07-9.44,3.04-14.97,3.04-7.05,0-12.91-.98-17.68-3.04-4.77-2.07-8.46-5.11-11.17-9.24-2.71-4.13-4.12-8.81-4.23-14.03Z"></path>       <path class="cls-1" d="m327.22,107.86V30h10.31v31.97h40.35v-31.97h10.31v77.86h-10.31v-36.65h-40.35v36.65h-10.31Z"></path>       <path class="cls-1" d="m424.97,107.86V39.25h-25.6v-9.24h61.62v9.24h-25.71v68.62h-10.31Z"></path>     </g>     <path class="cls-1" d="m75.92,107.07l-8.39-5.72,46.84-68.7c.95-1.39,2.51-2.22,4.19-2.22h0c1.68,0,3.24.83,4.19,2.21l46.95,68.59-8.38,5.74-42.75-62.45-42.66,62.55Z"></path>     <path class="cls-1" d="m460.06,108.16l-8.39-5.72,46.84-68.7c.95-1.39,2.51-2.22,4.19-2.22h0c1.68,0,3.24.83,4.19,2.21l46.95,68.59-8.38,5.74-42.75-62.45-42.65,62.56Z"></path>     <g>       <path class="cls-1" d="m560.95,83.09l9.65-.87c.54,3.91,1.52,7.07,3.25,9.57,1.63,2.5,4.23,4.57,7.81,6.09,3.47,1.52,7.49,2.28,11.93,2.28,3.91,0,7.38-.54,10.31-1.74,3.04-1.2,5.32-2.72,6.73-4.78,1.52-2.07,2.17-4.24,2.17-6.63s-.65-4.57-2.06-6.42c-1.41-1.85-3.8-3.37-7.05-4.57-2.06-.87-6.62-2.17-13.78-3.81-7.16-1.74-12.15-3.37-14.97-4.89-3.69-1.96-6.51-4.35-8.35-7.29-1.74-2.83-2.71-6.09-2.71-9.68,0-3.91,1.19-7.61,3.36-10.98,2.28-3.37,5.42-5.98,9.76-7.83,4.23-1.74,9-2.61,14.21-2.61,5.75,0,10.85.98,15.3,2.83,4.34,1.85,7.7,4.57,10.09,8.16,2.39,3.59,3.69,7.72,3.8,12.29l-9.87.76c-.43-5-2.28-8.7-5.32-11.2s-7.59-3.81-13.56-3.81-10.74,1.2-13.56,3.48c-2.82,2.28-4.23,5-4.23,8.26,0,2.83.98,5.11,2.93,6.85,2.06,1.85,7.16,3.7,15.51,5.55,8.35,1.96,14.1,3.59,17.25,5,4.45,2.07,7.81,4.78,9.98,7.94,2.17,3.26,3.25,6.85,3.25,11.09s-1.19,8.05-3.58,11.74c-2.39,3.59-5.75,6.42-10.2,8.48-4.45,2.07-9.44,3.04-14.97,3.04-7.05,0-12.91-.98-17.68-3.04-4.77-2.07-8.46-5.11-11.17-9.24-2.71-4.13-4.12-8.81-4.23-14.03Z"></path>       <path class="cls-1" d="m656.52,108.1V39.48h-25.6v-9.24h61.62v9.24h-25.71v68.62h-10.31Z"></path>     </g>     <path class="cls-1" d="m804.51,81.05l10.31,2.61c-2.17,8.48-6.07,14.9-11.72,19.36-5.53,4.46-12.37,6.63-20.5,6.63s-15.19-1.63-20.39-5.11c-5.21-3.37-9.22-8.37-11.93-14.79-2.82-6.52-4.12-13.48-4.12-20.88,0-8.16,1.52-15.22,4.66-21.2,3.04-6.09,7.49-10.66,13.13-13.81,5.75-3.15,12.04-4.68,18.88-4.68,7.7,0,14.32,1.96,19.53,5.98,5.32,3.91,9,9.46,11.06,16.64l-10.09,2.39c-1.74-5.65-4.45-9.79-7.81-12.29-3.47-2.61-7.7-3.91-12.91-3.91-5.97,0-10.96,1.41-14.97,4.35-4.01,2.83-6.83,6.63-8.46,11.53-1.63,4.78-2.5,9.79-2.5,14.9,0,6.63.98,12.4,2.93,17.4,1.95,4.89,4.88,8.59,9,10.98,4.01,2.5,8.46,3.7,13.13,3.7,5.75,0,10.63-1.63,14.64-5,4.01-3.26,6.73-8.26,8.14-14.79Z"></path>   </g>   <g>     <path class="cls-1" d="m964.54,12.39h-111.35c-7.72,0-13.98,6.26-13.98,13.98v84.67c0,7.72,6.26,13.98,13.98,13.98h111.35c7.72,0,13.98-6.26,13.98-13.98V26.37c0-7.72-6.26-13.98-13.98-13.98Zm2.89,94.73c0,4.47-3.62,8.09-8.09,8.09h-100.95c-4.47,0-8.09-3.62-8.09-8.09V30.29c0-4.47,3.62-8.09,8.09-8.09h100.95c4.47,0,8.09,3.62,8.09,8.09v76.84Z"></path>     <g>       <path class="cls-1" d="m877.89,44.38h9.91v29.43c0,1.54.26,2.95.8,4.23.53,1.28,1.28,2.35,2.24,3.22.96.87,2.11,1.53,3.43,1.99,1.33.46,2.78.69,4.37.69s3.05-.23,4.37-.69c1.33-.46,2.46-1.12,3.4-1.99s1.69-1.94,2.24-3.22c.55-1.28.83-2.69.83-4.23v-29.43h9.9v30.37c0,2.89-.51,5.47-1.52,7.74-1.01,2.27-2.45,4.18-4.3,5.75-1.86,1.57-4.05,2.76-6.58,3.58-2.53.82-5.31,1.23-8.35,1.23s-5.82-.41-8.35-1.23c-2.53-.82-4.71-2.01-6.54-3.58-1.83-1.57-3.27-3.48-4.3-5.75-1.04-2.27-1.55-4.84-1.55-7.74v-30.37Z"></path>       <path class="cls-1" d="m929.73,44.38h10.12v47.93h-10.12v-47.93Z"></path>     </g>   </g>   <rect class="cls-1" x="876.01" y="129.85" width="65.71" height="9.81" rx="4.9" ry="4.9"></rect> </svg>