<svg xmlns="http://www.w3.org/2000/svg" viewBox="181.78 211.35 629.14 1107.41"><defs><style>.cls-1{fill:#262525;}.cls-2{fill:#1c1b1b;}.cls-3{fill:#3d3d3d;}.cls-4{fill:#dfb759;}.cls-5{fill:#353535;}.cls-6{fill:#f4f2f2;}.cls-7{fill:#b2afa2;}.cls-18,.cls-19,.cls-20,.cls-8{fill:none;stroke-miterlimit:10;}.cls-8{stroke:#f4f2f2;}.cls-9{fill:#cececc;}.cls-10{fill:#98999b;}.cls-11{fill:#abaeb3;}.cls-12{fill:#2d2d2d;}.cls-13{fill:#1c1c1c;}.cls-14{fill:#bfbdb2;}.cls-15{fill:#b18866;}.cls-16{fill:#828079;}.cls-17{fill:#a09e95;}.cls-18,.cls-19,.cls-20{stroke:#000;}.cls-18{stroke-width:1px;}.cls-19{stroke-width:0.94px;}.cls-20{stroke-width:0.99px;}.cls-21{fill:#9a968e;}.cls-22{fill:#525859;}.cls-23{fill:#5b6164;}.cls-24{fill:#b3b5b5;}.cls-25{fill:#49423d;}.cls-26{fill:#fff;}.cls-27{fill:#2b2f38;}.cls-28{fill:#5b5148;}.cls-29{fill:#1d1d1b;}</style></defs><g id="Layer_5" data-name="Layer 5"><path class="cls-1" d="M414.15,632.17a3,3,0,0,1-3,3h-79.8a3,3,0,0,1-3-3l3.44-329.51h78.9Z"/><polygon class="cls-1" points="410.63 294.14 331.92 294.14 332.13 272.83 410.42 272.83 410.63 294.14"/><path class="cls-1" d="M410.33,264.31h-78.1l.22-21.29a31.48,31.48,0,0,1,31.48-31.17H378.6A31.5,31.5,0,0,1,410.1,243Z"/><rect class="cls-2" x="334.4" y="264.31" width="74.14" height="8.52"/><rect class="cls-2" x="334.4" y="294.14" width="74.14" height="8.52"/><path class="cls-3" d="M792.41,762.24v501a37,37,0,0,1-37,37H237.28a37,37,0,0,1-37-37v-501a37,37,0,0,1,37-37h97.51V722h72.95v3.27H755.42A37,37,0,0,1,792.41,762.24Z"/><rect class="cls-4" x="334.8" y="771.02" width="72.93" height="13.16"/><rect class="cls-4" x="342.26" y="735.74" width="58.41" height="35.28"/><path class="cls-4" d="M414.18,646.49V701a7.18,7.18,0,0,1-3.34,6.08,7.07,7.07,0,0,1-3.86,1.13h-71.4a7.08,7.08,0,0,1-3.87-1.13,7.19,7.19,0,0,1-3.35-6.08V646.49a7.21,7.21,0,0,1,7.22-7.21H407A7.2,7.2,0,0,1,414.18,646.49Z"/><rect class="cls-4" x="335.57" y="635.18" width="71.4" height="4.1"/><path class="cls-5" d="M810.41,762.24v501a55,55,0,0,1-55,55H237.28a55.05,55.05,0,0,1-55-55v-501a55,55,0,0,1,55-55h87.59l-.09-.16h6.93a7.08,7.08,0,0,0,3.87,1.13h-.79v17H237.28a37,37,0,0,0-37,37v501a37,37,0,0,0,37,37H755.42a37,37,0,0,0,37-37v-501a37,37,0,0,0-37-37H407.74v-17H407a7.07,7.07,0,0,0,3.86-1.13H423.5l.06.16H755.42A55,55,0,0,1,810.41,762.24Z"/><path class="cls-6" d="M756.47,733.71A27.49,27.49,0,1,0,784,761.2,27.49,27.49,0,0,0,756.47,733.71Zm0,44.29a16.8,16.8,0,1,1,16.8-16.8A16.79,16.79,0,0,1,756.47,778Z"/><path class="cls-7" d="M756.47,741.45a19.76,19.76,0,1,0,19.76,19.75A19.74,19.74,0,0,0,756.47,741.45Zm0,36.55a16.8,16.8,0,1,1,16.8-16.8A16.79,16.79,0,0,1,756.47,778Z"/><path class="cls-6" d="M236.75,733.71a27.49,27.49,0,1,0,27.49,27.49A27.48,27.48,0,0,0,236.75,733.71Zm0,44.29a16.8,16.8,0,1,1,16.81-16.8A16.79,16.79,0,0,1,236.75,778Z"/><path class="cls-7" d="M236.75,741.45a19.76,19.76,0,1,0,19.77,19.75A19.75,19.75,0,0,0,236.75,741.45Zm0,36.55a16.8,16.8,0,1,1,16.81-16.8A16.79,16.79,0,0,1,236.75,778Z"/><rect class="cls-1" x="506.11" y="1015.54" width="232.02" height="224.82" rx="24.74"/><rect class="cls-8" x="506.11" y="1015.54" width="232.02" height="224.82" rx="24.74"/><rect class="cls-9" x="217.04" y="975.45" width="43.21" height="75.65" rx="3.41"/><rect class="cls-6" x="623.78" y="1067.38" width="47.75" height="24.23"/><rect class="cls-1" x="254.91" y="1015.54" width="232.02" height="224.82" rx="24.74"/><path class="cls-9" d="M437.65,1062.68v125.15a7.86,7.86,0,0,1-7.86,7.86H312a7.87,7.87,0,0,1-7.86-7.86V1062.68a7.86,7.86,0,0,1,7.86-7.86H429.79A7.85,7.85,0,0,1,437.65,1062.68Z"/><path class="cls-10" d="M424.83,1125.25a53.91,53.91,0,1,1-53.92-53.91A53.91,53.91,0,0,1,424.83,1125.25Z"/><rect class="cls-1" x="255.34" y="784.18" width="232.02" height="224.82" rx="24.74"/><path class="cls-11" d="M349.13,871.92v11.35a.65.65,0,0,1-.65.65H348a.65.65,0,0,0-.65.65v5.15h-4.55v-5.15a.65.65,0,0,0-.65-.65h-.46a.65.65,0,0,1-.65-.65V871.92a.65.65,0,0,1,.65-.65h6.77A.65.65,0,0,1,349.13,871.92Z"/><path class="cls-11" d="M363.12,871.92v11.35a.65.65,0,0,1-.65.65H362a.65.65,0,0,0-.65.65v5.15h-4.55v-5.15a.65.65,0,0,0-.65-.65h-.46a.65.65,0,0,1-.65-.65V871.92a.65.65,0,0,1,.65-.65h6.77A.65.65,0,0,1,363.12,871.92Z"/><path class="cls-11" d="M377.11,871.92v11.35a.65.65,0,0,1-.65.65H376a.65.65,0,0,0-.65.65v5.15H370.8v-5.15a.65.65,0,0,0-.65-.65h-.46a.65.65,0,0,1-.65-.65V871.92a.65.65,0,0,1,.65-.65h6.77A.65.65,0,0,1,377.11,871.92Z"/><path class="cls-11" d="M391.1,871.92v11.35a.66.66,0,0,1-.66.65H390a.65.65,0,0,0-.65.65v5.15h-4.55v-5.15a.66.66,0,0,0-.66-.65h-.45a.65.65,0,0,1-.65-.65V871.92a.65.65,0,0,1,.65-.65h6.76A.66.66,0,0,1,391.1,871.92Z"/><path class="cls-11" d="M405.08,871.92v11.35a.65.65,0,0,1-.65.65H404a.66.66,0,0,0-.66.65v5.15h-4.55v-5.15a.65.65,0,0,0-.65-.65h-.45a.66.66,0,0,1-.66-.65V871.92a.66.66,0,0,1,.66-.65h6.76A.65.65,0,0,1,405.08,871.92Z"/><path class="cls-11" d="M397,1001.75V990.4a.66.66,0,0,1,.66-.65h.45a.65.65,0,0,0,.65-.65V984h4.55v5.15a.66.66,0,0,0,.66.65h.45a.65.65,0,0,1,.65.65v11.35a.65.65,0,0,1-.65.65h-6.76A.66.66,0,0,1,397,1001.75Z"/><path class="cls-11" d="M383,1001.75V990.4a.65.65,0,0,1,.65-.65h.45a.66.66,0,0,0,.66-.65V984h4.55v5.15a.65.65,0,0,0,.65.65h.45a.66.66,0,0,1,.66.65v11.35a.66.66,0,0,1-.66.65h-6.76A.65.65,0,0,1,383,1001.75Z"/><path class="cls-11" d="M369,1001.75V990.4a.65.65,0,0,1,.65-.65h.46a.65.65,0,0,0,.65-.65V984h4.55v5.15a.65.65,0,0,0,.65.65h.46a.65.65,0,0,1,.65.65v11.35a.65.65,0,0,1-.65.65h-6.77A.65.65,0,0,1,369,1001.75Z"/><path class="cls-11" d="M355.05,1001.75V990.4a.65.65,0,0,1,.65-.65h.46a.65.65,0,0,0,.65-.65V984h4.55v5.15a.65.65,0,0,0,.65.65h.46a.65.65,0,0,1,.65.65v11.35a.65.65,0,0,1-.65.65H355.7A.65.65,0,0,1,355.05,1001.75Z"/><path class="cls-11" d="M341.06,1001.75V990.4a.65.65,0,0,1,.65-.65h.46a.65.65,0,0,0,.65-.65V984h4.55v5.15a.65.65,0,0,0,.65.65h.46a.65.65,0,0,1,.65.65v11.35a.65.65,0,0,1-.65.65h-6.77A.65.65,0,0,1,341.06,1001.75Z"/><path class="cls-11" d="M438.23,910.47H426.89a.65.65,0,0,1-.65-.65v-.46a.66.66,0,0,0-.66-.65h-5.14v-4.55h5.14a.66.66,0,0,0,.66-.65v-.46a.65.65,0,0,1,.65-.65h11.34a.66.66,0,0,1,.66.65v6.77A.66.66,0,0,1,438.23,910.47Z"/><path class="cls-11" d="M438.23,924.46H426.89a.65.65,0,0,1-.65-.65v-.46a.66.66,0,0,0-.66-.65h-5.14v-4.55h5.14a.66.66,0,0,0,.66-.65V917a.65.65,0,0,1,.65-.65h11.34a.66.66,0,0,1,.66.65v6.77A.66.66,0,0,1,438.23,924.46Z"/><path class="cls-11" d="M438.23,938.45H426.89a.65.65,0,0,1-.65-.65v-.46a.66.66,0,0,0-.66-.65h-5.14v-4.55h5.14a.66.66,0,0,0,.66-.65V931a.65.65,0,0,1,.65-.65h11.34a.66.66,0,0,1,.66.65v6.77A.66.66,0,0,1,438.23,938.45Z"/><path class="cls-11" d="M438.23,952.44H426.89a.65.65,0,0,1-.65-.65v-.46a.66.66,0,0,0-.66-.65h-5.14v-4.55h5.14a.66.66,0,0,0,.66-.65V945a.65.65,0,0,1,.65-.65h11.34a.66.66,0,0,1,.66.65v6.77A.66.66,0,0,1,438.23,952.44Z"/><path class="cls-11" d="M438.23,966.43H426.89a.65.65,0,0,1-.65-.65v-.46a.66.66,0,0,0-.66-.65h-5.14v-4.55h5.14a.66.66,0,0,0,.66-.65V959a.65.65,0,0,1,.65-.65h11.34a.66.66,0,0,1,.66.65v6.77A.66.66,0,0,1,438.23,966.43Z"/><path class="cls-11" d="M307.94,910.47h11.35a.65.65,0,0,0,.65-.65v-.46a.65.65,0,0,1,.65-.65h5.15v-4.55h-5.15a.65.65,0,0,1-.65-.65v-.46a.65.65,0,0,0-.65-.65H307.94a.65.65,0,0,0-.65.65v6.77A.65.65,0,0,0,307.94,910.47Z"/><path class="cls-11" d="M307.94,924.46h11.35a.65.65,0,0,0,.65-.65v-.46a.65.65,0,0,1,.65-.65h5.15v-4.55h-5.15a.65.65,0,0,1-.65-.65V917a.65.65,0,0,0-.65-.65H307.94a.65.65,0,0,0-.65.65v6.77A.65.65,0,0,0,307.94,924.46Z"/><path class="cls-11" d="M307.94,938.45h11.35a.65.65,0,0,0,.65-.65v-.46a.65.65,0,0,1,.65-.65h5.15v-4.55h-5.15a.65.65,0,0,1-.65-.65V931a.65.65,0,0,0-.65-.65H307.94a.65.65,0,0,0-.65.65v6.77A.65.65,0,0,0,307.94,938.45Z"/><path class="cls-11" d="M307.94,952.44h11.35a.65.65,0,0,0,.65-.65v-.46a.65.65,0,0,1,.65-.65h5.15v-4.55h-5.15a.65.65,0,0,1-.65-.65V945a.65.65,0,0,0-.65-.65H307.94a.65.65,0,0,0-.65.65v6.77A.65.65,0,0,0,307.94,952.44Z"/><path class="cls-11" d="M307.94,966.43h11.35a.65.65,0,0,0,.65-.65v-.46a.65.65,0,0,1,.65-.65h5.15v-4.55h-5.15a.65.65,0,0,1-.65-.65V959a.65.65,0,0,0-.65-.65H307.94a.65.65,0,0,0-.65.65v6.77A.65.65,0,0,0,307.94,966.43Z"/><path class="cls-11" d="M568.77,1075.08h12.77a1.36,1.36,0,0,1,1.36,1.36v6.1a1.36,1.36,0,0,1-1.36,1.36H568.77a0,0,0,0,1,0,0v-8.82A0,0,0,0,1,568.77,1075.08Z"/><path class="cls-11" d="M568.77,1098.8h12.77a1.36,1.36,0,0,1,1.36,1.36v6.1a1.36,1.36,0,0,1-1.36,1.36H568.77a0,0,0,0,1,0,0v-8.82A0,0,0,0,1,568.77,1098.8Z"/><path class="cls-11" d="M568.77,1122.52h12.77a1.36,1.36,0,0,1,1.36,1.36v6.1a1.36,1.36,0,0,1-1.36,1.36H568.77a0,0,0,0,1,0,0v-8.82A0,0,0,0,1,568.77,1122.52Z"/><path class="cls-11" d="M568.77,1146.23h12.77a1.36,1.36,0,0,1,1.36,1.36v6.1a1.36,1.36,0,0,1-1.36,1.36H568.77a0,0,0,0,1,0,0v-8.82A0,0,0,0,1,568.77,1146.23Z"/><path class="cls-11" d="M568.77,1170h12.77a1.36,1.36,0,0,1,1.36,1.36v6.1a1.36,1.36,0,0,1-1.36,1.36H568.77a0,0,0,0,1,0,0V1170A0,0,0,0,1,568.77,1170Z"/><path class="cls-11" d="M501.16,1075.08h12.77a1.36,1.36,0,0,1,1.36,1.36v6.1a1.36,1.36,0,0,1-1.36,1.36H501.16a0,0,0,0,1,0,0v-8.82A0,0,0,0,1,501.16,1075.08Z" transform="translate(1016.46 2158.99) rotate(-180)"/><path class="cls-11" d="M501.16,1098.8h12.77a1.36,1.36,0,0,1,1.36,1.36v6.1a1.36,1.36,0,0,1-1.36,1.36H501.16a0,0,0,0,1,0,0v-8.82a0,0,0,0,1,0,0Z" transform="translate(1016.46 2206.42) rotate(-180)"/><path class="cls-11" d="M501.16,1122.52h12.77a1.36,1.36,0,0,1,1.36,1.36v6.1a1.36,1.36,0,0,1-1.36,1.36H501.16a0,0,0,0,1,0,0v-8.82a0,0,0,0,1,0,0Z" transform="translate(1016.46 2253.86) rotate(-180)"/><path class="cls-11" d="M501.16,1146.23h12.77a1.36,1.36,0,0,1,1.36,1.36v6.1a1.36,1.36,0,0,1-1.36,1.36H501.16a0,0,0,0,1,0,0v-8.82A0,0,0,0,1,501.16,1146.23Z" transform="translate(1016.46 2301.29) rotate(-180)"/><path class="cls-11" d="M501.16,1170h12.77a1.36,1.36,0,0,1,1.36,1.36v6.1a1.36,1.36,0,0,1-1.36,1.36H501.16a0,0,0,0,1,0,0V1170a0,0,0,0,1,0,0Z" transform="translate(1016.46 2348.72) rotate(-180)"/><rect class="cls-12" x="515.29" y="1077.08" width="53.47" height="125"/><rect class="cls-13" x="521.64" y="1177.93" width="17.05" height="17.05"/><rect class="cls-13" x="545.37" y="1177.71" width="17.05" height="17.05"/><rect class="cls-13" x="521.64" y="1154.38" width="17.05" height="17.05"/><rect class="cls-13" x="545.37" y="1154.17" width="17.05" height="17.05"/><rect class="cls-13" x="521.64" y="1130.84" width="17.05" height="17.05"/><rect class="cls-13" x="545.37" y="1130.62" width="17.05" height="17.05"/><rect class="cls-13" x="521.64" y="1107.29" width="17.05" height="17.05"/><rect class="cls-13" x="545.37" y="1107.08" width="17.05" height="17.05"/><rect class="cls-13" x="521.64" y="1083.75" width="17.05" height="17.05"/><rect class="cls-13" x="545.37" y="1083.53" width="17.05" height="17.05"/><path class="cls-11" d="M728.21,1075.08H741a1.36,1.36,0,0,1,1.36,1.36v6.1a1.36,1.36,0,0,1-1.36,1.36H728.21a0,0,0,0,1,0,0v-8.82A0,0,0,0,1,728.21,1075.08Z"/><path class="cls-11" d="M728.21,1098.8H741a1.36,1.36,0,0,1,1.36,1.36v6.1a1.36,1.36,0,0,1-1.36,1.36H728.21a0,0,0,0,1,0,0v-8.82A0,0,0,0,1,728.21,1098.8Z"/><path class="cls-11" d="M728.21,1122.52H741a1.36,1.36,0,0,1,1.36,1.36v6.1a1.36,1.36,0,0,1-1.36,1.36H728.21a0,0,0,0,1,0,0v-8.82A0,0,0,0,1,728.21,1122.52Z"/><path class="cls-11" d="M728.21,1146.23H741a1.36,1.36,0,0,1,1.36,1.36v6.1a1.36,1.36,0,0,1-1.36,1.36H728.21a0,0,0,0,1,0,0v-8.82A0,0,0,0,1,728.21,1146.23Z"/><path class="cls-11" d="M728.21,1170H741a1.36,1.36,0,0,1,1.36,1.36v6.1a1.36,1.36,0,0,1-1.36,1.36H728.21a0,0,0,0,1,0,0V1170A0,0,0,0,1,728.21,1170Z"/><path class="cls-11" d="M660.61,1075.08h12.77a1.36,1.36,0,0,1,1.36,1.36v6.1a1.36,1.36,0,0,1-1.36,1.36H660.61a0,0,0,0,1,0,0v-8.82A0,0,0,0,1,660.61,1075.08Z" transform="translate(1335.35 2158.99) rotate(-180)"/><path class="cls-11" d="M660.61,1098.8h12.77a1.36,1.36,0,0,1,1.36,1.36v6.1a1.36,1.36,0,0,1-1.36,1.36H660.61a0,0,0,0,1,0,0v-8.82A0,0,0,0,1,660.61,1098.8Z" transform="translate(1335.35 2206.42) rotate(-180)"/><path class="cls-11" d="M660.61,1122.52h12.77a1.36,1.36,0,0,1,1.36,1.36v6.1a1.36,1.36,0,0,1-1.36,1.36H660.61a0,0,0,0,1,0,0v-8.82A0,0,0,0,1,660.61,1122.52Z" transform="translate(1335.35 2253.86) rotate(-180)"/><path class="cls-11" d="M660.61,1146.23h12.77a1.36,1.36,0,0,1,1.36,1.36v6.1a1.36,1.36,0,0,1-1.36,1.36H660.61a0,0,0,0,1,0,0v-8.82a0,0,0,0,1,0,0Z" transform="translate(1335.35 2301.29) rotate(-180)"/><path class="cls-11" d="M660.61,1170h12.77a1.36,1.36,0,0,1,1.36,1.36v6.1a1.36,1.36,0,0,1-1.36,1.36H660.61a0,0,0,0,1,0,0V1170a0,0,0,0,1,0,0Z" transform="translate(1335.35 2348.72) rotate(-180)"/><rect class="cls-12" x="674.74" y="1077.08" width="53.47" height="125"/><rect class="cls-13" x="681.09" y="1177.93" width="17.05" height="17.05"/><rect class="cls-13" x="704.82" y="1177.71" width="17.05" height="17.05"/><rect class="cls-13" x="681.09" y="1154.38" width="17.05" height="17.05"/><rect class="cls-13" x="704.82" y="1154.17" width="17.05" height="17.05"/><rect class="cls-13" x="681.09" y="1130.84" width="17.05" height="17.05"/><rect class="cls-13" x="704.82" y="1130.62" width="17.05" height="17.05"/><rect class="cls-13" x="681.09" y="1107.29" width="17.05" height="17.05"/><rect class="cls-13" x="704.82" y="1107.08" width="17.05" height="17.05"/><rect class="cls-13" x="681.09" y="1083.75" width="17.05" height="17.05"/><rect class="cls-13" x="704.82" y="1083.53" width="17.05" height="17.05"/><rect class="cls-6" x="258.22" y="940.52" width="27.31" height="47.28"/><ellipse class="cls-7" cx="275.82" cy="951.09" rx="7.76" ry="8.85"/><ellipse class="cls-14" cx="275.82" cy="951.06" rx="2.51" ry="2.89"/><ellipse class="cls-7" cx="275.82" cy="923.61" rx="7.76" ry="8.85"/><ellipse class="cls-14" cx="275.82" cy="923.59" rx="2.51" ry="2.89"/><ellipse class="cls-7" cx="275.82" cy="896.14" rx="7.76" ry="8.85"/><ellipse class="cls-14" cx="275.82" cy="896.11" rx="2.51" ry="2.89"/><ellipse class="cls-7" cx="275.82" cy="868.67" rx="7.76" ry="8.85"/><ellipse class="cls-14" cx="275.82" cy="868.64" rx="2.51" ry="2.89"/><ellipse class="cls-7" cx="275.82" cy="841.19" rx="7.76" ry="8.85"/><ellipse class="cls-14" cx="275.82" cy="841.17" rx="2.51" ry="2.89"/><ellipse class="cls-7" cx="466.72" cy="951.09" rx="7.76" ry="8.85"/><ellipse class="cls-14" cx="466.72" cy="951.06" rx="2.51" ry="2.89"/><ellipse class="cls-7" cx="466.72" cy="923.61" rx="7.76" ry="8.85"/><ellipse class="cls-14" cx="466.72" cy="923.59" rx="2.51" ry="2.89"/><ellipse class="cls-7" cx="466.72" cy="896.14" rx="7.76" ry="8.85"/><ellipse class="cls-14" cx="466.72" cy="896.11" rx="2.51" ry="2.89"/><ellipse class="cls-7" cx="466.72" cy="868.67" rx="7.76" ry="8.85"/><ellipse class="cls-14" cx="466.72" cy="868.64" rx="2.51" ry="2.89"/><ellipse class="cls-7" cx="466.72" cy="841.19" rx="7.76" ry="8.85"/><ellipse class="cls-14" cx="466.72" cy="841.17" rx="2.51" ry="2.89"/><circle class="cls-7" cx="275.82" cy="986.74" r="17.6"/><circle class="cls-6" cx="275.82" cy="986.74" r="12.64"/><circle class="cls-7" cx="466.72" cy="987.16" r="17.6"/><circle class="cls-6" cx="466.72" cy="987.16" r="12.64"/><circle class="cls-7" cx="275.82" cy="804.82" r="17.6"/><circle class="cls-6" cx="275.82" cy="804.82" r="12.64"/><rect class="cls-6" x="457.01" y="1035.93" width="27.31" height="47.28" transform="translate(941.33 2119.14) rotate(180)"/><ellipse class="cls-7" cx="466.72" cy="1072.64" rx="7.76" ry="8.85"/><ellipse class="cls-14" cx="466.72" cy="1072.67" rx="2.51" ry="2.89"/><ellipse class="cls-7" cx="466.72" cy="1100.11" rx="7.76" ry="8.85"/><ellipse class="cls-14" cx="466.72" cy="1100.14" rx="2.51" ry="2.89"/><ellipse class="cls-7" cx="466.72" cy="1127.59" rx="7.76" ry="8.85"/><ellipse class="cls-14" cx="466.72" cy="1127.61" rx="2.51" ry="2.89"/><ellipse class="cls-7" cx="466.72" cy="1155.06" rx="7.76" ry="8.85"/><ellipse class="cls-14" cx="466.72" cy="1155.09" rx="2.51" ry="2.89"/><ellipse class="cls-7" cx="466.72" cy="1182.53" rx="7.76" ry="8.85"/><ellipse class="cls-14" cx="466.72" cy="1182.56" rx="2.51" ry="2.89"/><circle class="cls-7" cx="466.72" cy="1036.99" r="17.6"/><circle class="cls-6" cx="466.72" cy="1036.99" r="12.64"/><circle class="cls-7" cx="466.72" cy="1218.91" r="17.6"/><circle class="cls-6" cx="466.72" cy="1218.91" r="12.64"/><ellipse class="cls-7" cx="275.82" cy="1072.64" rx="7.76" ry="8.85"/><ellipse class="cls-14" cx="275.82" cy="1072.67" rx="2.51" ry="2.89"/><ellipse class="cls-7" cx="275.82" cy="1100.11" rx="7.76" ry="8.85"/><ellipse class="cls-14" cx="275.82" cy="1100.14" rx="2.51" ry="2.89"/><ellipse class="cls-7" cx="275.82" cy="1127.59" rx="7.76" ry="8.85"/><ellipse class="cls-14" cx="275.82" cy="1127.61" rx="2.51" ry="2.89"/><ellipse class="cls-7" cx="275.82" cy="1155.06" rx="7.76" ry="8.85"/><ellipse class="cls-14" cx="275.82" cy="1155.09" rx="2.51" ry="2.89"/><ellipse class="cls-7" cx="275.82" cy="1182.53" rx="7.76" ry="8.85"/><ellipse class="cls-14" cx="275.82" cy="1182.56" rx="2.51" ry="2.89"/><circle class="cls-7" cx="275.82" cy="1036.99" r="17.6"/><circle class="cls-6" cx="275.82" cy="1036.99" r="12.64"/><circle class="cls-7" cx="275.82" cy="1218.91" r="17.6"/><circle class="cls-6" cx="275.82" cy="1218.91" r="12.64"/><circle class="cls-7" cx="466.72" cy="805.24" r="17.6"/><circle class="cls-6" cx="466.72" cy="805.24" r="12.64"/><path class="cls-11" d="M289.26,914.77H299a1.75,1.75,0,0,1,1.75,1.75v3.3a0,0,0,0,1,0,0H287.51a0,0,0,0,1,0,0v-3.3A1.75,1.75,0,0,1,289.26,914.77Z"/><path class="cls-11" d="M289.26,934.31H299a1.75,1.75,0,0,1,1.75,1.75v3.3a0,0,0,0,1,0,0H287.51a0,0,0,0,1,0,0v-3.3A1.75,1.75,0,0,1,289.26,934.31Z" transform="translate(588.26 1873.67) rotate(180)"/><rect class="cls-13" x="287.51" y="921.18" width="13.23" height="11.8"/><rect class="cls-13" x="354.79" y="844.3" width="13.23" height="11.8" rx="1.24" transform="translate(707.03 -6.53) rotate(45)"/><path class="cls-11" d="M316.62,997.28h9.74A1.75,1.75,0,0,1,328.1,999v3.3a0,0,0,0,1,0,0H314.87a0,0,0,0,1,0,0V999A1.75,1.75,0,0,1,316.62,997.28Z" transform="translate(1321.29 678.32) rotate(90)"/><path class="cls-11" d="M297.07,997.28h9.74a1.75,1.75,0,0,1,1.75,1.75v3.3a0,0,0,0,1,0,0H295.32a0,0,0,0,1,0,0V999A1.75,1.75,0,0,1,297.07,997.28Z" transform="translate(-697.87 1301.74) rotate(-90)"/><rect class="cls-15" x="305.07" y="993.9" width="13.23" height="11.8" transform="translate(1311.49 688.12) rotate(90)"/><path class="cls-11" d="M297.39,945.93h4a.85.85,0,0,1,.85.85v1.88a0,0,0,0,1,0,0h-5.74a0,0,0,0,1,0,0v-1.88A.85.85,0,0,1,297.39,945.93Z" transform="translate(1246.71 647.88) rotate(90)"/><path class="cls-11" d="M286.82,945.93h4a.85.85,0,0,1,.85.85v1.88a0,0,0,0,1,0,0H286a0,0,0,0,1,0,0v-1.88A.85.85,0,0,1,286.82,945.93Z" transform="translate(-658.46 1236.14) rotate(-90)"/><rect class="cls-16" x="291.24" y="944.11" width="5.74" height="6.39" transform="translate(1241.41 653.18) rotate(90)"/><path class="cls-11" d="M297.39,955.46h4a.85.85,0,0,1,.85.85v1.88a0,0,0,0,1,0,0h-5.74a0,0,0,0,1,0,0V956.3A.85.85,0,0,1,297.39,955.46Z" transform="translate(1256.23 657.41) rotate(90)"/><path class="cls-11" d="M286.82,955.46h4a.85.85,0,0,1,.85.85v1.88a0,0,0,0,1,0,0H286a0,0,0,0,1,0,0V956.3A.85.85,0,0,1,286.82,955.46Z" transform="translate(-667.98 1245.66) rotate(-90)"/><rect class="cls-16" x="291.24" y="953.63" width="5.74" height="6.39" transform="translate(1250.93 662.71) rotate(90)"/><rect class="cls-11" x="366.53" y="839.83" width="4.35" height="6.12" rx="1.61" transform="translate(704.01 -13.84) rotate(45)"/><rect class="cls-11" x="351.97" y="854.39" width="4.35" height="6.12" rx="1.61" transform="translate(710.04 0.72) rotate(45)"/><path class="cls-11" d="M339.69,784.18h11.76a0,0,0,0,1,0,0V827a3.12,3.12,0,0,1-3.12,3.12h-5.51a3.12,3.12,0,0,1-3.12-3.12V784.18A0,0,0,0,1,339.69,784.18Z"/><path class="cls-11" d="M365.38,784.18h11.76a0,0,0,0,1,0,0V827a3.12,3.12,0,0,1-3.12,3.12h-5.51a3.12,3.12,0,0,1-3.12-3.12V784.18A0,0,0,0,1,365.38,784.18Z"/><path class="cls-11" d="M391.91,784.18h11.76a0,0,0,0,1,0,0V827a3.12,3.12,0,0,1-3.12,3.12H395a3.12,3.12,0,0,1-3.12-3.12V784.18A0,0,0,0,1,391.91,784.18Z"/><rect class="cls-17" x="322.11" y="885.87" width="101.93" height="101.93" rx="5.06"/><rect class="cls-9" x="327.33" y="891.09" width="91.49" height="91.49" rx="2.06"/><path class="cls-11" d="M379.06,1027.18h7.57a1.57,1.57,0,0,1,1.57,1.57v3.47a0,0,0,0,1,0,0H377.49a0,0,0,0,1,0,0v-3.47A1.57,1.57,0,0,1,379.06,1027.18Z" transform="translate(1412.55 646.86) rotate(90)"/><path class="cls-11" d="M359.51,1027.18h7.57a1.57,1.57,0,0,1,1.57,1.57v3.47a0,0,0,0,1,0,0H357.94a0,0,0,0,1,0,0v-3.47A1.57,1.57,0,0,1,359.51,1027.18Z" transform="translate(-666.4 1393) rotate(-90)"/><rect class="cls-15" x="367.69" y="1023.8" width="10.71" height="11.8" transform="translate(1402.75 656.66) rotate(90)"/><path class="cls-11" d="M362.92,1222.33h7.57a1.57,1.57,0,0,1,1.57,1.57v3.47a0,0,0,0,1,0,0H361.34a0,0,0,0,1,0,0v-3.47A1.57,1.57,0,0,1,362.92,1222.33Z" transform="translate(1591.55 858.15) rotate(90)"/><path class="cls-11" d="M343.37,1222.33h7.57a1.57,1.57,0,0,1,1.57,1.57v3.47a0,0,0,0,1,0,0H341.8a0,0,0,0,1,0,0v-3.47A1.57,1.57,0,0,1,343.37,1222.33Z" transform="translate(-877.7 1572) rotate(-90)"/><rect class="cls-15" x="351.55" y="1218.95" width="10.71" height="11.8" transform="translate(1581.75 867.95) rotate(90)"/><path class="cls-11" d="M404.4,1222.33H412a1.57,1.57,0,0,1,1.57,1.57v3.47a0,0,0,0,1,0,0H402.82a0,0,0,0,1,0,0v-3.47A1.57,1.57,0,0,1,404.4,1222.33Z" transform="translate(1633.03 816.67) rotate(90)"/><path class="cls-11" d="M384.85,1222.33h7.57a1.57,1.57,0,0,1,1.57,1.57v3.47a0,0,0,0,1,0,0H383.28a0,0,0,0,1,0,0v-3.47A1.57,1.57,0,0,1,384.85,1222.33Z" transform="translate(-836.22 1613.48) rotate(-90)"/><rect class="cls-15" x="393.03" y="1218.95" width="10.71" height="11.8" transform="translate(1623.23 826.47) rotate(90)"/><path class="cls-11" d="M370.91,1063.79a61.47,61.47,0,1,0,61.47,61.46A61.46,61.46,0,0,0,370.91,1063.79Zm0,115.38a53.92,53.92,0,1,1,53.92-53.92A53.9,53.9,0,0,1,370.91,1179.17Z"/><path class="cls-11" d="M420.61,1125.25a49.7,49.7,0,1,1-49.7-49.7A49.69,49.69,0,0,1,420.61,1125.25Z"/><path class="cls-10" d="M315,1125.25a55.67,55.67,0,0,0,1.36,12.33H304.17v-24.65h12.16A55.65,55.65,0,0,0,315,1125.25Z"/><path class="cls-10" d="M437.65,1112.93v24.65H425.51a56.94,56.94,0,0,0,0-24.65Z"/><path class="cls-12" d="M416.81,1125.11a45.75,45.75,0,1,1-45.75-45.75c1.12,0,2.24,0,3.34.12A45.74,45.74,0,0,1,416.81,1125.11Z"/><circle class="cls-10" cx="371.35" cy="1124.34" r="11.67"/><circle class="cls-13" cx="371.35" cy="1094.88" r="7.6"/><rect class="cls-13" x="334.36" y="1122.18" width="16.41" height="7.09" rx="3.54"/><rect class="cls-13" x="392.85" y="1122.18" width="16.41" height="7.09" rx="3.54"/><circle class="cls-6" cx="709.93" cy="1037.91" r="9.99"/><rect class="cls-7" x="223.64" y="1046.34" width="18.97" height="9.52" rx="4.32"/><rect class="cls-7" x="223.64" y="973.06" width="18.97" height="9.52" rx="4.32"/><rect class="cls-4" x="334.79" y="708.23" width="72.94" height="27.51"/><rect class="cls-6" x="227.23" y="1085.05" width="24.71" height="89.31"/><rect class="cls-6" x="227.23" y="842.11" width="24.71" height="89.31"/><path class="cls-18" d="M410.57,707.26H755.42a55,55,0,0,1,55,55v501a55.05,55.05,0,0,1-55,55H237.28a55.05,55.05,0,0,1-55-55v-501a55,55,0,0,1,55-55H332m75.76,18H755.42a37,37,0,0,1,37,37v501a37,37,0,0,1-37,37H237.28a37,37,0,0,1-37-37v-501a37,37,0,0,1,37-37h97.51"/><path class="cls-6" d="M236.75,1236.77a27.49,27.49,0,1,0,27.49,27.49A27.49,27.49,0,0,0,236.75,1236.77Zm0,47.25a19.76,19.76,0,1,1,19.77-19.76A19.76,19.76,0,0,1,236.75,1284Z"/><path class="cls-7" d="M236.75,1244.51a19.76,19.76,0,1,0,19.77,19.75A19.75,19.75,0,0,0,236.75,1244.51Zm0,36.55a16.8,16.8,0,1,1,16.8-16.8A16.79,16.79,0,0,1,236.75,1281.06Z"/><path class="cls-6" d="M756.47,1236.77A27.49,27.49,0,1,0,784,1264.26,27.49,27.49,0,0,0,756.47,1236.77Zm0,47.25a19.76,19.76,0,1,1,19.76-19.76A19.76,19.76,0,0,1,756.47,1284Z"/><path class="cls-7" d="M756.47,1244.51a19.76,19.76,0,1,0,19.76,19.75A19.75,19.75,0,0,0,756.47,1244.51Zm0,36.55a16.8,16.8,0,1,1,16.8-16.8A16.79,16.79,0,0,1,756.47,1281.06Z"/><rect class="cls-18" x="334.8" y="771.02" width="72.93" height="13.16"/><rect class="cls-18" x="334.8" y="708.23" width="72.93" height="27.51"/><line class="cls-18" x1="342.26" y1="771.02" x2="342.26" y2="735.74"/><line class="cls-18" x1="400.68" y1="771.02" x2="400.68" y2="735.74"/><rect class="cls-19" x="328.37" y="639.28" width="85.82" height="68.95" rx="7.21"/><line class="cls-20" x1="351.14" y1="708.23" x2="351.14" y2="639.28"/><line class="cls-20" x1="390.83" y1="708.23" x2="390.83" y2="639.28"/><path class="cls-20" d="M414.15,632.17a3,3,0,0,1-3,3h-79.8a3,3,0,0,1-3-3l3.44-329.51h2.57v-8.52h-2.49l.22-21.31h2.27v-8.52h-2.17l.22-21.29a31.48,31.48,0,0,1,31.48-31.17H378.6A31.5,31.5,0,0,1,410.1,243l.23,21.29h-1.79v8.52h1.87l.22,21.31h-2.09v8.52h2.19Z"/><line class="cls-20" x1="335.57" y1="639.28" x2="335.57" y2="635.18"/><line class="cls-20" x1="406.97" y1="639.28" x2="406.97" y2="635.18"/><rect class="cls-21" x="214.27" y="1169.71" width="37.66" height="46.98"/><rect class="cls-22" x="212.64" y="1179.32" width="40.97" height="27.76" rx="13.77" transform="translate(1426.33 960.08) rotate(90)"/><rect class="cls-23" x="216.13" y="1181.88" width="33.93" height="22.64" rx="11.32" transform="translate(1426.3 960.1) rotate(90)"/><path class="cls-7" d="M251.94,1178.64a11.34,11.34,0,0,1-9.86-8.93h9.86Z"/><path class="cls-7" d="M251.94,1216.69h-9.8a11.33,11.33,0,0,1,9.8-8.67Z"/><path class="cls-7" d="M214.27,1178.49v-8.78h8.91A11.32,11.32,0,0,1,214.27,1178.49Z"/><path class="cls-7" d="M223.11,1216.69h-8.84v-8.52a11.29,11.29,0,0,1,8.84,8.52Z"/><path class="cls-24" d="M220,1164.42h2.3a0,0,0,0,1,0,0v7.11a0,0,0,0,1,0,0H220a1.18,1.18,0,0,1-1.18-1.18v-4.76A1.18,1.18,0,0,1,220,1164.42Z" transform="translate(1388.57 947.38) rotate(90)"/><path class="cls-24" d="M244.68,1164.42H247a0,0,0,0,1,0,0v7.11a0,0,0,0,1,0,0h-2.3a1.18,1.18,0,0,1-1.18-1.18v-4.76A1.18,1.18,0,0,1,244.68,1164.42Z" transform="translate(1413.21 922.73) rotate(90)"/><path class="cls-24" d="M220,1214.88h2.3a0,0,0,0,1,0,0V1222a0,0,0,0,1,0,0H220a1.18,1.18,0,0,1-1.18-1.18v-4.76A1.18,1.18,0,0,1,220,1214.88Z" transform="translate(-997.83 1439.03) rotate(-90)"/><path class="cls-24" d="M244.68,1214.88H247a0,0,0,0,1,0,0V1222a0,0,0,0,1,0,0h-2.3a1.18,1.18,0,0,1-1.18-1.18v-4.76A1.18,1.18,0,0,1,244.68,1214.88Z" transform="translate(-973.19 1463.67) rotate(-90)"/><rect class="cls-21" x="214.27" y="989.26" width="37.66" height="46.98"/><rect class="cls-22" x="212.64" y="998.87" width="40.97" height="27.76" rx="13.77" transform="translate(1245.88 779.63) rotate(90)"/><rect class="cls-23" x="216.13" y="1001.43" width="33.93" height="22.64" rx="11.32" transform="translate(1245.85 779.65) rotate(90)"/><path class="cls-7" d="M251.94,998.19a11.34,11.34,0,0,1-9.86-8.93h9.86Z"/><path class="cls-7" d="M251.94,1036.25h-9.8a11.32,11.32,0,0,1,9.8-8.68Z"/><path class="cls-7" d="M214.27,998v-8.78h8.91A11.32,11.32,0,0,1,214.27,998Z"/><path class="cls-7" d="M223.11,1036.25h-8.84v-8.53a11.32,11.32,0,0,1,8.84,8.53Z"/><path class="cls-24" d="M220,984h2.3a0,0,0,0,1,0,0v7.11a0,0,0,0,1,0,0H220a1.18,1.18,0,0,1-1.18-1.18v-4.76A1.18,1.18,0,0,1,220,984Z" transform="translate(1208.12 766.93) rotate(90)"/><path class="cls-24" d="M244.68,984H247a0,0,0,0,1,0,0v7.11a0,0,0,0,1,0,0h-2.3a1.18,1.18,0,0,1-1.18-1.18v-4.76A1.18,1.18,0,0,1,244.68,984Z" transform="translate(1232.77 742.28) rotate(90)"/><path class="cls-24" d="M220,1034.43h2.3a0,0,0,0,1,0,0v7.11a0,0,0,0,1,0,0H220a1.18,1.18,0,0,1-1.18-1.18v-4.76A1.18,1.18,0,0,1,220,1034.43Z" transform="translate(-817.39 1258.58) rotate(-90)"/><path class="cls-24" d="M244.68,1034.43H247a0,0,0,0,1,0,0v7.11a0,0,0,0,1,0,0h-2.3a1.18,1.18,0,0,1-1.18-1.18v-4.76a1.18,1.18,0,0,1,1.18-1.18Z" transform="translate(-792.74 1283.23) rotate(-90)"/><rect class="cls-21" x="214.27" y="814.1" width="37.66" height="46.98"/><rect class="cls-22" x="212.64" y="823.71" width="40.97" height="27.76" rx="13.77" transform="translate(1070.72 604.47) rotate(90)"/><rect class="cls-23" x="216.13" y="826.28" width="33.93" height="22.64" rx="11.32" transform="translate(1070.7 604.49) rotate(90)"/><path class="cls-7" d="M251.94,823a11.34,11.34,0,0,1-9.86-8.93h9.86Z"/><path class="cls-7" d="M251.94,861.09h-9.8a11.32,11.32,0,0,1,9.8-8.68Z"/><path class="cls-7" d="M214.27,822.88V814.1h8.91A11.32,11.32,0,0,1,214.27,822.88Z"/><path class="cls-7" d="M223.11,861.09h-8.84v-8.53a11.32,11.32,0,0,1,8.84,8.53Z"/><path class="cls-24" d="M220,808.81h2.3a0,0,0,0,1,0,0v7.11a0,0,0,0,1,0,0H220a1.18,1.18,0,0,1-1.18-1.18V810a1.18,1.18,0,0,1,1.18-1.18Z" transform="translate(1032.96 591.77) rotate(90)"/><path class="cls-24" d="M244.68,808.81H247a0,0,0,0,1,0,0v7.11a0,0,0,0,1,0,0h-2.3a1.18,1.18,0,0,1-1.18-1.18V810A1.18,1.18,0,0,1,244.68,808.81Z" transform="translate(1057.61 567.12) rotate(90)"/><path class="cls-24" d="M220,859.27h2.3a0,0,0,0,1,0,0v7.11a0,0,0,0,1,0,0H220a1.18,1.18,0,0,1-1.18-1.18v-4.76A1.18,1.18,0,0,1,220,859.27Z" transform="translate(-642.23 1083.42) rotate(-90)"/><path class="cls-24" d="M244.68,859.27H247a0,0,0,0,1,0,0v7.11a0,0,0,0,1,0,0h-2.3a1.18,1.18,0,0,1-1.18-1.18v-4.76A1.18,1.18,0,0,1,244.68,859.27Z" transform="translate(-617.58 1108.07) rotate(-90)"/><path class="cls-25" d="M663.93,1003.61V1009H579.56v-5.39a3.09,3.09,0,0,1,3.1-3.09h78.18A3.09,3.09,0,0,1,663.93,1003.61Z"/><rect class="cls-1" x="506.11" y="718.08" width="232.02" height="290.92" rx="24.74"/><circle class="cls-7" cx="716.57" cy="986.74" r="17.6"/><circle class="cls-6" cx="716.57" cy="986.74" r="12.64"/><circle class="cls-7" cx="716.57" cy="739.65" r="17.6"/><circle class="cls-6" cx="716.57" cy="739.65" r="12.64"/><circle class="cls-7" cx="527.68" cy="739.65" r="17.6"/><circle class="cls-6" cx="527.68" cy="739.65" r="12.64"/><rect class="cls-26" x="510.08" y="930.38" width="25.88" height="58.2"/><ellipse class="cls-7" cx="527.68" cy="945.24" rx="8.29" ry="9.45"/><ellipse class="cls-14" cx="527.68" cy="945.21" rx="2.68" ry="3.08"/><ellipse class="cls-7" cx="527.68" cy="915.91" rx="8.29" ry="9.45"/><ellipse class="cls-14" cx="527.68" cy="915.88" rx="2.68" ry="3.08"/><ellipse class="cls-7" cx="527.68" cy="886.58" rx="8.29" ry="9.45"/><ellipse class="cls-14" cx="527.68" cy="886.56" rx="2.68" ry="3.08"/><ellipse class="cls-7" cx="527.68" cy="857.26" rx="8.29" ry="9.45"/><ellipse class="cls-14" cx="527.68" cy="857.23" rx="2.68" ry="3.08"/><ellipse class="cls-7" cx="527.68" cy="827.93" rx="8.29" ry="9.45"/><ellipse class="cls-14" cx="527.68" cy="827.91" rx="2.68" ry="3.08"/><ellipse class="cls-7" cx="716.57" cy="945.24" rx="8.29" ry="9.45"/><ellipse class="cls-14" cx="716.57" cy="945.21" rx="2.68" ry="3.08"/><ellipse class="cls-7" cx="716.57" cy="915.91" rx="8.29" ry="9.45"/><ellipse class="cls-14" cx="716.57" cy="915.88" rx="2.68" ry="3.08"/><ellipse class="cls-7" cx="716.57" cy="886.58" rx="8.29" ry="9.45"/><ellipse class="cls-14" cx="716.57" cy="886.56" rx="2.68" ry="3.08"/><ellipse class="cls-7" cx="716.57" cy="857.26" rx="8.29" ry="9.45"/><ellipse class="cls-14" cx="716.57" cy="857.23" rx="2.68" ry="3.08"/><ellipse class="cls-7" cx="716.57" cy="827.93" rx="8.29" ry="9.45"/><ellipse class="cls-14" cx="716.57" cy="827.91" rx="2.68" ry="3.08"/><path class="cls-13" d="M533,787.36a5.35,5.35,0,1,1-5.35-5.34A5.35,5.35,0,0,1,533,787.36Z"/><path class="cls-7" d="M527.67,779.42a7.94,7.94,0,1,0,7.94,7.94A7.94,7.94,0,0,0,527.67,779.42Zm0,13.28a5.34,5.34,0,1,1,5.35-5.34A5.34,5.34,0,0,1,527.67,792.7Z"/><rect class="cls-13" x="553.89" y="718.08" width="135.72" height="250.09"/><rect class="cls-27" x="553.89" y="968.17" width="135.72" height="40.83"/><rect class="cls-7" x="579.56" y="980.93" width="84.37" height="5.81"/><circle class="cls-7" cx="527.68" cy="986.74" r="17.6"/><circle class="cls-6" cx="527.68" cy="986.74" r="12.64"/><rect class="cls-20" x="334.4" y="264.31" width="74.14" height="8.52"/><rect class="cls-20" x="334.4" y="294.14" width="74.14" height="8.52"/><rect class="cls-3" x="568.77" y="731.72" width="105.98" height="220.71"/><path class="cls-28" d="M578.06,995.24h88.12a4.63,4.63,0,0,1,4.63,4.63v9.5a3.07,3.07,0,0,1-3.07,3.07H576.5a3.07,3.07,0,0,1-3.07-3.07v-9.5A4.63,4.63,0,0,1,578.06,995.24Z"/><path class="cls-29" d="M245.58,1100.34v1.75H233.1v-1.75Zm-6.82,4.16.4,1.74-6.06,3.19v-2.07Zm1.28-3.39v4.25a1.61,1.61,0,0,0,.24.88,1.59,1.59,0,0,0,.68.6,2.35,2.35,0,0,0,1,.21,2.31,2.31,0,0,0,1-.21,1.61,1.61,0,0,0,.69-.59,1.65,1.65,0,0,0,.24-.89v-4.25h1.66v4.18a3.87,3.87,0,0,1-.45,1.9,3,3,0,0,1-1.26,1.27,3.88,3.88,0,0,1-1.89.45,3.83,3.83,0,0,1-1.89-.45,3.19,3.19,0,0,1-1.27-1.28,3.83,3.83,0,0,1-.44-1.89v-4.18Z"/><path class="cls-29" d="M245.57,1111.79v1.75H233.1v-1.75Zm-10.8.85v7.16H233.1v-7.16Zm5.36,0v6.22h-1.67v-6.22Zm5.44,0v7.16h-1.66v-7.16Z"/><path class="cls-29" d="M233.14,1124.33a6.48,6.48,0,0,1,.52-1.5,5.93,5.93,0,0,1,.86-1.31l1.33,1.09a4.81,4.81,0,0,0-.92,1.57,5.34,5.34,0,0,0-.31,1.86,3.79,3.79,0,0,0,.5,2.1,1.62,1.62,0,0,0,1.42.75h0a1.52,1.52,0,0,0,1-.34,2,2,0,0,0,.57-.88,11.12,11.12,0,0,0,.34-1.38s0,0,0-.06a.07.07,0,0,1,0,0l0-.13a14.13,14.13,0,0,1,.48-2,2.93,2.93,0,0,1,1-1.34,3.28,3.28,0,0,1,2-.56h0a3.55,3.55,0,0,1,2,.52,3.23,3.23,0,0,1,1.25,1.51,6,6,0,0,1,.43,2.4,5.79,5.79,0,0,1-.15,1.31,6.22,6.22,0,0,1-.43,1.28,7.5,7.5,0,0,1-.72,1.24l-1.39-1a5.41,5.41,0,0,0,.78-1.42,3.9,3.9,0,0,0,.26-1.41,3.34,3.34,0,0,0-.51-2,1.68,1.68,0,0,0-1.44-.71h0a1.34,1.34,0,0,0-1,.37,2.14,2.14,0,0,0-.55.91,13.71,13.71,0,0,0-.36,1.51.13.13,0,0,0,0,.06s0,0,0,.07,0,.06,0,.09a.44.44,0,0,0,0,.1,11.17,11.17,0,0,1-.55,1.89,3,3,0,0,1-1,1.27,3.28,3.28,0,0,1-1.94.51h0a3.43,3.43,0,0,1-2-.54,3.32,3.32,0,0,1-1.23-1.57A6.31,6.31,0,0,1,233,1126,8.55,8.55,0,0,1,233.14,1124.33Z"/><path class="cls-29" d="M245.57,1132.93v1.75H233.1v-1.75Zm-10.8.85v7.16H233.1v-7.16Zm5.36,0V1140h-1.67v-6.22Zm5.44,0v7.16h-1.66v-7.16Z"/><path class="cls-29" d="M244.55,1145.58v1.75H233.1v-1.75Zm1-3.52v8.8h-1.66v-8.8Z"/><path class="cls-29" d="M245.57,873.07v1.75H233.1v-1.75Zm-10.85,1v3.38a3,3,0,0,0,.51,1.94,1.74,1.74,0,0,0,1.42.61h0a2.47,2.47,0,0,0,1.09-.22,1.61,1.61,0,0,0,.7-.69,2.66,2.66,0,0,0,.24-1.21V874.1h1.58v3.81a2.09,2.09,0,0,0,.45,1.46,2.06,2.06,0,0,0,2.75,0,2.52,2.52,0,0,0,.46-1.65V874.1h1.62V878a4.51,4.51,0,0,1-.41,2,2.66,2.66,0,0,1-1.17,1.22,3.74,3.74,0,0,1-1.8.4,2.84,2.84,0,0,1-1.2-.25,2.33,2.33,0,0,1-1-.75,2.87,2.87,0,0,1-.54-1.27,2.7,2.7,0,0,1-.53,1.3,2.79,2.79,0,0,1-1.06.84,3.2,3.2,0,0,1-1.38.3h0a3.5,3.5,0,0,1-1.79-.45,3,3,0,0,1-1.19-1.28,4.23,4.23,0,0,1-.42-1.94v-4Z"/><path class="cls-29" d="M233.54,886a4,4,0,0,1,1.62-1.54,5.16,5.16,0,0,1,2.41-.54h3.53a5.2,5.2,0,0,1,2.42.54,4,4,0,0,1,1.61,1.54,4.93,4.93,0,0,1,0,4.6,4,4,0,0,1-1.61,1.54,5.2,5.2,0,0,1-2.42.54h-3.53a5.16,5.16,0,0,1-2.41-.54,4,4,0,0,1-1.62-1.54,4.93,4.93,0,0,1,0-4.6Zm1.5,3.66a2.42,2.42,0,0,0,1,.91,3.32,3.32,0,0,0,1.48.32h3.65a3.29,3.29,0,0,0,1.48-.32,2.36,2.36,0,0,0,1-.91,2.82,2.82,0,0,0,0-2.72,2.36,2.36,0,0,0-1-.91,3.29,3.29,0,0,0-1.48-.32h-3.65A3.32,3.32,0,0,0,236,886a2.42,2.42,0,0,0-1,.91,2.89,2.89,0,0,0,0,2.72Z"/><path class="cls-29" d="M233.54,897a3.82,3.82,0,0,1,1.62-1.54,5,5,0,0,1,2.41-.55h3.53a5.08,5.08,0,0,1,2.42.55,3.86,3.86,0,0,1,1.61,1.54,4.91,4.91,0,0,1,0,4.59,3.86,3.86,0,0,1-1.61,1.54,5.08,5.08,0,0,1-2.42.55h-3.53a5,5,0,0,1-2.41-.55,3.82,3.82,0,0,1-1.62-1.54,4.91,4.91,0,0,1,0-4.59Zm1.5,3.65a2.3,2.3,0,0,0,1,.91,3.19,3.19,0,0,0,1.48.32h3.65a3.16,3.16,0,0,0,1.48-.32,2.24,2.24,0,0,0,1-.91,2.62,2.62,0,0,0,.35-1.36,2.67,2.67,0,0,0-.35-1.36,2.28,2.28,0,0,0-1-.9,3.17,3.17,0,0,0-1.48-.33h-3.65A3.19,3.19,0,0,0,236,897a2.33,2.33,0,0,0-1,.9,2.67,2.67,0,0,0-.34,1.36A2.62,2.62,0,0,0,235,900.63Z"/><path class="cls-29" d="M244.55,908.3v1.75H233.1V908.3Zm1-3.53v8.8h-1.66v-8.8Z"/><path class="cls-26" d="M595.16,1074.56h1.18v9h-1.23v-6.72l.06.4-2.21,5.08h-.88l-2.2-5,.06-.52v6.72h-1.23v-9h1.18l2.63,5.93Z"/><path class="cls-26" d="M599.87,1083.22a2.88,2.88,0,0,1-1.11-1.16,3.72,3.72,0,0,1-.39-1.74v-2.54a3.72,3.72,0,0,1,.39-1.74,2.82,2.82,0,0,1,1.11-1.16,3.55,3.55,0,0,1,3.31,0,2.76,2.76,0,0,1,1.11,1.16,3.72,3.72,0,0,1,.39,1.74v2.54a3.72,3.72,0,0,1-.39,1.74,2.82,2.82,0,0,1-1.11,1.16,3.55,3.55,0,0,1-3.31,0Zm2.63-1.08a1.74,1.74,0,0,0,.66-.71,2.41,2.41,0,0,0,.23-1.07v-2.63a2.39,2.39,0,0,0-.23-1.06,1.68,1.68,0,0,0-.66-.71,1.82,1.82,0,0,0-1-.25,1.86,1.86,0,0,0-1,.25,1.74,1.74,0,0,0-.66.71,2.39,2.39,0,0,0-.23,1.06v2.63a2.41,2.41,0,0,0,.23,1.07,1.81,1.81,0,0,0,.66.71,2,2,0,0,0,1,.25A1.92,1.92,0,0,0,602.5,1082.14Z"/><path class="cls-26" d="M607.94,1083.5a4.38,4.38,0,0,1-1.09-.37,5,5,0,0,1-.94-.61l.79-1a3.52,3.52,0,0,0,1.13.67,3.85,3.85,0,0,0,1.34.22,2.7,2.7,0,0,0,1.51-.36,1.16,1.16,0,0,0,.54-1h0a1.08,1.08,0,0,0-.25-.74,1.47,1.47,0,0,0-.63-.41,7.8,7.8,0,0,0-1-.24h-.08l-.09,0a9,9,0,0,1-1.46-.35,2.1,2.1,0,0,1-1-.71,2.32,2.32,0,0,1-.4-1.47h0a2.57,2.57,0,0,1,.37-1.42,2.32,2.32,0,0,1,1.09-.9,4.26,4.26,0,0,1,1.72-.31,4.32,4.32,0,0,1,1,.1,4.57,4.57,0,0,1,.92.32,4.79,4.79,0,0,1,.89.52l-.71,1a4.8,4.8,0,0,0-1-.57,3.07,3.07,0,0,0-1-.19,2.4,2.4,0,0,0-1.42.37,1.21,1.21,0,0,0-.51,1h0a1,1,0,0,0,.26.73,1.69,1.69,0,0,0,.65.39c.26.08.63.17,1.09.26h.23a7.47,7.47,0,0,1,1.36.4,2,2,0,0,1,.91.74,2.27,2.27,0,0,1,.37,1.39h0a2.45,2.45,0,0,1-.39,1.4,2.39,2.39,0,0,1-1.12.89,4.54,4.54,0,0,1-1.78.31A5.34,5.34,0,0,1,607.94,1083.5Z"/><path class="cls-26" d="M615.39,1083.53h-1.26v-9h1.26Z"/><path class="cls-26" d="M595.16,1098.65h1.18v9h-1.23v-6.72l.06.4-2.21,5.08h-.88l-2.2-5,.06-.52v6.72h-1.23v-9h1.18l2.63,5.92Z"/><path class="cls-26" d="M599.82,1107.62h-1.26v-9h1.26Z"/><path class="cls-26" d="M603.51,1107.59a4.38,4.38,0,0,1-1.09-.37,4.73,4.73,0,0,1-.94-.61l.79-1a3.42,3.42,0,0,0,1.13.67,3.83,3.83,0,0,0,1.33.22,2.73,2.73,0,0,0,1.52-.36,1.17,1.17,0,0,0,.53-1h0a1.08,1.08,0,0,0-.24-.74,1.47,1.47,0,0,0-.63-.41,6.42,6.42,0,0,0-1-.24h-.08l-.09,0a9.41,9.41,0,0,1-1.47-.35,2.12,2.12,0,0,1-1-.71,2.32,2.32,0,0,1-.4-1.47h0a2.57,2.57,0,0,1,.37-1.42,2.27,2.27,0,0,1,1.09-.9,4.26,4.26,0,0,1,1.72-.31,4.32,4.32,0,0,1,.95.1,4.57,4.57,0,0,1,.92.32,4.79,4.79,0,0,1,.89.52l-.72,1a4,4,0,0,0-1-.57,3.06,3.06,0,0,0-1-.19,2.46,2.46,0,0,0-1.43.37,1.21,1.21,0,0,0-.51,1h0a1,1,0,0,0,.27.72,1.59,1.59,0,0,0,.65.4c.26.08.63.17,1.09.26h.23a7,7,0,0,1,1.36.4,2.07,2.07,0,0,1,.91.73,2.33,2.33,0,0,1,.37,1.4h0a2.45,2.45,0,0,1-.39,1.4,2.37,2.37,0,0,1-1.13.89,4.5,4.5,0,0,1-1.78.31A5.31,5.31,0,0,1,603.51,1107.59Z"/><path class="cls-26" d="M610.89,1107.31a2.82,2.82,0,0,1-1.11-1.16,3.72,3.72,0,0,1-.39-1.74v-2.54a3.72,3.72,0,0,1,.39-1.74,2.76,2.76,0,0,1,1.11-1.16,3.28,3.28,0,0,1,1.65-.41,3.32,3.32,0,0,1,1.66.41,2.8,2.8,0,0,1,1.1,1.16,3.72,3.72,0,0,1,.39,1.74v2.54a3.72,3.72,0,0,1-.39,1.74,2.86,2.86,0,0,1-1.1,1.16,3.32,3.32,0,0,1-1.66.41A3.28,3.28,0,0,1,610.89,1107.31Zm2.63-1.08a1.72,1.72,0,0,0,.65-.71,2.28,2.28,0,0,0,.23-1.07v-2.63a2.27,2.27,0,0,0-.23-1.06,1.66,1.66,0,0,0-.65-.71,2,2,0,0,0-2,0,1.66,1.66,0,0,0-.65.71,2.39,2.39,0,0,0-.23,1.06v2.63a2.41,2.41,0,0,0,.23,1.07,1.72,1.72,0,0,0,.65.71,2,2,0,0,0,2,0Z"/><path class="cls-26" d="M590.18,1130.47a4.83,4.83,0,0,1-1.09-.37,4.63,4.63,0,0,1-.94-.62l.79-1a3.42,3.42,0,0,0,1.13.67,4.09,4.09,0,0,0,1.34.22,2.7,2.7,0,0,0,1.51-.36,1.15,1.15,0,0,0,.53-1h0a1.08,1.08,0,0,0-.24-.74,1.39,1.39,0,0,0-.63-.41,6.42,6.42,0,0,0-1-.24h-.08l-.09,0a9.11,9.11,0,0,1-1.46-.34,2.1,2.1,0,0,1-1-.71,2.36,2.36,0,0,1-.4-1.47h0a2.59,2.59,0,0,1,.37-1.42,2.39,2.39,0,0,1,1.09-.9,4.45,4.45,0,0,1,1.72-.3,4.32,4.32,0,0,1,1,.1,4.53,4.53,0,0,1,.92.31,5.42,5.42,0,0,1,.89.52l-.71,1a4.2,4.2,0,0,0-1-.56,2.79,2.79,0,0,0-1-.19,2.33,2.33,0,0,0-1.42.37,1.2,1.2,0,0,0-.51,1h0a1,1,0,0,0,.26.73,1.47,1.47,0,0,0,.65.39,10.77,10.77,0,0,0,1.09.27h.09l.07,0h.07a7.54,7.54,0,0,1,1.36.39,2.17,2.17,0,0,1,.91.74,2.29,2.29,0,0,1,.37,1.39h0a2.48,2.48,0,0,1-.39,1.41,2.45,2.45,0,0,1-1.12.89,4.77,4.77,0,0,1-1.78.3A6,6,0,0,1,590.18,1130.47Z"/><path class="cls-26" d="M597.54,1130.18a2.86,2.86,0,0,1-1.09-1.17,3.83,3.83,0,0,1-.39-1.76v-2.46a3.77,3.77,0,0,1,.39-1.76,2.83,2.83,0,0,1,1.09-1.18,3.15,3.15,0,0,1,1.64-.41,3.06,3.06,0,0,1,1.42.33,3,3,0,0,1,1.08.93,3.45,3.45,0,0,1,.59,1.4H601a1.92,1.92,0,0,0-.39-.75,2,2,0,0,0-.64-.51,1.77,1.77,0,0,0-.77-.18,1.69,1.69,0,0,0-1,.27,1.72,1.72,0,0,0-.64.74,2.46,2.46,0,0,0-.23,1.12v2.46a2.45,2.45,0,0,0,.23,1.11,1.66,1.66,0,0,0,.64.74,1.69,1.69,0,0,0,1,.27,1.88,1.88,0,0,0,.77-.17,1.92,1.92,0,0,0,1-1.27h1.29a3.45,3.45,0,0,1-.59,1.4,3,3,0,0,1-1.09.93,3.05,3.05,0,0,1-1.41.33A3.15,3.15,0,0,1,597.54,1130.18Z"/><path class="cls-26" d="M603.94,1121.53h1.26v9h-1.26Zm1,5,4-5h1.55l-5.7,6.92Zm1.49-.85,1-.92,3.4,5.71h-1.54Z"/><path class="cls-26" d="M590.18,1154.35a4.38,4.38,0,0,1-1.09-.37,4.63,4.63,0,0,1-.94-.62l.79-1a3.42,3.42,0,0,0,1.13.67,3.85,3.85,0,0,0,1.34.22,2.7,2.7,0,0,0,1.51-.36,1.15,1.15,0,0,0,.53-1h0a1.08,1.08,0,0,0-.24-.74,1.39,1.39,0,0,0-.63-.41,6.42,6.42,0,0,0-1-.24h-.17a10.17,10.17,0,0,1-1.46-.35,2.1,2.1,0,0,1-1-.71,2.36,2.36,0,0,1-.4-1.47h0a2.63,2.63,0,0,1,.37-1.43,2.39,2.39,0,0,1,1.09-.9,4.45,4.45,0,0,1,1.72-.3,4.32,4.32,0,0,1,1,.1,5.24,5.24,0,0,1,.92.31,5.42,5.42,0,0,1,.89.52l-.71,1a4.56,4.56,0,0,0-1-.56,2.79,2.79,0,0,0-1-.19,2.33,2.33,0,0,0-1.42.37,1.2,1.2,0,0,0-.51,1h0a1,1,0,0,0,.26.73,1.47,1.47,0,0,0,.65.39,8.6,8.6,0,0,0,1.09.27h.23a6.75,6.75,0,0,1,1.36.4,2.07,2.07,0,0,1,.91.73,2.31,2.31,0,0,1,.37,1.39v0a2.34,2.34,0,0,1-1.51,2.29,4.77,4.77,0,0,1-1.78.3A6,6,0,0,1,590.18,1154.35Z"/><path class="cls-26" d="M596.37,1145.41h1.26v9h-1.26Zm.85,7.77h2a2.18,2.18,0,0,0,1.54-.51,1.91,1.91,0,0,0,.54-1.45v-2.65a1.91,1.91,0,0,0-.54-1.45,2.18,2.18,0,0,0-1.54-.51h-2v-1.2h2a4.18,4.18,0,0,1,1.85.37,2.63,2.63,0,0,1,1.16,1.1,3.55,3.55,0,0,1,.4,1.74v2.55a3.5,3.5,0,0,1-.4,1.74,2.6,2.6,0,0,1-1.17,1.1,4.17,4.17,0,0,1-1.84.37h-2Z"/><path class="cls-26" d="M606.73,1145.41h1.08l3.31,9h-1.36l-2.49-7.24-2.49,7.24h-1.35Zm-1.78,5.81h4.72v1.19H605Z"/><path class="cls-26" d="M590.18,1177.68a4.83,4.83,0,0,1-1.09-.37,5.09,5.09,0,0,1-.94-.62l.79-1a3.39,3.39,0,0,0,1.13.66,3.85,3.85,0,0,0,1.34.23,2.7,2.7,0,0,0,1.51-.36,1.18,1.18,0,0,0,.53-1h0a1.13,1.13,0,0,0-.24-.75,1.46,1.46,0,0,0-.63-.4,7.61,7.61,0,0,0-1-.25h-.08l-.09,0a9,9,0,0,1-1.46-.35,2,2,0,0,1-1-.71,2.31,2.31,0,0,1-.4-1.46h0a2.59,2.59,0,0,1,.37-1.42,2.39,2.39,0,0,1,1.09-.9,4.44,4.44,0,0,1,1.72-.31,4.33,4.33,0,0,1,1,.11,4.53,4.53,0,0,1,.92.31,5.42,5.42,0,0,1,.89.52l-.71,1a4.2,4.2,0,0,0-1-.56,2.79,2.79,0,0,0-1-.19,2.33,2.33,0,0,0-1.42.37,1.2,1.2,0,0,0-.51,1h0a1,1,0,0,0,.26.73,1.47,1.47,0,0,0,.65.39,8.88,8.88,0,0,0,1.09.26h.09l.07,0h.07a7.54,7.54,0,0,1,1.36.39,2.1,2.1,0,0,1,.91.74,2.29,2.29,0,0,1,.37,1.39h0a2.48,2.48,0,0,1-.39,1.41,2.45,2.45,0,0,1-1.12.89,4.77,4.77,0,0,1-1.78.3A6,6,0,0,1,590.18,1177.68Z"/><path class="cls-26" d="M597.54,1177.39a2.86,2.86,0,0,1-1.09-1.17,3.83,3.83,0,0,1-.39-1.76V1172a3.76,3.76,0,0,1,.39-1.75,2.83,2.83,0,0,1,1.09-1.18,3.15,3.15,0,0,1,1.64-.42,3,3,0,0,1,2.5,1.27,3.45,3.45,0,0,1,.59,1.4H601a1.92,1.92,0,0,0-.39-.75,2,2,0,0,0-.64-.51,1.77,1.77,0,0,0-.77-.18,1.69,1.69,0,0,0-1,.27,1.66,1.66,0,0,0-.64.74,2.45,2.45,0,0,0-.23,1.11v2.47a2.45,2.45,0,0,0,.23,1.11,1.66,1.66,0,0,0,.64.74,1.68,1.68,0,0,0,1,.26,1.87,1.87,0,0,0,.77-.16,1.92,1.92,0,0,0,1-1.27h1.29a3.51,3.51,0,0,1-.59,1.4,3,3,0,0,1-1.09.93,3.05,3.05,0,0,1-1.41.33A3.25,3.25,0,0,1,597.54,1177.39Z"/><path class="cls-26" d="M603.94,1168.74h1.26v9h-1.26Zm.63,7.77h5.13v1.2h-5.13Z"/><path class="cls-26" d="M641,1106.9a2.3,2.3,0,0,1-.92-.8,2.91,2.91,0,0,1-.44-1.26H641a1.39,1.39,0,0,0,.24.63,1.15,1.15,0,0,0,.48.37,1.85,1.85,0,0,0,.69.12,1.34,1.34,0,0,0,1-.33,1.25,1.25,0,0,0,.34-.94v-.27a1.49,1.49,0,0,0-.32-1,1.17,1.17,0,0,0-.93-.37h-.63v-1.19h.63a1.08,1.08,0,0,0,.82-.32,1.29,1.29,0,0,0,.29-.89v-.28a1.11,1.11,0,0,0-.31-.82,1.22,1.22,0,0,0-.87-.29,1.32,1.32,0,0,0-.57.12,1.17,1.17,0,0,0-.43.37,1.81,1.81,0,0,0-.26.63h-1.27a3.37,3.37,0,0,1,.46-1.26,2.38,2.38,0,0,1,.87-.8,2.59,2.59,0,0,1,1.2-.27,2.51,2.51,0,0,1,1.8.61,2.32,2.32,0,0,1,.64,1.73v.14a2,2,0,0,1-.37,1.18,2.09,2.09,0,0,1-1,.73,1.78,1.78,0,0,1,1.14.72,2.37,2.37,0,0,1,.4,1.43v.15a2.79,2.79,0,0,1-.3,1.34,1.94,1.94,0,0,1-.88.84,3.44,3.44,0,0,1-2.72,0Z"/><path class="cls-26" d="M646,1098.11h1.37l2.16,7,2.15-7H653l-2.92,9h-1.2Z"/><path class="cls-26" d="M655.13,1106.9a2.3,2.3,0,0,1-.92-.8,2.91,2.91,0,0,1-.44-1.26h1.28a1.29,1.29,0,0,0,.25.63,1.07,1.07,0,0,0,.47.37,1.85,1.85,0,0,0,.69.12,1.34,1.34,0,0,0,1-.33,1.25,1.25,0,0,0,.35-.94v-.27a1.49,1.49,0,0,0-.33-1,1.17,1.17,0,0,0-.93-.37h-.63v-1.19h.63a1.08,1.08,0,0,0,.82-.32,1.29,1.29,0,0,0,.29-.89v-.28a1.07,1.07,0,0,0-.31-.82,1.21,1.21,0,0,0-.86-.29,1.34,1.34,0,0,0-.58.12,1.17,1.17,0,0,0-.43.37,1.81,1.81,0,0,0-.25.63h-1.28a3.37,3.37,0,0,1,.46-1.26,2.38,2.38,0,0,1,.87-.8,2.6,2.6,0,0,1,1.21-.27,2.5,2.5,0,0,1,1.79.61,2.32,2.32,0,0,1,.64,1.73v.14a2,2,0,0,1-.37,1.18,2.09,2.09,0,0,1-1,.73,1.78,1.78,0,0,1,1.14.72,2.37,2.37,0,0,1,.4,1.43v.15a2.79,2.79,0,0,1-.3,1.34,1.94,1.94,0,0,1-.88.84,3.44,3.44,0,0,1-2.72,0Z"/><path d="M648.87,1079.07v1.57a3.77,3.77,0,0,1-.39,1.76,2.85,2.85,0,0,1-1.1,1.18,3.21,3.21,0,0,1-1.65.42,3.43,3.43,0,0,1-1.67-.39,2.78,2.78,0,0,1-1.12-1.11,3.42,3.42,0,0,1-.39-1.66v-2.65a3.83,3.83,0,0,1,.39-1.76,2.76,2.76,0,0,1,1.1-1.17,3.21,3.21,0,0,1,1.65-.42,3.06,3.06,0,0,1,1.42.33,2.9,2.9,0,0,1,1.09.94,3.61,3.61,0,0,1,.6,1.4h-1.37a1.9,1.9,0,0,0-.38-.78,1.76,1.76,0,0,0-1.36-.66,1.83,1.83,0,0,0-1,.26,1.76,1.76,0,0,0-.65.75,2.59,2.59,0,0,0-.23,1.11v2.65a2.15,2.15,0,0,0,.23,1,1.69,1.69,0,0,0,.67.68,2,2,0,0,0,1,.24,1.82,1.82,0,0,0,1-.25,1.68,1.68,0,0,0,.65-.72,2.65,2.65,0,0,0,.23-1.13v-.39h-1.82v-1.21Z"/><path class="cls-26" d="M626.17,1221.82H611.92v-6.43l14.25-16.94H633v17.3h3.53v6.07H633v5.26h-6.82Zm0-6.07v-8.86l-7.53,8.86Z"/><path class="cls-26" d="M650.5,1130.84h-1.26v-7.6L648,1124v-1.3l1.28-.85h1.26Z"/><path class="cls-26" d="M647.32,1155.09h-1.26v-7.61l-1.28.79V1147l1.28-.85h1.26Z"/><path class="cls-26" d="M654,1147.24l-2.32,7.85h-1.34l2.32-7.78h-2.29v1.29h-1.25v-2.49H654Z"/><path class="cls-26" d="M646.94,1177.93h-1.26v-7.61l-1.27.79v-1.31l1.27-.85h1.26Z"/><path class="cls-26" d="M650.18,1177.71a2.32,2.32,0,0,1-1-.87,2.58,2.58,0,0,1-.33-1.31v-.15a2.59,2.59,0,0,1,.33-1.27,2.33,2.33,0,0,1,.9-.89,2.09,2.09,0,0,1-1-1.79v-.21a2.41,2.41,0,0,1,.32-1.24,2.14,2.14,0,0,1,.88-.83,3,3,0,0,1,1.34-.29,3,3,0,0,1,1.33.29,2.16,2.16,0,0,1,.89.83,2.4,2.4,0,0,1,.31,1.24v.21a2,2,0,0,1-.29,1,2,2,0,0,1-.77.74,2.31,2.31,0,0,1,.91.9,2.43,2.43,0,0,1,.34,1.26v.15a2.48,2.48,0,0,1-.34,1.31,2.29,2.29,0,0,1-1,.87,3.45,3.45,0,0,1-2.86,0Zm2.2-1.07a1.27,1.27,0,0,0,.51-.49,1.34,1.34,0,0,0,.19-.72v-.08a1.35,1.35,0,0,0-.19-.73,1.18,1.18,0,0,0-.51-.48,1.74,1.74,0,0,0-1.54,0,1.15,1.15,0,0,0-.52.48,1.46,1.46,0,0,0-.18.73v.1a1.39,1.39,0,0,0,.18.71,1.15,1.15,0,0,0,.52.48,1.83,1.83,0,0,0,1.54,0Zm-.11-4.05a1,1,0,0,0,.45-.47,1.41,1.41,0,0,0,.16-.69v-.09a1.35,1.35,0,0,0-.16-.67,1,1,0,0,0-.45-.44,1.29,1.29,0,0,0-.66-.16,1.33,1.33,0,0,0-.67.16,1.12,1.12,0,0,0-.45.44,1.37,1.37,0,0,0-.16.68v.09a1.41,1.41,0,0,0,.16.69,1.17,1.17,0,0,0,.45.46,1.33,1.33,0,0,0,.67.16A1.29,1.29,0,0,0,652.27,1172.59Z"/><path d="M263.22,946.7h1.57a3.83,3.83,0,0,1,1.76.39,2.81,2.81,0,0,1,1.18,1.11,3.16,3.16,0,0,1,.41,1.65,3.46,3.46,0,0,1-.39,1.67,2.76,2.76,0,0,1-1.11,1.11A3.39,3.39,0,0,1,265,953h-2.64a3.93,3.93,0,0,1-1.76-.38,2.81,2.81,0,0,1-1.18-1.11,3.26,3.26,0,0,1-.41-1.65,3.12,3.12,0,0,1,.33-1.42,3,3,0,0,1,.93-1.09,3.45,3.45,0,0,1,1.4-.59v1.36a1.92,1.92,0,0,0-.77.38,1.85,1.85,0,0,0-.5.62,1.89,1.89,0,0,0,.1,1.72,1.8,1.8,0,0,0,.74.65,2.6,2.6,0,0,0,1.12.22H265a2.08,2.08,0,0,0,1-.23,1.73,1.73,0,0,0,.68-.66,2,2,0,0,0,.24-1,2,2,0,0,0-.25-1,1.72,1.72,0,0,0-.73-.65,2.62,2.62,0,0,0-1.13-.23h-.39v1.83h-1.2Z"/><path class="cls-26" d="M266.51,932.39a2.23,2.23,0,0,1-.79.93,2.91,2.91,0,0,1-1.26.44v-1.29a1.19,1.19,0,0,0,.63-.24,1.07,1.07,0,0,0,.37-.47,1.85,1.85,0,0,0,.12-.69,1.34,1.34,0,0,0-.33-1,1.27,1.27,0,0,0-.94-.35H264a1.49,1.49,0,0,0-1,.33,1.17,1.17,0,0,0-.37.93v.63h-1.2V931a1.06,1.06,0,0,0-.31-.82,1.29,1.29,0,0,0-.89-.29H260a1.06,1.06,0,0,0-.82.31,1.21,1.21,0,0,0-.29.86,1.34,1.34,0,0,0,.12.58,1.08,1.08,0,0,0,.37.43,1.81,1.81,0,0,0,.63.25v1.28a3.21,3.21,0,0,1-1.26-.47,2.2,2.2,0,0,1-.8-.86,2.6,2.6,0,0,1-.27-1.21,2.5,2.5,0,0,1,.61-1.79,2.26,2.26,0,0,1,1.72-.64h.15a1.88,1.88,0,0,1,1.17.37,2,2,0,0,1,.73,1,1.86,1.86,0,0,1,.72-1.14,2.43,2.43,0,0,1,1.44-.41h.14a2.66,2.66,0,0,1,1.34.31,2,2,0,0,1,.85.88,3.07,3.07,0,0,1,.29,1.39A2.91,2.91,0,0,1,266.51,932.39Z"/><path class="cls-26" d="M257.72,927.44v-1.37l7-2.15-7-2.15V920.4l9,2.92v1.2Z"/><path class="cls-26" d="M266.51,918.29a2.23,2.23,0,0,1-.79.93,2.91,2.91,0,0,1-1.26.44v-1.29a1.19,1.19,0,0,0,.63-.24,1.07,1.07,0,0,0,.37-.47,1.85,1.85,0,0,0,.12-.69,1.34,1.34,0,0,0-.33-1,1.27,1.27,0,0,0-.94-.35H264a1.49,1.49,0,0,0-1,.33,1.17,1.17,0,0,0-.37.93v.63h-1.2v-.63a1.06,1.06,0,0,0-.31-.82,1.29,1.29,0,0,0-.89-.29H260a1.06,1.06,0,0,0-.82.31,1.21,1.21,0,0,0-.29.86,1.34,1.34,0,0,0,.12.58,1.08,1.08,0,0,0,.37.43,1.81,1.81,0,0,0,.63.25v1.28a3.21,3.21,0,0,1-1.26-.47,2.2,2.2,0,0,1-.8-.86,2.6,2.6,0,0,1-.27-1.21,2.5,2.5,0,0,1,.61-1.79,2.26,2.26,0,0,1,1.72-.64h.15a1.88,1.88,0,0,1,1.17.37,2,2,0,0,1,.73,1,1.86,1.86,0,0,1,.72-1.14,2.43,2.43,0,0,1,1.44-.41h.14a2.66,2.66,0,0,1,1.34.31,2,2,0,0,1,.85.87,3.15,3.15,0,0,1,.29,1.4A2.91,2.91,0,0,1,266.51,918.29Z"/><path d="M515.24,939.41h1.56a3.85,3.85,0,0,1,1.77.39,2.76,2.76,0,0,1,1.17,1.1,3.16,3.16,0,0,1,.42,1.65,3.46,3.46,0,0,1-.39,1.67,2.7,2.7,0,0,1-1.11,1.11,3.32,3.32,0,0,1-1.66.4h-2.65a3.83,3.83,0,0,1-1.76-.39,2.89,2.89,0,0,1-1.17-1.1,3.21,3.21,0,0,1-.42-1.65,3,3,0,0,1,1.27-2.52,3.45,3.45,0,0,1,1.4-.59v1.37a2,2,0,0,0-.78.37,1.86,1.86,0,0,0-.49.63,1.71,1.71,0,0,0-.17.74,1.75,1.75,0,0,0,.27,1,1.68,1.68,0,0,0,.74.65,2.59,2.59,0,0,0,1.11.23H517a2.08,2.08,0,0,0,1-.24,1.58,1.58,0,0,0,.67-.66,2,2,0,0,0,.24-1,1.86,1.86,0,0,0-.25-1,1.61,1.61,0,0,0-.72-.64,2.51,2.51,0,0,0-1.13-.23h-.39v1.82h-1.2Z"/><path class="cls-26" d="M518.53,925.1a2.23,2.23,0,0,1-.8.92,2.82,2.82,0,0,1-1.25.44v-1.28a1.48,1.48,0,0,0,.63-.24,1.24,1.24,0,0,0,.37-.48,1.85,1.85,0,0,0,.12-.69,1.36,1.36,0,0,0-.34-1,1.23,1.23,0,0,0-.94-.34h-.27a1.56,1.56,0,0,0-1,.32,1.2,1.2,0,0,0-.36.93v.63h-1.2v-.63a1.08,1.08,0,0,0-.32-.82,1.26,1.26,0,0,0-.88-.29H512a1.08,1.08,0,0,0-.82.31,1.17,1.17,0,0,0-.29.87,1.32,1.32,0,0,0,.12.57,1.08,1.08,0,0,0,.37.43,1.68,1.68,0,0,0,.62.26v1.27a3.25,3.25,0,0,1-1.25-.46,2.29,2.29,0,0,1-.8-.87,2.59,2.59,0,0,1-.27-1.2,2.47,2.47,0,0,1,.61-1.8,2.29,2.29,0,0,1,1.72-.63h.15a1.94,1.94,0,0,1,1.17.36,2.07,2.07,0,0,1,.73,1,1.86,1.86,0,0,1,.72-1.14,2.39,2.39,0,0,1,1.43-.4h.15a2.79,2.79,0,0,1,1.34.3,2,2,0,0,1,.85.88,3.39,3.39,0,0,1,0,2.72Z"/><path class="cls-26" d="M509.74,920.15v-1.37l7-2.16-7-2.15V913.1l9,2.93v1.19Z"/><path class="cls-26" d="M518.53,911a2.23,2.23,0,0,1-.8.92,2.82,2.82,0,0,1-1.25.44v-1.28a1.48,1.48,0,0,0,.63-.24,1.24,1.24,0,0,0,.37-.48,1.85,1.85,0,0,0,.12-.69,1.35,1.35,0,0,0-.34-1,1.23,1.23,0,0,0-.94-.34h-.27a1.51,1.51,0,0,0-1,.32,1.2,1.2,0,0,0-.36.93v.63h-1.2v-.63a1.08,1.08,0,0,0-.32-.82,1.26,1.26,0,0,0-.88-.29H512a1.08,1.08,0,0,0-.82.31,1.17,1.17,0,0,0-.29.87,1.32,1.32,0,0,0,.12.57,1.08,1.08,0,0,0,.37.43,1.68,1.68,0,0,0,.62.26v1.27a3.25,3.25,0,0,1-1.25-.46,2.29,2.29,0,0,1-.8-.87,2.59,2.59,0,0,1-.27-1.2,2.47,2.47,0,0,1,.61-1.8,2.29,2.29,0,0,1,1.72-.64h.15a1.94,1.94,0,0,1,1.17.37,2.07,2.07,0,0,1,.73,1,1.86,1.86,0,0,1,.72-1.14,2.39,2.39,0,0,1,1.43-.4h.15a2.79,2.79,0,0,1,1.34.3,2,2,0,0,1,.85.88,3.39,3.39,0,0,1,0,2.72Z"/><path class="cls-26" d="M518.39,894.18a2.77,2.77,0,0,1-1.17,1.1,3.93,3.93,0,0,1-1.76.38H513a3.93,3.93,0,0,1-1.76-.38,2.85,2.85,0,0,1-1.18-1.1,3.25,3.25,0,0,1-.41-1.64,3.12,3.12,0,0,1,.33-1.42,3,3,0,0,1,.93-1.08,3.51,3.51,0,0,1,1.4-.59v1.29a2.07,2.07,0,0,0-.75.39,2,2,0,0,0-.51.65,1.83,1.83,0,0,0-.17.76,1.68,1.68,0,0,0,.26,1,1.87,1.87,0,0,0,.74.65,2.63,2.63,0,0,0,1.12.22h2.46a2.59,2.59,0,0,0,1.11-.22,1.83,1.83,0,0,0,.75-.65,1.77,1.77,0,0,0,.26-1,1.91,1.91,0,0,0-.17-.77,2,2,0,0,0-.49-.64,2,2,0,0,0-.78-.39v-1.29a3.45,3.45,0,0,1,1.4.59,3.16,3.16,0,0,1,.94,1.09,3.05,3.05,0,0,1,.33,1.41A3.15,3.15,0,0,1,518.39,894.18Z"/><path class="cls-26" d="M518.68,886.44a4.49,4.49,0,0,1-1,2l-1-.78a3.52,3.52,0,0,0,.67-1.13,3.88,3.88,0,0,0,.22-1.34,2.7,2.7,0,0,0-.36-1.51,1.16,1.16,0,0,0-1-.54h0a1,1,0,0,0-.74.25,1.5,1.5,0,0,0-.41.62,6.42,6.42,0,0,0-.24,1,.06.06,0,0,0,0,0v0l0,.09a10.36,10.36,0,0,1-.35,1.47,2.1,2.1,0,0,1-.71,1,2.38,2.38,0,0,1-1.47.4h0a2.63,2.63,0,0,1-1.43-.38,2.31,2.31,0,0,1-.89-1.09,4.76,4.76,0,0,1-.21-2.66,5.24,5.24,0,0,1,.31-.92,5.57,5.57,0,0,1,.53-.9l1,.72a4,4,0,0,0-.57,1,3.06,3.06,0,0,0-.19,1,2.43,2.43,0,0,0,.37,1.43,1.2,1.2,0,0,0,1,.51h0a1,1,0,0,0,.72-.26,1.63,1.63,0,0,0,.4-.66,10.54,10.54,0,0,0,.26-1.09.06.06,0,0,1,0,0,.09.09,0,0,1,0,0v-.07s0,0,0-.06a6.56,6.56,0,0,1,.4-1.36,2.1,2.1,0,0,1,.73-.92,2.4,2.4,0,0,1,1.4-.36h0a2.45,2.45,0,0,1,1.4.38,2.42,2.42,0,0,1,.89,1.13,4.73,4.73,0,0,1,.31,1.78A6.1,6.1,0,0,1,518.68,886.44Z"/><path class="cls-26" d="M517.52,832.19v-2a2.16,2.16,0,0,0-.52-1.54,1.88,1.88,0,0,0-1.45-.55h-2.64a1.9,1.9,0,0,0-1.46.55,2.15,2.15,0,0,0-.51,1.54v2h-1.2v-2a4.13,4.13,0,0,1,.38-1.84,2.6,2.6,0,0,1,1.1-1.17,3.5,3.5,0,0,1,1.74-.4h2.54a3.5,3.5,0,0,1,1.74.4,2.65,2.65,0,0,1,1.1,1.17,4.18,4.18,0,0,1,.37,1.85v2Zm-7.78.85v-1.26h9V833Z"/><path class="cls-26" d="M518.39,823.69a2.77,2.77,0,0,1-1.17,1.1,3.8,3.8,0,0,1-1.76.39H513a3.8,3.8,0,0,1-1.76-.39,2.85,2.85,0,0,1-1.18-1.1,3.22,3.22,0,0,1-.41-1.64,3.12,3.12,0,0,1,.33-1.42,3,3,0,0,1,.93-1.08,3.66,3.66,0,0,1,1.4-.59v1.29a2.07,2.07,0,0,0-.75.39,2,2,0,0,0-.51.65,1.87,1.87,0,0,0-.17.76,1.74,1.74,0,0,0,.26,1,1.85,1.85,0,0,0,.74.64,2.63,2.63,0,0,0,1.12.23h2.46a2.59,2.59,0,0,0,1.11-.23,1.68,1.68,0,0,0,1-1.61,1.83,1.83,0,0,0-.17-.76,1.93,1.93,0,0,0-.49-.65,2,2,0,0,0-.78-.39V819a3.59,3.59,0,0,1,1.4.59,3.16,3.16,0,0,1,.94,1.09,3.05,3.05,0,0,1,.33,1.41A3.13,3.13,0,0,1,518.39,823.69Z"/><path class="cls-26" d="M517.55,790.84v-2.43a2.18,2.18,0,0,0-.37-1.39,1.25,1.25,0,0,0-1-.44h0a1.7,1.7,0,0,0-.78.16,1.07,1.07,0,0,0-.51.5,2,2,0,0,0-.17.87v2.73h-1.14v-2.73a1.56,1.56,0,0,0-.32-1.06,1.29,1.29,0,0,0-1-.35,1.25,1.25,0,0,0-1,.39,1.84,1.84,0,0,0-.33,1.19v2.56h-1.17v-2.79a3.19,3.19,0,0,1,.3-1.46,1.87,1.87,0,0,1,.84-.87,2.62,2.62,0,0,1,1.29-.29,2.12,2.12,0,0,1,.87.18,1.72,1.72,0,0,1,.69.54,2.15,2.15,0,0,1,.39.91,2,2,0,0,1,.38-.94,2.11,2.11,0,0,1,.76-.6,2.38,2.38,0,0,1,1-.21h0a2.53,2.53,0,0,1,1.28.32,2.13,2.13,0,0,1,.86.92,3.06,3.06,0,0,1,.3,1.39v2.9Zm-7.81.75v-1.26h9v1.26Z"/><path class="cls-26" d="M509.74,783.43v-1.26h9v1.26Zm7.78-.63v-5.14h1.19v5.14Z"/><path class="cls-26" d="M513.72,867v-3.06a1.25,1.25,0,0,0-.17-.64,1.19,1.19,0,0,0-.49-.42,1.7,1.7,0,0,0-.73-.16,1.75,1.75,0,0,0-.74.16,1.19,1.19,0,0,0-.49.42,1.22,1.22,0,0,0-.17.64V867h-1.2v-3a2.89,2.89,0,0,1,.32-1.37,2.3,2.3,0,0,1,.92-.91,2.71,2.71,0,0,1,1.36-.32,2.76,2.76,0,0,1,1.36.32,2.37,2.37,0,0,1,.91.92,2.85,2.85,0,0,1,.32,1.36v3Zm-4,.55v-1.26h9v1.26Zm4.91-3-.28-1.26,4.35-2.29v1.49Z"/><path class="cls-26" d="M518.68,858.07a4.49,4.49,0,0,1-1,2l-1-.78a3.52,3.52,0,0,0,.67-1.13,3.88,3.88,0,0,0,.22-1.34,2.7,2.7,0,0,0-.36-1.51,1.16,1.16,0,0,0-1-.54h0a1,1,0,0,0-.74.25,1.47,1.47,0,0,0-.41.63,6.26,6.26,0,0,0-.24,1,.08.08,0,0,0,0,0v0l0,.1a10.17,10.17,0,0,1-.35,1.46,2.1,2.1,0,0,1-.71,1,2.38,2.38,0,0,1-1.47.4h0a2.71,2.71,0,0,1-1.43-.37,2.36,2.36,0,0,1-.89-1.09,4.79,4.79,0,0,1-.21-2.67,5.24,5.24,0,0,1,.31-.92,5.49,5.49,0,0,1,.53-.89l1,.71a4,4,0,0,0-.57,1,3.07,3.07,0,0,0-.19,1,2.42,2.42,0,0,0,.37,1.42,1.2,1.2,0,0,0,1,.51h0a1,1,0,0,0,.72-.26,1.59,1.59,0,0,0,.4-.65c.08-.27.17-.63.26-1.09a.07.07,0,0,1,0,0,.11.11,0,0,1,0,0v-.06s0,0,0-.07a6.75,6.75,0,0,1,.4-1.36,2.1,2.1,0,0,1,.73-.92,2.4,2.4,0,0,1,1.4-.36h0a2.45,2.45,0,0,1,1.4.39,2.39,2.39,0,0,1,.89,1.12,4.73,4.73,0,0,1,.31,1.78A6.1,6.1,0,0,1,518.68,858.07Z"/><path class="cls-26" d="M509.74,853v-6.33h1.2V853Zm.73-2.54V849.2h8.24v1.25Z"/><path class="cls-26" d="M484.38,954.24a4.58,4.58,0,0,1-.37,1.08,4.5,4.5,0,0,1-.62.94l-1-.78a3.49,3.49,0,0,0,.66-1.13,3.89,3.89,0,0,0,.23-1.34,2.7,2.7,0,0,0-.36-1.51,1.16,1.16,0,0,0-1-.54h0a1.08,1.08,0,0,0-.75.25,1.46,1.46,0,0,0-.4.63,7.41,7.41,0,0,0-.25,1v0s0,0,0,0l0,.1a9.25,9.25,0,0,1-.35,1.46,2,2,0,0,1-.71,1,2.37,2.37,0,0,1-1.46.4h0a2.59,2.59,0,0,1-1.42-.38,2.36,2.36,0,0,1-.9-1.08,4.49,4.49,0,0,1-.31-1.73,4.24,4.24,0,0,1,.11-.94,4.53,4.53,0,0,1,.31-.92,5,5,0,0,1,.52-.89l1,.71a4,4,0,0,0-.56,1,2.83,2.83,0,0,0-.19,1,2.36,2.36,0,0,0,.37,1.43,1.2,1.2,0,0,0,1,.51h0a1,1,0,0,0,.73-.26,1.51,1.51,0,0,0,.39-.66,8.64,8.64,0,0,0,.26-1.08.11.11,0,0,0,0-.05.07.07,0,0,0,0,0l0-.06a.15.15,0,0,1,0-.07,7.3,7.3,0,0,1,.39-1.36,2.2,2.2,0,0,1,.74-.92,2.36,2.36,0,0,1,1.39-.36h0a2.48,2.48,0,0,1,1.41.39,2.4,2.4,0,0,1,.89,1.12,4.73,4.73,0,0,1,.3,1.78A6.11,6.11,0,0,1,484.38,954.24Z"/><path class="cls-26" d="M484.41,946v1.25h-7.6l.78,1.28h-1.3l-.85-1.28V946Z"/><path class="cls-26" d="M484.38,926.11a4.92,4.92,0,0,1-.37,1.08,4.78,4.78,0,0,1-.62.94l-1-.78a3.6,3.6,0,0,0,.66-1.13,3.93,3.93,0,0,0,.23-1.34,2.67,2.67,0,0,0-.36-1.51,1.16,1.16,0,0,0-1-.54h0a1.13,1.13,0,0,0-.75.24,1.46,1.46,0,0,0-.4.63,7.61,7.61,0,0,0-.25,1v0a.06.06,0,0,1,0,0l0,.09a9.41,9.41,0,0,1-.35,1.47,2.05,2.05,0,0,1-.71,1,2.31,2.31,0,0,1-1.46.4h0a2.59,2.59,0,0,1-1.42-.37,2.39,2.39,0,0,1-.9-1.09,4.44,4.44,0,0,1-.31-1.72,4.33,4.33,0,0,1,.11-.95,4.53,4.53,0,0,1,.31-.92,5.42,5.42,0,0,1,.52-.89l1,.72a4,4,0,0,0-.56,1,2.83,2.83,0,0,0-.19,1,2.38,2.38,0,0,0,.37,1.43,1.2,1.2,0,0,0,1,.51h0a1,1,0,0,0,.73-.27,1.47,1.47,0,0,0,.39-.65,8.44,8.44,0,0,0,.26-1.09.08.08,0,0,0,0,0,.11.11,0,0,0,0,0l0-.07a.17.17,0,0,1,0-.07,7.79,7.79,0,0,1,.39-1.36,2.17,2.17,0,0,1,.74-.91,2.29,2.29,0,0,1,1.39-.37h0a2.33,2.33,0,0,1,2.3,1.52,4.7,4.7,0,0,1,.3,1.78A6.11,6.11,0,0,1,484.38,926.11Z"/><path class="cls-26" d="M484.09,918.72a2.76,2.76,0,0,1-1.16,1.11,3.72,3.72,0,0,1-1.74.39h-2.54a3.72,3.72,0,0,1-1.74-.39,2.88,2.88,0,0,1-1.16-1.11,3.53,3.53,0,0,1,0-3.3,2.88,2.88,0,0,1,1.16-1.11,3.72,3.72,0,0,1,1.74-.39h2.54a3.72,3.72,0,0,1,1.74.39,2.76,2.76,0,0,1,1.16,1.11,3.53,3.53,0,0,1,0,3.3ZM483,916.09a1.66,1.66,0,0,0-.71-.65,2.24,2.24,0,0,0-1.06-.23h-2.63a2.31,2.31,0,0,0-1.07.23,1.72,1.72,0,0,0-.71.65,2,2,0,0,0,0,2,1.72,1.72,0,0,0,.71.65,2.31,2.31,0,0,0,1.07.23h2.63a2.24,2.24,0,0,0,1.06-.23,1.66,1.66,0,0,0,.71-.65,2,2,0,0,0,0-2Z"/><path class="cls-26" d="M484.09,898.14a2.89,2.89,0,0,1-1.17,1.1,4,4,0,0,1-1.76.38h-2.47a3.89,3.89,0,0,1-1.75-.38,2.85,2.85,0,0,1-1.18-1.1,3.15,3.15,0,0,1-.42-1.64,3.09,3.09,0,0,1,.33-1.42,3,3,0,0,1,.94-1.08,3.45,3.45,0,0,1,1.4-.59v1.29a2.07,2.07,0,0,0-.75.39,1.89,1.89,0,0,0-.51.65,1.77,1.77,0,0,0,.09,1.72,1.74,1.74,0,0,0,.74.65,2.59,2.59,0,0,0,1.11.22h2.47a2.59,2.59,0,0,0,1.11-.22,1.74,1.74,0,0,0,.74-.65,1.68,1.68,0,0,0,.26-1,1.87,1.87,0,0,0-.16-.77,1.8,1.8,0,0,0-.5-.64,1.93,1.93,0,0,0-.77-.39v-1.29a3.51,3.51,0,0,1,1.4.59,3.05,3.05,0,0,1,1.26,2.5A3.25,3.25,0,0,1,484.09,898.14Z"/><path class="cls-26" d="M480.47,890.76l-5-4v-1.55l6.92,5.7Zm-5,1v-1.26h9v1.26Zm4.18-2.48-.92-1,5.71-3.4v1.54Z"/><path class="cls-26" d="M735.25,946.74a4.58,4.58,0,0,1-.37,1.08,4.5,4.5,0,0,1-.62.94l-1-.78a3.71,3.71,0,0,0,.67-1.13,4.14,4.14,0,0,0,.22-1.34,2.7,2.7,0,0,0-.36-1.51,1.16,1.16,0,0,0-1-.54h0a1.08,1.08,0,0,0-.75.25,1.46,1.46,0,0,0-.4.63,7.41,7.41,0,0,0-.25,1v0s0,0,0,0l0,.1A9.25,9.25,0,0,1,731,947a2,2,0,0,1-.71,1,2.37,2.37,0,0,1-1.46.4h0a2.59,2.59,0,0,1-1.42-.38,2.36,2.36,0,0,1-.9-1.08,4.49,4.49,0,0,1-.31-1.73,4.24,4.24,0,0,1,.11-.94,4.53,4.53,0,0,1,.31-.92,5,5,0,0,1,.52-.89l1,.71a4,4,0,0,0-.56,1,2.83,2.83,0,0,0-.19,1,2.36,2.36,0,0,0,.37,1.43,1.2,1.2,0,0,0,1,.51h0a1,1,0,0,0,.73-.26,1.51,1.51,0,0,0,.39-.66,8.64,8.64,0,0,0,.26-1.08.11.11,0,0,0,0-.05.07.07,0,0,0,0,0l0-.06a.15.15,0,0,1,0-.07,7.3,7.3,0,0,1,.39-1.36,2.2,2.2,0,0,1,.74-.92,2.36,2.36,0,0,1,1.39-.36h0a2.48,2.48,0,0,1,1.41.39,2.4,2.4,0,0,1,.89,1.12,4.73,4.73,0,0,1,.3,1.78A6.11,6.11,0,0,1,735.25,946.74Z"/><path class="cls-26" d="M735.28,938.45v1.25h-7.6l.78,1.28h-1.3l-.85-1.28v-1.25Z"/><path class="cls-26" d="M735,890.64a2.89,2.89,0,0,1-1.17,1.1,4,4,0,0,1-1.76.38h-2.47a3.89,3.89,0,0,1-1.75-.38,2.85,2.85,0,0,1-1.18-1.1,3.15,3.15,0,0,1-.42-1.64,3.09,3.09,0,0,1,.33-1.42,3,3,0,0,1,.94-1.08,3.45,3.45,0,0,1,1.4-.59v1.29a2.07,2.07,0,0,0-.75.39,1.89,1.89,0,0,0-.51.65,1.77,1.77,0,0,0,.09,1.72,1.74,1.74,0,0,0,.74.65,2.59,2.59,0,0,0,1.11.22H732a2.59,2.59,0,0,0,1.11-.22,1.74,1.74,0,0,0,.74-.65,1.68,1.68,0,0,0,.26-1,1.87,1.87,0,0,0-.16-.77,1.8,1.8,0,0,0-.5-.64,1.93,1.93,0,0,0-.77-.39v-1.29a3.51,3.51,0,0,1,1.4.59,3.05,3.05,0,0,1,1.26,2.5A3.25,3.25,0,0,1,735,890.64Z"/><path class="cls-26" d="M731.34,883.26l-5-4v-1.55l6.92,5.7Zm-5,1V883h9v1.26Zm4.18-2.48-.92-1,5.71-3.4v1.54Z"/><path class="cls-26" d="M266.7,901.9v1.26h-7.61l.79,1.27h-1.3l-.86-1.27V901.9Z"/><path class="cls-26" d="M266.38,898.36a2.82,2.82,0,0,1-1.16,1.11,3.72,3.72,0,0,1-1.74.39h-2.54a3.72,3.72,0,0,1-1.74-.39,2.82,2.82,0,0,1-1.16-1.11,3.55,3.55,0,0,1,0-3.31,2.86,2.86,0,0,1,1.16-1.1,3.72,3.72,0,0,1,1.74-.4h2.54a3.72,3.72,0,0,1,1.74.4,2.86,2.86,0,0,1,1.16,1.1,3.55,3.55,0,0,1,0,3.31Zm-1.08-2.63a1.66,1.66,0,0,0-.71-.65,2.28,2.28,0,0,0-1.07-.24H260.9a2.28,2.28,0,0,0-1.07.24,1.66,1.66,0,0,0-.71.65,2,2,0,0,0-.25,1,2,2,0,0,0,.25,1,1.66,1.66,0,0,0,.71.65,2.41,2.41,0,0,0,1.07.23h2.62a2.41,2.41,0,0,0,1.07-.23,1.66,1.66,0,0,0,.71-.65,1.88,1.88,0,0,0,.25-1A1.86,1.86,0,0,0,265.3,895.73Z"/><path class="cls-26" d="M266.7,889.54v1.26h-7.61l.79,1.27h-1.3l-.86-1.27v-1.26Z"/><path class="cls-26" d="M266.38,875.11a2.83,2.83,0,0,1-1.18,1.09,3.77,3.77,0,0,1-1.76.39H261a3.83,3.83,0,0,1-1.76-.39,2.86,2.86,0,0,1-1.17-1.09,3.15,3.15,0,0,1-.42-1.64,3.06,3.06,0,0,1,.33-1.42,3,3,0,0,1,.94-1.08,3.45,3.45,0,0,1,1.4-.59v1.29a1.8,1.8,0,0,0-.75.39,2,2,0,0,0-.51.64,1.74,1.74,0,0,0-.18.77,1.79,1.79,0,0,0,.26,1,1.74,1.74,0,0,0,.75.64,2.45,2.45,0,0,0,1.11.23h2.46a2.45,2.45,0,0,0,1.11-.23,1.69,1.69,0,0,0,.75-.64,1.79,1.79,0,0,0,.26-1,1.73,1.73,0,0,0-.17-.77,1.69,1.69,0,0,0-.49-.64,1.8,1.8,0,0,0-.78-.39v-1.29a3.45,3.45,0,0,1,1.4.59,2.9,2.9,0,0,1,.94,1.09,3.05,3.05,0,0,1,.33,1.41A3.25,3.25,0,0,1,266.38,875.11Z"/><path class="cls-26" d="M266.67,867.37a5.5,5.5,0,0,1-.37,1.08,5.27,5.27,0,0,1-.62.94l-1-.78a3.8,3.8,0,0,0,.66-1.13,3.92,3.92,0,0,0,.22-1.34,2.73,2.73,0,0,0-.36-1.52,1.17,1.17,0,0,0-1-.53h0a1.11,1.11,0,0,0-.75.24,1.47,1.47,0,0,0-.41.63,7.8,7.8,0,0,0-.24,1s0,0,0,0v0l0,.09a9.41,9.41,0,0,1-.35,1.47,2.05,2.05,0,0,1-.71,1,2.31,2.31,0,0,1-1.46.4h0a2.57,2.57,0,0,1-1.42-.37,2.33,2.33,0,0,1-.9-1.09,4.26,4.26,0,0,1-.31-1.72,4.33,4.33,0,0,1,.11-.95,4.53,4.53,0,0,1,.31-.92,5.42,5.42,0,0,1,.52-.89l1,.72a4.36,4.36,0,0,0-.57,1,3,3,0,0,0-.18,1,2.46,2.46,0,0,0,.36,1.43,1.21,1.21,0,0,0,1,.51h0a1,1,0,0,0,.73-.27,1.69,1.69,0,0,0,.39-.65,10.54,10.54,0,0,0,.26-1.09.09.09,0,0,0,0-.05v-.11a.17.17,0,0,0,0-.07,8.68,8.68,0,0,1,.4-1.36,2.1,2.1,0,0,1,.74-.91,2.29,2.29,0,0,1,1.39-.37h0a2.33,2.33,0,0,1,2.29,1.52,4.5,4.5,0,0,1,.31,1.78A6.11,6.11,0,0,1,266.67,867.37Z"/><path class="cls-26" d="M265.53,842.2v-2.43a2.18,2.18,0,0,0-.36-1.39,1.29,1.29,0,0,0-1-.44h0a1.73,1.73,0,0,0-.78.16,1,1,0,0,0-.5.49,1.87,1.87,0,0,0-.18.87v2.74h-1.13v-2.74a1.5,1.5,0,0,0-.33-1.05,1.51,1.51,0,0,0-2,0,1.84,1.84,0,0,0-.33,1.19v2.56h-1.17v-2.79A3.19,3.19,0,0,1,258,838a2,2,0,0,1,.84-.87,2.63,2.63,0,0,1,1.3-.29,2.27,2.27,0,0,1,.86.17,1.83,1.83,0,0,1,.69.55,2.15,2.15,0,0,1,.39.91,2,2,0,0,1,.38-.94,2.06,2.06,0,0,1,.77-.6,2.3,2.3,0,0,1,1-.21h0a2.57,2.57,0,0,1,1.29.32,2.11,2.11,0,0,1,.85.92,2.94,2.94,0,0,1,.31,1.39v2.9Zm-7.81.75v-1.26h9V843Z"/><path class="cls-26" d="M730,797.43a1.17,1.17,0,0,1-.73-.25L702.44,777a1.2,1.2,0,0,1,.73-2.16h14.32a1.2,1.2,0,0,1,0,2.4H706.75l23.94,18.07a1.2,1.2,0,0,1-.72,2.16Z"/><path class="cls-26" d="M717.49,797.43H703.17a1.2,1.2,0,0,1-.73-2.16L729.24,775a1.2,1.2,0,0,1,1.45,1.92L706.75,795h10.74a1.2,1.2,0,0,1,0,2.4Z"/><path class="cls-26" d="M767.78,1087.53a1.41,1.41,0,0,0,.49.37l11.16,7.28.32.2a.72.72,0,0,1,.41.74c0,.83,0,1.65,0,2.47,0,.39-.09.43-.41.25-.13-.07-.24-.16-.36-.24l-12.53-8.33c-.1-.07-.21-.13-.31-.21a.51.51,0,0,0-.72,0c-.61.47-1.24.91-1.86,1.37l-6.77,5-.14.13c.18.15.37.09.55.09h8.81c1.36,0,1.15-.09,1.17,1.19V1099c0,.49-.06.53-.57.55H752.72c-1,0-.9-.06-.9-.92,0-.45,0-.9,0-1.35a1,1,0,0,1,.49-1l6.35-4.61,5.3-3.86.08-.06c.43-.33.43-.39,0-.69l-9.22-6.68c-.87-.63-1.74-1.27-2.62-1.89a.81.81,0,0,1-.39-.76c0-.56,0-1.11,0-1.67s.06-.51.54-.53H766.7c.88,0,.88,0,.88.89,0,.52,0,1,0,1.56s-.06.45-.47.48h-9.46a1.63,1.63,0,0,0-.58,0c.05.2.21.26.34.35l8.34,6.06c.41.31.42.31.89,0l8.42-5.58,4.49-2.95c.16-.1.32-.32.51-.2s.1.36.1.55c0,.73,0,1.47,0,2.2a.88.88,0,0,1-.48.87l-7.74,5-3.88,2.5C768,1087.32,767.82,1087.36,767.78,1087.53Z"/><path class="cls-26" d="M761.38,971.63a1.88,1.88,0,0,0,.53.48c3.17,2.3,6.34,4.62,9.53,6.9a1.23,1.23,0,0,1,.61,1.2,5.57,5.57,0,0,0,0,1.08,1,1,0,0,1-.51,1c-1.69,1.21-3.36,2.44-5,3.67l-4.51,3.3-.49.38a.89.89,0,0,0,.6.1h9c.92,0,.92,0,.92.92,0,.5,0,1,0,1.5s-.08.47-.47.49H757.05c-.84,0-.84,0-.84-.83,0-.5,0-1,0-1.51a.9.9,0,0,1,.44-.85c1.67-1.2,3.33-2.42,5-3.63l6.82-5c.46-.33.46-.35,0-.67l-4-2.93c-2.57-1.86-5.14-3.73-7.71-5.57a1.07,1.07,0,0,1-.52-1c0-.5,0-1,0-1.51s.08-.46.47-.49a3.09,3.09,0,0,1,.43,0h14c.89,0,.89,0,.89.89v1.24c0,.78,0,.79-.77.79h-9.89Z"/><path class="cls-26" d="M772,1005.4v5a10.41,10.41,0,0,1-.21,2.08,4.46,4.46,0,0,1-.6,1.54,3.49,3.49,0,0,1-3.08,1.55c-.68,0-1.36,0-2,0h-5.69a6,6,0,0,1-1.12-.1,3.24,3.24,0,0,1-2.55-2,7.09,7.09,0,0,1-.52-2.84q0-5.24,0-10.47a6.79,6.79,0,0,1,.5-2.78,3.21,3.21,0,0,1,2.71-2.08,10.16,10.16,0,0,1,1.23-.08h7a8.47,8.47,0,0,1,1.23.08,3.24,3.24,0,0,1,2.52,1.79,7,7,0,0,1,.62,3.14C772.05,1002,772,1003.68,772,1005.4Zm-2.5,0v-5a6.19,6.19,0,0,0,0-.75,1.28,1.28,0,0,0-1.42-1.28h-8a1.19,1.19,0,0,0-1.28,1,2.67,2.67,0,0,0-.09.79c0,3.49,0,7,0,10.48a3,3,0,0,0,.11.84,1.17,1.17,0,0,0,1.21.94c.49,0,1,0,1.45,0,2.21,0,4.41,0,6.61,0a1.28,1.28,0,0,0,1.42-1.27,6.35,6.35,0,0,0,0-.76Z"/><path class="cls-26" d="M772,958v7.25c0,.85,0,.85-.82.85H756.93c-.7,0-.72,0-.72-.73V951.94c0-.52,0-1,0-1.55s.06-.53.53-.54,1,0,1.5,0,.43.07.46.44c0,.18,0,.36,0,.54v11.39c0,.74,0,.74.74.74h2.36c.62,0,.63,0,.63-.64V951.42c0-.17,0-.35,0-.53s.14-.39.41-.39c.55,0,1.11,0,1.66,0,.33,0,.39.08.42.43,0,.17,0,.35,0,.53v11c0,.49,0,.53.52.54h3.6c.42,0,.46-.05.48-.45V950.69c0-.84,0-.84.82-.84.42,0,.83,0,1.24,0s.4.07.43.41c0,.16,0,.32,0,.48Z"/><path class="cls-26" d="M772,1025c0,.42,0,.83,0,1.24a1.49,1.49,0,0,1-.45,1.16c-.74.8-1.46,1.62-2.19,2.43-1.07,1.2-2.15,2.4-3.22,3.61-.39.44-.4.38,0,.82q1.62,1.83,3.26,3.64c.77.85,1.53,1.7,2.31,2.55a1,1,0,0,1,.29.72c0,1,0,2,0,3a1.23,1.23,0,0,1,0,.27q-.06.35-.33.09c-.07-.07-.14-.16-.21-.24l-7-8-.08-.08c-.3-.32-.33-.33-.62,0l-2.37,2.71-4.73,5.42s0,0,0,0-.17.27-.33.22-.13-.23-.14-.37V1044c0-.84,0-1.68,0-2.53a1.41,1.41,0,0,1,.41-1.06c.74-.8,1.46-1.62,2.19-2.43l3.32-3.67c.33-.37.33-.42,0-.8-1.8-2-3.6-4-5.41-6a1.67,1.67,0,0,1-.5-1.3c0-.79,0-1.58,0-2.36v-.38c0-.1,0-.23.12-.28s.19.07.26.14l1.37,1.58q2.89,3.33,5.78,6.65c.27.31.3.31.58,0l5.46-6.14,1.82-2.05.11-.12c.18-.15.28-.11.32.13s0,.25,0,.37Z"/><path class="cls-26" d="M772,1046.66c0,.36,0,.72,0,1.08a.85.85,0,0,1-.48.87c-1.48.93-2.95,1.89-4.43,2.84L760,1056a.6.6,0,0,0-.13.09c-.26.19-.27.24,0,.42s.42.27.63.41q5.49,3.58,11,7.15a1.14,1.14,0,0,1,.6,1.13c0,.63,0,1.26,0,1.88,0,.23.11.52-.13.64s-.39-.13-.56-.24l-6.08-4c-2.82-1.87-5.63-3.75-8.46-5.61a1.06,1.06,0,0,1-.59-1.09,5.24,5.24,0,0,0,0-1,.87.87,0,0,1,.48-.87l5.38-3.55,9.28-6.12c.17-.12.34-.35.56-.24s.12.38.12.59C772.05,1046,772,1046.31,772,1046.66Z"/><path class="cls-26" d="M759.6,921.33c0,.13.13.17.22.23l11.72,7.6a1,1,0,0,1,.51.92c0,.75,0,1.5,0,2.25,0,.5-.11.55-.53.28l-4.25-2.83c-3.48-2.31-7-4.62-10.44-6.92a1.08,1.08,0,0,1-.6-1.13,4,4,0,0,0,0-.92.88.88,0,0,1,.47-.88c1.81-1.17,3.59-2.36,5.39-3.55l9.33-6.15c.15-.1.31-.32.51-.22s.12.35.12.54c0,.72,0,1.43,0,2.15a1,1,0,0,1-.53,1c-2.11,1.33-4.2,2.67-6.3,4L760,921A.84.84,0,0,0,759.6,921.33Z"/><path class="cls-26" d="M756.22,938.79V930c0-.83,0-.85.83-.85.41,0,.82,0,1.23,0s.4.09.43.42c0,.16,0,.33,0,.49,0,2.06,0,4.12,0,6.18,0,.14,0,.28,0,.42,0,.38.07.42.45.44h12c.89,0,.89,0,.89.9,0,.57,0,1.15,0,1.72s-.07.49-.5.51h-12c-.78,0-.78,0-.78.8,0,2.13,0,4.26,0,6.4,0,.12,0,.25,0,.37,0,.56,0,.6-.62.61H756.8c-.52,0-.57-.06-.58-.6v-9Z"/><path class="cls-26" d="M764.13,1021.4h-7.52c-.23,0-.38-.11-.38-.35,0-.81,0-1.61,0-2.42a.33.33,0,0,1,.33-.35l.53,0h14.07c.88,0,.88,0,.88.91v1.55c0,.64,0,.68-.67.68h-7.24Z"/><rect class="cls-26" x="594.93" y="1015.54" width="49.85" height="10.76"/><polygon points="621.47 1024.65 619.74 1024.65 616.47 1021.24 615.61 1020.33 612.05 1016.61 613.77 1016.61 616.51 1019.47 617.38 1020.38 621.47 1024.65"/><polygon points="621.31 1016.61 617.38 1020.38 616.47 1021.24 612.91 1024.65 611.1 1024.65 615.61 1020.33 616.51 1019.47 619.5 1016.61 621.31 1016.61"/><polygon points="609.71 1024.65 608.17 1024.65 603.63 1018.31 599.1 1024.65 597.55 1024.65 603.31 1016.61 603.96 1016.61 609.71 1024.65"/><polygon points="624.39 1020.98 624.39 1023.4 631.49 1023.4 631.49 1024.65 623.14 1024.65 623.14 1019.73 630.24 1019.73 630.24 1017.86 623.14 1017.86 623.14 1016.61 631.49 1016.61 631.49 1020.98 624.39 1020.98"/><polygon points="634.65 1020.98 634.65 1023.4 641.75 1023.4 641.75 1024.65 633.4 1024.65 633.4 1019.73 640.5 1019.73 640.5 1017.86 633.4 1017.86 633.4 1016.61 641.75 1016.61 641.75 1020.98 634.65 1020.98"/><rect x="602.75" y="1021.76" width="1.77" height="1.25"/></g></svg>