<svg xmlns="http://www.w3.org/2000/svg" viewBox="0 0 470.13 470.13"><defs><style>.cls-1{fill:#1d1d1b;}.cls-2{fill:#3d3d3d;}.cls-3{fill:#2c2c2c;}.cls-4{fill:#1e1f1e;}.cls-5{fill:#97621d;}.cls-6{fill:#874416;}.cls-7{fill:#fbcf6c;}.cls-8{fill:#d2d2cd;}.cls-9{fill:#a3a2a2;}.cls-10{fill:#fdfefb;}.cls-11,.cls-12{fill:none;stroke:#1d1d1b;stroke-miterlimit:10;}.cls-11{stroke-width:0.48px;}.cls-12{stroke-width:0.48px;}.cls-13{fill:#feffff;}</style></defs><g id="Layer_2" data-name="Layer 2"><path class="cls-1" d="M391.32,132.12a7.14,7.14,0,0,1,7.14,7.13V320.89a7.14,7.14,0,0,1-7.14,7.14H80.48a7.14,7.14,0,0,1-7.14-7.14V139.25a7.14,7.14,0,0,1,7.14-7.13H391.32m0-.75H80.48a7.9,7.9,0,0,0-7.89,7.88V320.89a7.9,7.9,0,0,0,7.89,7.89H391.32a7.9,7.9,0,0,0,7.89-7.89V139.25a7.9,7.9,0,0,0-7.89-7.88Z"/><rect class="cls-2" x="73.34" y="132.12" width="325.11" height="195.91" rx="7.13"/><path class="cls-3" d="M391.32,132.12H80.48a7.14,7.14,0,0,0-7.14,7.13V320.89A7.14,7.14,0,0,0,80.48,328H391.32a7.14,7.14,0,0,0,7.14-7.14V139.25A7.14,7.14,0,0,0,391.32,132.12ZM384,320.81H89.55V135.14H384Z"/><path class="cls-4" d="M89.55,135.14V320.81H384V135.14ZM373.06,306.49H102.39v-163H373.06Z"/><rect class="cls-3" x="102.39" y="143.54" width="270.67" height="162.95"/><polyline class="cls-5" points="195.94 320.81 195.94 325.27 225.18 325.27 225.18 327.47 277.07 327.47 277.07 325.59 280.32 325.59 280.32 320.81"/><rect class="cls-6" x="253.55" y="320.81" width="3.44" height="6.66"/><path class="cls-7" d="M150.73,320.81v3.27a1.06,1.06,0,0,0,1.06,1.06h10a1.07,1.07,0,0,0,1.07-1.06v-3.27"/><path class="cls-8" d="M89.52,216.38v3.47H87.93a1.6,1.6,0,0,1-1.6-1.6V218a1.59,1.59,0,0,1,1.6-1.59Z"/><path class="cls-9" d="M89.52,217v2.26H88.27a.66.66,0,0,1-.66-.65v-1a.66.66,0,0,1,.66-.66Z"/><path class="cls-8" d="M89.52,240.3v3.47H87.93a1.6,1.6,0,0,1-1.6-1.6v-.28a1.59,1.59,0,0,1,1.6-1.59Z"/><path class="cls-9" d="M89.52,240.9v2.26H88.27a.66.66,0,0,1-.66-.65v-.95a.66.66,0,0,1,.66-.66Z"/><circle class="cls-8" cx="80.56" cy="139.34" r="4.2"/><circle class="cls-8" cx="80.56" cy="139.34" r="7.22"/><circle class="cls-10" cx="80.56" cy="139.34" r="4.2"/><circle class="cls-11" cx="80.56" cy="139.34" r="7.22"/><circle class="cls-8" cx="80.56" cy="320.81" r="4.2"/><circle class="cls-8" cx="80.56" cy="320.81" r="7.22"/><circle class="cls-10" cx="80.56" cy="320.81" r="4.2"/><circle class="cls-11" cx="80.56" cy="320.81" r="7.22"/><circle class="cls-8" cx="391.23" cy="139.34" r="4.2"/><circle class="cls-8" cx="391.23" cy="139.34" r="7.22"/><circle class="cls-10" cx="391.23" cy="139.34" r="4.2"/><circle class="cls-11" cx="391.23" cy="139.34" r="7.22"/><circle class="cls-8" cx="391.23" cy="320.81" r="4.2"/><circle class="cls-8" cx="391.23" cy="320.81" r="7.22"/><circle class="cls-10" cx="391.23" cy="320.81" r="4.2"/><circle class="cls-11" cx="391.23" cy="320.81" r="7.22"/><rect class="cls-12" x="89.55" y="135.14" width="294.47" height="185.67"/><rect class="cls-12" x="102.39" y="143.54" width="270.66" height="162.95"/><polyline class="cls-12" points="195.94 320.81 195.94 325.27 225.18 325.27 225.18 327.47 277.07 327.47 277.07 325.59 280.32 325.59 280.32 320.81"/><line class="cls-12" x1="253.55" y1="320.81" x2="253.55" y2="327.47"/><line class="cls-12" x1="256.99" y1="320.81" x2="256.99" y2="327.47"/><path class="cls-12" d="M150.73,320.81v3.27a1.06,1.06,0,0,0,1.06,1.06h10a1.07,1.07,0,0,0,1.07-1.06v-3.27"/><rect class="cls-8" x="76.49" y="240.3" width="6.43" height="3.47" rx="1.59"/><rect class="cls-9" x="77.78" y="240.91" width="3.82" height="2.26" rx="0.66"/><rect class="cls-8" x="76.49" y="216.38" width="6.43" height="3.47" rx="1.59"/><rect class="cls-9" x="77.78" y="216.99" width="3.82" height="2.26" rx="0.66"/><circle class="cls-8" cx="78.37" cy="232.61" r="1.88"/><circle class="cls-8" cx="78.37" cy="225.66" r="1.88"/><circle class="cls-8" cx="85.79" cy="232.61" r="1.88"/><circle class="cls-8" cx="85.79" cy="225.66" r="1.88"/><circle class="cls-4" cx="393.19" cy="284.91" r="1.26"/><path class="cls-13" d="M300.45,182.6v-7H287.51v-4.45l11.05-17.79h8.35v17.12h3.51v5.12h-3.51v7Zm0-12.08v-6.47c0-1.75.09-3.55.22-5.44h-.18c-.94,1.89-1.71,3.6-2.69,5.44l-3.91,6.38v.09Z"/><path class="cls-13" d="M313.65,179a4,4,0,0,1,4.05-4.17,4.16,4.16,0,0,1-.05,8.31A3.94,3.94,0,0,1,313.65,179Z"/><path class="cls-13" d="M326.19,175.91a16.07,16.07,0,0,0,6.78,1.8c3.55,0,5.35-1.71,5.35-3.91,0-2.88-2.88-4.18-5.89-4.18h-2.78v-4.9h2.65c2.29,0,5.21-.9,5.21-3.37,0-1.75-1.44-3-4.31-3a13.31,13.31,0,0,0-6.11,1.75l-1.39-4.94a18.3,18.3,0,0,1,9-2.2c6.25,0,9.71,3.28,9.71,7.28,0,3.1-1.75,5.52-5.35,6.78v.09c3.51.63,6.34,3.28,6.34,7.1,0,5.16-4.54,8.94-11.95,8.94A17.19,17.19,0,0,1,324.8,181Z"/><path class="cls-13" d="M358.67,151.83A59.56,59.56,0,0,1,353.28,164l-4.13.36a72.32,72.32,0,0,0,3.14-12.13Zm8.76,0A57,57,0,0,1,362,164l-4.13.36a72.32,72.32,0,0,0,3.14-12.13Z"/></g></svg>