<?xml version="1.0" encoding="UTF-8" standalone="no"?>
<svg
   viewBox="0 0 1213.735 574.40997"
   version="1.1"
   id="svg270"
   sodipodi:docname="buyer benmeshtastic 3-01.svg"
   inkscape:version="1.4 (e7c3feb1, 2024-10-09)"
   width="1213.735"
   height="574.40997"
   xmlns:inkscape="http://www.inkscape.org/namespaces/inkscape"
   xmlns:sodipodi="http://sodipodi.sourceforge.net/DTD/sodipodi-0.dtd"
   xmlns="http://www.w3.org/2000/svg"
   xmlns:svg="http://www.w3.org/2000/svg">
  <sodipodi:namedview
     id="namedview270"
     pagecolor="#ffffff"
     bordercolor="#000000"
     borderopacity="0.25"
     inkscape:showpageshadow="2"
     inkscape:pageopacity="0.0"
     inkscape:pagecheckerboard="0"
     inkscape:deskcolor="#d1d1d1"
     inkscape:zoom="0.4253364"
     inkscape:cx="7.0532408"
     inkscape:cy="659.47801"
     inkscape:window-width="1728"
     inkscape:window-height="1056"
     inkscape:window-x="0"
     inkscape:window-y="33"
     inkscape:window-maximized="1"
     inkscape:current-layer="Layer_3" />
  <defs
     id="defs1">
    <style
       id="style1">.cls-1{fill:#353535;}.cls-19,.cls-2,.cls-20,.cls-21,.cls-3,.cls-4,.cls-5,.cls-6{fill:none;}.cls-2,.cls-3,.cls-4,.cls-5,.cls-6{stroke:#fff;stroke-miterlimit:10;}.cls-2{stroke-width:1.8px;}.cls-3{stroke-width:1.61px;}.cls-4{stroke-width:1.08px;}.cls-5{stroke-width:2.43px;}.cls-6{stroke-width:2.37px;}.cls-7{fill:#262525;}.cls-8{fill:#211e3c;}.cls-9{fill:#b3b5b5;}.cls-10{fill:#e1b95d;}.cls-11{fill:#9a968e;}.cls-12{fill:#82807c;}.cls-13{fill:#b2afa2;}.cls-14{fill:#974415;}.cls-15{fill:#bf9748;}.cls-16{fill:#a57f3b;}.cls-17{fill:#979999;}.cls-18{fill:#8b8c8c;}.cls-19,.cls-20,.cls-21{stroke:#1d1d1b;stroke-linecap:round;stroke-linejoin:round;}.cls-19{stroke-width:1.78px;}.cls-20{stroke-width:1.83px;}.cls-21{stroke-width:1.81px;}.cls-22{fill:#fff;}.cls-23{fill:#e0d70e;}.cls-24{fill:#33beed;}</style>
  </defs>
  <g
     id="Layer_3"
     data-name="Layer 3"
     transform="translate(-124.685,-378.61)">
    <path
       class="cls-1"
       d="M 1318.29,379.5 H 191.52 L 145.2,425.83 V 546 l 16.12,16.11 h 133 V 767.89 H 158 l -12.8,12.85 v 129.91 l 41.48,41.48 h 1136.45 l 14.4,-14.4 v -539 z m -11,553.12 a 8.89,8.89 0 1 1 8.76,-8.88 8.82,8.82 0 0 1 -8.73,8.88 z m 0,-535.25 a 8.89,8.89 0 1 1 -8.76,8.89 8.82,8.82 0 0 1 8.79,-8.89 z m -57.15,535.25 a 8.89,8.89 0 1 1 8.76,-8.88 8.82,8.82 0 0 1 -8.73,8.88 z m 0,-535.25 a 8.89,8.89 0 1 1 -8.76,8.89 8.82,8.82 0 0 1 8.79,-8.89 z M 1193,932.62 a 8.89,8.89 0 1 1 8.76,-8.88 8.82,8.82 0 0 1 -8.76,8.88 z m 0,-535.25 a 8.89,8.89 0 1 1 -8.76,8.89 8.82,8.82 0 0 1 8.76,-8.89 z m -57.15,535.25 a 8.89,8.89 0 1 1 8.76,-8.88 8.82,8.82 0 0 1 -8.75,8.88 z m 0,-535.25 a 8.89,8.89 0 1 1 -8.76,8.89 8.82,8.82 0 0 1 8.77,-8.89 z m -57.15,535.25 a 8.89,8.89 0 1 1 8.77,-8.88 8.81,8.81 0 0 1 -8.77,8.88 z m 0,-535.25 a 8.89,8.89 0 1 1 -8.75,8.89 8.83,8.83 0 0 1 8.75,-8.89 z m -57.16,535.25 a 8.89,8.89 0 1 1 8.77,-8.88 8.81,8.81 0 0 1 -8.77,8.88 z m 0,-535.25 a 8.89,8.89 0 1 1 -8.75,8.89 8.83,8.83 0 0 1 8.75,-8.89 z m -57.15,535.25 a 8.89,8.89 0 1 1 8.77,-8.88 8.81,8.81 0 0 1 -8.77,8.88 z m 0,-535.25 a 8.89,8.89 0 1 1 -8.75,8.89 8.83,8.83 0 0 1 8.75,-8.89 z m -57.15,535.25 a 8.89,8.89 0 1 1 8.76,-8.88 8.82,8.82 0 0 1 -8.76,8.88 z m 0,-535.25 a 8.89,8.89 0 1 1 -8.76,8.89 8.82,8.82 0 0 1 8.76,-8.89 z m -57.16,535.25 a 8.89,8.89 0 1 1 8.76,-8.88 8.82,8.82 0 0 1 -8.76,8.88 z m 0,-535.25 a 8.89,8.89 0 1 1 -8.76,8.89 8.82,8.82 0 0 1 8.76,-8.89 z m -57.15,535.25 a 8.89,8.89 0 1 1 8.76,-8.88 8.82,8.82 0 0 1 -8.76,8.88 z m 0,-535.25 a 8.89,8.89 0 1 1 -8.76,8.89 8.82,8.82 0 0 1 8.76,-8.89 z m -57.16,535.25 a 8.89,8.89 0 1 1 8.76,-8.88 8.82,8.82 0 0 1 -8.76,8.88 z m 0,-535.25 a 8.89,8.89 0 1 1 -8.76,8.89 8.82,8.82 0 0 1 8.76,-8.89 z m -57.16,535.25 a 8.89,8.89 0 1 1 8.77,-8.88 8.81,8.81 0 0 1 -8.77,8.88 z m 0,-535.25 a 8.89,8.89 0 1 1 -8.75,8.89 8.83,8.83 0 0 1 8.75,-8.89 z m -57.15,535.25 a 8.89,8.89 0 1 1 8.77,-8.88 8.81,8.81 0 0 1 -8.77,8.88 z m 0,-535.25 a 8.89,8.89 0 1 1 -8.75,8.89 8.83,8.83 0 0 1 8.75,-8.89 z M 564.3,932.62 a 8.89,8.89 0 1 1 8.77,-8.88 8.81,8.81 0 0 1 -8.77,8.88 z m 0,-535.25 a 8.89,8.89 0 1 1 -8.75,8.89 8.83,8.83 0 0 1 8.75,-8.89 z m -57.15,535.25 a 8.89,8.89 0 1 1 8.77,-8.88 8.81,8.81 0 0 1 -8.77,8.88 z m 0,-535.25 a 8.89,8.89 0 1 1 -8.75,8.89 8.83,8.83 0 0 1 8.75,-8.89 z M 450,932.62 a 8.89,8.89 0 1 1 8.76,-8.88 8.82,8.82 0 0 1 -8.76,8.88 z m 0,-535.25 a 8.89,8.89 0 1 1 -8.76,8.89 8.82,8.82 0 0 1 8.76,-8.89 z m -57.16,535.25 a 8.89,8.89 0 1 1 8.76,-8.88 8.82,8.82 0 0 1 -8.76,8.88 z m 0,-535.25 a 8.89,8.89 0 1 1 -8.76,8.89 8.82,8.82 0 0 1 8.76,-8.89 z m -57.15,535.25 a 8.89,8.89 0 1 1 8.76,-8.88 8.82,8.82 0 0 1 -8.76,8.88 z m 0,-535.25 a 8.89,8.89 0 1 1 -8.76,8.89 8.82,8.82 0 0 1 8.76,-8.89 z m -57.16,17.78 a 8.89,8.89 0 1 1 8.76,-8.89 8.83,8.83 0 0 1 -8.76,8.89 z m -56.26,0 a 8.89,8.89 0 1 1 8.76,-8.89 8.82,8.82 0 0 1 -8.76,8.89 z m 56.26,517.47 a 8.89,8.89 0 1 1 8.76,-8.88 8.82,8.82 0 0 1 -8.76,8.88 z m -56.26,0 a 8.89,8.89 0 1 1 8.76,-8.88 8.82,8.82 0 0 1 -8.76,8.88 z"
       id="path1" />
    <rect
       class="cls-2"
       x="329.45999"
       y="791.94"
       width="37.18"
       height="17.32"
       id="rect1" />
    <polyline
       class="cls-2"
       points="333.91 840.72 302.92 840.72 302.92 812.76 333.91 812.76"
       id="polyline1" />
    <polyline
       class="cls-2"
       points="344.45 812.76 372.36 812.76 372.36 840.72 344.45 840.72"
       id="polyline2" />
    <polyline
       class="cls-3"
       points="414.17 870.21 387.93 870.21 387.93 843.68 414.17 843.68"
       id="polyline3" />
    <polyline
       class="cls-3"
       points="423.1 843.68 446.74 843.68 446.74 870.21 423.1 870.21"
       id="polyline4" />
    <polyline
       class="cls-4"
       points="420.47 890.73 402.79 890.73 402.79 872.86 420.47 872.86"
       id="polyline5" />
    <polyline
       class="cls-4"
       points="426.49 872.86 442.41 872.86 442.41 890.73 426.49 890.73"
       id="polyline6" />
    <polyline
       class="cls-5"
       points="437.8 715.96 437.8 704.39 455.67 704.39 455.67 715.96"
       id="polyline7" />
    <polyline
       class="cls-5"
       points="455.67 733.43 455.67 744.02 437.8 744.02 437.8 733.43"
       id="polyline8" />
    <polyline
       class="cls-5"
       points="442.6 576.78 454.16 576.78 454.16 594.65 442.6 594.65"
       id="polyline9" />
    <polyline
       class="cls-5"
       points="425.12 594.65 414.54 594.65 414.54 576.78 425.12 576.78"
       id="polyline10" />
    <polyline
       class="cls-5"
       points="333.86 549.85 345.42 549.85 345.42 567.73 333.86 567.73"
       id="polyline11" />
    <polyline
       class="cls-5"
       points="316.38 567.73 305.8 567.73 305.8 549.85 316.38 549.85"
       id="polyline12" />
    <polyline
       class="cls-5"
       points="328.38 436.61 339.94 436.61 339.94 454.49 328.38 454.49"
       id="polyline13" />
    <polyline
       class="cls-5"
       points="310.9 454.49 300.32 454.49 300.32 436.61 310.9 436.61"
       id="polyline14" />
    <polyline
       class="cls-5"
       points="442.3 436.61 453.86 436.61 453.86 454.49 442.3 454.49"
       id="polyline15" />
    <polyline
       class="cls-5"
       points="424.82 454.49 414.24 454.49 414.24 436.61 424.82 436.61"
       id="polyline16" />
    <polyline
       class="cls-5"
       points="323.65 501.78 323.65 519.01 297.02 519.01 297.02 501.78"
       id="polyline17" />
    <polyline
       class="cls-5"
       points="297.02 475.74 297.02 459.97 323.65 459.97 323.65 475.74"
       id="polyline18" />
    <polyline
       class="cls-5"
       points="414.09 484.38 396.86 484.38 396.86 457.75 414.09 457.75"
       id="polyline19" />
    <polyline
       class="cls-5"
       points="440.13 457.75 455.9 457.75 455.9 484.38 440.13 484.38"
       id="polyline20" />
    <polyline
       class="cls-6"
       points="355.85 597.45 372.88 597.45 372.88 623.76 355.85 623.76"
       id="polyline21" />
    <polyline
       class="cls-6"
       points="330.11 623.76 314.52 623.76 314.52 597.45 330.11 597.45"
       id="polyline22" />
    <polyline
       class="cls-4"
       points="366.01 892.32 348.33 892.32 348.33 874.45 366.01 874.45"
       id="polyline23" />
    <polyline
       class="cls-4"
       points="372.03 874.45 387.95 874.45 387.95 892.32 372.03 892.32"
       id="polyline24" />
    <polyline
       class="cls-5"
       points="354.38 746.08 315.42 746.08 315.42 705.42 354.38 705.42"
       id="polyline25" />
    <polyline
       class="cls-5"
       points="367.64 705.42 402.73 705.42 402.73 746.08 367.64 746.08"
       id="polyline26" />
    <polyline
       class="cls-2"
       points="333.91 871.24 302.92 871.24 302.92 843.68 333.91 843.68"
       id="polyline27" />
    <polyline
       class="cls-2"
       points="344.45 843.68 372.36 843.68 372.36 871.24 344.45 871.24"
       id="polyline28" />
    <rect
       class="cls-6"
       x="321.53"
       y="629.13"
       width="36.439999"
       height="72.650002"
       id="rect28" />
    <path
       class="cls-5"
       d="M 321.53,645.37 H 358"
       id="path28" />
    <path
       class="cls-5"
       d="M 321.53,664.17 H 358"
       id="path29" />
    <path
       class="cls-5"
       d="M 321.53,683 H 358"
       id="path30" />
    <path
       class="cls-5"
       d="M 321.53,701.77 H 358"
       id="path31" />
    <rect
       class="cls-5"
       x="392.89001"
       y="529.01001"
       width="17.68"
       height="38.419998"
       id="rect31" />
    <polyline
       class="cls-5"
       points="1337.53 876.01 478.66 876.01 478.66 454.37 1337.53 454.37"
       id="polyline31" />
    <line
       class="cls-5"
       x1="1222.5601"
       y1="454.37"
       x2="1222.5601"
       y2="876.01001"
       id="line31" />
    <circle
       class="cls-1"
       cx="1174.5"
       cy="826.76001"
       r="39.419998"
       id="circle32" />
    <path
       class="cls-7"
       d="m 1199.75,823.16 v 7.2 a 2.32,2.32 0 0 1 -2.32,2.32 h -14.69 a 2.32,2.32 0 0 0 -2.32,2.33 v 14.68 a 2.33,2.33 0 0 1 -2.33,2.33 h -7.18 a 2.33,2.33 0 0 1 -2.33,-2.33 V 835 a 2.32,2.32 0 0 0 -2.32,-2.33 h -14.69 a 2.32,2.32 0 0 1 -2.32,-2.32 v -7.2 a 2.32,2.32 0 0 1 2.32,-2.32 h 14.69 a 2.32,2.32 0 0 0 2.32,-2.33 v -14.67 a 2.33,2.33 0 0 1 2.33,-2.33 h 7.18 a 2.33,2.33 0 0 1 2.33,2.33 v 14.68 a 2.32,2.32 0 0 0 2.32,2.33 h 14.69 a 2.32,2.32 0 0 1 2.32,2.32 z"
       id="path32" />
    <circle
       class="cls-1"
       cx="1174.5"
       cy="513.57001"
       r="39.419998"
       id="circle33" />
    <path
       class="cls-7"
       d="m 1199.75,510 v 7.19 a 2.32,2.32 0 0 1 -2.32,2.33 h -14.69 a 2.32,2.32 0 0 0 -2.32,2.32 v 14.66 a 2.32,2.32 0 0 1 -2.33,2.32 h -7.18 a 2.32,2.32 0 0 1 -2.33,-2.32 v -14.69 a 2.32,2.32 0 0 0 -2.32,-2.32 h -14.69 a 2.32,2.32 0 0 1 -2.32,-2.33 V 510 a 2.33,2.33 0 0 1 2.32,-2.33 h 14.69 a 2.32,2.32 0 0 0 2.32,-2.32 v -14.72 a 2.32,2.32 0 0 1 2.33,-2.32 h 7.18 a 2.32,2.32 0 0 1 2.33,2.32 v 14.69 a 2.32,2.32 0 0 0 2.32,2.32 h 14.69 a 2.33,2.33 0 0 1 2.32,2.36 z"
       id="path33" />
    <circle
       class="cls-1"
       cx="526.59003"
       cy="826.76001"
       r="39.419998"
       id="circle34" />
    <path
       class="cls-7"
       d="m 551.84,823.16 v 7.2 a 2.32,2.32 0 0 1 -2.32,2.32 h -14.69 a 2.32,2.32 0 0 0 -2.32,2.33 v 14.68 a 2.33,2.33 0 0 1 -2.33,2.33 H 523 a 2.32,2.32 0 0 1 -2.32,-2.33 V 835 a 2.32,2.32 0 0 0 -2.32,-2.33 h -14.7 a 2.32,2.32 0 0 1 -2.32,-2.32 v -7.2 a 2.32,2.32 0 0 1 2.32,-2.32 h 14.69 a 2.32,2.32 0 0 0 2.32,-2.33 V 803.83 A 2.33,2.33 0 0 1 523,801.5 h 7.19 a 2.33,2.33 0 0 1 2.33,2.33 v 14.68 a 2.32,2.32 0 0 0 2.32,2.33 h 14.69 a 2.32,2.32 0 0 1 2.31,2.32 z"
       id="path34" />
    <circle
       class="cls-1"
       cx="526.59003"
       cy="513.57001"
       r="39.419998"
       id="circle35" />
    <path
       class="cls-7"
       d="m 551.84,510 v 7.19 a 2.32,2.32 0 0 1 -2.32,2.33 h -14.69 a 2.32,2.32 0 0 0 -2.32,2.32 v 14.66 a 2.32,2.32 0 0 1 -2.33,2.32 H 523 a 2.32,2.32 0 0 1 -2.32,-2.32 v -14.69 a 2.32,2.32 0 0 0 -2.32,-2.32 h -14.7 a 2.32,2.32 0 0 1 -2.32,-2.33 V 510 a 2.33,2.33 0 0 1 2.32,-2.33 h 14.69 a 2.32,2.32 0 0 0 2.32,-2.32 v -14.72 a 2.32,2.32 0 0 1 2.32,-2.32 h 7.19 a 2.32,2.32 0 0 1 2.33,2.32 v 14.69 a 2.32,2.32 0 0 0 2.32,2.32 h 14.69 a 2.33,2.33 0 0 1 2.32,2.36 z"
       id="path35" />
    <rect
       class="cls-8"
       x="601.59998"
       y="507.76999"
       width="493.04999"
       height="260.12"
       id="rect35" />
    <rect
       class="cls-9"
       x="125.6"
       y="562.09998"
       width="168.75"
       height="205.66"
       id="rect36" />
    <path
       class="cls-9"
       d="m 465.73,543 h 3.83 a 1.91,1.91 0 0 1 1.91,1.91 V 557 h -7.65 v -12.13 a 1.91,1.91 0 0 1 1.91,-1.87 z"
       transform="rotate(180,467.64,549.955)"
       id="path36" />
    <path
       class="cls-9"
       d="m 421.72,543 h 3.83 a 1.91,1.91 0 0 1 1.91,1.91 V 557 h -7.65 v -12.13 a 1.91,1.91 0 0 1 1.91,-1.87 z"
       transform="rotate(180,423.635,549.955)"
       id="path37" />
    <path
       class="cls-9"
       d="m 443.81,543 h 3.83 a 1.91,1.91 0 0 1 1.91,1.91 V 557 h -7.65 v -12.13 a 1.91,1.91 0 0 1 1.91,-1.87 z"
       transform="rotate(180,445.725,549.955)"
       id="path38" />
    <path
       class="cls-9"
       d="m 421.72,496.61 h 3.83 a 1.91,1.91 0 0 1 1.91,1.91 v 12.08 h -7.65 v -12.08 a 1.91,1.91 0 0 1 1.91,-1.91 z"
       id="path39" />
    <path
       class="cls-9"
       d="m 465.73,496.61 h 3.83 a 1.91,1.91 0 0 1 1.91,1.91 v 12.08 h -7.65 v -12.08 a 1.91,1.91 0 0 1 1.91,-1.91 z"
       id="path40" />
    <path
       class="cls-9"
       d="m 400.82,767.55 h 3.83 a 1.91,1.91 0 0 1 1.91,1.91 v 12.08 h -7.66 v -12.08 a 1.91,1.91 0 0 1 1.92,-1.91 z"
       id="path41" />
    <path
       class="cls-9"
       d="m 444.82,767.55 h 3.83 a 1.91,1.91 0 0 1 1.91,1.91 v 12.08 h -7.65 v -12.08 a 1.91,1.91 0 0 1 1.91,-1.91 z"
       id="path42" />
    <path
       class="cls-9"
       d="m 422.73,767.55 h 3.83 a 1.91,1.91 0 0 1 1.91,1.91 v 12.08 h -7.65 v -12.08 a 1.91,1.91 0 0 1 1.91,-1.91 z"
       id="path43" />
    <path
       class="cls-9"
       d="m 444.82,813.9 h 3.83 a 1.91,1.91 0 0 1 1.91,1.91 v 12.09 h -7.65 v -12.09 a 1.91,1.91 0 0 1 1.91,-1.91 z"
       transform="rotate(180,446.735,820.895)"
       id="path44" />
    <path
       class="cls-9"
       d="m 400.82,813.9 h 3.83 a 1.91,1.91 0 0 1 1.91,1.91 v 12.09 h -7.66 v -12.09 a 1.91,1.91 0 0 1 1.92,-1.91 z"
       transform="rotate(180,402.73,820.895)"
       id="path45" />
    <path
       class="cls-9"
       d="m 375.85,515 h 3.83 a 1.91,1.91 0 0 1 1.91,1.91 V 529 h -7.65 v -12.08 a 1.91,1.91 0 0 1 1.91,-1.92 z"
       transform="rotate(180,377.765,522.01)"
       id="path46" />
    <path
       class="cls-9"
       d="m 331.84,515 h 3.83 a 1.91,1.91 0 0 1 1.91,1.91 V 529 h -7.65 v -12.08 a 1.91,1.91 0 0 1 1.91,-1.92 z"
       transform="rotate(180,333.755,522.01)"
       id="path47" />
    <path
       class="cls-9"
       d="m 353.94,515 h 3.83 a 1.91,1.91 0 0 1 1.91,1.91 V 529 H 352 v -12.08 a 1.91,1.91 0 0 1 1.94,-1.92 z"
       transform="rotate(180,355.85,522.01)"
       id="path48" />
    <path
       class="cls-10"
       d="m 1307.32,907.56 a 16.18,16.18 0 1 0 16,16.18 16.06,16.06 0 0 0 -16,-16.18 z m 0,25.06 a 8.89,8.89 0 1 1 8.76,-8.88 8.82,8.82 0 0 1 -8.76,8.88 z"
       id="path49" />
    <path
       class="cls-10"
       d="m 1250.17,907.56 a 16.18,16.18 0 1 0 15.95,16.18 16.07,16.07 0 0 0 -15.95,-16.18 z m 0,25.06 a 8.89,8.89 0 1 1 8.76,-8.88 8.82,8.82 0 0 1 -8.76,8.88 z"
       id="path50" />
    <path
       class="cls-10"
       d="m 1193,907.56 a 16.18,16.18 0 1 0 16,16.18 16.06,16.06 0 0 0 -16,-16.18 z m 0,25.06 a 8.89,8.89 0 1 1 8.76,-8.88 8.82,8.82 0 0 1 -8.76,8.88 z"
       id="path51" />
    <path
       class="cls-10"
       d="m 1135.86,907.56 a 16.18,16.18 0 1 0 16,16.18 16.07,16.07 0 0 0 -16,-16.18 z m 0,25.06 a 8.89,8.89 0 1 1 8.76,-8.88 8.82,8.82 0 0 1 -8.76,8.88 z"
       id="path52" />
    <path
       class="cls-10"
       d="m 1078.7,907.56 a 16.18,16.18 0 1 0 16,16.18 16.07,16.07 0 0 0 -16,-16.18 z m 0,25.06 a 8.89,8.89 0 1 1 8.77,-8.88 8.81,8.81 0 0 1 -8.77,8.88 z"
       id="path53" />
    <path
       class="cls-10"
       d="m 1021.54,907.56 a 16.18,16.18 0 1 0 16,16.18 16.06,16.06 0 0 0 -16,-16.18 z m 0,25.06 a 8.89,8.89 0 1 1 8.77,-8.88 8.81,8.81 0 0 1 -8.77,8.88 z"
       id="path54" />
    <path
       class="cls-10"
       d="m 964.39,907.56 a 16.18,16.18 0 1 0 16,16.18 16.06,16.06 0 0 0 -16,-16.18 z m 0,25.06 a 8.89,8.89 0 1 1 8.77,-8.88 8.81,8.81 0 0 1 -8.77,8.88 z"
       id="path55" />
    <path
       class="cls-10"
       d="m 907.24,907.56 a 16.18,16.18 0 1 0 16,16.18 16.07,16.07 0 0 0 -16,-16.18 z m 0,25.06 a 8.89,8.89 0 1 1 8.76,-8.88 8.82,8.82 0 0 1 -8.76,8.88 z"
       id="path56" />
    <path
       class="cls-10"
       d="M 850.08,907.56 A 16.18,16.18 0 1 0 866,923.74 16.06,16.06 0 0 0 850.08,907.56 Z m 0,25.06 a 8.89,8.89 0 1 1 8.76,-8.88 8.82,8.82 0 0 1 -8.76,8.88 z"
       id="path57" />
    <path
       class="cls-10"
       d="m 792.93,907.56 a 16.18,16.18 0 1 0 16,16.18 16.07,16.07 0 0 0 -16,-16.18 z m 0,25.06 a 8.89,8.89 0 1 1 8.76,-8.88 8.82,8.82 0 0 1 -8.76,8.88 z"
       id="path58" />
    <path
       class="cls-10"
       d="m 735.77,907.56 a 16.18,16.18 0 1 0 16,16.18 16.06,16.06 0 0 0 -16,-16.18 z m 0,25.06 a 8.89,8.89 0 1 1 8.76,-8.88 8.82,8.82 0 0 1 -8.76,8.88 z"
       id="path59" />
    <path
       class="cls-10"
       d="m 678.61,907.56 a 16.18,16.18 0 1 0 16,16.18 16.07,16.07 0 0 0 -16,-16.18 z m 0,25.06 a 8.89,8.89 0 1 1 8.77,-8.88 8.81,8.81 0 0 1 -8.77,8.88 z"
       id="path60" />
    <path
       class="cls-10"
       d="m 621.46,907.56 a 16.18,16.18 0 1 0 15.95,16.18 16.07,16.07 0 0 0 -15.95,-16.18 z m 0,25.06 a 8.89,8.89 0 1 1 8.77,-8.88 8.81,8.81 0 0 1 -8.77,8.88 z"
       id="path61" />
    <path
       class="cls-10"
       d="m 564.3,907.56 a 16.18,16.18 0 1 0 16,16.18 16.06,16.06 0 0 0 -16,-16.18 z m 0,25.06 a 8.89,8.89 0 1 1 8.77,-8.88 8.81,8.81 0 0 1 -8.77,8.88 z"
       id="path62" />
    <path
       class="cls-10"
       d="m 507.15,907.56 a 16.18,16.18 0 1 0 16,16.18 16.06,16.06 0 0 0 -16,-16.18 z m 0,25.06 a 8.89,8.89 0 1 1 8.77,-8.88 8.81,8.81 0 0 1 -8.77,8.88 z"
       id="path63" />
    <path
       class="cls-10"
       d="m 450,907.56 a 16.18,16.18 0 1 0 16,16.18 16.07,16.07 0 0 0 -16,-16.18 z m 0,25.06 a 8.89,8.89 0 1 1 8.76,-8.88 8.82,8.82 0 0 1 -8.76,8.88 z"
       id="path64" />
    <path
       class="cls-10"
       d="m 392.84,907.56 a 16.18,16.18 0 1 0 16,16.18 16.06,16.06 0 0 0 -16,-16.18 z m 0,25.06 a 8.89,8.89 0 1 1 8.76,-8.88 8.82,8.82 0 0 1 -8.76,8.88 z"
       id="path65" />
    <path
       class="cls-10"
       d="m 335.69,907.56 a 16.18,16.18 0 1 0 15.95,16.18 16.07,16.07 0 0 0 -15.95,-16.18 z m 0,25.06 a 8.89,8.89 0 1 1 8.76,-8.88 8.82,8.82 0 0 1 -8.76,8.88 z"
       id="path66" />
    <path
       class="cls-10"
       d="m 278.53,907.56 a 16.18,16.18 0 1 0 16,16.18 16.07,16.07 0 0 0 -16,-16.18 z m 0,25.06 a 8.89,8.89 0 1 1 8.76,-8.88 8.82,8.82 0 0 1 -8.76,8.88 z"
       id="path67" />
    <rect
       class="cls-7"
       x="478.66"
       y="456.10999"
       width="743.90002"
       height="425.67999"
       rx="40.689999"
       id="rect32" />
    <path
       class="cls-10"
       d="m 206.32,907.56 v 32.36 h 32.36 v -32.36 z m 16,25.06 a 8.89,8.89 0 1 1 8.76,-8.88 8.82,8.82 0 0 1 -8.81,8.88 z"
       id="path68" />
    <path
       class="cls-10"
       d="m 1307.32,390.08 a 16.18,16.18 0 1 0 16,16.18 16.06,16.06 0 0 0 -16,-16.18 z m 0,25.07 a 8.89,8.89 0 1 1 8.76,-8.89 8.83,8.83 0 0 1 -8.76,8.89 z"
       id="path69" />
    <path
       class="cls-10"
       d="m 1250.17,390.08 a 16.18,16.18 0 1 0 15.95,16.18 16.07,16.07 0 0 0 -15.95,-16.18 z m 0,25.07 a 8.89,8.89 0 1 1 8.76,-8.89 8.82,8.82 0 0 1 -8.76,8.89 z"
       id="path70" />
    <path
       class="cls-10"
       d="m 1193,390.08 a 16.18,16.18 0 1 0 16,16.18 16.06,16.06 0 0 0 -16,-16.18 z m 0,25.07 a 8.89,8.89 0 1 1 8.76,-8.89 8.83,8.83 0 0 1 -8.76,8.89 z"
       id="path71" />
    <path
       class="cls-10"
       d="m 1135.86,390.08 a 16.18,16.18 0 1 0 16,16.18 16.07,16.07 0 0 0 -16,-16.18 z m 0,25.07 a 8.89,8.89 0 1 1 8.76,-8.89 8.82,8.82 0 0 1 -8.76,8.89 z"
       id="path72" />
    <path
       class="cls-10"
       d="m 1078.7,390.08 a 16.18,16.18 0 1 0 16,16.18 16.07,16.07 0 0 0 -16,-16.18 z m 0,25.07 a 8.89,8.89 0 1 1 8.77,-8.89 8.82,8.82 0 0 1 -8.77,8.89 z"
       id="path73" />
    <path
       class="cls-10"
       d="m 1021.54,390.08 a 16.18,16.18 0 1 0 16,16.18 16.06,16.06 0 0 0 -16,-16.18 z m 0,25.07 a 8.89,8.89 0 1 1 8.77,-8.89 8.82,8.82 0 0 1 -8.77,8.89 z"
       id="path74" />
    <path
       class="cls-10"
       d="m 964.39,390.08 a 16.18,16.18 0 1 0 16,16.18 16.06,16.06 0 0 0 -16,-16.18 z m 0,25.07 a 8.89,8.89 0 1 1 8.77,-8.89 8.82,8.82 0 0 1 -8.77,8.89 z"
       id="path75" />
    <path
       class="cls-10"
       d="m 907.24,390.08 a 16.18,16.18 0 1 0 16,16.18 16.07,16.07 0 0 0 -16,-16.18 z m 0,25.07 a 8.89,8.89 0 1 1 8.76,-8.89 8.82,8.82 0 0 1 -8.76,8.89 z"
       id="path76" />
    <path
       class="cls-10"
       d="M 850.08,390.08 A 16.18,16.18 0 1 0 866,406.26 16.06,16.06 0 0 0 850.08,390.08 Z m 0,25.07 a 8.89,8.89 0 1 1 8.76,-8.89 8.83,8.83 0 0 1 -8.76,8.89 z"
       id="path77" />
    <path
       class="cls-10"
       d="m 792.93,390.08 a 16.18,16.18 0 1 0 16,16.18 16.07,16.07 0 0 0 -16,-16.18 z m 0,25.07 a 8.89,8.89 0 1 1 8.76,-8.89 8.82,8.82 0 0 1 -8.76,8.89 z"
       id="path78" />
    <path
       class="cls-10"
       d="m 735.77,390.08 a 16.18,16.18 0 1 0 16,16.18 16.06,16.06 0 0 0 -16,-16.18 z m 0,25.07 a 8.89,8.89 0 1 1 8.76,-8.89 8.83,8.83 0 0 1 -8.76,8.89 z"
       id="path79" />
    <path
       class="cls-10"
       d="m 678.61,390.08 a 16.18,16.18 0 1 0 16,16.18 16.07,16.07 0 0 0 -16,-16.18 z m 0,25.07 a 8.89,8.89 0 1 1 8.77,-8.89 8.82,8.82 0 0 1 -8.77,8.89 z"
       id="path80" />
    <path
       class="cls-10"
       d="m 621.46,390.08 a 16.18,16.18 0 1 0 15.95,16.18 16.07,16.07 0 0 0 -15.95,-16.18 z m 0,25.07 a 8.89,8.89 0 1 1 8.77,-8.89 8.82,8.82 0 0 1 -8.77,8.89 z"
       id="path81" />
    <path
       class="cls-10"
       d="m 564.3,390.08 a 16.18,16.18 0 1 0 16,16.18 16.06,16.06 0 0 0 -16,-16.18 z m 0,25.07 a 8.89,8.89 0 1 1 8.77,-8.89 8.82,8.82 0 0 1 -8.77,8.89 z"
       id="path82" />
    <path
       class="cls-10"
       d="m 507.15,390.08 a 16.18,16.18 0 1 0 16,16.18 16.06,16.06 0 0 0 -16,-16.18 z m 0,25.07 a 8.89,8.89 0 1 1 8.77,-8.89 8.82,8.82 0 0 1 -8.77,8.89 z"
       id="path83" />
    <path
       class="cls-10"
       d="m 450,390.08 a 16.18,16.18 0 1 0 16,16.18 16.07,16.07 0 0 0 -16,-16.18 z m 0,25.07 a 8.89,8.89 0 1 1 8.76,-8.89 8.82,8.82 0 0 1 -8.76,8.89 z"
       id="path84" />
    <path
       class="cls-10"
       d="m 392.84,390.08 a 16.18,16.18 0 1 0 16,16.18 16.06,16.06 0 0 0 -16,-16.18 z m 0,25.07 a 8.89,8.89 0 1 1 8.76,-8.89 8.83,8.83 0 0 1 -8.76,8.89 z"
       id="path85" />
    <path
       class="cls-10"
       d="m 335.69,390.08 a 16.18,16.18 0 1 0 15.95,16.18 16.07,16.07 0 0 0 -15.95,-16.18 z m 0,25.07 a 8.89,8.89 0 1 1 8.76,-8.89 8.82,8.82 0 0 1 -8.76,8.89 z"
       id="path86" />
    <path
       class="cls-10"
       d="m 278.53,390.08 a 16.18,16.18 0 1 0 16,16.18 16.07,16.07 0 0 0 -16,-16.18 z m 0,25.07 a 8.89,8.89 0 1 1 8.76,-8.89 8.83,8.83 0 0 1 -8.76,8.89 z"
       id="path87" />
    <path
       class="cls-10"
       d="m 206.32,390.08 v 32.36 h 32.36 v -32.36 z m 16,25.07 a 8.89,8.89 0 1 1 8.76,-8.89 8.82,8.82 0 0 1 -8.81,8.89 z"
       id="path88" />
    <rect
       class="cls-7"
       x="323.64999"
       y="482.66"
       width="64.400002"
       height="34.740002"
       id="rect88" />
    <rect
       class="cls-7"
       x="411.57001"
       y="509.70001"
       width="65.470001"
       height="34.16"
       id="rect89" />
    <rect
       class="cls-7"
       x="341.41"
       y="712.17999"
       width="35.110001"
       height="26.18"
       id="rect90" />
    <rect
       class="cls-7"
       x="392.84"
       y="778.83002"
       width="62.830002"
       height="37.790001"
       id="rect91" />
    <rect
       class="cls-11"
       x="174.88"
       y="447.98001"
       width="95.660004"
       height="76.68"
       id="rect92" />
    <rect
       class="cls-12"
       x="185.03"
       y="460.73999"
       width="75.349998"
       height="51.07"
       rx="25.33"
       id="rect93" />
    <rect
       class="cls-13"
       x="188.16"
       y="463.28"
       width="69.089996"
       height="46.09"
       rx="23.040001"
       id="rect94" />
    <path
       class="cls-13"
       d="m 193.06,448 a 23.1,23.1 0 0 1 -18.18,20 v -20 z"
       id="path94" />
    <path
       class="cls-13"
       d="m 270.54,448 v 19.93 A 23,23 0 0 1 252.88,448 Z"
       id="path95" />
    <path
       class="cls-13"
       d="m 192.76,524.66 h -17.88 v -18.13 a 23,23 0 0 1 17.88,18.13 z"
       id="path96" />
    <path
       class="cls-13"
       d="m 270.54,506.65 v 18 h -17.36 a 23,23 0 0 1 17.36,-18 z"
       id="path97" />
    <rect
       class="cls-11"
       x="174.88"
       y="805.34003"
       width="95.660004"
       height="76.68"
       id="rect97" />
    <rect
       class="cls-12"
       x="185.03"
       y="818.09998"
       width="75.349998"
       height="51.07"
       rx="25.33"
       id="rect98" />
    <rect
       class="cls-13"
       x="188.16"
       y="820.64001"
       width="69.089996"
       height="46.09"
       rx="23.040001"
       id="rect99" />
    <path
       class="cls-13"
       d="M 193.06,805.34 A 23.1,23.1 0 0 1 174.88,825.4 V 805.34 Z"
       id="path99" />
    <path
       class="cls-13"
       d="m 270.54,805.34 v 19.94 a 23,23 0 0 1 -17.66,-19.94 z"
       id="path100" />
    <path
       class="cls-13"
       d="M 192.76,882 H 174.88 V 863.89 A 23.05,23.05 0 0 1 192.76,882 Z"
       id="path101" />
    <path
       class="cls-13"
       d="m 270.54,864 v 18 h -17.36 a 23,23 0 0 1 17.36,-18 z"
       id="path102" />
    <path
       class="cls-9"
       d="m 170.2,504.54 h 4.68 V 519 h -4.68 a 2.39,2.39 0 0 1 -2.39,-2.39 v -9.68 a 2.39,2.39 0 0 1 2.39,-2.39 z"
       id="path103" />
    <path
       class="cls-9"
       d="m 170.2,454.37 h 4.68 v 14.47 h -4.68 a 2.39,2.39 0 0 1 -2.39,-2.39 v -9.68 a 2.39,2.39 0 0 1 2.39,-2.4 z"
       id="path104" />
    <path
       class="cls-9"
       d="m 272.93,504.54 h 4.68 V 519 h -4.68 a 2.39,2.39 0 0 1 -2.39,-2.39 v -9.68 a 2.39,2.39 0 0 1 2.39,-2.39 z"
       transform="rotate(180,274.075,511.78)"
       id="path105" />
    <path
       class="cls-9"
       d="m 272.93,454.37 h 4.68 v 14.47 h -4.68 a 2.39,2.39 0 0 1 -2.39,-2.39 v -9.68 a 2.39,2.39 0 0 1 2.39,-2.4 z"
       transform="rotate(180,274.075,461.605)"
       id="path106" />
    <path
       class="cls-9"
       d="m 170.2,861 h 4.68 v 14.47 h -4.68 a 2.39,2.39 0 0 1 -2.39,-2.39 v -9.68 a 2.39,2.39 0 0 1 2.39,-2.4 z"
       id="path107" />
    <path
       class="cls-9"
       d="m 170.2,810.87 h 4.68 v 14.47 h -4.68 a 2.39,2.39 0 0 1 -2.39,-2.39 v -9.68 a 2.39,2.39 0 0 1 2.39,-2.4 z"
       id="path108" />
    <path
       class="cls-9"
       d="m 272.93,861 h 4.68 v 14.47 h -4.68 a 2.39,2.39 0 0 1 -2.39,-2.39 v -9.68 a 2.39,2.39 0 0 1 2.39,-2.4 z"
       transform="rotate(180,274.075,868.275)"
       id="path109" />
    <path
       class="cls-9"
       d="m 272.93,810.87 h 4.68 v 14.47 h -4.68 a 2.39,2.39 0 0 1 -2.39,-2.39 v -9.68 a 2.39,2.39 0 0 1 2.39,-2.4 z"
       transform="rotate(180,274.075,818.1)"
       id="path110" />
    <path
       class="cls-9"
       d="m 341.41,712.18 v 26.19 h -14.26 v -8 a 6.06,6.06 0 0 0 0,-11.57 v -6.62 z"
       id="path111" />
    <path
       class="cls-9"
       d="m 175.07,767.89 h 26.19 v 25.2 h -8 a 6.06,6.06 0 0 0 -11.57,0 h -6.62 z"
       id="path112" />
    <path
       class="cls-9"
       d="M 263.8,767.89 H 290 v 25.2 h -8 a 6.06,6.06 0 0 0 -11.57,0 h -6.63 z"
       id="path113" />
    <path
       class="cls-9"
       d="m 290,562.1 h -26.2 v -25.19 h 8 a 6.06,6.06 0 0 0 11.57,0 H 290 Z"
       id="path114" />
    <path
       class="cls-9"
       d="m 201.26,562.1 h -26.19 v -25.19 h 8 a 6.06,6.06 0 0 0 11.57,0 h 6.62 z"
       id="path115" />
    <path
       class="cls-9"
       d="m 376.52,738.37 v -26.19 h 14.26 v 8 a 6.07,6.07 0 0 0 0,11.57 v 6.62 z"
       id="path116" />
    <rect
       class="cls-9"
       x="362.09"
       y="602.10999"
       width="6.0500002"
       height="16.690001"
       id="rect116" />
    <rect
       class="cls-9"
       x="319.56"
       y="602.10999"
       width="6.0500002"
       height="16.690001"
       id="rect117" />
    <rect
       class="cls-7"
       x="325.60999"
       y="598.65997"
       width="36.48"
       height="23.59"
       id="rect118" />
    <rect
       class="cls-7"
       x="327.95001"
       y="633.27002"
       width="24.5"
       height="7.9499998"
       id="rect119" />
    <rect
       class="cls-7"
       x="327.95001"
       y="651.87"
       width="24.5"
       height="7.9499998"
       id="rect120" />
    <rect
       class="cls-7"
       x="327.95001"
       y="670.46997"
       width="24.5"
       height="7.9499998"
       id="rect121" />
    <rect
       class="cls-7"
       x="327.95001"
       y="689.06"
       width="24.5"
       height="7.9499998"
       id="rect122" />
    <rect
       class="cls-14"
       x="303.13"
       y="479.10001"
       width="15.58"
       height="23.360001"
       id="rect123" />
    <rect
       class="cls-9"
       x="303.13"
       y="473.41"
       width="15.58"
       height="5.6900001"
       id="rect124" />
    <rect
       class="cls-9"
       x="303.13"
       y="502.45999"
       width="15.58"
       height="5.6900001"
       id="rect125" />
    <rect
       class="cls-14"
       x="407.34"
       y="844.54999"
       width="15.58"
       height="23.360001"
       transform="rotate(90,415.125,856.225)"
       id="rect126" />
    <rect
       class="cls-9"
       x="421.85999"
       y="853.38"
       width="15.58"
       height="5.6900001"
       transform="rotate(90,429.65,856.23)"
       id="rect127" />
    <rect
       class="cls-9"
       x="392.81"
       y="853.38"
       width="15.58"
       height="5.6900001"
       transform="rotate(90,400.595,856.225)"
       id="rect128" />
    <rect
       class="cls-14"
       x="418.38"
       y="459.38"
       width="15.58"
       height="23.360001"
       transform="rotate(90,426.165,471.065)"
       id="rect129" />
    <rect
       class="cls-9"
       x="432.91"
       y="468.22"
       width="15.58"
       height="5.6900001"
       transform="rotate(90,440.695,471.065)"
       id="rect130" />
    <rect
       class="cls-9"
       x="403.85001"
       y="468.22"
       width="15.58"
       height="5.6900001"
       transform="rotate(90,411.645,471.065)"
       id="rect131" />
    <rect
       class="cls-14"
       x="314.34"
       y="436.17001"
       width="11.57"
       height="18.629999"
       transform="rotate(90,320.13,445.49)"
       id="rect132" />
    <rect
       class="cls-9"
       x="325.92999"
       y="443.22"
       width="11.57"
       height="4.54"
       transform="rotate(90,331.72,445.49)"
       id="rect133" />
    <rect
       class="cls-9"
       x="302.76001"
       y="443.22"
       width="11.57"
       height="4.54"
       transform="rotate(90,308.54,445.49)"
       id="rect134" />
    <rect
       class="cls-14"
       x="428.26001"
       y="436.17001"
       width="11.57"
       height="18.629999"
       transform="rotate(90,434.05,445.49)"
       id="rect135" />
    <rect
       class="cls-9"
       x="439.85001"
       y="443.22"
       width="11.57"
       height="4.54"
       transform="rotate(90,445.64,445.49)"
       id="rect136" />
    <rect
       class="cls-9"
       x="416.67999"
       y="443.22"
       width="11.57"
       height="4.54"
       transform="rotate(90,422.46,445.49)"
       id="rect137" />
    <rect
       class="cls-14"
       x="319.82001"
       y="549.46002"
       width="11.57"
       height="18.629999"
       transform="rotate(90,325.61,558.78)"
       id="rect138" />
    <rect
       class="cls-9"
       x="331.41"
       y="556.51001"
       width="11.57"
       height="4.54"
       transform="rotate(90,337.195,558.775)"
       id="rect139" />
    <rect
       class="cls-9"
       x="308.23999"
       y="556.51001"
       width="11.57"
       height="4.54"
       transform="rotate(90,314.025,558.775)"
       id="rect140" />
    <rect
       class="cls-14"
       x="429.91"
       y="576.40002"
       width="11.57"
       height="18.629999"
       transform="rotate(90,435.695,585.715)"
       id="rect141" />
    <rect
       class="cls-9"
       x="441.5"
       y="583.45001"
       width="11.57"
       height="4.54"
       transform="rotate(90,447.285,585.715)"
       id="rect142" />
    <rect
       class="cls-9"
       x="418.32001"
       y="583.45001"
       width="11.57"
       height="4.54"
       transform="rotate(90,424.11,585.72)"
       id="rect143" />
    <rect
       class="cls-7"
       x="362.35001"
       y="874.07001"
       width="11.57"
       height="18.629999"
       transform="rotate(90,368.14,883.38)"
       id="rect144" />
    <rect
       class="cls-9"
       x="373.94"
       y="881.10999"
       width="11.57"
       height="4.54"
       transform="rotate(90,379.725,883.385)"
       id="rect145" />
    <rect
       class="cls-9"
       x="350.76999"
       y="881.10999"
       width="11.57"
       height="4.54"
       transform="rotate(90,356.555,883.385)"
       id="rect146" />
    <rect
       class="cls-7"
       x="344.37"
       y="795.26001"
       width="8.0699997"
       height="13"
       transform="rotate(90,348.4,801.76)"
       id="rect147" />
    <rect
       class="cls-9"
       x="352.45001"
       y="800.17999"
       width="8.0699997"
       height="3.1700001"
       transform="rotate(90,356.49,801.76)"
       id="rect148" />
    <rect
       class="cls-9"
       x="336.29001"
       y="800.17999"
       width="8.0699997"
       height="3.1700001"
       transform="rotate(90,340.32,801.76)"
       id="rect149" />
    <rect
       class="cls-14"
       x="395.94"
       y="537.89001"
       width="11.57"
       height="18.629999"
       transform="rotate(180,401.73,547.205)"
       id="rect150" />
    <rect
       class="cls-9"
       x="395.94"
       y="556.52002"
       width="11.57"
       height="4.54"
       transform="rotate(180,401.73,558.79)"
       id="rect151" />
    <rect
       class="cls-9"
       x="395.94"
       y="533.34998"
       width="11.57"
       height="4.54"
       transform="rotate(180,401.73,535.615)"
       id="rect152" />
    <rect
       class="cls-14"
       x="441.5"
       y="715.96002"
       width="11.57"
       height="18.629999"
       transform="rotate(180,447.285,725.275)"
       id="rect153" />
    <rect
       class="cls-9"
       x="441.5"
       y="734.59003"
       width="11.57"
       height="4.54"
       transform="rotate(180,447.285,736.86)"
       id="rect154" />
    <rect
       class="cls-9"
       x="441.5"
       y="711.41998"
       width="11.57"
       height="4.54"
       transform="rotate(180,447.285,713.685)"
       id="rect155" />
    <rect
       class="cls-14"
       x="416.85999"
       y="872.47998"
       width="11.57"
       height="18.629999"
       transform="rotate(-90,422.655,881.795)"
       id="rect156" />
    <rect
       class="cls-9"
       x="405.28"
       y="879.53003"
       width="11.57"
       height="4.54"
       transform="rotate(-90,411.065,881.795)"
       id="rect157" />
    <rect
       class="cls-9"
       x="428.45001"
       y="879.53003"
       width="11.57"
       height="4.54"
       transform="rotate(-90,434.235,881.795)"
       id="rect158" />
    <path
       class="cls-9"
       d="m 331.84,468.66 h 3.83 a 1.91,1.91 0 0 1 1.91,1.91 v 12.08 h -7.65 v -12.07 a 1.91,1.91 0 0 1 1.91,-1.92 z"
       id="path158" />
    <path
       class="cls-9"
       d="m 375.85,468.66 h 3.83 a 1.91,1.91 0 0 1 1.91,1.91 v 12.08 h -7.65 v -12.07 a 1.91,1.91 0 0 1 1.91,-1.92 z"
       id="path159" />
    <rect
       class="cls-9"
       x="386.82001"
       y="637.83002"
       width="69.419998"
       height="55.209999"
       id="rect159" />
    <rect
       class="cls-13"
       x="325.09"
       y="819.26001"
       width="26.549999"
       height="15.51"
       id="rect160" />
    <rect
       class="cls-10"
       x="325.09"
       y="849.62"
       width="26.549999"
       height="15.51"
       id="rect161" />
    <rect
       class="cls-7"
       x="315.42001"
       y="819.26001"
       width="9.6700001"
       height="15.51"
       id="rect162" />
    <rect
       class="cls-7"
       x="351.64001"
       y="819.26001"
       width="9.6700001"
       height="15.51"
       id="rect163" />
    <rect
       class="cls-7"
       x="315.42001"
       y="849.62"
       width="9.6700001"
       height="15.51"
       id="rect164" />
    <rect
       class="cls-7"
       x="351.64001"
       y="849.62"
       width="9.6700001"
       height="15.51"
       id="rect165" />
    <path
       class="cls-15"
       d="m 1317.92,575.78 v 14.29 a 1.1,1.1 0 0 1 -1.1,1.1 h -3.42 a 1.11,1.11 0 0 0 -1.1,1.11 v 19.48 a 1.1,1.1 0 0 1 -1.1,1.1 h -6.39 a 1.1,1.1 0 0 0 -1.1,1.1 v 1.45 a 1.11,1.11 0 0 1 -1.1,1.11 h -38.22 a 1.11,1.11 0 0 1 -1.1,-1.11 V 614 a 1.1,1.1 0 0 0 -1.1,-1.1 H 1257 a 1.1,1.1 0 0 0 -1.1,1.1 v 1.45 a 1.11,1.11 0 0 1 -1.1,1.11 h -3.62 a 1.11,1.11 0 0 1 -1.1,-1.11 v -23.17 a 1.11,1.11 0 0 0 -1.1,-1.11 h -2.3 a 1.11,1.11 0 0 1 -1.11,-1.1 v -14.29 a 1.11,1.11 0 0 1 1.11,-1.1 h 2.3 a 1.11,1.11 0 0 0 1.1,-1.11 v -23.79 a 1.1,1.1 0 0 1 1.1,-1.1 h 3.62 a 1.1,1.1 0 0 1 1.1,1.1 v 2.11 a 1.1,1.1 0 0 0 1.1,1.1 h 5.22 a 1.1,1.1 0 0 0 1.1,-1.1 v -2.11 a 1.1,1.1 0 0 1 1.1,-1.1 h 38.22 a 1.1,1.1 0 0 1 1.1,1.1 v 2.11 a 1.1,1.1 0 0 0 1.1,1.1 h 6.39 a 1.1,1.1 0 0 1 1.1,1.1 v 19.48 a 1.11,1.11 0 0 0 1.1,1.11 h 3.42 a 1.1,1.1 0 0 1 1.07,1.1 z"
       id="path165" />
    <circle
       class="cls-10"
       cx="1283"
       cy="584.26001"
       r="21.66"
       id="circle165" />
    <circle
       class="cls-16"
       cx="1283"
       cy="584.26001"
       r="18.120001"
       id="circle166" />
    <circle
       class="cls-10"
       cx="1283"
       cy="584.26001"
       r="5.21"
       id="circle167" />
    <path
       class="cls-15"
       d="m 1317.92,761.07 v 14.3 a 1.1,1.1 0 0 1 -1.1,1.1 h -3.42 a 1.1,1.1 0 0 0 -1.1,1.1 v 19.48 a 1.11,1.11 0 0 1 -1.1,1.11 h -6.39 a 1.1,1.1 0 0 0 -1.1,1.1 v 1.45 a 1.1,1.1 0 0 1 -1.1,1.1 h -38.22 a 1.1,1.1 0 0 1 -1.1,-1.1 v -1.45 a 1.1,1.1 0 0 0 -1.1,-1.1 H 1257 a 1.1,1.1 0 0 0 -1.1,1.1 v 1.45 a 1.1,1.1 0 0 1 -1.1,1.1 h -3.62 a 1.1,1.1 0 0 1 -1.1,-1.1 v -23.14 a 1.1,1.1 0 0 0 -1.1,-1.1 h -2.3 a 1.11,1.11 0 0 1 -1.11,-1.1 v -14.3 a 1.11,1.11 0 0 1 1.11,-1.1 h 2.3 a 1.1,1.1 0 0 0 1.1,-1.1 v -23.79 a 1.1,1.1 0 0 1 1.1,-1.1 h 3.62 a 1.1,1.1 0 0 1 1.1,1.1 v 2.1 a 1.11,1.11 0 0 0 1.1,1.11 h 5.22 a 1.11,1.11 0 0 0 1.1,-1.11 v -2.1 a 1.1,1.1 0 0 1 1.1,-1.1 h 38.22 a 1.1,1.1 0 0 1 1.1,1.1 v 2.1 a 1.11,1.11 0 0 0 1.1,1.11 h 6.39 a 1.1,1.1 0 0 1 1.1,1.1 v 19.48 a 1.1,1.1 0 0 0 1.1,1.1 h 3.42 a 1.1,1.1 0 0 1 1.07,1.1 z"
       id="path167" />
    <circle
       class="cls-10"
       cx="1283"
       cy="769.56"
       r="21.66"
       id="circle168" />
    <circle
       class="cls-16"
       cx="1283"
       cy="769.56"
       r="18.120001"
       id="circle169" />
    <circle
       class="cls-10"
       cx="1283"
       cy="769.56"
       r="5.21"
       id="circle170" />
    <path
       class="cls-17"
       d="m 273.6,562.1 v 5 a 5.32,5.32 0 0 0 5.32,5.32 h 4.78 a 5.38,5.38 0 0 1 5.39,5.38 v 8.43 a 5.25,5.25 0 0 0 5.25,5.25 v 0 -29.38 z"
       id="path170" />
    <path
       class="cls-17"
       d="m 273.6,767.76 v -5 a 5.32,5.32 0 0 1 5.32,-5.32 h 4.78 a 5.38,5.38 0 0 0 5.39,-5.38 v -8.43 a 5.25,5.25 0 0 1 5.25,-5.25 v 0 29.39 z"
       id="path171" />
    <rect
       class="cls-18"
       x="233.81"
       y="614.77002"
       width="10.89"
       height="22.48"
       rx="3.6099999"
       id="rect171" />
    <rect
       class="cls-18"
       x="233.81"
       y="697.01001"
       width="10.89"
       height="22.48"
       rx="4.1599998"
       id="rect172" />
    <path
       class="cls-18"
       d="M 156.9,691.91 V 695 a 2.34,2.34 0 0 0 2,2.32 l 32.4,5.09 a 2.33,2.33 0 0 1 2,2.3 v 3.74 a 2.32,2.32 0 0 1 -1.89,2.28 l -32.56,6.21 a 2.35,2.35 0 0 0 -1.91,2.31 v 1.9 a 2.34,2.34 0 0 0 2.8,2.3 l 41.77,-8.22 a 3.47,3.47 0 0 0 2.79,-3.4 V 701 a 3.46,3.46 0 0 0 -2.81,-3.41 l -41.76,-8 a 2.35,2.35 0 0 0 -2.83,2.32 z"
       id="path172" />
    <path
       class="cls-18"
       d="m 156.9,611.39 v 3.09 a 2.34,2.34 0 0 0 2,2.32 l 32.4,5.09 a 2.33,2.33 0 0 1 2,2.3 v 3.74 a 2.32,2.32 0 0 1 -1.89,2.28 l -32.56,6.21 a 2.35,2.35 0 0 0 -1.91,2.31 v 1.9 a 2.34,2.34 0 0 0 2.8,2.3 l 41.77,-8.22 a 3.47,3.47 0 0 0 2.79,-3.41 v -10.78 a 3.46,3.46 0 0 0 -2.81,-3.41 l -41.76,-8 a 2.35,2.35 0 0 0 -2.83,2.28 z"
       id="path173" />
    <rect
       class="cls-18"
       x="263.91"
       y="606.84003"
       width="27.389999"
       height="6.8499999"
       id="rect173" />
    <rect
       class="cls-18"
       x="263.91"
       y="633.82001"
       width="27.389999"
       height="6.8499999"
       id="rect174" />
    <rect
       class="cls-18"
       x="263.91"
       y="693.59003"
       width="27.389999"
       height="6.8499999"
       id="rect175" />
    <rect
       class="cls-18"
       x="263.91"
       y="715.97998"
       width="27.389999"
       height="6.8499999"
       id="rect176" />
    <rect
       class="cls-9"
       x="294.56"
       y="731.81"
       width="4.9499998"
       height="11.75"
       id="rect177" />
    <rect
       class="cls-9"
       x="294.56"
       y="713.62"
       width="4.9499998"
       height="11.75"
       id="rect178" />
    <rect
       class="cls-9"
       x="294.56"
       y="605.33002"
       width="4.9499998"
       height="11.75"
       id="rect179" />
    <rect
       class="cls-9"
       x="294.56"
       y="622.25"
       width="4.9499998"
       height="6.8699999"
       id="rect180" />
    <rect
       class="cls-9"
       x="294.56"
       y="633.81"
       width="4.9499998"
       height="6.8699999"
       id="rect181" />
    <rect
       class="cls-9"
       x="294.56"
       y="645.37"
       width="4.9499998"
       height="6.8699999"
       id="rect182" />
    <rect
       class="cls-9"
       x="294.56"
       y="656.92999"
       width="4.9499998"
       height="6.8699999"
       id="rect183" />
    <rect
       class="cls-9"
       x="294.56"
       y="668.48999"
       width="4.9499998"
       height="6.8699999"
       id="rect184" />
    <rect
       class="cls-9"
       x="294.56"
       y="680.04999"
       width="4.9499998"
       height="6.8699999"
       id="rect185" />
    <rect
       class="cls-9"
       x="294.56"
       y="691.60999"
       width="4.9499998"
       height="6.8699999"
       id="rect186" />
    <rect
       class="cls-9"
       x="294.56"
       y="703.16998"
       width="4.9499998"
       height="6.8699999"
       id="rect187" />
    <rect
       class="cls-9"
       x="294.56"
       y="587.15002"
       width="4.9499998"
       height="11.75"
       id="rect188" />
    <polygon
       class="cls-19"
       points="1323.13,952.13 186.68,952.13 145.2,910.65 145.2,780.74 158.04,767.89 294.34,767.89 294.34,562.11 161.32,562.11 145.2,545.99 145.2,425.83 191.52,379.5 1318.29,379.5 1337.53,398.74 1337.53,937.73 "
       id="polygon188" />
    <rect
       class="cls-20"
       x="125.6"
       y="562.09998"
       width="168.75"
       height="205.78999"
       id="rect189" />
    <circle
       class="cls-19"
       cx="1174.5"
       cy="826.76001"
       r="39.419998"
       id="circle189" />
    <path
       class="cls-19"
       d="m 1199.75,823.16 v 7.2 a 2.32,2.32 0 0 1 -2.32,2.32 h -14.69 a 2.32,2.32 0 0 0 -2.32,2.33 v 14.68 a 2.33,2.33 0 0 1 -2.33,2.33 h -7.18 a 2.33,2.33 0 0 1 -2.33,-2.33 V 835 a 2.32,2.32 0 0 0 -2.32,-2.33 h -14.69 a 2.32,2.32 0 0 1 -2.32,-2.32 v -7.2 a 2.32,2.32 0 0 1 2.32,-2.32 h 14.69 a 2.32,2.32 0 0 0 2.32,-2.33 v -14.67 a 2.33,2.33 0 0 1 2.33,-2.33 h 7.18 a 2.33,2.33 0 0 1 2.33,2.33 v 14.68 a 2.32,2.32 0 0 0 2.32,2.33 h 14.69 a 2.32,2.32 0 0 1 2.32,2.32 z"
       id="path189" />
    <circle
       class="cls-19"
       cx="1174.5"
       cy="513.57001"
       r="39.419998"
       id="circle190" />
    <path
       class="cls-19"
       d="m 1199.75,510 v 7.19 a 2.32,2.32 0 0 1 -2.32,2.33 h -14.69 a 2.32,2.32 0 0 0 -2.32,2.32 v 14.66 a 2.32,2.32 0 0 1 -2.33,2.32 h -7.18 a 2.32,2.32 0 0 1 -2.33,-2.32 v -14.69 a 2.32,2.32 0 0 0 -2.32,-2.32 h -14.69 a 2.32,2.32 0 0 1 -2.32,-2.33 V 510 a 2.33,2.33 0 0 1 2.32,-2.33 h 14.69 a 2.32,2.32 0 0 0 2.32,-2.32 v -14.72 a 2.32,2.32 0 0 1 2.33,-2.32 h 7.18 a 2.32,2.32 0 0 1 2.33,2.32 v 14.69 a 2.32,2.32 0 0 0 2.32,2.32 h 14.69 a 2.33,2.33 0 0 1 2.32,2.36 z"
       id="path190" />
    <circle
       class="cls-19"
       cx="526.59003"
       cy="826.76001"
       r="39.419998"
       id="circle191" />
    <path
       class="cls-19"
       d="m 551.84,823.16 v 7.2 a 2.32,2.32 0 0 1 -2.32,2.32 h -14.69 a 2.32,2.32 0 0 0 -2.32,2.33 v 14.68 a 2.33,2.33 0 0 1 -2.33,2.33 H 523 a 2.32,2.32 0 0 1 -2.32,-2.33 V 835 a 2.32,2.32 0 0 0 -2.32,-2.33 h -14.7 a 2.32,2.32 0 0 1 -2.32,-2.32 v -7.2 a 2.32,2.32 0 0 1 2.32,-2.32 h 14.69 a 2.32,2.32 0 0 0 2.32,-2.33 V 803.83 A 2.33,2.33 0 0 1 523,801.5 h 7.19 a 2.33,2.33 0 0 1 2.33,2.33 v 14.68 a 2.32,2.32 0 0 0 2.32,2.33 h 14.69 a 2.32,2.32 0 0 1 2.31,2.32 z"
       id="path191" />
    <circle
       class="cls-19"
       cx="526.59003"
       cy="513.57001"
       r="39.419998"
       id="circle192" />
    <path
       class="cls-19"
       d="m 551.84,510 v 7.19 a 2.32,2.32 0 0 1 -2.32,2.33 h -14.69 a 2.32,2.32 0 0 0 -2.32,2.32 v 14.66 a 2.32,2.32 0 0 1 -2.33,2.32 H 523 a 2.32,2.32 0 0 1 -2.32,-2.32 v -14.69 a 2.32,2.32 0 0 0 -2.32,-2.32 h -14.7 a 2.32,2.32 0 0 1 -2.32,-2.33 V 510 a 2.33,2.33 0 0 1 2.32,-2.33 h 14.69 a 2.32,2.32 0 0 0 2.32,-2.32 v -14.72 a 2.32,2.32 0 0 1 2.32,-2.32 h 7.19 a 2.32,2.32 0 0 1 2.33,2.32 v 14.69 a 2.32,2.32 0 0 0 2.32,2.32 h 14.69 a 2.33,2.33 0 0 1 2.32,2.36 z"
       id="path192" />
    <rect
       class="cls-19"
       x="478.66"
       y="456.10999"
       width="743.90002"
       height="425.67999"
       rx="40.689999"
       id="rect192" />
    <rect
       class="cls-21"
       x="601.59998"
       y="507.76999"
       width="493.04999"
       height="260.12"
       id="rect193" />
    <path
       class="cls-22"
       d="m 157.78,897.25 12.5,-12.5 5.64,5.63 a 10.85,10.85 0 0 1 2.24,2.92 4,4 0 0 1 0.23,2.61 5,5 0 0 1 -1.36,2.41 4.43,4.43 0 0 1 -3.12,1.37 6.3,6.3 0 0 1 -3.86,-1.55 6.53,6.53 0 0 1 0.39,1.64 12,12 0 0 1 -0.27,3.06 l -1.17,5.61 -2.12,-2.11 0.92,-4.29 c 0.26,-1.24 0.43,-2.22 0.51,-2.93 a 5.47,5.47 0 0 0 0,-1.69 3.73,3.73 0 0 0 -0.44,-1.1 6.67,6.67 0 0 0 -0.88,-1 l -2,-2 -5.55,5.55 z m 8.67,-5.3 3.61,3.61 a 7.85,7.85 0 0 0 2,1.57 2.68,2.68 0 0 0 1.74,0.24 2.89,2.89 0 0 0 1.46,-0.78 2.62,2.62 0 0 0 0.8,-2.12 4.39,4.39 0 0 0 -1.49,-2.64 l -4,-4 z"
       id="path193" />
    <path
       class="cls-22"
       d="m 174,905.44 1.72,1.45 a 4.75,4.75 0 0 0 -1,2.06 3.92,3.92 0 0 0 0.31,2.25 6.86,6.86 0 0 0 1.57,2.32 6.72,6.72 0 0 0 2,1.42 3.36,3.36 0 0 0 1.87,0.33 2.53,2.53 0 0 0 1.43,-0.71 2.24,2.24 0 0 0 0.68,-1.38 3.57,3.57 0 0 0 -0.4,-1.88 32,32 0 0 0 -1.65,-2.87 16.55,16.55 0 0 1 -1.68,-3.24 4.83,4.83 0 0 1 -0.19,-2.52 4.07,4.07 0 0 1 1.11,-2 4.39,4.39 0 0 1 2.32,-1.22 4.75,4.75 0 0 1 2.84,0.34 8.8,8.8 0 0 1 2.76,1.91 9.1,9.1 0 0 1 2,2.94 5,5 0 0 1 0.34,3 5.3,5.3 0 0 1 -1.34,2.59 L 187,908.72 a 3.65,3.65 0 0 0 0.91,-2.67 4.87,4.87 0 0 0 -1.61,-2.82 5.11,5.11 0 0 0 -2.77,-1.68 2.32,2.32 0 0 0 -2,0.63 2,2 0 0 0 -0.61,1.6 9.46,9.46 0 0 0 1.64,3.43 24,24 0 0 1 2,3.61 5.49,5.49 0 0 1 0.36,2.91 4.33,4.33 0 0 1 -1.25,2.31 4.71,4.71 0 0 1 -2.46,1.3 5.38,5.38 0 0 1 -3,-0.3 8.34,8.34 0 0 1 -2.94,-1.95 10.53,10.53 0 0 1 -2.4,-3.39 5.69,5.69 0 0 1 -0.34,-3.32 5.93,5.93 0 0 1 1.47,-2.94 z"
       id="path194" />
    <path
       class="cls-22"
       d="m 185.61,925.08 11,-11 -4.19,-4.19 1.48,-1.48 10.1,10.06 -1.48,1.47 -4.2,-4.2 -11,11 z"
       id="path195" />
    <path
       class="cls-22"
       d="m 169.17,445.38 -12.5,-12.5 4.79,-4.79 a 15.63,15.63 0 0 1 2.06,-1.81 5.25,5.25 0 0 1 2.15,-1 4.43,4.43 0 0 1 2.23,0.19 5.66,5.66 0 0 1 3.75,5 q 0.07,2.13 -2.62,4.83 l -3.26,3.26 5.09,5.08 z m -4.87,-8.24 3.28,-3.28 a 5,5 0 0 0 1.72,-2.86 3,3 0 0 0 -1,-2.37 3.2,3.2 0 0 0 -1.74,-0.94 2.69,2.69 0 0 0 -1.8,0.33 9.81,9.81 0 0 0 -1.68,1.46 l -3.25,3.25 z"
       id="path196" />
    <path
       class="cls-22"
       d="M 181,433.54 168.52,421 l 5.63,-5.63 a 11.14,11.14 0 0 1 2.92,-2.25 4,4 0 0 1 2.61,-0.22 5,5 0 0 1 2.41,1.36 4.39,4.39 0 0 1 1.37,3.11 6.33,6.33 0 0 1 -1.55,3.87 5.76,5.76 0 0 1 1.64,-0.39 12.4,12.4 0 0 1 3.06,0.26 l 5.61,1.2 -2.11,2.11 -4.29,-0.92 c -1.24,-0.26 -2.22,-0.43 -2.93,-0.51 a 5.41,5.41 0 0 0 -1.69,0 3.47,3.47 0 0 0 -1.1,0.44 7.69,7.69 0 0 0 -1,0.87 l -1.95,1.95 5.55,5.56 z m -5.3,-8.67 3.61,-3.61 a 7.85,7.85 0 0 0 1.57,-2 2.68,2.68 0 0 0 0.24,-1.74 2.85,2.85 0 0 0 -0.78,-1.46 2.61,2.61 0 0 0 -2.12,-0.8 4.39,4.39 0 0 0 -2.64,1.49 l -4,4 z"
       id="path197" />
    <path
       class="cls-22"
       d="m 194.84,409.91 -1.47,-1.47 5.38,-5.39 4.64,4.64 a 13.22,13.22 0 0 1 -1.1,4 11,11 0 0 1 -2.21,3.2 10.43,10.43 0 0 1 -4.19,2.61 7.5,7.5 0 0 1 -4.59,0 10.07,10.07 0 0 1 -4.12,-2.56 10.86,10.86 0 0 1 -2.63,-4.18 7.2,7.2 0 0 1 -0.12,-4.58 10,10 0 0 1 2.59,-4.12 9.62,9.62 0 0 1 2.93,-2.06 5.86,5.86 0 0 1 3,-0.52 7.47,7.47 0 0 1 3,1.09 l -1.11,1.92 a 6.52,6.52 0 0 0 -2.21,-0.79 4.11,4.11 0 0 0 -2.09,0.34 6.59,6.59 0 0 0 -2.08,1.42 7.53,7.53 0 0 0 -1.64,2.34 5.31,5.31 0 0 0 -0.45,2.27 6,6 0 0 0 0.43,2 9.32,9.32 0 0 0 2,3 8.62,8.62 0 0 0 3.39,2.21 5.25,5.25 0 0 0 3.37,0 7.52,7.52 0 0 0 2.92,-1.83 8.13,8.13 0 0 0 1.72,-2.55 7.91,7.91 0 0 0 0.7,-2.46 l -2.33,-2.33 z"
       id="path198" />
    <path
       class="cls-22"
       d="m 1240.53,533 a 3.46,3.46 0 0 1 -1.67,-1.16 3,3 0 0 1 -0.54,-1.8 3.51,3.51 0 0 1 1.16,-2.66 4.93,4.93 0 0 1 6.17,0 3.51,3.51 0 0 1 1.18,2.68 2.94,2.94 0 0 1 -0.54,1.76 3.43,3.43 0 0 1 -1.63,1.15 3.93,3.93 0 0 1 2.06,1.4 3.77,3.77 0 0 1 0.71,2.31 4.15,4.15 0 0 1 -1.33,3.13 5,5 0 0 1 -3.52,1.26 4.87,4.87 0 0 1 -3.51,-1.27 4.2,4.2 0 0 1 -1.34,-3.17 3.73,3.73 0 0 1 0.73,-2.36 3.59,3.59 0 0 1 2.07,-1.27 z m -0.94,3.67 a 3.26,3.26 0 0 0 0.36,1.48 2.63,2.63 0 0 0 1.09,1.1 3.25,3.25 0 0 0 1.56,0.39 3,3 0 0 0 2.14,-0.82 2.8,2.8 0 0 0 0.84,-2.09 2.83,2.83 0 0 0 -0.87,-2.12 3,3 0 0 0 -2.17,-0.84 2.85,2.85 0 0 0 -2.11,0.83 2.78,2.78 0 0 0 -0.84,2.07 z m 0.58,-6.69 a 2.21,2.21 0 0 0 0.67,1.68 2.39,2.39 0 0 0 1.75,0.66 2.35,2.35 0 0 0 1.71,-0.65 2.11,2.11 0 0 0 0.67,-1.59 2.18,2.18 0 0 0 -0.69,-1.64 2.35,2.35 0 0 0 -1.71,-0.67 2.42,2.42 0 0 0 -1.72,0.65 2.12,2.12 0 0 0 -0.68,1.58 z"
       id="path199" />
    <path
       class="cls-22"
       d="m 1258.55,529.91 -1.8,0.14 a 3.37,3.37 0 0 0 -0.68,-1.52 2.4,2.4 0 0 0 -1.81,-0.76 2.56,2.56 0 0 0 -1.52,0.47 4.09,4.09 0 0 0 -1.34,1.79 9.12,9.12 0 0 0 -0.51,3.35 4.15,4.15 0 0 1 1.59,-1.45 4.31,4.31 0 0 1 2,-0.47 4.11,4.11 0 0 1 3.08,1.31 4.63,4.63 0 0 1 1.27,3.38 5.45,5.45 0 0 1 -0.6,2.53 4.34,4.34 0 0 1 -1.64,1.8 4.6,4.6 0 0 1 -2.37,0.62 4.67,4.67 0 0 1 -3.69,-1.64 c -1,-1.09 -1.42,-2.88 -1.42,-5.39 q 0,-4.2 1.57,-6.1 a 4.57,4.57 0 0 1 3.71,-1.66 4.2,4.2 0 0 1 2.85,1 4.05,4.05 0 0 1 1.31,2.6 z m -7.38,6.25 a 4.14,4.14 0 0 0 0.39,1.76 3,3 0 0 0 1.11,1.28 2.87,2.87 0 0 0 1.5,0.44 2.6,2.6 0 0 0 2,-0.91 3.54,3.54 0 0 0 0.82,-2.47 3.34,3.34 0 0 0 -0.81,-2.37 2.72,2.72 0 0 0 -2.05,-0.86 2.83,2.83 0 0 0 -2.08,0.86 3.09,3.09 0 0 0 -0.88,2.27 z"
       id="path200" />
    <path
       class="cls-22"
       d="m 1263.37,533 a 3.41,3.41 0 0 1 -1.67,-1.16 3,3 0 0 1 -0.54,-1.8 3.5,3.5 0 0 1 1.15,-2.66 4.94,4.94 0 0 1 6.18,0 3.54,3.54 0 0 1 1.17,2.68 3,3 0 0 1 -0.53,1.76 3.47,3.47 0 0 1 -1.64,1.15 3.92,3.92 0 0 1 2.07,1.4 3.84,3.84 0 0 1 0.71,2.31 4.16,4.16 0 0 1 -1.34,3.13 5.52,5.52 0 0 1 -7,0 4.19,4.19 0 0 1 -1.33,-3.17 3.79,3.79 0 0 1 0.72,-2.36 3.65,3.65 0 0 1 2.05,-1.28 z m -0.95,3.67 a 3.28,3.28 0 0 0 0.37,1.48 2.57,2.57 0 0 0 1.09,1.1 3.22,3.22 0 0 0 1.56,0.39 3,3 0 0 0 2.14,-0.82 2.8,2.8 0 0 0 0.84,-2.09 2.83,2.83 0 0 0 -0.87,-2.12 3,3 0 0 0 -2.17,-0.84 2.87,2.87 0 0 0 -2.12,0.83 2.78,2.78 0 0 0 -0.84,2.07 z M 1263,530 a 2.21,2.21 0 0 0 0.67,1.68 2.61,2.61 0 0 0 3.46,0 2.14,2.14 0 0 0 0.67,-1.59 2.18,2.18 0 0 0 -0.69,-1.64 2.35,2.35 0 0 0 -1.71,-0.67 2.4,2.4 0 0 0 -1.72,0.65 2.08,2.08 0 0 0 -0.68,1.57 z"
       id="path201" />
    <path
       class="cls-22"
       d="m 1271.15,541.1 4.27,-15 h 1.44 l -4.25,15 z"
       id="path202" />
    <path
       class="cls-22"
       d="m 1278,537.5 1.74,-0.15 a 2.86,2.86 0 0 0 0.84,1.74 2.31,2.31 0 0 0 1.6,0.55 2.81,2.81 0 0 0 1.46,-0.38 3.08,3.08 0 0 0 1,-1 6,6 0 0 0 0.67,-1.7 8.78,8.78 0 0 0 0.27,-2.17 c 0,-0.08 0,-0.2 0,-0.35 a 4.08,4.08 0 0 1 -1.48,1.37 4,4 0 0 1 -2,0.53 4.16,4.16 0 0 1 -3.1,-1.3 4.75,4.75 0 0 1 -1.26,-3.44 4.86,4.86 0 0 1 1.32,-3.55 4.46,4.46 0 0 1 3.31,-1.34 4.75,4.75 0 0 1 4.43,2.93 10.52,10.52 0 0 1 0.62,4.07 13.29,13.29 0 0 1 -0.61,4.43 5.19,5.19 0 0 1 -1.83,2.5 4.77,4.77 0 0 1 -2.83,0.86 4.17,4.17 0 0 1 -2.83,-0.94 4.06,4.06 0 0 1 -1.32,-2.66 z m 7.4,-6.39 a 3.46,3.46 0 0 0 -0.83,-2.43 2.61,2.61 0 0 0 -2,-0.9 2.74,2.74 0 0 0 -2.1,1 3.52,3.52 0 0 0 -0.89,2.51 3.1,3.1 0 0 0 0.84,2.25 2.86,2.86 0 0 0 2.1,0.86 2.72,2.72 0 0 0 2.06,-0.86 3.38,3.38 0 0 0 0.79,-2.43 z"
       id="path203" />
    <path
       class="cls-22"
       d="m 1295.92,540.85 h -1.8 v -11.33 a 9,9 0 0 1 -1.72,1.22 11.56,11.56 0 0 1 -1.9,0.92 v -1.72 a 10.47,10.47 0 0 0 2.65,-1.7 6.74,6.74 0 0 0 1.61,-1.93 h 1.16 z"
       id="path204" />
    <path
       class="cls-22"
       d="m 1300.53,537.06 1.9,-0.16 a 3.34,3.34 0 0 0 1,2.05 2.67,2.67 0 0 0 1.85,0.69 2.93,2.93 0 0 0 2.21,-1 3.59,3.59 0 0 0 0.91,-2.57 3.27,3.27 0 0 0 -0.87,-2.4 3.05,3.05 0 0 0 -2.28,-0.88 3.15,3.15 0 0 0 -1.57,0.39 3.1,3.1 0 0 0 -1.11,1 l -1.7,-0.21 1.43,-7.45 h 7.32 v 1.7 h -5.87 l -0.8,3.9 a 4.83,4.83 0 0 1 2.79,-0.91 4.46,4.46 0 0 1 3.25,1.31 4.58,4.58 0 0 1 1.32,3.38 5.19,5.19 0 0 1 -1.16,3.4 4.7,4.7 0 0 1 -3.87,1.76 4.81,4.81 0 0 1 -3.28,-1.06 4.29,4.29 0 0 1 -1.47,-2.94 z"
       id="path205" />
    <path
       class="cls-22"
       d="m 1312.62,540.85 v -14.48 h 2.94 l 3.48,10.25 c 0.32,1 0.56,1.67 0.7,2.15 0.17,-0.53 0.43,-1.3 0.79,-2.32 l 3.52,-10.08 h 2.62 v 14.48 h -1.87 v -12.12 l -4.28,12.12 h -1.76 l -4.26,-12.33 v 12.33 z"
       id="path206" />
    <path
       class="cls-22"
       d="m 1270.72,826.38 v 1.86 h -10.56 a 3.38,3.38 0 0 1 0.23,-1.34 7,7 0 0 1 1.29,-2.09 19.63,19.63 0 0 1 2.57,-2.38 21.75,21.75 0 0 0 3.52,-3.33 4,4 0 0 0 0.91,-2.32 2.59,2.59 0 0 0 -0.83,-1.94 3.11,3.11 0 0 0 -5.3,2.36 l -2,-0.2 a 4.84,4.84 0 0 1 1.56,-3.38 5.35,5.35 0 0 1 3.63,-1.16 5.11,5.11 0 0 1 3.64,1.25 4.1,4.1 0 0 1 1.34,3.11 4.47,4.47 0 0 1 -0.4,1.85 7,7 0 0 1 -1.3,1.92 30.39,30.39 0 0 1 -3,2.77 c -1.18,1 -1.93,1.63 -2.27,2 a 6.41,6.41 0 0 0 -0.83,1 z"
       id="path207" />
    <path
       class="cls-22"
       d="M 1273.9,828.24 V 826 h 2.23 v 2.2 z"
       id="path208" />
    <path
       class="cls-22"
       d="m 1285.26,828.24 v -3.77 h -6.93 v -1.77 l 7.29,-10.18 h 1.61 v 10.18 h 2.15 v 1.77 h -2.15 v 3.77 z m 0,-5.54 v -7.08 l -5,7.08 z"
       id="path209" />
    <path
       class="cls-22"
       d="m 1299.64,822.07 v -1.84 h 6.76 v 5.83 a 12.17,12.17 0 0 1 -3.21,1.84 9.73,9.73 0 0 1 -3.4,0.62 9.22,9.22 0 0 1 -4.28,-1 6.57,6.57 0 0 1 -2.9,-2.86 8.88,8.88 0 0 1 -1,-4.2 9.59,9.59 0 0 1 1,-4.28 6.39,6.39 0 0 1 2.81,-2.95 8.82,8.82 0 0 1 4.22,-1 8.68,8.68 0 0 1 3.13,0.55 5.19,5.19 0 0 1 2.19,1.54 6.73,6.73 0 0 1 1.21,2.58 l -1.9,0.51 a 5.74,5.74 0 0 0 -0.9,-1.89 3.72,3.72 0 0 0 -1.52,-1.1 5.78,5.78 0 0 0 -2.2,-0.41 6.55,6.55 0 0 0 -2.51,0.44 4.84,4.84 0 0 0 -1.71,1.14 5.48,5.48 0 0 0 -1,1.55 8.05,8.05 0 0 0 -0.61,3.16 7.56,7.56 0 0 0 0.73,3.52 4.68,4.68 0 0 0 2.14,2.1 6.73,6.73 0 0 0 3,0.69 7.86,7.86 0 0 0 4.66,-1.63 v -2.93 z"
       id="path210" />
    <path
       class="cls-22"
       d="m 725.12,899.57701 v -15.9509 h 6.29 a 13.93,10.77575 0 0 1 3.25,0.22434 6,4.6413855 0 0 1 2.68,1.14487 8.46,6.5443535 0 0 1 2.16,2.73068 15.36,11.881947 0 0 1 0.72,3.79047 15.83,12.245522 0 0 1 -0.49,3.21802 11,8.5092067 0 0 1 -1.24,2.3207 7.15,5.5309844 0 0 1 -1.67,1.44656 6.3,4.8734548 0 0 1 -2.18,0.77357 10.85,8.3931721 0 0 1 -2.93,0.27074 z m 2.42,-1.87976 h 3.9 a 8.54,6.6062387 0 0 0 2.83,-0.29396 3.94,3.0478431 0 0 0 1.64,-0.82771 6.82,5.2757082 0 0 0 1.34,-2.01901 14.28,11.046497 0 0 0 0.48,-3.09425 10.75,8.3158157 0 0 0 -0.94,-3.86782 5,3.8678212 0 0 0 -2.29,-1.80241 8.49,6.5675605 0 0 0 -3.13,-0.3249 h -3.83 z"
       id="path211"
       style="stroke-width:0.879525" />
    <path
       class="cls-22"
       d="m 752.29,895.85616 2.32,0.25528 a 6.54,5.0591102 0 0 1 -2,2.75389 6.28,4.8579835 0 0 1 -8.39,-0.58791 8.48,6.5598248 0 0 1 -1.7,-4.37838 8.93,6.9079287 0 0 1 1.72,-4.52535 5.49,4.2468677 0 0 1 4.46,-1.60901 5.35,4.1385687 0 0 1 4.33,1.54713 8.79,6.7996297 0 0 1 1.68,4.44026 c 0,0.11603 0,0.28622 0,0.51829 h -9.91 a 6.22,4.8115696 0 0 0 1.24,2.91633 3.48,2.6920036 0 0 0 2.76,1.01337 3.15,2.4367274 0 0 0 2.11,-0.5647 5,3.8678212 0 0 0 1.38,-1.7792 z m -7.36,-3.16388 h 7.39 a 5.55,4.2932816 0 0 0 -0.85,-2.18918 3.29,2.5450264 0 0 0 -2.78,-1.12941 3.37,2.6069115 0 0 0 -2.6,0.90507 4.87,3.7672579 0 0 0 -1.16,2.41352 z"
       id="path212"
       style="stroke-width:0.879525" />
    <path
       class="cls-22"
       d="m 756.5,896.12691 2.22,-0.30169 a 3.67,2.8389808 0 0 0 1,1.78693 3.37,2.6069115 0 0 0 2.39,0.61885 3.24,2.5063482 0 0 0 2.29,-0.54923 2.22,1.7173126 0 0 0 0.75,-1.29185 1.6,1.2377028 0 0 0 -0.66,-1.04431 9.48,7.3333891 0 0 0 -2.3,-0.66527 20,15.471285 0 0 1 -3.42,-0.93601 3.58,2.76936 0 0 1 -1.44,-1.09846 4.15,3.2102916 0 0 1 -0.49,-1.54713 4.24,3.2799124 0 0 1 0.4,-1.43109 4,3.094257 0 0 1 1.1,-1.09073 4.44,3.4346253 0 0 1 1.43,-0.57243 6.11,4.7264776 0 0 1 1.94,-0.23207 6.79,5.2525012 0 0 1 2.73,0.38678 3.78,2.9240729 0 0 1 1.74,1.05978 5.85,4.5253509 0 0 1 0.77,1.79467 l -2.19,0.26301 a 2.85,2.2046581 0 0 0 -0.87,-1.40015 2.9,2.2433363 0 0 0 -2,-0.49508 3.39,2.6223828 0 0 0 -2.21,0.44093 1.76,1.3614731 0 0 0 -0.66,1.04431 1.54,1.1912889 0 0 0 0.28,0.68848 2,1.5471285 0 0 0 0.86,0.52602 c 0.22,0.0696 0.88,0.2398 2,0.49508 a 24.61,19.037416 0 0 1 3.32,0.91281 3.47,2.6842679 0 0 1 1.48,1.02884 4.13,3.1948203 0 0 1 0.53,1.67863 4.71,3.6434876 0 0 1 -0.65,1.84108 4.41,3.4114183 0 0 1 -1.89,1.33827 6.15,4.7574201 0 0 1 -2.79,0.47187 5.69,4.4015806 0 0 1 -3.93,-0.93601 5.84,4.5176152 0 0 1 -1.73,-2.78483 z"
       id="path213"
       style="stroke-width:0.879525" />
    <path
       class="cls-22"
       d="m 770.14,885.87718 v -2.25107 h 2.25 v 2.25107 z m 0,13.69983 v -11.55705 h 2.25 v 11.55705 z"
       id="path214"
       style="stroke-width:0.879525" />
    <path
       class="cls-22"
       d="m 775.36,900.53623 2.18,0.28621 a 2.52,1.9493819 0 0 0 0.76,1.28412 3.43,2.6533254 0 0 0 2.28,0.5415 3.68,2.8467164 0 0 0 2.41,-0.5415 3.5,2.7074749 0 0 0 1.14,-1.54713 18.46,14.279996 0 0 0 0.17,-2.51408 4.43,3.4268896 0 0 1 -3.67,1.54713 4.8,3.7131084 0 0 1 -4.22,-1.71732 9.3,7.1941475 0 0 1 -1.5,-4.12309 11,8.5092067 0 0 1 0.69,-3.05558 6.16,4.7651558 0 0 1 2,-2.15825 4.91,3.7982005 0 0 1 3.06,-0.77356 4.57,3.5351886 0 0 1 3.86,1.64769 v -1.39241 h 2.07 v 9.99445 a 13.66,10.566888 0 0 1 -0.63,3.8214 4.92,3.8059361 0 0 1 -2,1.7792 6.2,4.7960983 0 0 1 -3.35,0.65753 5.83,4.5098796 0 0 1 -3.83,-0.92828 4.33,3.3495332 0 0 1 -1.42,-2.80803 z m 1.86,-6.96208 a 7.09,5.4845705 0 0 0 1,3.31859 3.17,2.4521987 0 0 0 5.19,0 6.89,5.3298577 0 0 0 1,-3.25671 6.76,5.2292943 0 0 0 -1.07,-3.20255 3.23,2.4986125 0 0 0 -2.6,-1.07526 3.1,2.3980492 0 0 0 -2.54,1.05979 6.67,5.1596735 0 0 0 -0.98,3.17934 z"
       id="path215"
       style="stroke-width:0.879525" />
    <path
       class="cls-22"
       d="m 789.94,899.57701 v -11.55705 h 2 v 1.64769 a 4.62,3.5738668 0 0 1 4.21,-1.90297 5,3.8678212 0 0 1 2.2,0.37131 3.52,2.7229462 0 0 1 1.5,0.98243 5.45,4.2159252 0 0 1 0.7,1.4543 16.77,12.972672 0 0 1 0.12,1.90297 v 7.10132 h -2.24 v -7.02397 a 7.8,6.0338011 0 0 0 -0.26,-1.79467 2.41,1.8642898 0 0 0 -0.93,-0.94374 2.68,2.0731522 0 0 0 -1.56,-0.35584 3.4,2.6301184 0 0 0 -2.48,0.77356 c -0.69,0.52602 -1,1.54713 -1,3.00917 v 6.31228 z"
       id="path216"
       style="stroke-width:0.879525" />
    <path
       class="cls-22"
       d="m 813.16,895.85616 2.32,0.25528 a 6.54,5.0591102 0 0 1 -2,2.75389 6.28,4.8579835 0 0 1 -8.39,-0.58791 8.48,6.5598248 0 0 1 -1.7,-4.37838 8.93,6.9079287 0 0 1 1.72,-4.52535 5.49,4.2468677 0 0 1 4.46,-1.60901 5.35,4.1385687 0 0 1 4.33,1.54713 8.79,6.7996297 0 0 1 1.68,4.44026 c 0,0.11603 0,0.28622 0,0.51829 h -9.87 a 6.22,4.8115696 0 0 0 1.24,2.91633 3.48,2.6920036 0 0 0 2.76,1.01337 3.15,2.4367274 0 0 0 2.11,-0.5647 5,3.8678212 0 0 0 1.34,-1.7792 z m -7.36,-3.16388 h 7.39 a 5.45,4.2159252 0 0 0 -0.85,-2.18918 3.28,2.5372907 0 0 0 -2.78,-1.12941 3.37,2.6069115 0 0 0 -2.6,0.90507 4.87,3.7672579 0 0 0 -1.16,2.41352 z"
       id="path217"
       style="stroke-width:0.879525" />
    <path
       class="cls-22"
       d="m 826.85,899.57701 v -1.4543 a 4,3.094257 0 0 1 -3.7,1.71731 4.84,3.744051 0 0 1 -2.91,-0.77357 6.38,4.9353399 0 0 1 -2,-2.1273 10.5,8.1224246 0 0 1 -0.73,-3.14067 11.84,9.1590007 0 0 1 0.66,-3.14067 5.74,4.4402588 0 0 1 2,-2.15824 4.85,3.7517866 0 0 1 2.95,-0.77357 4,3.094257 0 0 1 2.13,0.4332 4.61,3.5661312 0 0 1 1.45,1.20676 v -5.72438 h 2.23 v 15.93543 z m -7.08,-5.76306 a 7.06,5.4613636 0 0 0 1.07,3.31859 3.09,2.3903135 0 0 0 2.53,1.09846 3,2.3206927 0 0 0 2.49,-1.05204 6.78,5.2447656 0 0 0 1,-3.20256 7.74,5.9873873 0 0 0 -1,-3.48104 3.11,2.4057848 0 0 0 -2.58,-1.11393 3,2.3206927 0 0 0 -2.5,1.06752 7.47,5.7785249 0 0 0 -1.01,3.365 z"
       id="path218"
       style="stroke-width:0.879525" />
    <path
       class="cls-22"
       d="m 849.94,897.69725 a 7.8,6.0338011 0 0 1 -2.42,1.61674 6,4.6413855 0 0 1 -2.83,0.5415 5.32,4.1153618 0 0 1 -4.44,-1.65543 6.25,4.8347766 0 0 1 -1.34,-3.0169 5.87,4.5408221 0 0 1 1.09,-2.6688 9.35,7.2328257 0 0 1 3.26,-2.09635 12.52,9.6850244 0 0 1 -1.64,-2.01127 5,3.8678212 0 0 1 -0.41,-1.49298 4.55,3.5197173 0 0 1 1.29,-2.49861 4.22,3.2644411 0 0 1 3.24,-1.05979 4,3.094257 0 0 1 3.06,0.9979 4.44,3.4346253 0 0 1 1.19,2.40579 c 0,1.54713 -1.15,2.81577 -3.45,3.86782 l 3.27,3.65122 a 12.75,9.8629442 0 0 0 0.88,-2.22013 l 2.33,0.4332 a 15.61,12.075338 0 0 1 -1.62,3.44236 14.07,10.884049 0 0 0 2.85,2.44446 l -1.51,1.54713 a 13.53,10.466324 0 0 1 -2.8,-2.22786 z m -1.41,-1.54713 -4.11,-4.46347 a 8.06,6.2349278 0 0 0 -2.45,1.75599 3.94,3.0478431 0 0 0 -0.64,1.60902 4.84,3.744051 0 0 0 0.88,2.01126 2.83,2.1891868 0 0 0 2.51,1.04431 3.85,2.9782224 0 0 0 2.09,-0.54923 5.42,4.1927182 0 0 0 1.72,-1.40788 z m -3.15,-6.78416 a 6.27,4.8502478 0 0 0 1.89,-1.31506 3.22,2.4908769 0 0 0 0.43,-1.25318 2.47,1.9107037 0 0 0 -0.6,-1.33053 1.86,1.4388295 0 0 0 -1.47,-0.51828 2,1.5471285 0 0 0 -1.52,0.51055 2.32,1.7946691 0 0 0 -0.6,1.25317 2.52,1.9493819 0 0 0 0.22,0.77357 4.88,3.7749935 0 0 0 0.65,0.86639 z"
       id="path219"
       style="stroke-width:0.879525" />
    <path
       class="cls-22"
       d="m 863.84,899.57701 v -15.9509 h 6.89 a 14.05,10.868578 0 0 1 2.78,0.15471 5.11,3.9529133 0 0 1 2.26,0.77357 5,3.8678212 0 0 1 1.46,1.54713 7,5.4149497 0 0 1 0.55,2.17371 6.83,5.2834438 0 0 1 -1.48,3.41142 c -1,0.93601 -2.77,1.40789 -5.36,1.40789 h -4.68 v 6.48247 z m 2.42,-8.36223 H 871 a 4.6,3.5583955 0 0 0 3.33,-0.77357 3.78,2.9240729 0 0 0 1,-2.14277 4.08,3.1561421 0 0 0 -0.58,-1.71731 2.69,2.0808878 0 0 0 -1.52,-0.93602 8.73,6.7532159 0 0 0 -2.26,-0.14697 h -4.67 z"
       id="path220"
       style="stroke-width:0.879525" />
    <path
       class="cls-22"
       d="m 880.52,899.57701 v -11.55705 h 2 v 1.75599 a 6.19,4.7883627 0 0 1 1.43,-1.62449 2.27,1.7559908 0 0 1 1.44,-0.38678 4,3.094257 0 0 1 2.3,0.62659 l -0.77,1.81787 a 2.93,2.2665432 0 0 0 -1.64,-0.42546 2,1.5471285 0 0 0 -1.32,0.38679 2.71,2.0963591 0 0 0 -0.84,1.07525 11,8.5092067 0 0 0 -0.37,2.32069 v 6.04927 z"
       id="path221"
       style="stroke-width:0.879525" />
    <path
       class="cls-22"
       d="m 888.19,893.79848 q 0,-3.20255 2,-4.74968 a 5.73,4.4325231 0 0 1 4.16,-1.28412 5.61,4.3396954 0 0 1 4.46,1.54713 8.34,6.4515258 0 0 1 1.73,4.31649 11,8.5092067 0 0 1 -0.76,3.51198 5.89,4.5562934 0 0 1 -5.43,2.692 5.61,4.3396954 0 0 1 -4.49,-1.54713 8.71,6.7377446 0 0 1 -1.67,-4.48667 z m 2.3,0 a 6.93,5.3608002 0 0 0 1.11,3.32633 3.42,2.6455897 0 0 0 5.57,0 7.08,5.4768349 0 0 0 1.11,-3.38048 6.68,5.1674092 0 0 0 -1.12,-3.24897 3.42,2.6455897 0 0 0 -5.56,0 6.92,5.3530646 0 0 0 -1.11,3.30312 z"
       id="path222"
       style="stroke-width:0.879525" />
    <path
       class="cls-22"
       d="m 911.77,899.57701 v -1.4543 a 4,3.094257 0 0 1 -3.7,1.71731 4.79,3.7053727 0 0 1 -2.91,-0.77357 6.48,5.0126963 0 0 1 -2.06,-2.1273 10.69,8.2694018 0 0 1 -0.72,-3.14067 11.84,9.1590007 0 0 1 0.66,-3.14067 5.74,4.4402588 0 0 1 2,-2.15824 4.83,3.7363153 0 0 1 3,-0.77357 4,3.094257 0 0 1 2.13,0.4332 4.7,3.635752 0 0 1 1.52,1.15261 v -5.72438 h 2.23 v 15.98958 z m -7.09,-5.76306 a 7.13,5.5155131 0 0 0 1.07,3.31859 3.12,2.4135205 0 0 0 2.53,1.09846 3,2.3206927 0 0 0 2.5,-1.05204 6.85,5.2989151 0 0 0 1,-3.20256 7.65,5.9177665 0 0 0 -1,-3.48104 3.11,2.4057848 0 0 0 -2.58,-1.11393 3,2.3206927 0 0 0 -2.5,1.06752 7.47,5.7785249 0 0 0 -1.02,3.365 z"
       id="path223"
       style="stroke-width:0.879525" />
    <path
       class="cls-22"
       d="m 926,899.57701 v -1.70185 a 4.72,3.6512233 0 0 1 -4.2,1.95712 4.88,3.7749935 0 0 1 -2.18,-0.38678 3.72,2.877659 0 0 1 -1.51,-0.99016 5,3.8678212 0 0 1 -0.69,-1.4543 14.44,11.170268 0 0 1 -0.14,-1.82561 v -7.16321 h 2.24 v 6.41285 a 16.68,12.903052 0 0 0 0.14,2.06541 2.66,2.0576809 0 0 0 0.9,1.2145 2.54,1.9648532 0 0 0 1.69,0.44093 3.39,2.6223828 0 0 0 1.9,-0.44866 3.18,2.4599343 0 0 0 1.25,-1.22997 9.08,7.0239634 0 0 0 0.37,-2.25881 v -6.18851 H 928 v 11.55705 z"
       id="path224"
       style="stroke-width:0.879525" />
    <path
       class="cls-22"
       d="m 940.15,895.34561 2.2,0.25528 a 6.72,5.1983517 0 0 1 -1.85,3.09425 5,3.8678212 0 0 1 -3.65,1.12167 5.4,4.1772469 0 0 1 -4.37,-1.54713 8.83,6.8305723 0 0 1 -1.65,-4.44799 11.6,8.9733453 0 0 1 0.71,-3.27218 5.42,4.1927182 0 0 1 2.16,-2.11183 5.89,4.5562934 0 0 1 3.16,-0.69621 5.09,3.937442 0 0 1 3.53,0.95149 5.8,4.4866726 0 0 1 1.75,2.69974 l -2.14,0.29395 a 4.15,3.2102916 0 0 0 -1.1,-1.74825 2.64,2.0422096 0 0 0 -1.9,-0.57244 3.32,2.5682333 0 0 0 -2.76,1.05978 7.16,5.53872 0 0 0 -1.05,3.35727 7.4,5.7243754 0 0 0 1,3.38821 3.17,2.4521987 0 0 0 2.66,1.05205 3,2.3206927 0 0 0 2.21,-0.70394 4.83,3.7363153 0 0 0 1.09,-2.17372 z"
       id="path225"
       style="stroke-width:0.879525" />
    <path
       class="cls-22"
       d="m 953.31,895.85616 2.31,0.25528 a 6.48,5.0126963 0 0 1 -2,2.75389 6.28,4.8579835 0 0 1 -8.39,-0.58791 8.54,6.6062387 0 0 1 -1.7,-4.37838 8.93,6.9079287 0 0 1 1.72,-4.52535 5.51,4.262339 0 0 1 4.46,-1.60901 5.38,4.1617757 0 0 1 4.34,1.54713 8.79,6.7996297 0 0 1 1.68,4.44026 c 0,0.11603 0,0.28622 0,0.51829 h -9.87 a 6.16,4.7651558 0 0 0 1.23,2.91633 3.49,2.6997392 0 0 0 2.77,1.01337 3.14,2.4289917 0 0 0 2.1,-0.5647 5,3.8678212 0 0 0 1.35,-1.7792 z m -7.37,-3.16388 h 7.39 a 5.45,4.2159252 0 0 0 -0.85,-2.18918 3.27,2.5295551 0 0 0 -2.77,-1.12941 3.36,2.5991759 0 0 0 -2.6,0.90507 4.93,3.8136717 0 0 0 -1.17,2.41352 z"
       id="path226"
       style="stroke-width:0.879525" />
    <path
       class="cls-22"
       d="m 967,899.57701 v -1.4543 a 4,3.094257 0 0 1 -3.7,1.71731 4.79,3.7053727 0 0 1 -2.91,-0.77357 6.4,4.9508112 0 0 1 -2.06,-2.1273 10.69,8.2694018 0 0 1 -0.73,-3.14067 11.84,9.1590007 0 0 1 0.66,-3.14067 5.74,4.4402588 0 0 1 2,-2.15824 4.88,3.7749935 0 0 1 3,-0.77357 4,3.094257 0 0 1 2.13,0.4332 4.7,3.635752 0 0 1 1.52,1.15261 v -5.72438 h 2.23 v 15.98958 z m -7.09,-5.76306 a 7.13,5.5155131 0 0 0 1.09,3.28765 3.11,2.4057848 0 0 0 2.53,1.09846 3,2.3206927 0 0 0 2.5,-1.05205 6.86,5.3066507 0 0 0 1,-3.20255 7.66,5.9255021 0 0 0 -1,-3.48104 3.11,2.4057848 0 0 0 -2.58,-1.11393 3,2.3206927 0 0 0 -2.5,1.06752 7.47,5.7785249 0 0 0 -1.04,3.39594 z"
       id="path227"
       style="stroke-width:0.879525" />
    <path
       class="cls-22"
       d="m 981.71,899.57701 h -2.08 v -15.9509 h 2.24 v 5.69343 a 4.29,3.3185906 0 0 1 3.63,-1.54712 5,3.8678212 0 0 1 2.31,0.42546 4.81,3.720844 0 0 1 1.79,1.16808 8,6.188514 0 0 1 1.11,1.87976 11.46,8.8650463 0 0 1 0.39,2.32069 9.29,7.1864119 0 0 1 -1.68,4.59497 5,3.8678212 0 0 1 -4,1.61675 4.09,3.1638778 0 0 1 -3.68,-1.70957 z m 0,-5.86362 a 8.63,6.6758595 0 0 0 0.64,3.00143 3.2,2.4754056 0 0 0 2.87,1.54713 3.11,2.4057848 0 0 0 2.54,-1.11394 9.37,7.248297 0 0 0 0,-6.66812 3,2.3206927 0 0 0 -2.46,-1.11393 3.11,2.4057848 0 0 0 -2.54,1.11393 6.87,5.3143864 0 0 0 -1.07,3.2335 z"
       id="path228"
       style="stroke-width:0.879525" />
    <path
       class="cls-22"
       d="m 993.71,904.06368 -0.25,-1.84108 a 4.51,3.4887748 0 0 0 1.28,0.17792 2.31,1.7869334 0 0 0 1.2,-0.2166 2.15,1.6631631 0 0 0 0.73,-0.61112 14.08,10.891785 0 0 0 0.69,-1.46203 c 0,-0.1083 0.11,-0.27075 0.2,-0.47961 l -5,-11.60347 H 995 l 2.76,6.69907 c 0.35,0.84318 0.67,1.74052 1,2.67653 a 34.15,26.417219 0 0 1 0.92,-2.63785 l 2.83,-6.73775 h 2.24 l -5,11.75818 a 31.91,24.684435 0 0 1 -1.26,2.62238 4.89,3.7827292 0 0 1 -1.37,1.41562 3,2.3206927 0 0 1 -1.85,0.45641 3.94,3.0478431 0 0 1 -1.56,-0.2166 z"
       id="path229"
       style="stroke-width:0.879525" />
    <path
       class="cls-22"
       d="m 1013.81,899.57701 v -15.9509 h 3.64 l 4.33,11.29404 c 0.39,1.05205 0.69,1.84108 0.87,2.36711 0.21,-0.58018 0.53,-1.43883 1,-2.5605 l 4.37,-11.10065 h 3.25 v 15.9509 h -2.33 v -13.35172 l -5.3,13.35172 h -2.18 l -5.29,-13.57606 v 13.57606 z"
       id="path230"
       style="stroke-width:0.879525" />
    <path
       class="cls-22"
       d="m 1043.89,895.85616 2.32,0.25528 a 6.6,5.105524 0 0 1 -2,2.75389 6.28,4.8579835 0 0 1 -8.39,-0.58791 8.49,6.5675605 0 0 1 -1.71,-4.37838 9,6.9620782 0 0 1 1.72,-4.52535 5.52,4.2700747 0 0 1 4.46,-1.60901 5.37,4.15404 0 0 1 4.34,1.54713 8.79,6.7996297 0 0 1 1.68,4.44026 c 0,0.11603 0,0.28622 0,0.51829 h -9.87 a 6.22,4.8115696 0 0 0 1.24,2.91633 3.48,2.6920036 0 0 0 2.76,1.01337 3.17,2.4521987 0 0 0 2.11,-0.5647 5,3.8678212 0 0 0 1.34,-1.7792 z m -7.36,-3.16388 h 7.38 a 5.46,4.2236608 0 0 0 -0.84,-2.18918 3.29,2.5450264 0 0 0 -2.78,-1.12941 3.36,2.5991759 0 0 0 -2.6,0.90507 4.87,3.7672579 0 0 0 -1.16,2.41352 z"
       id="path231"
       style="stroke-width:0.879525" />
    <path
       class="cls-22"
       d="m 1048.1,896.12691 2.22,-0.30169 a 3.67,2.8389808 0 0 0 1,1.78693 3.36,2.5991759 0 0 0 2.38,0.61885 3.26,2.5218194 0 0 0 2.3,-0.54923 2.21,1.709577 0 0 0 0.74,-1.29185 1.6,1.2377028 0 0 0 -0.66,-1.04431 9.17,7.0935842 0 0 0 -2.29,-0.66527 20,15.471285 0 0 1 -3.42,-0.93601 3.52,2.7229462 0 0 1 -1.44,-1.09846 4.16,3.2180273 0 0 1 -0.5,-1.54713 4.25,3.2876481 0 0 1 0.41,-1.43109 4,3.094257 0 0 1 1.16,-1.07526 4.44,3.4346253 0 0 1 1.43,-0.57243 6.11,4.7264776 0 0 1 1.94,-0.23207 6.82,5.2757082 0 0 1 2.73,0.38678 3.83,2.9627511 0 0 1 1.74,1.05978 5.85,4.5253509 0 0 1 0.77,1.79467 l -2.19,0.26301 a 2.85,2.2046581 0 0 0 -0.87,-1.40015 2.92,2.2588076 0 0 0 -2,-0.49508 3.39,2.6223828 0 0 0 -2.21,0.44093 1.76,1.3614731 0 0 0 -0.66,1.04431 1.47,1.1371394 0 0 0 0.28,0.68848 2,1.5471285 0 0 0 0.86,0.52602 c 0.22,0.0696 0.88,0.2398 2,0.49508 a 25.15,19.455141 0 0 1 3.32,0.91281 3.44,2.661061 0 0 1 1.47,1.02884 4,3.094257 0 0 1 0.54,1.67863 4.71,3.6434876 0 0 1 -0.65,1.84108 4.41,3.4114183 0 0 1 -1.89,1.33827 6.15,4.7574201 0 0 1 -2.79,0.47188 5.69,4.4015806 0 0 1 -3.93,-0.93602 5.79,4.478937 0 0 1 -1.79,-2.8003 z"
       id="path232"
       style="stroke-width:0.879525" />
    <path
       class="cls-22"
       d="m 1061.73,899.57701 v -15.9509 h 2.27 v 5.73985 a 5,3.8678212 0 0 1 6.52,-1.08299 3.7,2.8621877 0 0 1 1.55,1.40015 9.32,7.2096188 0 0 1 0.47,2.59144 v 7.31792 h -2.25 v -7.31792 a 4.32,3.3417976 0 0 0 -0.72,-2.14277 2.55,1.9725888 0 0 0 -2.07,-0.66527 3.3,2.552762 0 0 0 -1.87,0.44867 3.2,2.4754056 0 0 0 -1.25,1.22223 8.13,6.2890773 0 0 0 -0.38,2.09636 v 6.32002 z"
       id="path233"
       style="stroke-width:0.879525" />
    <path
       class="cls-22"
       d="m 1075.9,899.57701 v -11.55705 h 2 v 1.64769 a 4.64,3.5893381 0 0 1 4.21,-1.90297 5,3.8678212 0 0 1 2.2,0.37131 3.52,2.7229462 0 0 1 1.5,0.98243 5.07,3.9219707 0 0 1 0.7,1.4543 15.1,11.68082 0 0 1 0.13,1.90297 v 7.10132 h -2.25 v -7.02397 a 7.48,5.7862606 0 0 0 -0.26,-1.79467 2.31,1.7869334 0 0 0 -0.93,-0.94374 2.64,2.0422096 0 0 0 -1.56,-0.35584 3.38,2.6146472 0 0 0 -2.47,0.77356 c -0.7,0.52602 -1,1.54713 -1,3.00917 v 6.31228 z"
       id="path234"
       style="stroke-width:0.879525" />
    <path
       class="cls-22"
       d="m 1089.23,893.79848 q 0,-3.20255 2,-4.74968 a 5.73,4.4325231 0 0 1 4.16,-1.28412 5.61,4.3396954 0 0 1 4.46,1.54713 8.34,6.4515258 0 0 1 1.73,4.31649 11,8.5092067 0 0 1 -0.76,3.51198 5.89,4.5562934 0 0 1 -5.43,2.692 5.61,4.3396954 0 0 1 -4.49,-1.54713 8.71,6.7377446 0 0 1 -1.67,-4.48667 z m 2.3,0 a 6.93,5.3608002 0 0 0 1.11,3.32633 3.42,2.6455897 0 0 0 5.57,0 7.08,5.4768349 0 0 0 1.11,-3.38048 6.68,5.1674092 0 0 0 -1.12,-3.24897 3.42,2.6455897 0 0 0 -5.56,0 6.92,5.3530646 0 0 0 -1.11,3.30312 z"
       id="path235"
       style="stroke-width:0.879525" />
    <path
       class="cls-22"
       d="m 1104.18,899.57701 v -15.9509 h 2.24 v 15.9509 z"
       id="path236"
       style="stroke-width:0.879525" />
    <path
       class="cls-22"
       d="m 1109,893.79848 q 0,-3.20255 2,-4.74968 a 5.71,4.4170519 0 0 1 4.16,-1.28412 5.62,4.3474311 0 0 1 4.46,1.54713 8.34,6.4515258 0 0 1 1.73,4.31649 11,8.5092067 0 0 1 -0.77,3.51198 5.89,4.5562934 0 0 1 -5.42,2.692 5.61,4.3396954 0 0 1 -4.49,-1.54713 8.66,6.6990664 0 0 1 -1.67,-4.48667 z m 2.31,0 a 6.93,5.3608002 0 0 0 1.11,3.32633 3.42,2.6455897 0 0 0 5.57,0 7.08,5.4768349 0 0 0 1.11,-3.38048 6.74,5.213823 0 0 0 -1.12,-3.24897 3.42,2.6455897 0 0 0 -5.56,0 6.92,5.3530646 0 0 0 -1.08,3.30312 z"
       id="path237"
       style="stroke-width:0.879525" />
    <path
       class="cls-22"
       d="m 1123.62,900.53623 2.18,0.28621 a 2.47,1.9107037 0 0 0 0.76,1.28412 3.43,2.6533254 0 0 0 2.28,0.5415 3.68,2.8467164 0 0 0 2.41,-0.5415 3.56,2.7538887 0 0 0 1.14,-1.54713 18.46,14.279996 0 0 0 0.17,-2.51408 4.45,3.4423609 0 0 1 -3.67,1.54713 4.8,3.7131084 0 0 1 -4.22,-1.71732 9.3,7.1941475 0 0 1 -1.5,-4.12309 11,8.5092067 0 0 1 0.69,-3.05558 6.16,4.7651558 0 0 1 2,-2.15825 4.87,3.7672579 0 0 1 3.06,-0.77356 4.58,3.5429243 0 0 1 3.86,1.64769 v -1.39241 h 2.07 v 9.99445 a 13.66,10.566888 0 0 1 -0.63,3.8214 4.92,3.8059361 0 0 1 -2,1.7792 6.2,4.7960983 0 0 1 -3.35,0.65753 5.83,4.5098796 0 0 1 -3.83,-0.92828 4.33,3.3495332 0 0 1 -1.42,-2.80803 z m 1.86,-6.96208 a 7.09,5.4845705 0 0 0 1,3.31859 3.17,2.4521987 0 0 0 5.19,0 6.89,5.3298577 0 0 0 1,-3.25671 6.69,5.1751448 0 0 0 -1.08,-3.20255 3.2,2.4754056 0 0 0 -2.59,-1.07526 3.1,2.3980492 0 0 0 -2.54,1.05979 6.67,5.1596735 0 0 0 -0.98,3.17934 z"
       id="path238"
       style="stroke-width:0.879525" />
    <path
       class="cls-22"
       d="m 1138.1,904.06368 -0.25,-1.84108 a 4.51,3.4887748 0 0 0 1.28,0.17792 2.31,1.7869334 0 0 0 1.2,-0.2166 2.15,1.6631631 0 0 0 0.73,-0.61112 12.74,9.8552085 0 0 0 0.69,-1.46203 c 0,-0.1083 0.11,-0.27075 0.2,-0.47961 l -5,-11.60347 h 2.42 l 2.75,6.69907 c 0.36,0.84318 0.68,1.74052 1,2.67653 0.26,-0.90507 0.56,-1.7792 0.92,-2.63785 l 2.83,-6.73775 h 2.24 l -5,11.75818 a 31.91,24.684435 0 0 1 -1.26,2.62238 4.89,3.7827292 0 0 1 -1.37,1.41562 3,2.3206927 0 0 1 -1.85,0.45641 3.94,3.0478431 0 0 1 -1.53,-0.2166 z"
       id="path239"
       style="stroke-width:0.879525" />
    <path
       class="cls-22"
       d="m 1245.09,668.83 h 6 v 14.36 h 9.34 v 4.7 h -15.32 z"
       id="path240" />
    <path
       class="cls-22"
       d="m 1262.09,681 a 6.82,6.82 0 0 1 2.17,-5.2 8.13,8.13 0 0 1 5.85,-2.05 q 4.22,0 6.37,2.4 a 7,7 0 0 1 1.73,4.77 6.86,6.86 0 0 1 -2.15,5.22 8.27,8.27 0 0 1 -5.94,2 8.47,8.47 0 0 1 -5.47,-1.69 6.75,6.75 0 0 1 -2.56,-5.45 z m 5.39,0 a 4.1,4.1 0 0 0 0.76,2.73 2.52,2.52 0 0 0 3.82,0 4.23,4.23 0 0 0 0.75,-2.79 4,4 0 0 0 -0.76,-2.67 2.34,2.34 0 0 0 -1.86,-0.88 2.46,2.46 0 0 0 -1.94,0.89 4.08,4.08 0 0 0 -0.77,2.72 z"
       id="path241" />
    <path
       class="cls-22"
       d="m 1281.21,687.89 v -19.06 h 10 a 14.43,14.43 0 0 1 4.24,0.47 4.52,4.52 0 0 1 2.37,1.73 5.77,5.77 0 0 1 0.21,5.83 5.43,5.43 0 0 1 -1.89,1.86 7.4,7.4 0 0 1 -2.1,0.76 5.58,5.58 0 0 1 1.55,0.7 5.84,5.84 0 0 1 1,1 7.61,7.61 0 0 1 0.84,1.18 l 2.9,5.53 h -6.76 l -3.2,-5.83 a 4.57,4.57 0 0 0 -1.09,-1.47 2.56,2.56 0 0 0 -1.46,-0.44 h -0.53 v 7.74 z m 6,-11.34 h 2.52 a 9.68,9.68 0 0 0 1.59,-0.26 1.61,1.61 0 0 0 1,-0.6 1.92,1.92 0 0 0 -0.22,-2.52 3.64,3.64 0 0 0 -2.23,-0.49 h -2.63 z"
       id="path242" />
    <path
       class="cls-22"
       d="m 1306.69,678.55 -5.14,-0.53 a 5.91,5.91 0 0 1 0.84,-2.09 4.79,4.79 0 0 1 1.58,-1.32 7,7 0 0 1 2,-0.62 16.48,16.48 0 0 1 2.8,-0.22 22.35,22.35 0 0 1 3.89,0.27 4.87,4.87 0 0 1 2.44,1.11 3.94,3.94 0 0 1 1.09,1.65 6,6 0 0 1 0.39,2.05 V 685 a 6.83,6.83 0 0 0 0.13,1.53 6.49,6.49 0 0 0 0.55,1.41 h -5 a 5.25,5.25 0 0 1 -0.4,-0.82 6,6 0 0 1 -0.18,-0.87 7.33,7.33 0 0 1 -2.1,1.43 8.91,8.91 0 0 1 -3.32,0.57 5.58,5.58 0 0 1 -3.81,-1.15 3.84,3.84 0 0 1 -0.36,-5.4 6.35,6.35 0 0 1 3.46,-1.51 c 2,-0.4 3.32,-0.68 3.92,-0.84 a 17.56,17.56 0 0 0 1.9,-0.63 1.87,1.87 0 0 0 -0.4,-1.37 2.1,2.1 0 0 0 -1.44,-0.39 3.75,3.75 0 0 0 -2,0.42 2.29,2.29 0 0 0 -0.84,1.17 z m 4.66,2.78 q -1.11,0.39 -2.31,0.69 a 5.38,5.38 0 0 0 -2.07,0.85 1.33,1.33 0 0 0 0,2 1.87,1.87 0 0 0 1.3,0.4 3.33,3.33 0 0 0 1.67,-0.43 2.49,2.49 0 0 0 1.1,-1.05 3.37,3.37 0 0 0 0.32,-1.6 z"
       id="path243" />
    <path
       class="cls-7"
       d="M 408.8,679.49 399,651 h 3.61 l 6.56,20.69 c 0.53,1.66 1,3.21 1.32,4.66 0.39,-1.55 0.85,-3.1 1.36,-4.66 L 418.69,651 h 3.41 l -9.87,28.48 z"
       id="path269" />
    <path
       class="cls-7"
       d="m 423.8,672 3.25,-0.31 a 7.05,7.05 0 0 0 1.68,4 4.29,4.29 0 0 0 3.18,1.35 4.7,4.7 0 0 0 3.78,-1.9 7.77,7.77 0 0 0 1.55,-5.05 7,7 0 0 0 -1.49,-4.72 4.87,4.87 0 0 0 -3.9,-1.73 5,5 0 0 0 -2.7,0.76 5.65,5.65 0 0 0 -1.89,2 l -2.91,-0.43 2.45,-14.63 h 12.54 v 3.34 h -10.07 l -1.35,7.66 a 7.54,7.54 0 0 1 4.76,-1.79 7.13,7.13 0 0 1 5.57,2.58 9.69,9.69 0 0 1 2.28,6.65 11.28,11.28 0 0 1 -2,6.68 8.18,8.18 0 0 1 -12.24,1.28 9,9 0 0 1 -2.49,-5.74 z"
       id="path270" />
    <path
       style="fill:#333333;fill-opacity:1;stroke:#ed272d;stroke-width:2.35108;stroke-opacity:0"
       d="M 604.22762,637.14275 V 509.00887 H 848.73997 1093.2523 V 637.14275 765.27662 H 848.73997 604.22762 Z"
       id="path271" />
  </g>
</svg>
