<svg xmlns="http://www.w3.org/2000/svg" viewBox="709.5 366.32 581.38 1184.53"><defs><style>.cls-1{fill:#383838;}.cls-2{fill:#217e6a;}.cls-3{fill:#cbcccb;}.cls-4{fill:#fff;}.cls-11,.cls-13,.cls-15,.cls-16,.cls-17,.cls-18,.cls-19,.cls-20,.cls-22,.cls-23,.cls-24,.cls-26,.cls-5,.cls-7{fill:none;}.cls-13,.cls-15,.cls-16,.cls-17,.cls-18,.cls-19,.cls-26,.cls-5{stroke:#050606;}.cls-13,.cls-15,.cls-16,.cls-17,.cls-18,.cls-19,.cls-23,.cls-26,.cls-5,.cls-7{stroke-miterlimit:10;}.cls-5,.cls-7{stroke-width:1.67px;}.cls-6{fill:#eecc42;}.cls-7{stroke:#eecc42;}.cls-8{fill:#2c2d2d;}.cls-9{fill:#dfac52;}.cls-10{fill:#c6c6c5;}.cls-11,.cls-20,.cls-22,.cls-24{stroke:#fff;stroke-linejoin:round;}.cls-11{stroke-width:1.37px;}.cls-12{fill:#202121;}.cls-13,.cls-24{stroke-width:3px;}.cls-14{fill:#b4b4b5;}.cls-15{stroke-width:1.08px;}.cls-16{stroke-width:1.24px;}.cls-17{stroke-width:1.69px;}.cls-18{stroke-width:0.97px;}.cls-19{stroke-width:0.98px;}.cls-20{stroke-width:1.33px;}.cls-21{fill:#b1b0b1;}.cls-22,.cls-24{stroke-linecap:round;}.cls-22{stroke-width:1.07px;}.cls-23{stroke:#dfac52;}.cls-25{fill:#f2e3c2;}.cls-26{stroke-width:2.25px;}.cls-27{fill:#226bb5;}.cls-28{fill:#231f20;}</style></defs><g id="Layer_7" data-name="Layer 7"><path class="cls-1" d="M1146.19,396.9h143.19V1549.35h-162a2.94,2.94,0,0,1-2.94-2.94v-154h-288v154a2.94,2.94,0,0,1-2.94,2.94H711V396.9H986.88"></path><rect class="cls-2" x="788.13" y="669.92" width="432.31" height="292.63" rx="10.29"></rect><path class="cls-3" d="M1197.63,904h3.65a0,0,0,0,1,0,0v38.87a0,0,0,0,1,0,0h-3.65a3,3,0,0,1-3-3V907A3,3,0,0,1,1197.63,904Z" transform="translate(2395.87 1846.9) rotate(180)"></path><rect class="cls-4" x="1144.69" y="898.5" width="49.9" height="49.9" rx="2.8" transform="translate(2339.29 1846.9) rotate(180)"></rect><rect class="cls-5" x="1144.69" y="898.5" width="49.9" height="49.9" rx="2.8" transform="translate(2339.29 1846.9) rotate(180)"></rect><circle class="cls-6" cx="1169.65" cy="923.45" r="9.79"></circle><circle class="cls-7" cx="1169.65" cy="923.45" r="19.43"></circle><path class="cls-5" d="M1197.63,904h3.65a0,0,0,0,1,0,0v38.87a0,0,0,0,1,0,0h-3.65a3,3,0,0,1-3-3V907A3,3,0,0,1,1197.63,904Z" transform="translate(2395.87 1846.9) rotate(180)"></path><path class="cls-3" d="M1141,904h3.65a0,0,0,0,1,0,0v38.87a0,0,0,0,1,0,0H1141a3,3,0,0,1-3-3V907A3,3,0,0,1,1141,904Z"></path><path class="cls-5" d="M1141,904h3.65a0,0,0,0,1,0,0v38.87a0,0,0,0,1,0,0H1141a3,3,0,0,1-3-3V907A3,3,0,0,1,1141,904Z"></path><path class="cls-3" d="M862.09,696.42h3.65a0,0,0,0,1,0,0v38.87a0,0,0,0,1,0,0h-3.65a3,3,0,0,1-3-3V699.45A3,3,0,0,1,862.09,696.42Z" transform="translate(1724.81 1431.71) rotate(180)"></path><rect class="cls-4" x="809.16" y="690.9" width="49.9" height="49.9" rx="2.8" transform="translate(1668.22 1431.71) rotate(180)"></rect><rect class="cls-5" x="809.16" y="690.9" width="49.9" height="49.9" rx="2.8" transform="translate(1668.22 1431.71) rotate(180)"></rect><circle class="cls-6" cx="834.11" cy="715.86" r="9.79"></circle><circle class="cls-7" cx="834.11" cy="715.86" r="19.43"></circle><path class="cls-5" d="M862.09,696.42h3.65a0,0,0,0,1,0,0v38.87a0,0,0,0,1,0,0h-3.65a3,3,0,0,1-3-3V699.45A3,3,0,0,1,862.09,696.42Z" transform="translate(1724.81 1431.71) rotate(180)"></path><path class="cls-3" d="M805.51,696.42h3.65a0,0,0,0,1,0,0v38.87a0,0,0,0,1,0,0h-3.65a3,3,0,0,1-3-3V699.45A3,3,0,0,1,805.51,696.42Z"></path><path class="cls-5" d="M805.51,696.42h3.65a0,0,0,0,1,0,0v38.87a0,0,0,0,1,0,0h-3.65a3,3,0,0,1-3-3V699.45A3,3,0,0,1,805.51,696.42Z"></path><path class="cls-4" d="M1272.65,477.87h10.78V482a8,8,0,0,1-.2,2.13,2.78,2.78,0,0,1-1,1.5,3,3,0,0,1-1.86.56,3.28,3.28,0,0,1-2.38-.91,4.37,4.37,0,0,1-.92-3.15V479.3h-4.38Zm5.66,1.43v2.81a3.14,3.14,0,0,0,.48,1.94,1.79,1.79,0,0,0,1.48.62,2,2,0,0,0,1.1-.3,1.61,1.61,0,0,0,.62-.74,4.53,4.53,0,0,0,.17-1.54V479.3Z"></path><path class="cls-4" d="M1272.65,492.44v-1.33h8.44a6.32,6.32,0,0,1-.9-1.24,8.47,8.47,0,0,1-.7-1.43h1.28a8,8,0,0,0,1.26,1.95,4.85,4.85,0,0,0,1.45,1.19v.86Z"></path><path class="cls-4" d="M1268.66,440.74V430h3.75a8.59,8.59,0,0,1,2.11.2,3.63,3.63,0,0,1,1.64,1,4.57,4.57,0,0,1,1.09,1.72,7,7,0,0,1,.39,2.47,6.71,6.71,0,0,1-.66,3.11,4.06,4.06,0,0,1-1.7,1.81,5.84,5.84,0,0,1-2.7.53Zm1.44-1.27h2.31a4.74,4.74,0,0,0,2.12-.37,2.5,2.5,0,0,0,1.11-1.2,6.16,6.16,0,0,0,.52-2.63,5.14,5.14,0,0,0-.55-2.57,2.71,2.71,0,0,0-1.41-1.26,5.75,5.75,0,0,0-1.83-.21h-2.27Z"></path><path class="cls-4" d="M1284.09,440.74h-1.33V432.3a6.32,6.32,0,0,1-1.24.9,8.47,8.47,0,0,1-1.43.7v-1.28a8.07,8.07,0,0,0,2-1.26,5,5,0,0,0,1.19-1.45h.86Z"></path><path class="cls-4" d="M1092.34,543.11V532.32h4.81a6.16,6.16,0,0,1,2.23.3,2.58,2.58,0,0,1,1.18,1,3,3,0,0,1,.46,1.63,2.62,2.62,0,0,1-.78,2,3.87,3.87,0,0,1-2.27,1,3.85,3.85,0,0,1,.92.6,8.84,8.84,0,0,1,1.13,1.38l1.89,2.94h-1.8l-1.45-2.25a14.41,14.41,0,0,0-1.27-1.77,2.42,2.42,0,0,0-.83-.62,3.32,3.32,0,0,0-1.12-.15h-1.66v4.79Zm1.44-6h3.08a4.62,4.62,0,0,0,1.54-.2,1.74,1.74,0,0,0,.83-.62,1.72,1.72,0,0,0,.31-1A1.55,1.55,0,0,0,1099,534a2.76,2.76,0,0,0-1.74-.47h-3.43Z"></path><path class="cls-4" d="M1109.75,541.83v1.28h-7.18a3.08,3.08,0,0,1,.57-1.73,10.22,10.22,0,0,1,2.2-2.26,14,14,0,0,0,2.45-2.35,2.72,2.72,0,0,0,.58-1.54,1.74,1.74,0,0,0-.59-1.35,2.34,2.34,0,0,0-3,0,2.14,2.14,0,0,0-.59,1.61l-1.38-.14a3.32,3.32,0,0,1,1.08-2.33,3.69,3.69,0,0,1,2.46-.79,3.32,3.32,0,0,1,2.52.91,3,3,0,0,1,.85,2.08,3.32,3.32,0,0,1-.67,2,15.42,15.42,0,0,1-2.53,2.53c-.8.66-1.31,1.11-1.54,1.35a4,4,0,0,0-.57.72Z"></path><path class="cls-4" d="M1118.18,541.83v1.28H1111a3.18,3.18,0,0,1,.58-1.73,10,10,0,0,1,2.2-2.26,14.23,14.23,0,0,0,2.44-2.35,2.72,2.72,0,0,0,.58-1.54,1.74,1.74,0,0,0-.59-1.35,2.15,2.15,0,0,0-1.46-.52,2.13,2.13,0,0,0-1.52.56,2.1,2.1,0,0,0-.6,1.61l-1.37-.14a3.24,3.24,0,0,1,1.08-2.33,3.65,3.65,0,0,1,2.46-.79,3.3,3.3,0,0,1,2.51.91,3,3,0,0,1,.86,2.08,3.39,3.39,0,0,1-.67,2,15.58,15.58,0,0,1-2.54,2.53c-.79.66-1.31,1.11-1.54,1.35a3.91,3.91,0,0,0-.56.72Z"></path><path class="cls-4" d="M1027.55,554.1l.18,1.29a2.81,2.81,0,0,0-1.69.47,1.46,1.46,0,0,0-.46,1.15,1.81,1.81,0,0,0,.23.91,1.2,1.2,0,0,0,.59.53,4.32,4.32,0,0,0,1.45.19h7.43v1.43h-7.35a3.91,3.91,0,0,1-2.8-.8,3,3,0,0,1-.82-2.25,2.77,2.77,0,0,1,.73-2.11A3.49,3.49,0,0,1,1027.55,554.1Z"></path><path class="cls-4" d="M1024.49,566.91v-1.34h8.44a7.26,7.26,0,0,1-.9-1.24,8.3,8.3,0,0,1-.69-1.42h1.28a7.91,7.91,0,0,0,1.26,1.94,4.7,4.7,0,0,0,1.45,1.19v.87Z"></path><path class="cls-4" d="M1035.28,598.3v1.44h-6.23a7.41,7.41,0,0,1-2.57-.38,3,3,0,0,1-1.59-1.36,4.86,4.86,0,0,1-.58-2.51,4.48,4.48,0,0,1,1-3.22c.7-.71,1.93-1.06,3.7-1.06h6.23v1.43h-6.22a5.71,5.71,0,0,0-2.12.28,2,2,0,0,0-1,.92,3.2,3.2,0,0,0-.34,1.55,3,3,0,0,0,.7,2.22,4,4,0,0,0,2.76.69Z"></path><path class="cls-4" d="M1024.49,605.86h2.59v-4.7h1.21l7,4.94v1.1h-7v1.47h-1.21V607.2h-2.59Zm3.8,0h4.87l-4.87-3.39Z"></path><path class="cls-4" d="M1055.47,598.3v1.44h-6.23a7.41,7.41,0,0,1-2.57-.38,3,3,0,0,1-1.59-1.36,4.86,4.86,0,0,1-.58-2.51,4.48,4.48,0,0,1,1-3.22c.7-.71,1.93-1.06,3.7-1.06h6.23v1.43h-6.22a5.71,5.71,0,0,0-2.12.28,2,2,0,0,0-1,.92,3.2,3.2,0,0,0-.34,1.55,3,3,0,0,0,.7,2.22,4,4,0,0,0,2.76.69Z"></path><path class="cls-4" d="M1047.51,601.59l.12,1.4a2.51,2.51,0,0,0-1.54.73,2,2,0,0,0-.5,1.34,2.21,2.21,0,0,0,.71,1.63,2.66,2.66,0,0,0,1.94.69,2.37,2.37,0,0,0,1.8-.67,2.3,2.3,0,0,0,.63-1.66,2.49,2.49,0,0,0-.27-1.14,2.13,2.13,0,0,0-.77-.83l.16-1.26,5.54,1.06v5.39h-1.26v-4.33l-2.91-.58a3.45,3.45,0,0,1,.68,2,3.33,3.33,0,0,1-3.49,3.38,4,4,0,0,1-2.72-1,3.44,3.44,0,0,1-1.13-2.7,3.62,3.62,0,0,1,.8-2.38A3.1,3.1,0,0,1,1047.51,601.59Z"></path><path class="cls-4" d="M962.42,457.92l.17,1.29a2.81,2.81,0,0,0-1.69.47,1.5,1.5,0,0,0-.46,1.15,1.74,1.74,0,0,0,.24.91,1.15,1.15,0,0,0,.58.52,4.08,4.08,0,0,0,1.45.19h7.43v1.44h-7.35a4,4,0,0,1-2.8-.8,3,3,0,0,1-.82-2.25,2.8,2.8,0,0,1,.74-2.12A3.52,3.52,0,0,1,962.42,457.92Z"></path><path class="cls-4" d="M962.21,465.71l.18,1.32c-1.42.28-2.13,1-2.13,2.11a2.21,2.21,0,0,0,.63,1.58,2.13,2.13,0,0,0,1.63.67,2,2,0,0,0,1.52-.61,2.1,2.1,0,0,0,.58-1.51,3.82,3.82,0,0,0-.15-.94l1.16.16v.2a2.49,2.49,0,0,0,.49,1.61,1.61,1.61,0,0,0,1.32.62,1.56,1.56,0,0,0,1.21-.52,1.8,1.8,0,0,0,.46-1.26,1.87,1.87,0,0,0-.48-1.3,2.35,2.35,0,0,0-1.46-.67l.23-1.33a3.38,3.38,0,0,1,2,5.52,2.52,2.52,0,0,1-2,.92,2.24,2.24,0,0,1-1.3-.39.77.77,0,1,0-1.37,0,2.45,2.45,0,0,1-.91.68,3.05,3.05,0,0,1-1.26.26,3.11,3.11,0,0,1-2.43-1.07,3.79,3.79,0,0,1-1-2.58,3.5,3.5,0,0,1,.83-2.35A3.13,3.13,0,0,1,962.21,465.71Z"></path><path class="cls-4" d="M1068.15,618.2V602.71H1074a7.22,7.22,0,0,1,2.82.45,3.92,3.92,0,0,1,1.7,1.4,3.58,3.58,0,0,1,.66,2.1,3.38,3.38,0,0,1-.57,1.92A4,4,0,0,1,1077,610a4.22,4.22,0,0,1,2.14,1.37,3.69,3.69,0,0,1,.78,2.39,4.29,4.29,0,0,1-.71,2.47,4,4,0,0,1-1.88,1.54,8.88,8.88,0,0,1-3.25.48Zm2.06-9h3.38a8.15,8.15,0,0,0,1.88-.15,2.43,2.43,0,0,0,1.24-.74,2.18,2.18,0,0,0,.44-1.43,2.38,2.38,0,0,0-.4-1.39,2,2,0,0,0-1-.76,8.94,8.94,0,0,0-2.36-.21h-3.13Zm0,7.16h3.88a6.73,6.73,0,0,0,1.9-.2,2.47,2.47,0,0,0,1.34-.9,2.57,2.57,0,0,0,.46-1.58,2.4,2.4,0,0,0-.44-1.48,2.43,2.43,0,0,0-1.19-.89,7.06,7.06,0,0,0-2.34-.28h-3.61Z"></path><path class="cls-4" d="M1081,618.2l6-15.49h2.2l6.39,15.49h-2.36l-1.81-4.69h-6.56l-1.7,4.69Zm4.47-6.36h5.31l-1.62-4.29c-.5-1.32-.87-2.39-1.1-3.21a19.1,19.1,0,0,1-.86,3Z"></path><path class="cls-4" d="M1099.67,618.2V604.54h-5.13v-1.83h12.36v1.83h-5.16V618.2Z"></path><path class="cls-4" d="M1113,618.2V604.54h-5.14v-1.83h12.36v1.83H1115V618.2Z"></path><path class="cls-4" d="M1122.33,618.2V602.71h11.27v1.83h-9.21v4.73H1133v1.83h-8.63v5.28H1134v1.82Z"></path><path class="cls-4" d="M1136.81,618.2V602.71h6.91a8.81,8.81,0,0,1,3.2.43,3.78,3.78,0,0,1,1.69,1.44,4.21,4.21,0,0,1,.66,2.34,3.76,3.76,0,0,1-1.12,2.84,5.68,5.68,0,0,1-3.26,1.39,5.28,5.28,0,0,1,1.32.86,11.11,11.11,0,0,1,1.62,2l2.72,4.21H1148l-2.08-3.22a19.68,19.68,0,0,0-1.82-2.55,3.53,3.53,0,0,0-1.19-.88,4.64,4.64,0,0,0-1.62-.23h-2.38v6.88Zm2.06-8.65h4.43a6.54,6.54,0,0,0,2.21-.29,2.51,2.51,0,0,0,1.19-.9,2.39,2.39,0,0,0,.44-1.42,2.24,2.24,0,0,0-.84-1.85,3.94,3.94,0,0,0-2.5-.67h-4.93Z"></path><path class="cls-4" d="M1156.54,618.2v-6.56l-6-8.93h2.52l3.06,4.67c.61.93,1.14,1.8,1.6,2.63.46-.81,1-1.73,1.7-2.74l3-4.56h2.38l-6.22,8.93v6.56Z"></path><path class="cls-4" d="M1042.08,1138.06l.17,2a3.93,3.93,0,0,0-2,.71,3.74,3.74,0,0,0-1.15,1.57,5.84,5.84,0,0,0-.43,2.31,4.82,4.82,0,0,0,.73,2.86,2.24,2.24,0,0,0,1.9,1,2,2,0,0,0,1.2-.37,2.69,2.69,0,0,0,.84-1.12,23.47,23.47,0,0,0,.93-3.22,12.57,12.57,0,0,1,1.07-3.14,4,4,0,0,1,1.37-1.45,3.42,3.42,0,0,1,1.87-.52,3.78,3.78,0,0,1,3.08,1.49,6.25,6.25,0,0,1,1.19,4,7.5,7.5,0,0,1-.56,3,4.37,4.37,0,0,1-4.07,2.8l-.14-2a3.08,3.08,0,0,0,2.24-1.1,4.38,4.38,0,0,0,.73-2.68,4.7,4.7,0,0,0-.64-2.67,1.94,1.94,0,0,0-1.66-.93,1.75,1.75,0,0,0-1.46.68,9.32,9.32,0,0,0-1,3,21.4,21.4,0,0,1-.9,3.24,4.94,4.94,0,0,1-1.56,2.16,3.75,3.75,0,0,1-2.31.73,4.14,4.14,0,0,1-2.42-.77,4.77,4.77,0,0,1-1.66-2.08,8,8,0,0,1-.57-3.17,7,7,0,0,1,1.41-4.61A4.93,4.93,0,0,1,1042.08,1138.06Z"></path><path class="cls-4" d="M1037.09,1153.16h15.5v2.06h-13.67v7.68h-1.83Z"></path><path class="cls-4" d="M1044.64,1164.82a8.2,8.2,0,0,1,6.09,2.14,7.25,7.25,0,0,1,2.13,5.33,7.48,7.48,0,0,1-.95,3.76,6.82,6.82,0,0,1-2.76,2.69,8.9,8.9,0,0,1-4.32,1,8.13,8.13,0,0,1-5.61-1.92,7,7,0,0,1-2.39-5.54,6.93,6.93,0,0,1,2.45-5.55A8,8,0,0,1,1044.64,1164.82Zm0,2.13a6.07,6.07,0,0,0-4.45,1.55,5.3,5.3,0,0,0,0,7.57,6.49,6.49,0,0,0,4.7,1.54,7.94,7.94,0,0,0,3.57-.79,4.62,4.62,0,0,0,1.93-1.84,5.37,5.37,0,0,0-.86-6.52A6.89,6.89,0,0,0,1044.61,1167Z"></path><path class="cls-4" d="M1037.09,1186.35h13.67v-5.14h1.83v12.36h-1.83v-5.16h-13.67Z"></path><path class="cls-4" d="M1037.09,1201.26h15.5v5.86a7.22,7.22,0,0,1-.45,2.82,4,4,0,0,1-1.4,1.7,3.58,3.58,0,0,1-2.1.66,3.38,3.38,0,0,1-1.92-.57,1.46,1.46,0,1,0-2.75.53,3.66,3.66,0,0,1-2.38.78,4.29,4.29,0,0,1-2.47-.71,4.07,4.07,0,0,1-1.55-1.88,8.88,8.88,0,0,1-.48-3.25Zm1.83,2.07v3.88a6.81,6.81,0,0,0,.19,1.9,2.56,2.56,0,0,0,.9,1.34,2.59,2.59,0,0,0,1.58.46,2.43,2.43,0,0,0,1.49-.44,2.49,2.49,0,0,0,.89-1.19,7.06,7.06,0,0,0,.28-2.34v-3.61Zm7.16,0v3.38a8.15,8.15,0,0,0,.15,1.88,2.3,2.3,0,0,0,.74,1.24,2.15,2.15,0,0,0,1.42.44,2.36,2.36,0,0,0,1.39-.4,2.07,2.07,0,0,0,.77-1,8.94,8.94,0,0,0,.21-2.36v-3.13Z"></path><path class="cls-4" d="M1207.09,1351.55l.17,2a4,4,0,0,0-2,.7,3.84,3.84,0,0,0-1.15,1.58,5.84,5.84,0,0,0-.43,2.31,4.82,4.82,0,0,0,.73,2.86,2.26,2.26,0,0,0,1.91,1,2,2,0,0,0,1.19-.37,2.69,2.69,0,0,0,.84-1.12,23.94,23.94,0,0,0,.93-3.22,12.57,12.57,0,0,1,1.07-3.14,4,4,0,0,1,1.37-1.45,3.42,3.42,0,0,1,1.87-.52,3.78,3.78,0,0,1,3.08,1.49,6.23,6.23,0,0,1,1.2,4,7.71,7.71,0,0,1-.56,3,4.39,4.39,0,0,1-4.08,2.8l-.14-2a3,3,0,0,0,2.24-1.11,4.26,4.26,0,0,0,.73-2.67,4.76,4.76,0,0,0-.64-2.68,2,2,0,0,0-1.66-.92,1.72,1.72,0,0,0-1.45.68,8.85,8.85,0,0,0-1,3,22.36,22.36,0,0,1-.91,3.24,5,5,0,0,1-1.56,2.16,3.73,3.73,0,0,1-2.3.72,4.14,4.14,0,0,1-2.43-.76,4.83,4.83,0,0,1-1.66-2.08,8,8,0,0,1-.57-3.17,7,7,0,0,1,1.42-4.61A4.89,4.89,0,0,1,1207.09,1351.55Z"></path><path class="cls-4" d="M1202.1,1366.65h15.5v2.06h-13.67v7.68h-1.83Z"></path><path class="cls-4" d="M1209.65,1378.31a8.19,8.19,0,0,1,6.09,2.14,7.22,7.22,0,0,1,2.14,5.33,7.51,7.51,0,0,1-1,3.76,6.82,6.82,0,0,1-2.76,2.69,8.89,8.89,0,0,1-4.32,1,8.13,8.13,0,0,1-5.61-1.92,7,7,0,0,1-2.39-5.53,7,7,0,0,1,2.45-5.55A7.91,7.91,0,0,1,1209.65,1378.31Zm0,2.13a6,6,0,0,0-4.44,1.55,5.29,5.29,0,0,0,0,7.57,6.55,6.55,0,0,0,4.7,1.54,7.94,7.94,0,0,0,3.57-.79,4.7,4.7,0,0,0,1.94-1.84,5.2,5.2,0,0,0,.72-2.68,5.06,5.06,0,0,0-1.59-3.84Q1213,1380.44,1209.62,1380.44Z"></path><path class="cls-4" d="M1202.1,1399.84h13.67v-5.14h1.83v12.36h-1.83v-5.16H1202.1Z"></path><path class="cls-4" d="M1206.75,1413.83h1.92v5.88h-1.92Z"></path><path class="cls-4" d="M1202.1,1422h15.5v3.11l-11,3.7-2.3.74c.58.18,1.4.46,2.49.83l10.78,3.74v2.77h-15.5v-2h13l-13-4.55v-1.85l13.19-4.52H1202.1Z"></path><path class="cls-4" d="M1202.1,1446.62v-1.92h12.13a9.67,9.67,0,0,1-1.3-1.78,12.32,12.32,0,0,1-1-2.05h1.84a11.93,11.93,0,0,0,1.81,2.8,7,7,0,0,0,2.08,1.7v1.25Z"></path><path class="cls-4" d="M1206.16,1451.52l.17,2a3.58,3.58,0,0,0-2.2,1.06,2.81,2.81,0,0,0-.73,1.91,3.13,3.13,0,0,0,1,2.35,3.82,3.82,0,0,0,2.78,1,3.39,3.39,0,0,0,2.58-.95,3.31,3.31,0,0,0,.92-2.39,3.42,3.42,0,0,0-.4-1.63,2.92,2.92,0,0,0-1.11-1.2l.24-1.8,8,1.52v7.74h-1.82v-6.22l-4.17-.84a5.06,5.06,0,0,1,1,3,4.81,4.81,0,0,1-5,4.85,5.66,5.66,0,0,1-3.9-1.45,4.94,4.94,0,0,1-1.62-3.88,5.18,5.18,0,0,1,1.15-3.42A4.46,4.46,0,0,1,1206.16,1451.52Z"></path><path class="cls-4" d="M926.35,1259.87l13.38-3.4v1.94l-7.72,1.76-2.87.65,2.76.59,7.83,1.75v1.93l-7.76,1.65-2.56.55,2.59.64,7.73,1.88v1.83l-13.38-3.45v-2l8-1.77,2.28-.41-10.29-2.24Z"></path><path class="cls-4" d="M926.35,1273.21h13.38v1.87H926.35Zm15.86,0h2.61v1.87h-2.61Z"></path><path class="cls-4" d="M930.36,1277.22l.35,1.87a3.31,3.31,0,0,0-2.1.9,3.17,3.17,0,0,0-.1,3.82,2,2,0,0,0,1.52.67,1.49,1.49,0,0,0,1.24-.57,7.27,7.27,0,0,0,.75-1.9,13.45,13.45,0,0,1,1.14-2.92,3.27,3.27,0,0,1,1.24-1.15,3.8,3.8,0,0,1,1.78-.4,3.71,3.71,0,0,1,2.78,1.1,4.24,4.24,0,0,1,1.07,3.06,5,5,0,0,1-.44,2.16,3.38,3.38,0,0,1-1.18,1.43,5.22,5.22,0,0,1-2.13.69l-.3-1.83a2.19,2.19,0,0,0,2.19-2.4,2.77,2.77,0,0,0-.49-1.81,1.51,1.51,0,0,0-1.23-.6,1.38,1.38,0,0,0-1.17.57,10.88,10.88,0,0,0-.8,2,15.19,15.19,0,0,1-1.17,3,3,3,0,0,1-1.18,1.07,4,4,0,0,1-1.79.38,4.1,4.1,0,0,1-3.1-1.23,4.61,4.61,0,0,1-1.19-3.34Q926.05,1277.86,930.36,1277.22Z"></path><path class="cls-4" d="M944.82,1289.14v10.76a5.86,5.86,0,0,1-1.33,4.13,4.26,4.26,0,0,1-3.27,1.44,4.15,4.15,0,0,1-2.81-1,4.6,4.6,0,0,1-1.23-2,5.19,5.19,0,0,1-1.65,3,4.48,4.48,0,0,1-2.92.95,4.92,4.92,0,0,1-4.4-2.51,5.93,5.93,0,0,1-.6-2.18,25.87,25.87,0,0,1-.26-2.58v-9.92Zm-14.5,5.79v2.94a3.29,3.29,0,0,0,.52,2.09,1.76,1.76,0,0,0,1.41.61,1.62,1.62,0,0,0,1.31-.6,3.37,3.37,0,0,0,.5-2.12v-2.92Zm7.26,0v2.5a2.89,2.89,0,0,0,.46,1.88,1.64,1.64,0,0,0,1.32.52,1.57,1.57,0,0,0,1.26-.52,2.81,2.81,0,0,0,.46-1.84v-2.54Z"></path><path class="cls-4" d="M944.82,1309.34v5.75H930.9v9h-4.55v-14.72Z"></path><path class="cls-4" d="M935.57,1325.5a9.48,9.48,0,0,1,7,2.54,9.6,9.6,0,0,1,2.52,7.07c0,3.1-.82,5.48-2.47,7.16a9.31,9.31,0,0,1-6.94,2.51,11.3,11.3,0,0,1-5.3-1.1,7.83,7.83,0,0,1-3.23-3.17,10.52,10.52,0,0,1-1.15-5.17,12,12,0,0,1,1-5.21,7.83,7.83,0,0,1,3.15-3.34A10.34,10.34,0,0,1,935.57,1325.5Zm0,5.75a6.13,6.13,0,0,0-4,1,4,4,0,0,0,0,5.71c.8.68,2.23,1,4.3,1a5.65,5.65,0,0,0,3.81-1.06,3.64,3.64,0,0,0,1.2-2.87,3.51,3.51,0,0,0-1.22-2.79A6.11,6.11,0,0,0,935.55,1331.25Z"></path><path class="cls-4" d="M933.91,1360.26l-1.51,5a9.17,9.17,0,0,1-3.51-1.6,7,7,0,0,1-2.13-2.71,10.18,10.18,0,0,1-.72-4.12,12.07,12.07,0,0,1,.87-4.95,7.83,7.83,0,0,1,3.08-3.32,10.38,10.38,0,0,1,5.64-1.4q4.57,0,7,2.46a9.36,9.36,0,0,1,2.46,6.94,9.49,9.49,0,0,1-1.41,5.53,8.27,8.27,0,0,1-4.33,3l-1.12-5.08a4,4,0,0,0,1.23-.56,3.32,3.32,0,0,0,1-1.17,3.52,3.52,0,0,0,.35-1.57,3.37,3.37,0,0,0-1.56-3,6.51,6.51,0,0,0-3.63-.79c-2,0-3.45.32-4.21.94a3.72,3.72,0,0,0-.22,5.13A5.54,5.54,0,0,0,933.91,1360.26Z"></path><path class="cls-4" d="M944.82,1368.11v5.75h-7l7,6v7.65l-7-6.79-11.5,7.09v-7.08l7.6-3.92-3.09-3h-4.51v-5.75Z"></path><path class="cls-4" d="M791.53,1138.06l.17,2a4,4,0,0,0-2,.71,3.72,3.72,0,0,0-1.14,1.57,5.84,5.84,0,0,0-.44,2.31,4.82,4.82,0,0,0,.74,2.86,2.23,2.23,0,0,0,1.9,1,2,2,0,0,0,1.2-.37,2.69,2.69,0,0,0,.84-1.12,25.64,25.64,0,0,0,.92-3.22,13,13,0,0,1,1.07-3.14,4.07,4.07,0,0,1,1.37-1.45,3.43,3.43,0,0,1,1.88-.52,3.76,3.76,0,0,1,3.07,1.49,6.25,6.25,0,0,1,1.2,4,7.67,7.67,0,0,1-.56,3,4.39,4.39,0,0,1-4.07,2.8l-.15-2a3,3,0,0,0,2.24-1.1,4.31,4.31,0,0,0,.73-2.68,4.62,4.62,0,0,0-.64-2.67,1.93,1.93,0,0,0-1.65-.93,1.73,1.73,0,0,0-1.46.68,8.85,8.85,0,0,0-1,3,24.14,24.14,0,0,1-.9,3.24,5.1,5.1,0,0,1-1.56,2.16,3.79,3.79,0,0,1-2.31.73,4.1,4.1,0,0,1-2.42-.77,4.79,4.79,0,0,1-1.67-2.08,8,8,0,0,1-.57-3.17,7,7,0,0,1,1.42-4.61A4.9,4.9,0,0,1,791.53,1138.06Z"></path><path class="cls-4" d="M786.54,1153.16H802v2.06H788.37v7.68h-1.83Z"></path><path class="cls-4" d="M794.08,1164.82a8.21,8.21,0,0,1,6.1,2.14,7.25,7.25,0,0,1,2.13,5.33,7.58,7.58,0,0,1-.95,3.76,6.9,6.9,0,0,1-2.77,2.69,8.86,8.86,0,0,1-4.31,1,8.17,8.17,0,0,1-5.62-1.92,7.06,7.06,0,0,1-2.39-5.54,6.94,6.94,0,0,1,2.46-5.55A7.92,7.92,0,0,1,794.08,1164.82Zm0,2.13a6.06,6.06,0,0,0-4.45,1.55,5.31,5.31,0,0,0,0,7.57,6.52,6.52,0,0,0,4.7,1.54,8,8,0,0,0,3.58-.79,4.68,4.68,0,0,0,1.93-1.84,5.18,5.18,0,0,0,.72-2.68,5.07,5.07,0,0,0-1.58-3.84A6.91,6.91,0,0,0,794.06,1167Z"></path><path class="cls-4" d="M786.54,1186.35H800.2v-5.14H802v12.36H800.2v-5.16H786.54Z"></path><path class="cls-4" d="M786.54,1198.44l15.49,6v2.21L786.54,1213v-2.36l4.69-1.81v-6.56l-4.69-1.7Zm6.36,4.47v5.31l4.29-1.62c1.32-.5,2.39-.87,3.22-1.1a18.79,18.79,0,0,1-3-.86Z"></path><path class="cls-4" d="M808.8,613.22l2-.17a4,4,0,0,0,.71,2,3.72,3.72,0,0,0,1.57,1.14,5.91,5.91,0,0,0,2.31.44,4.89,4.89,0,0,0,2.86-.73,2.26,2.26,0,0,0,1-1.91,2,2,0,0,0-.37-1.2,2.59,2.59,0,0,0-1.12-.83,23.47,23.47,0,0,0-3.22-.93,12.57,12.57,0,0,1-3.14-1.07,4.16,4.16,0,0,1-1.45-1.37,3.43,3.43,0,0,1-.52-1.88,3.76,3.76,0,0,1,1.49-3.07,6.25,6.25,0,0,1,4-1.2,7.67,7.67,0,0,1,3,.56,4.39,4.39,0,0,1,2.8,4.07l-2,.15a3.11,3.11,0,0,0-1.11-2.24,4.31,4.31,0,0,0-2.68-.73,4.62,4.62,0,0,0-2.67.64,1.93,1.93,0,0,0-.92,1.65,1.72,1.72,0,0,0,.67,1.46,8.85,8.85,0,0,0,3,1,24.14,24.14,0,0,1,3.24.9,5.1,5.1,0,0,1,2.16,1.56,3.79,3.79,0,0,1,.73,2.31,4.15,4.15,0,0,1-.77,2.43,4.85,4.85,0,0,1-2.08,1.66,8,8,0,0,1-3.17.57,7,7,0,0,1-4.61-1.42A4.89,4.89,0,0,1,808.8,613.22Z"></path><path class="cls-4" d="M823.45,610.66a8.21,8.21,0,0,1,2.14-6.1,7.24,7.24,0,0,1,5.33-2.13,7.61,7.61,0,0,1,3.76,1,6.9,6.9,0,0,1,2.69,2.77,8.89,8.89,0,0,1,1,4.32,8.15,8.15,0,0,1-1.92,5.61,7,7,0,0,1-5.54,2.39,7,7,0,0,1-5.55-2.45A8,8,0,0,1,823.45,610.66Zm2.12,0a6.08,6.08,0,0,0,1.55,4.45,5.32,5.32,0,0,0,7.58,0,6.55,6.55,0,0,0,1.54-4.7,7.86,7.86,0,0,0-.8-3.58,4.59,4.59,0,0,0-1.83-1.93,5.2,5.2,0,0,0-2.68-.72,5.11,5.11,0,0,0-3.85,1.58A7,7,0,0,0,825.57,610.68Z"></path><path class="cls-4" d="M840.85,618.2V602.71h2.06v13.67h7.68v1.82Z"></path><path class="cls-4" d="M851.38,618.2l6-15.49h2.2L866,618.2h-2.36l-1.82-4.69h-6.56l-1.69,4.69Zm4.48-6.36h5.31l-1.62-4.29c-.5-1.32-.87-2.39-1.1-3.21a20.27,20.27,0,0,1-.86,3Z"></path><path class="cls-4" d="M867.61,618.2V602.71h6.91a8.81,8.81,0,0,1,3.2.43,3.72,3.72,0,0,1,1.69,1.44,4.21,4.21,0,0,1,.66,2.34,3.76,3.76,0,0,1-1.12,2.84,5.65,5.65,0,0,1-3.26,1.39A5.1,5.1,0,0,1,877,612a10.69,10.69,0,0,1,1.62,2l2.73,4.21h-2.6L876.68,615a19.68,19.68,0,0,0-1.82-2.55,3.53,3.53,0,0,0-1.19-.88,4.64,4.64,0,0,0-1.62-.23h-2.38v6.88Zm2.06-8.65h4.44a6.51,6.51,0,0,0,2.2-.29,2.51,2.51,0,0,0,1.19-.9,2.33,2.33,0,0,0,.45-1.42,2.24,2.24,0,0,0-.85-1.85,3.93,3.93,0,0,0-2.5-.67h-4.93Z"></path><path class="cls-4" d="M866.39,491.29v-15.5h6.92a8.67,8.67,0,0,1,3.19.44,3.74,3.74,0,0,1,1.7,1.44,4.17,4.17,0,0,1,.66,2.34,3.78,3.78,0,0,1-1.13,2.84,5.55,5.55,0,0,1-3.26,1.38,5.66,5.66,0,0,1,1.33.87,11.41,11.41,0,0,1,1.62,2l2.72,4.22h-2.59l-2.08-3.22a20.49,20.49,0,0,0-1.83-2.55,3.31,3.31,0,0,0-1.19-.88,4.32,4.32,0,0,0-1.61-.23h-2.39v6.88Zm2.06-8.66h4.44a6.62,6.62,0,0,0,2.21-.28,2.56,2.56,0,0,0,1.19-.9,2.42,2.42,0,0,0,.44-1.43,2.22,2.22,0,0,0-.84-1.84,4,4,0,0,0-2.51-.67h-4.93Z"></path><path class="cls-4" d="M882.16,491.29v-15.5h11.27v1.83h-9.2v4.74h8.62v1.83h-8.62v5.27h9.57v1.83Z"></path><path class="cls-4" d="M896,486.3l1.95-.17a4,4,0,0,0,.7,2,3.78,3.78,0,0,0,1.58,1.15,5.84,5.84,0,0,0,2.31.43,4.84,4.84,0,0,0,2.86-.73,2.24,2.24,0,0,0,1-1.9,2,2,0,0,0-.38-1.2,2.59,2.59,0,0,0-1.11-.84,24.45,24.45,0,0,0-3.22-.92,12.91,12.91,0,0,1-3.14-1.08,4,4,0,0,1-1.45-1.36,3.45,3.45,0,0,1-.52-1.88,3.75,3.75,0,0,1,1.49-3.08,6.27,6.27,0,0,1,4-1.19,7.71,7.71,0,0,1,3,.56,4.41,4.41,0,0,1,2.8,4.07l-2,.15a3,3,0,0,0-1.11-2.24,4.29,4.29,0,0,0-2.68-.73,4.66,4.66,0,0,0-2.67.64,1.93,1.93,0,0,0-.92,1.65,1.74,1.74,0,0,0,.68,1.46,9.32,9.32,0,0,0,3,1.05,21.4,21.4,0,0,1,3.24.9,5.07,5.07,0,0,1,2.15,1.56,3.68,3.68,0,0,1,.73,2.31,4.13,4.13,0,0,1-.76,2.42,4.83,4.83,0,0,1-2.08,1.66,8,8,0,0,1-3.18.58,7.07,7.07,0,0,1-4.61-1.42A4.92,4.92,0,0,1,896,486.3Z"></path><path class="cls-4" d="M911.21,491.29v-15.5h11.28v1.83h-9.21v4.74h8.62v1.83h-8.62v5.27h9.57v1.83Z"></path><path class="cls-4" d="M929.7,491.29V477.62h-5.14v-1.83h12.36v1.83h-5.16v13.67Z"></path><path class="cls-4" d="M734.72,1066.89l1.29-.17a2.68,2.68,0,0,0,.47,1.69,1.46,1.46,0,0,0,1.14.46,1.78,1.78,0,0,0,.91-.23,1.2,1.2,0,0,0,.53-.59,4.08,4.08,0,0,0,.19-1.45v-7.43h1.44v7.35a4,4,0,0,1-.8,2.8,3,3,0,0,1-2.26.82,2.79,2.79,0,0,1-2.11-.74A3.5,3.5,0,0,1,734.72,1066.89Z"></path><path class="cls-4" d="M746.77,1070v-2.59h-4.7v-1.21l4.95-7h1.09v7h1.47v1.21h-1.47V1070Zm0-3.8v-4.87l-3.39,4.87Z"></path><path class="cls-4" d="M983.4,1066.89l1.29-.17a2.75,2.75,0,0,0,.47,1.69,1.46,1.46,0,0,0,1.15.46,1.84,1.84,0,0,0,.91-.23,1.17,1.17,0,0,0,.52-.59,4.08,4.08,0,0,0,.19-1.45v-7.43h1.44v7.35a4,4,0,0,1-.8,2.8,3,3,0,0,1-2.25.82,2.8,2.8,0,0,1-2.12-.74A3.5,3.5,0,0,1,983.4,1066.89Z"></path><path class="cls-4" d="M998.09,1061.8l-1.33.1a2.36,2.36,0,0,0-.55-1.18,1.81,1.81,0,0,0-1.28-.51,2.11,2.11,0,0,0-1.87,1.18,6,6,0,0,0-.61,3,3,3,0,0,1,1.15-1.07,3.2,3.2,0,0,1,1.48-.36,3.07,3.07,0,0,1,2.25,1,3.45,3.45,0,0,1,1,2.55,4,4,0,0,1-.48,2,3.18,3.18,0,0,1-1.24,1.3,3.6,3.6,0,0,1-4.38-.79,6,6,0,0,1-1.07-4c0-2.09.36-3.57,1.09-4.46a3.48,3.48,0,0,1,2.8-1.33,3.15,3.15,0,0,1,2.07.69A3,3,0,0,1,998.09,1061.8Zm-5.43,4.66a2.61,2.61,0,0,0,.67,1.88,2.13,2.13,0,0,0,1.57.71,1.86,1.86,0,0,0,1.41-.67,2.63,2.63,0,0,0,.62-1.84,2.45,2.45,0,0,0-.62-1.78,2,2,0,0,0-1.5-.63,2.1,2.1,0,0,0-1.51.63A2.25,2.25,0,0,0,992.66,1066.46Z"></path><path class="cls-4" d="M1107.89,1353.41l.18,1.29a2.85,2.85,0,0,0-1.7.47,1.49,1.49,0,0,0-.45,1.15,1.71,1.71,0,0,0,.23.91,1.23,1.23,0,0,0,.58.53,4.41,4.41,0,0,0,1.45.18h7.44v1.44h-7.35a4,4,0,0,1-2.81-.8,3,3,0,0,1-.82-2.25,2.76,2.76,0,0,1,.74-2.11A3.49,3.49,0,0,1,1107.89,1353.41Z"></path><path class="cls-4" d="M1114.2,1361.29h1.28v7h-1a16.94,16.94,0,0,0-9.62-4.13v-1.37a13.4,13.4,0,0,1,3.16.53,16.71,16.71,0,0,1,3.43,1.37,14.5,14.5,0,0,1,2.78,1.89Z"></path><path class="cls-4" d="M1220.94,1312.92l.17,1.29a2.81,2.81,0,0,0-1.69.47,1.5,1.5,0,0,0-.46,1.15,1.72,1.72,0,0,0,.24.91,1.18,1.18,0,0,0,.58.53,4.32,4.32,0,0,0,1.45.19h7.43v1.43h-7.35a3.91,3.91,0,0,1-2.8-.8,3,3,0,0,1-.82-2.25,2.76,2.76,0,0,1,.74-2.11A3.48,3.48,0,0,1,1220.94,1312.92Z"></path><path class="cls-4" d="M1217.87,1325.73v-1.34h8.45a6.76,6.76,0,0,1-.91-1.24,9.11,9.11,0,0,1-.69-1.42H1226a7.91,7.91,0,0,0,1.26,1.94,4.7,4.7,0,0,0,1.45,1.19v.87Z"></path><path class="cls-4" d="M1217.87,1333.05v-1.34h8.45a6.65,6.65,0,0,1-.91-1.23,9.63,9.63,0,0,1-.69-1.43H1226a8.16,8.16,0,0,0,1.26,2,4.8,4.8,0,0,0,1.45,1.18v.87Z"></path><path class="cls-4" d="M1027,1280.24h10.79v2.16l-7.64,2.57-1.6.52,1.73.58,7.51,2.6v1.94H1027v-1.39h9l-9-3.16v-1.29l9.18-3.15H1027Z"></path><path class="cls-4" d="M1029.52,1292.55l.12,1.28c-1.14.2-1.71.81-1.71,1.81a2.09,2.09,0,0,0,.38,1.21,2.8,2.8,0,0,0,1.32.93,6,6,0,0,0,2.21.37h.27a3,3,0,0,1-1-1.12,2.87,2.87,0,0,1-.38-1.43,3.14,3.14,0,0,1,.94-2.29,3.48,3.48,0,0,1,2.59-1,3.54,3.54,0,0,1,2.67,1,3.32,3.32,0,0,1,1,2.42,3.47,3.47,0,0,1-2.15,3.24,7.61,7.61,0,0,1-3,.48,9.29,9.29,0,0,1-3.45-.51,3.84,3.84,0,0,1-1.8-1.4,3.54,3.54,0,0,1-.56-2,3.11,3.11,0,0,1,.68-2.07A3,3,0,0,1,1029.52,1292.55Zm4.77,5.46a2.53,2.53,0,0,0,1.82-.63,2,2,0,0,0,.66-1.46,2.06,2.06,0,0,0-.7-1.53,2.64,2.64,0,0,0-1.89-.68,2.28,2.28,0,0,0-1.69.64,2.14,2.14,0,0,0-.63,1.54,2,2,0,0,0,.63,1.5A2.43,2.43,0,0,0,1034.29,1298Z"></path><path class="cls-4" d="M811,1386.52h10.79v2.16l-7.64,2.58-1.6.51,1.73.58,7.51,2.61v1.93H811v-1.38h9l-9-3.17v-1.29l9.18-3.15H811Z"></path><path class="cls-4" d="M812.24,1405.66H811v-7.18a3.1,3.1,0,0,1,1.73.57,10.2,10.2,0,0,1,2.26,2.2,14,14,0,0,0,2.35,2.45,2.75,2.75,0,0,0,1.54.57,1.7,1.7,0,0,0,1.35-.59,2.34,2.34,0,0,0-.05-3,2.09,2.09,0,0,0-1.61-.6l.14-1.37a3.32,3.32,0,0,1,2.34,1.08,3.7,3.7,0,0,1,.78,2.46,3.28,3.28,0,0,1-.91,2.52,3,3,0,0,1-2.07.85,3.35,3.35,0,0,1-2-.67,15.61,15.61,0,0,1-2.52-2.54c-.66-.79-1.11-1.3-1.35-1.54a4,4,0,0,0-.73-.56Z"></path><path class="cls-4" d="M1076.76,1096.7h10.78v2.16l-7.63,2.58-1.6.51,1.73.58,7.5,2.61v1.93h-10.78v-1.38h9l-9-3.17v-1.29l9.17-3.15h-9.17Z"></path><path class="cls-4" d="M1084.91,1115.72l-.1-1.33a2.28,2.28,0,0,0,1.18-.56,1.77,1.77,0,0,0,.51-1.28,2.1,2.1,0,0,0-1.18-1.86,6,6,0,0,0-3-.61,3,3,0,0,1,1.07,1.15,3.19,3.19,0,0,1,.36,1.47,3.09,3.09,0,0,1-1,2.26,3.42,3.42,0,0,1-2.55,1,4,4,0,0,1-2-.48,3.21,3.21,0,0,1-1.3-1.25,3.37,3.37,0,0,1-.42-1.67,3.45,3.45,0,0,1,1.21-2.71,6.05,6.05,0,0,1,4-1.06c2.09,0,3.57.36,4.46,1.09a3.45,3.45,0,0,1,1.33,2.8,3.15,3.15,0,0,1-.69,2.07A3,3,0,0,1,1084.91,1115.72Zm-4.66-5.44a2.61,2.61,0,0,0-1.88.68,2.13,2.13,0,0,0-.71,1.57,1.87,1.87,0,0,0,.67,1.41,2.63,2.63,0,0,0,1.84.62,2.44,2.44,0,0,0,1.78-.62,2,2,0,0,0,.63-1.5,2.12,2.12,0,0,0-.62-1.51A2.28,2.28,0,0,0,1080.25,1110.28Z"></path><path class="cls-4" d="M727.5,1327.4h10.79v2.16l-7.64,2.58-1.6.51,1.73.58,7.51,2.61v1.93H727.5v-1.38h9l-9-3.17v-1.29l9.18-3.15H727.5Z"></path><path class="cls-4" d="M730.33,1339.51l.12,1.4a2.47,2.47,0,0,0-1.54.74,2,2,0,0,0-.5,1.33,2.15,2.15,0,0,0,.71,1.63,2.66,2.66,0,0,0,1.94.69,2.4,2.4,0,0,0,1.8-.66,2.34,2.34,0,0,0,.63-1.67,2.44,2.44,0,0,0-.27-1.13,2.23,2.23,0,0,0-.77-.84l.16-1.25,5.54,1v5.39h-1.26v-4.33l-2.91-.58a3.47,3.47,0,0,1,.68,2,3.34,3.34,0,0,1-3.5,3.38,3.94,3.94,0,0,1-2.71-1,3.44,3.44,0,0,1-1.13-2.7,3.57,3.57,0,0,1,.8-2.38A3.1,3.1,0,0,1,730.33,1339.51Z"></path><path class="cls-4" d="M833.77,1103.38h10.79v2.16l-7.64,2.57-1.59.52,1.73.58,7.5,2.6v1.94H833.77v-1.39h9l-9-3.16v-1.29l9.18-3.15h-9.18Z"></path><path class="cls-4" d="M833.77,1120.51v-1.34h8.44a6.88,6.88,0,0,1-.9-1.24,9.11,9.11,0,0,1-.69-1.42h1.28a7.91,7.91,0,0,0,1.26,1.94,4.7,4.7,0,0,0,1.45,1.19v.87Z"></path><path class="cls-4" d="M839.09,1123.92a7.66,7.66,0,0,1,4.12.9,3.21,3.21,0,0,1,.26,5.1,7.08,7.08,0,0,1-4.38,1.08,7.75,7.75,0,0,1-4.1-.89,3,3,0,0,1-1.4-2.66,3.1,3.1,0,0,1,1.24-2.54Q836.06,1123.92,839.09,1123.92Zm0,1.37a6.88,6.88,0,0,0-3.53.61,1.89,1.89,0,0,0-.89,1.59,1.81,1.81,0,0,0,.9,1.53,10.33,10.33,0,0,0,7,0,1.9,1.9,0,0,0,.89-1.61,1.77,1.77,0,0,0-.91-1.51A6.84,6.84,0,0,0,839.1,1125.29Z"></path><path class="cls-4" d="M1185.9,1027.69l1.29-.18a2.78,2.78,0,0,0,.47,1.7,1.49,1.49,0,0,0,1.15.45,1.77,1.77,0,0,0,.9-.23,1.13,1.13,0,0,0,.53-.58,4.14,4.14,0,0,0,.19-1.46V1020h1.44v7.35a4,4,0,0,1-.8,2.81,3,3,0,0,1-2.25.81,2.8,2.8,0,0,1-2.12-.73A3.53,3.53,0,0,1,1185.9,1027.69Z"></path><path class="cls-4" d="M1198.7,1030.75h-1.33v-8.44a7.26,7.26,0,0,1-1.24.9,8.47,8.47,0,0,1-1.43.7v-1.28a8.38,8.38,0,0,0,2-1.26,5,5,0,0,0,1.19-1.45h.86Z"></path><path class="cls-4" d="M1209.14,1029.48v1.27H1202a3.23,3.23,0,0,1,.58-1.73,10.2,10.2,0,0,1,2.2-2.26,13.5,13.5,0,0,0,2.44-2.35,2.69,2.69,0,0,0,.58-1.54,1.7,1.7,0,0,0-.59-1.34,2.11,2.11,0,0,0-3.58,1.65l-1.37-.14a3.28,3.28,0,0,1,1.07-2.34,3.75,3.75,0,0,1,2.47-.78,3.27,3.27,0,0,1,2.51.91,3,3,0,0,1,.85,2.07,3.35,3.35,0,0,1-.67,2,15.45,15.45,0,0,1-2.53,2.52c-.8.66-1.31,1.12-1.54,1.36a4.49,4.49,0,0,0-.57.72Z"></path><path class="cls-4" d="M1240.8,1027.69l1.29-.18a2.85,2.85,0,0,0,.47,1.7,1.49,1.49,0,0,0,1.15.45,1.81,1.81,0,0,0,.91-.23,1.18,1.18,0,0,0,.53-.58,4.39,4.39,0,0,0,.19-1.46V1020h1.43v7.35a4,4,0,0,1-.8,2.81,3,3,0,0,1-2.25.81,2.76,2.76,0,0,1-2.11-.73A3.49,3.49,0,0,1,1240.8,1027.69Z"></path><path class="cls-4" d="M1253.61,1030.75h-1.34v-8.44a7.26,7.26,0,0,1-1.24.9,8.41,8.41,0,0,1-1.42.7v-1.28a8.53,8.53,0,0,0,1.94-1.26,4.81,4.81,0,0,0,1.19-1.45h.87Z"></path><path class="cls-4" d="M1257,1025.43a7.64,7.64,0,0,1,.9-4.11,2.93,2.93,0,0,1,2.65-1.4,3,3,0,0,1,2.45,1.13,7.08,7.08,0,0,1,1.08,4.38,7.63,7.63,0,0,1-.9,4.1,2.92,2.92,0,0,1-2.65,1.4,3.12,3.12,0,0,1-2.54-1.23C1257.35,1028.87,1257,1027.45,1257,1025.43Zm1.36,0a6.83,6.83,0,0,0,.62,3.52,1.88,1.88,0,0,0,1.59.9,1.82,1.82,0,0,0,1.53-.91,10.3,10.3,0,0,0,0-7,1.88,1.88,0,0,0-1.61-.89,1.81,1.81,0,0,0-1.52.9A7,7,0,0,0,1258.38,1025.43Z"></path><path class="cls-4" d="M736.78,618.2V607.42h4.09a8,8,0,0,1,2.13.2,2.78,2.78,0,0,1,1.5,1,3,3,0,0,1,.56,1.86,3.28,3.28,0,0,1-.91,2.38,4.37,4.37,0,0,1-3.15.92h-2.79v4.38Zm1.43-5.66H741a3.14,3.14,0,0,0,1.94-.48,1.79,1.79,0,0,0,.62-1.48,2,2,0,0,0-.3-1.1,1.61,1.61,0,0,0-.74-.62,4.53,4.53,0,0,0-1.54-.17h-2.79Z"></path><path class="cls-4" d="M753.36,616.93v1.27h-7.18a3.12,3.12,0,0,1,.57-1.73,10.67,10.67,0,0,1,2.2-2.26,14.06,14.06,0,0,0,2.45-2.34,2.82,2.82,0,0,0,.58-1.55,1.69,1.69,0,0,0-.6-1.34,2.1,2.1,0,0,0-1.45-.52,2.17,2.17,0,0,0-1.53.56,2.1,2.1,0,0,0-.6,1.61l-1.37-.14a3.36,3.36,0,0,1,1.08-2.34,3.7,3.7,0,0,1,2.46-.78,3.32,3.32,0,0,1,2.52.91,3,3,0,0,1,.85,2.08,3.34,3.34,0,0,1-.67,2,15.2,15.2,0,0,1-2.54,2.52c-.79.67-1.3,1.12-1.54,1.36a3.91,3.91,0,0,0-.56.72Z"></path><path class="cls-4" d="M723.42,435.51V424.72h3.75a8.08,8.08,0,0,1,2.11.2,3.69,3.69,0,0,1,1.65.94,4.68,4.68,0,0,1,1.08,1.72,7.08,7.08,0,0,1,.39,2.47,6.68,6.68,0,0,1-.66,3.11A4,4,0,0,1,730,435a5.81,5.81,0,0,1-2.7.54Zm1.44-1.28h2.31a4.74,4.74,0,0,0,2.12-.37,2.48,2.48,0,0,0,1.11-1.19,6.23,6.23,0,0,0,.52-2.63,5.15,5.15,0,0,0-.55-2.58,2.73,2.73,0,0,0-1.4-1.26,5.87,5.87,0,0,0-1.84-.21h-2.27Z"></path><path class="cls-4" d="M740.74,427.35l-1.33.11a2.28,2.28,0,0,0-.55-1.18,1.77,1.77,0,0,0-1.28-.52,2.13,2.13,0,0,0-1.87,1.18,6,6,0,0,0-.61,3,3.1,3.1,0,0,1,1.15-1.07,3.2,3.2,0,0,1,1.48-.36,3.11,3.11,0,0,1,2.25.95,3.45,3.45,0,0,1,1,2.55,4,4,0,0,1-.48,2,3.21,3.21,0,0,1-1.25,1.3,3.37,3.37,0,0,1-1.67.42,3.43,3.43,0,0,1-2.7-1.21,6,6,0,0,1-1.07-4c0-2.09.36-3.57,1.09-4.46a3.48,3.48,0,0,1,2.8-1.33,3.15,3.15,0,0,1,2.07.69A3,3,0,0,1,740.74,427.35ZM735.31,432a2.61,2.61,0,0,0,.67,1.88,2.09,2.09,0,0,0,1.57.71,1.87,1.87,0,0,0,1.41-.67,2.61,2.61,0,0,0,.62-1.84,2.45,2.45,0,0,0-.62-1.78,2,2,0,0,0-1.5-.63,2.1,2.1,0,0,0-1.51.63A2.27,2.27,0,0,0,735.31,432Z"></path><path class="cls-4" d="M835.19,432.68l1.4-.12a2.47,2.47,0,0,0,.74,1.54,2,2,0,0,0,1.33.5,2.21,2.21,0,0,0,1.63-.71A2.66,2.66,0,0,0,841,432a2.4,2.4,0,0,0-.66-1.8,2.34,2.34,0,0,0-1.67-.63,2.44,2.44,0,0,0-1.13.27,2.15,2.15,0,0,0-.84.77l-1.25-.16,1.05-5.54h5.39v1.26h-4.33L837,429a3.45,3.45,0,0,1,2-.68,3.34,3.34,0,0,1,3.38,3.5,3.94,3.94,0,0,1-1,2.71,3.44,3.44,0,0,1-2.7,1.13,3.57,3.57,0,0,1-2.38-.8A3.1,3.1,0,0,1,835.19,432.68Z"></path><path class="cls-4" d="M844.16,435.51V424.72h3.74a8.16,8.16,0,0,1,2.12.2,3.61,3.61,0,0,1,1.64.94,4.55,4.55,0,0,1,1.08,1.72,7.08,7.08,0,0,1,.39,2.47,6.68,6.68,0,0,1-.66,3.11,4,4,0,0,1-1.69,1.81,5.84,5.84,0,0,1-2.7.54Zm1.43-1.28h2.31a4.79,4.79,0,0,0,2.13-.37,2.48,2.48,0,0,0,1.11-1.19,6.23,6.23,0,0,0,.51-2.63,5.16,5.16,0,0,0-.54-2.58,2.79,2.79,0,0,0-1.41-1.26,5.8,5.8,0,0,0-1.83-.21h-2.28Z"></path><path class="cls-4" d="M880.78,569.69l1.44.36a4.77,4.77,0,0,1-1.68,2.71,4.67,4.67,0,0,1-2.91.89,5.17,5.17,0,0,1-2.57-.6,4.47,4.47,0,0,1-1.76-1.92,6.84,6.84,0,0,1-.68-3.13,6.24,6.24,0,0,1,.68-3,4.6,4.6,0,0,1,1.85-1.86,5.42,5.42,0,0,1,2.61-.63,4.6,4.6,0,0,1,2.7.8,4.2,4.2,0,0,1,1.58,2.33l-1.41.34a2.86,2.86,0,0,0-2.9-2.25,3.74,3.74,0,0,0-1.88.45,3.25,3.25,0,0,0-1.27,1.41,5.42,5.42,0,0,0-.48,2.43,5,5,0,0,0,1,3.32,3.2,3.2,0,0,0,2.55,1.11,3.1,3.1,0,0,0,2-.68A3.45,3.45,0,0,0,880.78,569.69Z"></path><path class="cls-4" d="M890.47,572.2v1.27h-7.18a3.2,3.2,0,0,1,.58-1.73,10.2,10.2,0,0,1,2.2-2.26,13.85,13.85,0,0,0,2.44-2.35,2.69,2.69,0,0,0,.58-1.54,1.7,1.7,0,0,0-.59-1.34,2.11,2.11,0,0,0-1.46-.52,2,2,0,0,0-2.12,2.17l-1.37-.14a3.24,3.24,0,0,1,1.08-2.34,3.7,3.7,0,0,1,2.46-.78,3.26,3.26,0,0,1,2.51.91,3,3,0,0,1,.86,2.07,3.42,3.42,0,0,1-.67,2,15.61,15.61,0,0,1-2.54,2.52c-.79.66-1.31,1.11-1.54,1.35a4.32,4.32,0,0,0-.56.73Z"></path><path class="cls-4" d="M898.79,565.32l-1.33.1a2.24,2.24,0,0,0-.56-1.18,1.77,1.77,0,0,0-1.28-.51,2.11,2.11,0,0,0-1.86,1.17,6,6,0,0,0-.61,3,2.94,2.94,0,0,1,1.15-1.07,3.08,3.08,0,0,1,1.47-.37,3.13,3.13,0,0,1,2.26.95,3.45,3.45,0,0,1,1,2.55,4,4,0,0,1-.48,2,3.24,3.24,0,0,1-1.25,1.29,3.37,3.37,0,0,1-1.67.42,3.47,3.47,0,0,1-2.71-1.2,6.08,6.08,0,0,1-1.06-4c0-2.08.36-3.57,1.09-4.45a3.45,3.45,0,0,1,2.8-1.33,3.2,3.2,0,0,1,2.07.68A3,3,0,0,1,898.79,565.32ZM893.35,570a2.61,2.61,0,0,0,.68,1.88,2.09,2.09,0,0,0,1.57.71,1.87,1.87,0,0,0,1.41-.67,2.58,2.58,0,0,0,.61-1.83,2.48,2.48,0,0,0-.61-1.79,2,2,0,0,0-1.5-.63,2.09,2.09,0,0,0-1.51.63A2.28,2.28,0,0,0,893.35,570Z"></path><path class="cls-4" d="M720.63,469.39h10.79v2.16l-7.64,2.58-1.6.51,1.73.58,7.51,2.61v1.93H720.63v-1.38h9l-9-3.17v-1.29l9.18-3.15h-9.18Z"></path><path class="cls-4" d="M720.63,485.77h2.58v-4.7h1.22l7,4.95v1.09h-7v1.47h-1.22v-1.47h-2.58Zm3.8,0h4.86l-4.86-3.39Z"></path><path class="cls-4" d="M1163.08,401.89h10.79v2.16l-7.64,2.58-1.6.51,1.73.58,7.51,2.6v1.94h-10.79v-1.38h9l-9-3.17v-1.29l9.17-3.15h-9.17Z"></path><path class="cls-4" d="M1163.08,419v-1.34h8.44a6.22,6.22,0,0,1-.9-1.23,8.86,8.86,0,0,1-.7-1.43h1.28a8.16,8.16,0,0,0,1.26,2,4.8,4.8,0,0,0,1.45,1.18V419Z"></path><rect class="cls-8" x="896.62" y="396.9" width="33.56" height="23.55"></rect><rect class="cls-3" x="860.79" y="410.79" width="22.22" height="27.81"></rect><rect class="cls-3" x="945.37" y="410.79" width="22.22" height="27.81"></rect><rect class="cls-3" x="871.06" y="501.41" width="36.4" height="34.19" rx="2.92"></rect><rect class="cls-3" x="925.53" y="501.41" width="36.4" height="34.19" rx="2.38"></rect><rect class="cls-9" x="732.2" y="902.4" width="28.39" height="28.39"></rect><circle class="cls-10" cx="754.05" cy="1393.49" r="30.62"></circle><circle class="cls-10" cx="754.05" cy="1393.49" r="30.62"></circle><rect class="cls-11" x="711.01" y="1072.91" width="72.38" height="150.59"></rect><rect class="cls-12" x="727.5" y="1077.54" width="37.5" height="138.58"></rect><rect class="cls-3" x="716.86" y="1077.54" width="9.16" height="18.03"></rect><rect class="cls-3" x="716.86" y="1199.42" width="9.16" height="16.7"></rect><path class="cls-3" d="M719.1,1102.25H726a0,0,0,0,1,0,0v4.88a0,0,0,0,1,0,0H719.1a2.23,2.23,0,0,1-2.23-2.23v-.41A2.23,2.23,0,0,1,719.1,1102.25Z"></path><path class="cls-3" d="M719.1,1110.35H726a0,0,0,0,1,0,0v4.88a0,0,0,0,1,0,0H719.1a2.23,2.23,0,0,1-2.23-2.23v-.41A2.23,2.23,0,0,1,719.1,1110.35Z"></path><path class="cls-3" d="M719.1,1118.45H726a0,0,0,0,1,0,0v4.88a0,0,0,0,1,0,0H719.1a2.23,2.23,0,0,1-2.23-2.23v-.41A2.23,2.23,0,0,1,719.1,1118.45Z"></path><path class="cls-3" d="M719.1,1126.54H726a0,0,0,0,1,0,0v4.88a0,0,0,0,1,0,0H719.1a2.23,2.23,0,0,1-2.23-2.23v-.41a2.23,2.23,0,0,1,2.23-2.23Z"></path><path class="cls-3" d="M719.1,1134.64H726a0,0,0,0,1,0,0v4.88a0,0,0,0,1,0,0H719.1a2.23,2.23,0,0,1-2.23-2.23v-.41A2.23,2.23,0,0,1,719.1,1134.64Z"></path><path class="cls-3" d="M719.1,1142.74H726a0,0,0,0,1,0,0v4.88a0,0,0,0,1,0,0H719.1a2.23,2.23,0,0,1-2.23-2.23V1145A2.23,2.23,0,0,1,719.1,1142.74Z"></path><path class="cls-3" d="M719.1,1150.84H726a0,0,0,0,1,0,0v4.88a0,0,0,0,1,0,0H719.1a2.23,2.23,0,0,1-2.23-2.23v-.41A2.23,2.23,0,0,1,719.1,1150.84Z"></path><path class="cls-3" d="M719.1,1158.93H726a0,0,0,0,1,0,0v4.88a0,0,0,0,1,0,0H719.1a2.23,2.23,0,0,1-2.23-2.23v-.41A2.23,2.23,0,0,1,719.1,1158.93Z"></path><path class="cls-3" d="M719.1,1167H726a0,0,0,0,1,0,0v4.88a0,0,0,0,1,0,0H719.1a2.23,2.23,0,0,1-2.23-2.23v-.41A2.23,2.23,0,0,1,719.1,1167Z"></path><path class="cls-3" d="M719.1,1175.13H726a0,0,0,0,1,0,0V1180a0,0,0,0,1,0,0H719.1a2.23,2.23,0,0,1-2.23-2.23v-.41a2.23,2.23,0,0,1,2.23-2.23Z"></path><path class="cls-3" d="M719.1,1183.22H726a0,0,0,0,1,0,0v4.88a0,0,0,0,1,0,0H719.1a2.23,2.23,0,0,1-2.23-2.23v-.41a2.23,2.23,0,0,1,2.23-2.23Z"></path><path class="cls-3" d="M719.1,1191.32H726a0,0,0,0,1,0,0v4.88a0,0,0,0,1,0,0H719.1a2.23,2.23,0,0,1-2.23-2.23v-.41A2.23,2.23,0,0,1,719.1,1191.32Z"></path><rect class="cls-3" x="766.68" y="1077.54" width="9.16" height="18.03" transform="translate(1542.52 2173.12) rotate(-180)"></rect><rect class="cls-3" x="766.68" y="1199.42" width="9.16" height="16.7" transform="translate(1542.52 2415.54) rotate(-180)"></rect><path class="cls-3" d="M768.91,1102.25h6.93a0,0,0,0,1,0,0v4.88a0,0,0,0,1,0,0h-6.93a2.23,2.23,0,0,1-2.23-2.23v-.41A2.23,2.23,0,0,1,768.91,1102.25Z" transform="translate(1542.52 2209.38) rotate(-180)"></path><path class="cls-3" d="M768.91,1110.35h6.93a0,0,0,0,1,0,0v4.88a0,0,0,0,1,0,0h-6.93a2.23,2.23,0,0,1-2.23-2.23v-.41a2.23,2.23,0,0,1,2.23-2.23Z" transform="translate(1542.52 2225.57) rotate(-180)"></path><path class="cls-3" d="M768.91,1118.45h6.93a0,0,0,0,1,0,0v4.88a0,0,0,0,1,0,0h-6.93a2.23,2.23,0,0,1-2.23-2.23v-.41a2.23,2.23,0,0,1,2.23-2.23Z" transform="translate(1542.52 2241.77) rotate(-180)"></path><path class="cls-3" d="M768.91,1126.54h6.93a0,0,0,0,1,0,0v4.88a0,0,0,0,1,0,0h-6.93a2.23,2.23,0,0,1-2.23-2.23v-.41A2.23,2.23,0,0,1,768.91,1126.54Z" transform="translate(1542.52 2257.96) rotate(-180)"></path><path class="cls-3" d="M768.91,1134.64h6.93a0,0,0,0,1,0,0v4.88a0,0,0,0,1,0,0h-6.93a2.23,2.23,0,0,1-2.23-2.23v-.41A2.23,2.23,0,0,1,768.91,1134.64Z" transform="translate(1542.52 2274.16) rotate(-180)"></path><path class="cls-3" d="M768.91,1142.74h6.93a0,0,0,0,1,0,0v4.88a0,0,0,0,1,0,0h-6.93a2.23,2.23,0,0,1-2.23-2.23V1145a2.23,2.23,0,0,1,2.23-2.23Z" transform="translate(1542.52 2290.35) rotate(-180)"></path><path class="cls-3" d="M768.91,1150.84h6.93a0,0,0,0,1,0,0v4.88a0,0,0,0,1,0,0h-6.93a2.23,2.23,0,0,1-2.23-2.23v-.41A2.23,2.23,0,0,1,768.91,1150.84Z" transform="translate(1542.52 2306.55) rotate(-180)"></path><path class="cls-3" d="M768.91,1158.93h6.93a0,0,0,0,1,0,0v4.88a0,0,0,0,1,0,0h-6.93a2.23,2.23,0,0,1-2.23-2.23v-.41A2.23,2.23,0,0,1,768.91,1158.93Z" transform="translate(1542.52 2322.74) rotate(-180)"></path><path class="cls-3" d="M768.91,1167h6.93a0,0,0,0,1,0,0v4.88a0,0,0,0,1,0,0h-6.93a2.23,2.23,0,0,1-2.23-2.23v-.41A2.23,2.23,0,0,1,768.91,1167Z" transform="translate(1542.52 2338.94) rotate(-180)"></path><path class="cls-3" d="M768.91,1175.13h6.93a0,0,0,0,1,0,0V1180a0,0,0,0,1,0,0h-6.93a2.23,2.23,0,0,1-2.23-2.23v-.41A2.23,2.23,0,0,1,768.91,1175.13Z" transform="translate(1542.52 2355.13) rotate(-180)"></path><path class="cls-3" d="M768.91,1183.22h6.93a0,0,0,0,1,0,0v4.88a0,0,0,0,1,0,0h-6.93a2.23,2.23,0,0,1-2.23-2.23v-.41A2.23,2.23,0,0,1,768.91,1183.22Z" transform="translate(1542.52 2371.33) rotate(-180)"></path><path class="cls-3" d="M768.91,1191.32h6.93a0,0,0,0,1,0,0v4.88a0,0,0,0,1,0,0h-6.93a2.23,2.23,0,0,1-2.23-2.23v-.41A2.23,2.23,0,0,1,768.91,1191.32Z" transform="translate(1542.52 2387.52) rotate(-180)"></path><rect class="cls-11" x="1125.87" y="1256.45" width="72.38" height="209.39"></rect><rect class="cls-12" x="1142.36" y="1261.08" width="37.5" height="201.21"></rect><rect class="cls-3" x="1131.72" y="1261.08" width="9.16" height="18.03"></rect><rect class="cls-3" x="1131.72" y="1445.58" width="9.16" height="16.7"></rect><path class="cls-3" d="M1134,1285.79h6.93a0,0,0,0,1,0,0v4.88a0,0,0,0,1,0,0H1134a2.23,2.23,0,0,1-2.23-2.23V1288A2.23,2.23,0,0,1,1134,1285.79Z"></path><path class="cls-3" d="M1134,1293.88h6.93a0,0,0,0,1,0,0v4.88a0,0,0,0,1,0,0H1134a2.23,2.23,0,0,1-2.23-2.23v-.41a2.23,2.23,0,0,1,2.23-2.23Z"></path><path class="cls-3" d="M1134,1302h6.93a0,0,0,0,1,0,0v4.88a0,0,0,0,1,0,0H1134a2.23,2.23,0,0,1-2.23-2.23v-.41A2.23,2.23,0,0,1,1134,1302Z"></path><path class="cls-3" d="M1134,1310.08h6.93a0,0,0,0,1,0,0V1315a0,0,0,0,1,0,0H1134a2.23,2.23,0,0,1-2.23-2.23v-.41A2.23,2.23,0,0,1,1134,1310.08Z"></path><path class="cls-3" d="M1134,1318.18h6.93a0,0,0,0,1,0,0v4.88a0,0,0,0,1,0,0H1134a2.23,2.23,0,0,1-2.23-2.23v-.41A2.23,2.23,0,0,1,1134,1318.18Z"></path><path class="cls-3" d="M1134,1326.27h6.93a0,0,0,0,1,0,0v4.88a0,0,0,0,1,0,0H1134a2.23,2.23,0,0,1-2.23-2.23v-.41A2.23,2.23,0,0,1,1134,1326.27Z"></path><path class="cls-3" d="M1134,1334.37h6.93a0,0,0,0,1,0,0v4.88a0,0,0,0,1,0,0H1134a2.23,2.23,0,0,1-2.23-2.23v-.41A2.23,2.23,0,0,1,1134,1334.37Z"></path><path class="cls-3" d="M1134,1342.47h6.93a0,0,0,0,1,0,0v4.88a0,0,0,0,1,0,0H1134a2.23,2.23,0,0,1-2.23-2.23v-.41A2.23,2.23,0,0,1,1134,1342.47Z"></path><path class="cls-3" d="M1134,1350.57h6.93a0,0,0,0,1,0,0v4.88a0,0,0,0,1,0,0H1134a2.23,2.23,0,0,1-2.23-2.23v-.41A2.23,2.23,0,0,1,1134,1350.57Z"></path><path class="cls-3" d="M1134,1358.66h6.93a0,0,0,0,1,0,0v4.88a0,0,0,0,1,0,0H1134a2.23,2.23,0,0,1-2.23-2.23v-.41A2.23,2.23,0,0,1,1134,1358.66Z"></path><path class="cls-3" d="M1134,1366.76h6.93a0,0,0,0,1,0,0v4.88a0,0,0,0,1,0,0H1134a2.23,2.23,0,0,1-2.23-2.23V1369A2.23,2.23,0,0,1,1134,1366.76Z"></path><path class="cls-3" d="M1134,1374.86h6.93a0,0,0,0,1,0,0v4.88a0,0,0,0,1,0,0H1134a2.23,2.23,0,0,1-2.23-2.23v-.41A2.23,2.23,0,0,1,1134,1374.86Z"></path><rect class="cls-3" x="1181.53" y="1261.08" width="9.16" height="18.03" transform="translate(2372.23 2540.19) rotate(-180)"></rect><rect class="cls-3" x="1181.53" y="1445.58" width="9.16" height="16.7" transform="translate(2372.23 2907.87) rotate(-180)"></rect><path class="cls-3" d="M1183.77,1285.79h6.93a0,0,0,0,1,0,0v4.88a0,0,0,0,1,0,0h-6.93a2.23,2.23,0,0,1-2.23-2.23V1288A2.23,2.23,0,0,1,1183.77,1285.79Z" transform="translate(2372.23 2576.45) rotate(-180)"></path><path class="cls-3" d="M1183.77,1293.88h6.93a0,0,0,0,1,0,0v4.88a0,0,0,0,1,0,0h-6.93a2.23,2.23,0,0,1-2.23-2.23v-.41A2.23,2.23,0,0,1,1183.77,1293.88Z" transform="translate(2372.23 2592.64) rotate(-180)"></path><path class="cls-3" d="M1183.77,1302h6.93a0,0,0,0,1,0,0v4.88a0,0,0,0,1,0,0h-6.93a2.23,2.23,0,0,1-2.23-2.23v-.41A2.23,2.23,0,0,1,1183.77,1302Z" transform="translate(2372.23 2608.84) rotate(-180)"></path><path class="cls-3" d="M1183.77,1310.08h6.93a0,0,0,0,1,0,0V1315a0,0,0,0,1,0,0h-6.93a2.23,2.23,0,0,1-2.23-2.23v-.41A2.23,2.23,0,0,1,1183.77,1310.08Z" transform="translate(2372.23 2625.03) rotate(-180)"></path><path class="cls-3" d="M1183.77,1318.18h6.93a0,0,0,0,1,0,0v4.88a0,0,0,0,1,0,0h-6.93a2.23,2.23,0,0,1-2.23-2.23v-.41a2.23,2.23,0,0,1,2.23-2.23Z" transform="translate(2372.23 2641.23) rotate(-180)"></path><path class="cls-3" d="M1183.77,1326.27h6.93a0,0,0,0,1,0,0v4.88a0,0,0,0,1,0,0h-6.93a2.23,2.23,0,0,1-2.23-2.23v-.41A2.23,2.23,0,0,1,1183.77,1326.27Z" transform="translate(2372.23 2657.42) rotate(-180)"></path><path class="cls-3" d="M1183.77,1334.37h6.93a0,0,0,0,1,0,0v4.88a0,0,0,0,1,0,0h-6.93a2.23,2.23,0,0,1-2.23-2.23v-.41a2.23,2.23,0,0,1,2.23-2.23Z" transform="translate(2372.23 2673.62) rotate(-180)"></path><path class="cls-3" d="M1183.77,1342.47h6.93a0,0,0,0,1,0,0v4.88a0,0,0,0,1,0,0h-6.93a2.23,2.23,0,0,1-2.23-2.23v-.41A2.23,2.23,0,0,1,1183.77,1342.47Z" transform="translate(2372.23 2689.81) rotate(-180)"></path><path class="cls-3" d="M1183.77,1350.57h6.93a0,0,0,0,1,0,0v4.88a0,0,0,0,1,0,0h-6.93a2.23,2.23,0,0,1-2.23-2.23v-.41A2.23,2.23,0,0,1,1183.77,1350.57Z" transform="translate(2372.23 2706.01) rotate(-180)"></path><path class="cls-3" d="M1183.77,1358.66h6.93a0,0,0,0,1,0,0v4.88a0,0,0,0,1,0,0h-6.93a2.23,2.23,0,0,1-2.23-2.23v-.41a2.23,2.23,0,0,1,2.23-2.23Z" transform="translate(2372.23 2722.2) rotate(-180)"></path><path class="cls-3" d="M1183.77,1366.76h6.93a0,0,0,0,1,0,0v4.88a0,0,0,0,1,0,0h-6.93a2.23,2.23,0,0,1-2.23-2.23V1369A2.23,2.23,0,0,1,1183.77,1366.76Z" transform="translate(2372.23 2738.4) rotate(-180)"></path><path class="cls-3" d="M1183.77,1374.86h6.93a0,0,0,0,1,0,0v4.88a0,0,0,0,1,0,0h-6.93a2.23,2.23,0,0,1-2.23-2.23v-.41A2.23,2.23,0,0,1,1183.77,1374.86Z" transform="translate(2372.23 2754.59) rotate(-180)"></path><path class="cls-3" d="M1134,1383h6.93a0,0,0,0,1,0,0v4.88a0,0,0,0,1,0,0H1134a2.23,2.23,0,0,1-2.23-2.23v-.41A2.23,2.23,0,0,1,1134,1383Z"></path><path class="cls-3" d="M1183.77,1383h6.93a0,0,0,0,1,0,0v4.88a0,0,0,0,1,0,0h-6.93a2.23,2.23,0,0,1-2.23-2.23v-.41a2.23,2.23,0,0,1,2.23-2.23Z" transform="translate(2372.23 2770.79) rotate(-180)"></path><path class="cls-3" d="M1134,1391.05h6.93a0,0,0,0,1,0,0v4.88a0,0,0,0,1,0,0H1134a2.23,2.23,0,0,1-2.23-2.23v-.41a2.23,2.23,0,0,1,2.23-2.23Z"></path><path class="cls-3" d="M1183.77,1391.05h6.93a0,0,0,0,1,0,0v4.88a0,0,0,0,1,0,0h-6.93a2.23,2.23,0,0,1-2.23-2.23v-.41a2.23,2.23,0,0,1,2.23-2.23Z" transform="translate(2372.23 2786.98) rotate(-180)"></path><path class="cls-3" d="M1134,1399.15h6.93a0,0,0,0,1,0,0V1404a0,0,0,0,1,0,0H1134a2.23,2.23,0,0,1-2.23-2.23v-.41A2.23,2.23,0,0,1,1134,1399.15Z"></path><path class="cls-3" d="M1183.77,1399.15h6.93a0,0,0,0,1,0,0V1404a0,0,0,0,1,0,0h-6.93a2.23,2.23,0,0,1-2.23-2.23v-.41a2.23,2.23,0,0,1,2.23-2.23Z" transform="translate(2372.23 2803.18) rotate(-180)"></path><path class="cls-3" d="M1134,1407.25h6.93a0,0,0,0,1,0,0v4.88a0,0,0,0,1,0,0H1134a2.23,2.23,0,0,1-2.23-2.23v-.41a2.23,2.23,0,0,1,2.23-2.23Z"></path><path class="cls-3" d="M1183.77,1407.25h6.93a0,0,0,0,1,0,0v4.88a0,0,0,0,1,0,0h-6.93a2.23,2.23,0,0,1-2.23-2.23v-.41A2.23,2.23,0,0,1,1183.77,1407.25Z" transform="translate(2372.23 2819.37) rotate(-180)"></path><path class="cls-3" d="M1134,1415.35h6.93a0,0,0,0,1,0,0v4.88a0,0,0,0,1,0,0H1134a2.23,2.23,0,0,1-2.23-2.23v-.41a2.23,2.23,0,0,1,2.23-2.23Z"></path><path class="cls-3" d="M1183.77,1415.35h6.93a0,0,0,0,1,0,0v4.88a0,0,0,0,1,0,0h-6.93a2.23,2.23,0,0,1-2.23-2.23v-.41A2.23,2.23,0,0,1,1183.77,1415.35Z" transform="translate(2372.23 2835.57) rotate(-180)"></path><path class="cls-3" d="M1134,1423.44h6.93a0,0,0,0,1,0,0v4.88a0,0,0,0,1,0,0H1134a2.23,2.23,0,0,1-2.23-2.23v-.41A2.23,2.23,0,0,1,1134,1423.44Z"></path><path class="cls-3" d="M1183.77,1423.44h6.93a0,0,0,0,1,0,0v4.88a0,0,0,0,1,0,0h-6.93a2.23,2.23,0,0,1-2.23-2.23v-.41A2.23,2.23,0,0,1,1183.77,1423.44Z" transform="translate(2372.23 2851.76) rotate(-180)"></path><path class="cls-3" d="M1134,1431.54h6.93a0,0,0,0,1,0,0v4.88a0,0,0,0,1,0,0H1134a2.23,2.23,0,0,1-2.23-2.23v-.41A2.23,2.23,0,0,1,1134,1431.54Z"></path><path class="cls-3" d="M1183.77,1431.54h6.93a0,0,0,0,1,0,0v4.88a0,0,0,0,1,0,0h-6.93a2.23,2.23,0,0,1-2.23-2.23v-.41A2.23,2.23,0,0,1,1183.77,1431.54Z" transform="translate(2372.23 2867.96) rotate(-180)"></path><path class="cls-3" d="M1134,1439.64h6.93a0,0,0,0,1,0,0v4.88a0,0,0,0,1,0,0H1134a2.23,2.23,0,0,1-2.23-2.23v-.41a2.23,2.23,0,0,1,2.23-2.23Z"></path><path class="cls-3" d="M1183.77,1439.64h6.93a0,0,0,0,1,0,0v4.88a0,0,0,0,1,0,0h-6.93a2.23,2.23,0,0,1-2.23-2.23v-.41a2.23,2.23,0,0,1,2.23-2.23Z" transform="translate(2372.23 2884.15) rotate(-180)"></path><path class="cls-13" d="M1146.19,396.9h143.19V1549.35h-162a2.94,2.94,0,0,1-2.94-2.94v-154h-288v154a2.94,2.94,0,0,1-2.94,2.94H711V396.9H986.88"></path><polyline class="cls-11" points="720.77 1050.99 1158.2 1050.99 1158.2 1244.34 717.25 1244.34"></polyline><rect class="cls-11" x="961.24" y="1072.91" width="72.38" height="150.59"></rect><rect class="cls-12" x="977.73" y="1077.54" width="37.5" height="138.58"></rect><rect class="cls-3" x="967.09" y="1077.54" width="9.16" height="18.03"></rect><rect class="cls-3" x="967.09" y="1199.42" width="9.16" height="16.7"></rect><path class="cls-3" d="M969.32,1102.25h6.93a0,0,0,0,1,0,0v4.88a0,0,0,0,1,0,0h-6.93a2.23,2.23,0,0,1-2.23-2.23v-.41A2.23,2.23,0,0,1,969.32,1102.25Z"></path><path class="cls-3" d="M969.32,1110.35h6.93a0,0,0,0,1,0,0v4.88a0,0,0,0,1,0,0h-6.93a2.23,2.23,0,0,1-2.23-2.23v-.41A2.23,2.23,0,0,1,969.32,1110.35Z"></path><path class="cls-3" d="M969.32,1118.45h6.93a0,0,0,0,1,0,0v4.88a0,0,0,0,1,0,0h-6.93a2.23,2.23,0,0,1-2.23-2.23v-.41A2.23,2.23,0,0,1,969.32,1118.45Z"></path><path class="cls-3" d="M969.32,1126.54h6.93a0,0,0,0,1,0,0v4.88a0,0,0,0,1,0,0h-6.93a2.23,2.23,0,0,1-2.23-2.23v-.41a2.23,2.23,0,0,1,2.23-2.23Z"></path><path class="cls-3" d="M969.32,1134.64h6.93a0,0,0,0,1,0,0v4.88a0,0,0,0,1,0,0h-6.93a2.23,2.23,0,0,1-2.23-2.23v-.41A2.23,2.23,0,0,1,969.32,1134.64Z"></path><path class="cls-3" d="M969.32,1142.74h6.93a0,0,0,0,1,0,0v4.88a0,0,0,0,1,0,0h-6.93a2.23,2.23,0,0,1-2.23-2.23V1145A2.23,2.23,0,0,1,969.32,1142.74Z"></path><path class="cls-3" d="M969.32,1150.84h6.93a0,0,0,0,1,0,0v4.88a0,0,0,0,1,0,0h-6.93a2.23,2.23,0,0,1-2.23-2.23v-.41A2.23,2.23,0,0,1,969.32,1150.84Z"></path><path class="cls-3" d="M969.32,1158.93h6.93a0,0,0,0,1,0,0v4.88a0,0,0,0,1,0,0h-6.93a2.23,2.23,0,0,1-2.23-2.23v-.41A2.23,2.23,0,0,1,969.32,1158.93Z"></path><path class="cls-3" d="M969.32,1167h6.93a0,0,0,0,1,0,0v4.88a0,0,0,0,1,0,0h-6.93a2.23,2.23,0,0,1-2.23-2.23v-.41A2.23,2.23,0,0,1,969.32,1167Z"></path><path class="cls-3" d="M969.32,1175.13h6.93a0,0,0,0,1,0,0V1180a0,0,0,0,1,0,0h-6.93a2.23,2.23,0,0,1-2.23-2.23v-.41A2.23,2.23,0,0,1,969.32,1175.13Z"></path><path class="cls-3" d="M969.32,1183.22h6.93a0,0,0,0,1,0,0v4.88a0,0,0,0,1,0,0h-6.93a2.23,2.23,0,0,1-2.23-2.23v-.41A2.23,2.23,0,0,1,969.32,1183.22Z"></path><path class="cls-3" d="M969.32,1191.32h6.93a0,0,0,0,1,0,0v4.88a0,0,0,0,1,0,0h-6.93a2.23,2.23,0,0,1-2.23-2.23v-.41A2.23,2.23,0,0,1,969.32,1191.32Z"></path><rect class="cls-3" x="1016.91" y="1077.54" width="9.16" height="18.03" transform="translate(2042.97 2173.12) rotate(-180)"></rect><rect class="cls-3" x="1016.91" y="1199.42" width="9.16" height="16.7" transform="translate(2042.97 2415.54) rotate(-180)"></rect><path class="cls-3" d="M1019.14,1102.25h6.93a0,0,0,0,1,0,0v4.88a0,0,0,0,1,0,0h-6.93a2.23,2.23,0,0,1-2.23-2.23v-.41A2.23,2.23,0,0,1,1019.14,1102.25Z" transform="translate(2042.97 2209.38) rotate(-180)"></path><path class="cls-3" d="M1019.14,1110.35h6.93a0,0,0,0,1,0,0v4.88a0,0,0,0,1,0,0h-6.93a2.23,2.23,0,0,1-2.23-2.23v-.41a2.23,2.23,0,0,1,2.23-2.23Z" transform="translate(2042.97 2225.57) rotate(-180)"></path><path class="cls-3" d="M1019.14,1118.45h6.93a0,0,0,0,1,0,0v4.88a0,0,0,0,1,0,0h-6.93a2.23,2.23,0,0,1-2.23-2.23v-.41A2.23,2.23,0,0,1,1019.14,1118.45Z" transform="translate(2042.97 2241.77) rotate(-180)"></path><path class="cls-3" d="M1019.14,1126.54h6.93a0,0,0,0,1,0,0v4.88a0,0,0,0,1,0,0h-6.93a2.23,2.23,0,0,1-2.23-2.23v-.41A2.23,2.23,0,0,1,1019.14,1126.54Z" transform="translate(2042.97 2257.96) rotate(-180)"></path><path class="cls-3" d="M1019.14,1134.64h6.93a0,0,0,0,1,0,0v4.88a0,0,0,0,1,0,0h-6.93a2.23,2.23,0,0,1-2.23-2.23v-.41A2.23,2.23,0,0,1,1019.14,1134.64Z" transform="translate(2042.97 2274.16) rotate(-180)"></path><path class="cls-3" d="M1019.14,1142.74h6.93a0,0,0,0,1,0,0v4.88a0,0,0,0,1,0,0h-6.93a2.23,2.23,0,0,1-2.23-2.23V1145A2.23,2.23,0,0,1,1019.14,1142.74Z" transform="translate(2042.97 2290.35) rotate(-180)"></path><path class="cls-3" d="M1019.14,1150.84h6.93a0,0,0,0,1,0,0v4.88a0,0,0,0,1,0,0h-6.93a2.23,2.23,0,0,1-2.23-2.23v-.41A2.23,2.23,0,0,1,1019.14,1150.84Z" transform="translate(2042.97 2306.55) rotate(-180)"></path><path class="cls-3" d="M1019.14,1158.93h6.93a0,0,0,0,1,0,0v4.88a0,0,0,0,1,0,0h-6.93a2.23,2.23,0,0,1-2.23-2.23v-.41A2.23,2.23,0,0,1,1019.14,1158.93Z" transform="translate(2042.97 2322.74) rotate(-180)"></path><path class="cls-3" d="M1019.14,1167h6.93a0,0,0,0,1,0,0v4.88a0,0,0,0,1,0,0h-6.93a2.23,2.23,0,0,1-2.23-2.23v-.41A2.23,2.23,0,0,1,1019.14,1167Z" transform="translate(2042.97 2338.94) rotate(-180)"></path><path class="cls-3" d="M1019.14,1175.13h6.93a0,0,0,0,1,0,0V1180a0,0,0,0,1,0,0h-6.93a2.23,2.23,0,0,1-2.23-2.23v-.41A2.23,2.23,0,0,1,1019.14,1175.13Z" transform="translate(2042.97 2355.13) rotate(-180)"></path><path class="cls-3" d="M1019.14,1183.22h6.93a0,0,0,0,1,0,0v4.88a0,0,0,0,1,0,0h-6.93a2.23,2.23,0,0,1-2.23-2.23v-.41A2.23,2.23,0,0,1,1019.14,1183.22Z" transform="translate(2042.97 2371.33) rotate(-180)"></path><path class="cls-3" d="M1019.14,1191.32h6.93a0,0,0,0,1,0,0v4.88a0,0,0,0,1,0,0h-6.93a2.23,2.23,0,0,1-2.23-2.23v-.41A2.23,2.23,0,0,1,1019.14,1191.32Z" transform="translate(2042.97 2387.52) rotate(-180)"></path><polyline class="cls-11" points="717.25 1542.17 717.25 1253.98 919.27 1253.98"></polyline><polyline class="cls-11" points="948.48 1253.98 1205.03 1253.98 1205.03 1312.52"></polyline><circle class="cls-14" cx="754.05" cy="1393.49" r="21.44"></circle><circle class="cls-14" cx="754.05" cy="1393.49" r="21.44"></circle><circle class="cls-4" cx="754.05" cy="1393.49" r="11.02"></circle><circle class="cls-4" cx="754.05" cy="1393.49" r="11.02"></circle><circle class="cls-15" cx="754.05" cy="1393.49" r="11.02"></circle><circle class="cls-13" cx="754.05" cy="1393.49" r="30.62"></circle><circle class="cls-10" cx="895.64" cy="1107.21" r="35.24"></circle><circle class="cls-10" cx="895.64" cy="1107.21" r="35.24"></circle><circle class="cls-14" cx="895.64" cy="1107.21" r="24.68"></circle><circle class="cls-14" cx="895.64" cy="1107.21" r="24.68"></circle><circle class="cls-4" cx="895.64" cy="1107.21" r="12.68"></circle><circle class="cls-4" cx="895.64" cy="1107.21" r="12.68"></circle><circle class="cls-16" cx="895.64" cy="1107.21" r="12.68"></circle><circle class="cls-17" cx="895.64" cy="1107.21" r="35.24"></circle><circle class="cls-9" cx="995.13" cy="1253.98" r="26.26"></circle><circle class="cls-14" cx="995.13" cy="1253.98" r="18.15"></circle><circle class="cls-4" cx="995.13" cy="1253.98" r="12.11"></circle><circle class="cls-17" cx="995.13" cy="1253.98" r="26.26"></circle><circle class="cls-9" cx="895.64" cy="1180" r="26.26"></circle><circle class="cls-14" cx="895.64" cy="1180" r="18.15"></circle><circle class="cls-4" cx="895.64" cy="1180" r="12.11"></circle><circle class="cls-17" cx="895.64" cy="1180" r="26.26"></circle><circle class="cls-9" cx="755.81" cy="974.66" r="26.26"></circle><circle class="cls-4" cx="755.81" cy="974.66" r="12.11"></circle><circle class="cls-17" cx="755.81" cy="974.66" r="26.26"></circle><circle class="cls-9" cx="746.48" cy="867.62" r="15.05"></circle><circle class="cls-4" cx="746.48" cy="867.62" r="9.61"></circle><circle class="cls-18" cx="746.48" cy="867.62" r="15.05"></circle><circle class="cls-9" cx="746.48" cy="820.23" r="15.05"></circle><circle class="cls-4" cx="746.48" cy="820.23" r="9.61"></circle><circle class="cls-18" cx="746.48" cy="820.23" r="15.05"></circle><circle class="cls-9" cx="746.48" cy="772.85" r="15.05"></circle><circle class="cls-4" cx="746.48" cy="772.85" r="9.61"></circle><circle class="cls-18" cx="746.48" cy="772.85" r="15.05"></circle><circle class="cls-9" cx="746.48" cy="725.47" r="15.05"></circle><circle class="cls-4" cx="746.48" cy="725.47" r="9.61"></circle><circle class="cls-18" cx="746.48" cy="725.47" r="15.05"></circle><circle class="cls-9" cx="755.81" cy="657.81" r="26.26"></circle><circle class="cls-4" cx="755.81" cy="657.81" r="12.11"></circle><circle class="cls-17" cx="755.81" cy="657.81" r="26.26"></circle><circle class="cls-9" cx="1253.15" cy="974.66" r="26.26"></circle><circle class="cls-4" cx="1253.15" cy="974.66" r="12.11"></circle><circle class="cls-17" cx="1253.15" cy="974.66" r="26.26"></circle><circle class="cls-9" cx="1253.15" cy="657.81" r="26.26"></circle><circle class="cls-4" cx="1253.15" cy="657.81" r="12.11"></circle><circle class="cls-17" cx="1253.15" cy="657.81" r="26.26"></circle><circle class="cls-10" cx="1143.38" cy="1107.21" r="35.24"></circle><circle class="cls-10" cx="1143.38" cy="1107.21" r="35.24"></circle><circle class="cls-14" cx="1143.38" cy="1107.21" r="24.68"></circle><circle class="cls-14" cx="1143.38" cy="1107.21" r="24.68"></circle><circle class="cls-4" cx="1143.38" cy="1107.21" r="12.68"></circle><circle class="cls-4" cx="1143.38" cy="1107.21" r="12.68"></circle><circle class="cls-16" cx="1143.38" cy="1107.21" r="12.68"></circle><circle class="cls-17" cx="1143.38" cy="1107.21" r="35.24"></circle><circle class="cls-10" cx="1083.46" cy="1296.32" r="35.24"></circle><circle class="cls-10" cx="1083.46" cy="1296.32" r="35.24"></circle><circle class="cls-14" cx="1083.46" cy="1296.32" r="24.68"></circle><circle class="cls-14" cx="1083.46" cy="1296.32" r="24.68"></circle><circle class="cls-4" cx="1083.46" cy="1296.32" r="12.68"></circle><circle class="cls-4" cx="1083.46" cy="1296.32" r="12.68"></circle><circle class="cls-16" cx="1083.46" cy="1296.32" r="12.68"></circle><circle class="cls-17" cx="1083.46" cy="1296.32" r="35.24"></circle><circle class="cls-9" cx="1143.38" cy="1180" r="26.26"></circle><circle class="cls-14" cx="1143.38" cy="1180" r="18.15"></circle><circle class="cls-4" cx="1143.38" cy="1180" r="12.11"></circle><circle class="cls-17" cx="1143.38" cy="1180" r="26.26"></circle><circle class="cls-9" cx="1242.89" cy="1502" r="46.49"></circle><circle class="cls-10" cx="1158.9" cy="1499.18" r="30.62"></circle><circle class="cls-10" cx="1158.9" cy="1499.18" r="30.62"></circle><circle class="cls-14" cx="1158.9" cy="1499.18" r="21.44"></circle><circle class="cls-14" cx="1158.9" cy="1499.18" r="21.44"></circle><circle class="cls-4" cx="1242.89" cy="1502" r="21.44"></circle><circle class="cls-4" cx="1158.9" cy="1499.18" r="11.02"></circle><circle class="cls-4" cx="1158.9" cy="1499.18" r="11.02"></circle><circle class="cls-15" cx="1158.9" cy="1499.18" r="11.02"></circle><circle class="cls-13" cx="1158.9" cy="1499.18" r="30.62"></circle><circle class="cls-13" cx="1242.89" cy="1502" r="46.49"></circle><circle class="cls-9" cx="789.53" cy="1468.55" r="46.49"></circle><circle class="cls-4" cx="789.53" cy="1468.55" r="21.44"></circle><circle class="cls-13" cx="789.53" cy="1468.55" r="46.49"></circle><circle class="cls-9" cx="1213.43" cy="1122.4" r="15.19"></circle><circle class="cls-4" cx="1213.43" cy="1122.4" r="7"></circle><circle class="cls-19" cx="1213.43" cy="1122.4" r="15.19"></circle><circle class="cls-9" cx="1213.43" cy="1171.5" r="15.19"></circle><circle class="cls-4" cx="1213.43" cy="1171.5" r="7"></circle><circle class="cls-19" cx="1213.43" cy="1171.5" r="15.19"></circle><circle class="cls-9" cx="1213.43" cy="1220.6" r="15.19"></circle><circle class="cls-4" cx="1213.43" cy="1220.6" r="7"></circle><circle class="cls-19" cx="1213.43" cy="1220.6" r="15.19"></circle><rect class="cls-20" x="1189.34" y="1050.99" width="46.72" height="193.36"></rect><rect class="cls-9" x="1197.61" y="1057.58" width="31.65" height="31.65"></rect><circle class="cls-4" cx="1213.43" cy="1073.41" r="7"></circle><line class="cls-20" x1="1189.34" y1="1097.81" x2="1236.06" y2="1097.81"></line><circle class="cls-9" cx="1260.15" cy="1122.4" r="15.19"></circle><circle class="cls-4" cx="1260.15" cy="1122.4" r="7"></circle><circle class="cls-19" cx="1260.15" cy="1122.4" r="15.19"></circle><circle class="cls-9" cx="1260.15" cy="1171.5" r="15.19"></circle><circle class="cls-4" cx="1260.15" cy="1171.5" r="7"></circle><circle class="cls-19" cx="1260.15" cy="1171.5" r="15.19"></circle><circle class="cls-9" cx="1260.15" cy="1220.6" r="15.19"></circle><circle class="cls-4" cx="1260.15" cy="1220.6" r="7"></circle><circle class="cls-19" cx="1260.15" cy="1220.6" r="15.19"></circle><rect class="cls-20" x="1236.06" y="1050.99" width="46.72" height="193.36"></rect><rect class="cls-9" x="1244.33" y="1057.58" width="31.65" height="31.65"></rect><circle class="cls-4" cx="1260.15" cy="1073.41" r="7"></circle><line class="cls-20" x1="1236.06" y1="1097.81" x2="1282.78" y2="1097.81"></line><circle class="cls-9" cx="1260.15" cy="1316.29" r="15.19"></circle><circle class="cls-4" cx="1260.15" cy="1316.29" r="7"></circle><circle class="cls-19" cx="1260.15" cy="1316.29" r="15.19"></circle><circle class="cls-9" cx="1260.15" cy="1365.39" r="15.19"></circle><circle class="cls-4" cx="1260.15" cy="1365.39" r="7"></circle><circle class="cls-19" cx="1260.15" cy="1365.39" r="15.19"></circle><circle class="cls-9" cx="1260.15" cy="1414.49" r="15.19"></circle><circle class="cls-4" cx="1260.15" cy="1414.49" r="7"></circle><circle class="cls-19" cx="1260.15" cy="1414.49" r="15.19"></circle><rect class="cls-20" x="1236.06" y="1244.88" width="46.72" height="193.36"></rect><rect class="cls-9" x="1244.33" y="1251.47" width="31.65" height="31.65"></rect><circle class="cls-4" cx="1260.15" cy="1267.3" r="7"></circle><line class="cls-20" x1="1236.06" y1="1291.7" x2="1282.78" y2="1291.7"></line><polygon class="cls-20" points="1015.23 1306.26 1015.23 1312.82 1021.39 1312.82 1021.39 1328.41 1015.23 1328.41 1015.23 1334.97 1021.39 1334.97 1021.39 1350.57 1015.23 1350.57 1015.23 1358.38 981.79 1358.38 981.79 1283.25 1015.23 1283.25 1015.23 1290.66 1021.39 1290.66 1021.39 1306.26 1015.23 1306.26"></polygon><circle class="cls-4" cx="746.39" cy="916.6" r="9.61"></circle><rect class="cls-18" x="732.2" y="902.4" width="28.39" height="28.39"></rect><rect class="cls-17" x="788.13" y="669.92" width="432.31" height="292.63" rx="10.29"></rect><path class="cls-4" d="M1206.43,700.68V868.87a8.36,8.36,0,0,1-8.36,8.36h-64.48a8.36,8.36,0,0,0-8.36,8.36V940a8.36,8.36,0,0,1-8.36,8.36h-306a8.36,8.36,0,0,1-8.36-8.36V774.49a8.36,8.36,0,0,1,8.36-8.36h64.32a8.36,8.36,0,0,0,8.36-8.36V700.68a8.36,8.36,0,0,1,8.36-8.36h306.19A8.36,8.36,0,0,1,1206.43,700.68Z"></path><path class="cls-21" d="M1198.07,700.32a.36.36,0,0,1,.36.36V868.87a.36.36,0,0,1-.36.36h-64.48a16.38,16.38,0,0,0-16.36,16.36V940a.36.36,0,0,1-.36.36h-306a.36.36,0,0,1-.36-.36V774.49a.36.36,0,0,1,.36-.36h64.32a16.38,16.38,0,0,0,16.36-16.36V700.68a.36.36,0,0,1,.36-.36h306.19m0-8H891.88a8.36,8.36,0,0,0-8.36,8.36v57.09a8.36,8.36,0,0,1-8.36,8.36H810.84a8.36,8.36,0,0,0-8.36,8.36V940a8.36,8.36,0,0,0,8.36,8.36h306a8.36,8.36,0,0,0,8.36-8.36V885.59a8.36,8.36,0,0,1,8.36-8.36h64.48a8.36,8.36,0,0,0,8.36-8.36V700.68a8.36,8.36,0,0,0-8.36-8.36Z"></path><path class="cls-17" d="M1206.43,700.68V868.87a8.36,8.36,0,0,1-8.36,8.36h-64.48a8.36,8.36,0,0,0-8.36,8.36V940a8.36,8.36,0,0,1-8.36,8.36h-306a8.36,8.36,0,0,1-8.36-8.36V774.49a8.36,8.36,0,0,1,8.36-8.36h64.32a8.36,8.36,0,0,0,8.36-8.36V700.68a8.36,8.36,0,0,1,8.36-8.36h306.19A8.36,8.36,0,0,1,1206.43,700.68Z"></path><rect class="cls-10" x="772.72" y="913.66" width="19.9" height="12.55" rx="2.23"></rect><rect class="cls-10" x="772.72" y="892" width="19.9" height="12.55" rx="2.23"></rect><rect class="cls-10" x="772.72" y="870.34" width="19.9" height="12.55" rx="2.23"></rect><rect class="cls-10" x="772.72" y="848.68" width="19.9" height="12.55" rx="2.23"></rect><rect class="cls-10" x="772.72" y="827.02" width="19.9" height="12.55" rx="2.23"></rect><rect class="cls-10" x="772.72" y="805.36" width="19.9" height="12.55" rx="2.23"></rect><rect class="cls-10" x="772.72" y="783.7" width="19.9" height="12.55" rx="2.23"></rect><rect class="cls-10" x="772.72" y="762.04" width="19.9" height="12.55" rx="2.23"></rect><rect class="cls-10" x="772.72" y="740.39" width="19.9" height="12.55" rx="2.23"></rect><rect class="cls-10" x="772.72" y="718.73" width="19.9" height="12.55" rx="2.23"></rect><rect class="cls-10" x="772.72" y="697.07" width="19.9" height="12.55" rx="2.23"></rect><rect class="cls-10" x="812.94" y="958.88" width="13.69" height="13.18" rx="1.89" transform="translate(1785.26 145.68) rotate(90)"></rect><rect class="cls-10" x="835.69" y="958.88" width="13.69" height="13.18" rx="1.89" transform="translate(1808 122.94) rotate(90)"></rect><rect class="cls-10" x="858.43" y="958.88" width="13.69" height="13.18" rx="1.89" transform="translate(1830.75 100.19) rotate(90)"></rect><rect class="cls-10" x="881.18" y="958.88" width="13.69" height="13.18" rx="1.89" transform="translate(1853.49 77.45) rotate(90)"></rect><rect class="cls-10" x="903.92" y="958.88" width="13.69" height="13.18" rx="1.89" transform="translate(1876.24 54.7) rotate(90)"></rect><rect class="cls-10" x="926.67" y="958.88" width="13.69" height="13.18" rx="1.89" transform="translate(1898.98 31.96) rotate(90)"></rect><rect class="cls-10" x="949.41" y="958.88" width="13.69" height="13.18" rx="1.89" transform="translate(1921.73 9.21) rotate(90)"></rect><rect class="cls-10" x="972.16" y="958.88" width="13.69" height="13.18" rx="1.89" transform="translate(1944.47 -13.53) rotate(90)"></rect><rect class="cls-10" x="994.9" y="958.88" width="13.69" height="13.18" rx="1.89" transform="translate(1967.22 -36.28) rotate(90)"></rect><rect class="cls-10" x="1017.65" y="958.88" width="13.69" height="13.18" rx="1.89" transform="translate(1989.96 -59.02) rotate(90)"></rect><rect class="cls-10" x="1040.39" y="958.88" width="13.69" height="13.18" rx="1.89" transform="translate(2012.71 -81.77) rotate(90)"></rect><rect class="cls-10" x="1063.02" y="958.88" width="13.69" height="13.18" rx="1.89" transform="translate(2035.34 -104.4) rotate(90)"></rect><rect class="cls-10" x="1085.77" y="958.88" width="13.69" height="13.18" rx="1.89" transform="translate(2058.08 -127.14) rotate(90)"></rect><rect class="cls-10" x="1108.51" y="958.88" width="13.69" height="13.18" rx="1.89" transform="translate(2080.83 -149.89) rotate(90)"></rect><rect class="cls-10" x="881.18" y="663.33" width="13.69" height="13.18" rx="1.89" transform="translate(1557.94 -218.1) rotate(90)"></rect><rect class="cls-10" x="903.92" y="663.33" width="13.69" height="13.18" rx="1.89" transform="translate(1580.69 -240.85) rotate(90)"></rect><rect class="cls-10" x="926.67" y="663.33" width="13.69" height="13.18" rx="1.89" transform="translate(1603.43 -263.59) rotate(90)"></rect><rect class="cls-10" x="949.41" y="663.33" width="13.69" height="13.18" rx="1.89" transform="translate(1626.18 -286.34) rotate(90)"></rect><rect class="cls-10" x="972.16" y="663.33" width="13.69" height="13.18" rx="1.89" transform="translate(1648.92 -309.08) rotate(90)"></rect><rect class="cls-10" x="994.9" y="663.33" width="13.69" height="13.18" rx="1.89" transform="translate(1671.67 -331.83) rotate(90)"></rect><rect class="cls-10" x="1017.65" y="663.33" width="13.69" height="13.18" rx="1.89" transform="translate(1694.41 -354.57) rotate(90)"></rect><rect class="cls-10" x="1040.39" y="663.33" width="13.69" height="13.18" rx="1.89" transform="translate(1717.16 -377.32) rotate(90)"></rect><rect class="cls-10" x="1063.14" y="663.33" width="13.69" height="13.18" rx="1.89" transform="translate(1739.9 -400.06) rotate(90)"></rect><rect class="cls-10" x="1085.88" y="663.33" width="13.69" height="13.18" rx="1.89" transform="translate(1762.65 -422.81) rotate(90)"></rect><rect class="cls-10" x="1108.63" y="663.33" width="13.69" height="13.18" rx="1.89" transform="translate(1785.39 -445.55) rotate(90)"></rect><rect class="cls-10" x="1131.26" y="663.33" width="13.69" height="13.18" rx="1.89" transform="translate(1808.02 -468.18) rotate(90)"></rect><rect class="cls-10" x="1154" y="663.33" width="13.69" height="13.18" rx="1.89" transform="translate(1830.77 -490.93) rotate(90)"></rect><rect class="cls-10" x="1176.75" y="663.33" width="13.69" height="13.18" rx="1.89" transform="translate(1853.51 -513.67) rotate(90)"></rect><rect class="cls-10" x="1218.67" y="913.66" width="19.9" height="12.55" rx="2.23"></rect><rect class="cls-10" x="1218.67" y="892" width="19.9" height="12.55" rx="2.23"></rect><rect class="cls-10" x="1218.67" y="848.68" width="19.9" height="12.55" rx="2.23"></rect><rect class="cls-10" x="1218.67" y="827.02" width="19.9" height="12.55" rx="2.23"></rect><rect class="cls-10" x="1218.67" y="805.36" width="19.9" height="12.55" rx="2.23"></rect><rect class="cls-10" x="1218.67" y="783.7" width="19.9" height="12.55" rx="2.23"></rect><rect class="cls-10" x="1218.67" y="762.04" width="19.9" height="12.55" rx="2.23"></rect><rect class="cls-10" x="1218.67" y="740.39" width="19.9" height="12.55" rx="2.23"></rect><rect class="cls-10" x="1218.67" y="718.73" width="19.9" height="12.55" rx="2.23"></rect><rect class="cls-10" x="1218.67" y="697.07" width="19.9" height="12.55" rx="2.23"></rect><rect class="cls-22" x="817.43" y="637.7" width="14.28" height="27.53" rx="2.06"></rect><rect class="cls-3" x="820.52" y="641.2" width="9.03" height="4.59" rx="1.14"></rect><rect class="cls-8" x="820.53" y="647.22" width="9.03" height="8.28" rx="1.54"></rect><rect class="cls-3" x="820.52" y="656.65" width="9.03" height="5.06" rx="1.2"></rect><rect class="cls-22" x="980.42" y="634.42" width="14.28" height="27.53" rx="2.06" transform="translate(1635.75 -339.37) rotate(90)"></rect><rect class="cls-3" x="991.02" y="646.36" width="9.03" height="4.59" rx="1.14" transform="translate(1644.19 -346.88) rotate(90)"></rect><rect class="cls-8" x="983.16" y="644.52" width="9.03" height="8.28" rx="1.54" transform="matrix(0, 1, -1, 0, 1636.33, -339.01)"></rect><rect class="cls-3" x="975.33" y="646.13" width="9.03" height="5.06" rx="1.2" transform="matrix(0, 1, -1, 0, 1628.5, -331.19)"></rect><rect class="cls-22" x="1099.35" y="546.1" width="14.28" height="27.53" rx="2.06" transform="translate(1666.36 -546.63) rotate(90)"></rect><rect class="cls-3" x="1109.96" y="558.04" width="9.03" height="4.59" rx="1.14" transform="translate(1674.8 -554.14) rotate(90)"></rect><rect class="cls-8" x="1102.09" y="556.2" width="9.03" height="8.28" rx="1.54" transform="matrix(0, 1, -1, 0, 1666.94, -546.27)"></rect><rect class="cls-3" x="1094.27" y="557.8" width="9.03" height="5.06" rx="1.2" transform="matrix(0, 1, -1, 0, 1659.11, -538.45)"></rect><rect class="cls-22" x="797.03" y="975.92" width="14.28" height="27.53" rx="2.06" transform="translate(1608.35 1979.36) rotate(180)"></rect><rect class="cls-3" x="799.19" y="995.37" width="9.03" height="4.59" rx="1.14" transform="translate(1607.41 1995.32) rotate(180)"></rect><rect class="cls-8" x="799.19" y="985.66" width="9.03" height="8.28" rx="1.54" transform="translate(1607.4 1979.59) rotate(180)"></rect><rect class="cls-3" x="799.19" y="979.44" width="9.03" height="5.06" rx="1.2" transform="translate(1607.41 1963.94) rotate(180)"></rect><rect class="cls-22" x="815.4" y="975.92" width="14.28" height="27.53" rx="2.06" transform="translate(1645.09 1979.36) rotate(180)"></rect><rect class="cls-3" x="817.56" y="995.37" width="9.03" height="4.59" rx="1.14" transform="translate(1644.16 1995.32) rotate(180)"></rect><rect class="cls-8" x="817.56" y="985.66" width="9.03" height="8.28" rx="1.54" transform="translate(1644.14 1979.59) rotate(180)"></rect><rect class="cls-3" x="817.56" y="979.44" width="9.03" height="5.06" rx="1.2" transform="translate(1644.16 1963.94) rotate(180)"></rect><rect class="cls-22" x="833.77" y="975.92" width="14.28" height="27.53" rx="2.06" transform="translate(1681.83 1979.36) rotate(180)"></rect><rect class="cls-3" x="835.93" y="995.37" width="9.03" height="4.59" rx="1.14" transform="translate(1680.9 1995.32) rotate(180)"></rect><rect class="cls-8" x="835.93" y="985.66" width="9.03" height="8.28" rx="1.54" transform="translate(1680.88 1979.59) rotate(180)"></rect><rect class="cls-3" x="835.93" y="979.44" width="9.03" height="5.06" rx="1.2" transform="translate(1680.9 1963.94) rotate(180)"></rect><rect class="cls-22" x="869.1" y="975.92" width="14.28" height="27.53" rx="2.06" transform="translate(1752.49 1979.36) rotate(180)"></rect><rect class="cls-3" x="871.26" y="995.37" width="9.03" height="4.59" rx="1.14" transform="translate(1751.56 1995.32) rotate(180)"></rect><rect class="cls-8" x="871.26" y="985.66" width="9.03" height="8.28" rx="1.54" transform="translate(1751.54 1979.59) rotate(180)"></rect><rect class="cls-3" x="871.26" y="979.44" width="9.03" height="5.06" rx="1.2" transform="translate(1751.56 1963.94) rotate(180)"></rect><rect class="cls-22" x="887.47" y="975.92" width="14.28" height="27.53" rx="2.06" transform="translate(1789.23 1979.36) rotate(180)"></rect><rect class="cls-3" x="889.63" y="995.37" width="9.03" height="4.59" rx="1.14" transform="translate(1788.3 1995.32) rotate(180)"></rect><rect class="cls-8" x="889.63" y="985.66" width="9.03" height="8.28" rx="1.54" transform="translate(1788.28 1979.59) rotate(180)"></rect><rect class="cls-3" x="889.63" y="979.44" width="9.03" height="5.06" rx="1.2" transform="translate(1788.3 1963.94) rotate(180)"></rect><rect class="cls-22" x="905.84" y="975.92" width="14.28" height="27.53" rx="2.06" transform="translate(1825.97 1979.36) rotate(180)"></rect><rect class="cls-3" x="908" y="995.37" width="9.03" height="4.59" rx="1.14" transform="translate(1825.04 1995.32) rotate(180)"></rect><rect class="cls-8" x="908" y="985.66" width="9.03" height="8.28" rx="1.54" transform="translate(1825.03 1979.59) rotate(180)"></rect><rect class="cls-3" x="908" y="979.44" width="9.03" height="5.06" rx="1.2" transform="translate(1825.04 1963.94) rotate(180)"></rect><rect class="cls-22" x="989.62" y="978.07" width="14.28" height="27.53" rx="2.06" transform="translate(4.92 1988.6) rotate(-90)"></rect><rect class="cls-3" x="984.27" y="989.08" width="9.03" height="4.59" rx="1.14" transform="translate(-2.59 1980.16) rotate(-90)"></rect><rect class="cls-8" x="992.13" y="987.23" width="9.03" height="8.28" rx="1.54" transform="translate(5.28 1988.02) rotate(-90)"></rect><rect class="cls-3" x="999.95" y="988.84" width="9.03" height="5.06" rx="1.2" transform="translate(13.1 1995.85) rotate(-90)"></rect><rect class="cls-22" x="889.72" y="617.61" width="27.53" height="53.08" rx="3.97" transform="translate(1547.63 -259.34) rotate(90)"></rect><rect class="cls-3" x="910.16" y="640.63" width="17.41" height="8.84" rx="2.21" transform="translate(1563.91 -273.82) rotate(90)"></rect><rect class="cls-8" x="895" y="637.08" width="17.41" height="15.96" rx="2.96" transform="matrix(0, 1, -1, 0, 1548.76, -258.64)"></rect><rect class="cls-3" x="879.92" y="640.17" width="17.41" height="9.76" rx="2.32" transform="matrix(0, 1, -1, 0, 1533.67, -243.57)"></rect><rect class="cls-22" x="849.6" y="634.42" width="14.28" height="27.53" rx="2.06" transform="matrix(0, 1, -1, 0, 1504.93, -208.55)"></rect><rect class="cls-3" x="860.2" y="646.36" width="9.03" height="4.59" rx="1.14" transform="translate(1513.37 -216.06) rotate(90)"></rect><rect class="cls-9" x="852.34" y="644.52" width="9.03" height="8.28" rx="1.54" transform="matrix(0, 1, -1, 0, 1505.52, -208.19)"></rect><rect class="cls-3" x="844.52" y="646.12" width="9.03" height="5.06" rx="1.2" transform="matrix(0, 1, -1, 0, 1497.69, -200.37)"></rect><rect class="cls-22" x="941.94" y="634.42" width="14.28" height="27.53" rx="2.06" transform="matrix(0, 1, -1, 0, 1597.27, -300.89)"></rect><rect class="cls-3" x="952.55" y="646.36" width="9.03" height="4.59" rx="1.14" transform="translate(1605.72 -308.41) rotate(90)"></rect><rect class="cls-9" x="944.68" y="644.52" width="9.03" height="8.28" rx="1.54" transform="matrix(0, 1, -1, 0, 1597.86, -300.53)"></rect><rect class="cls-3" x="936.86" y="646.12" width="9.03" height="5.06" rx="1.2" transform="matrix(0, 1, -1, 0, 1590.03, -292.72)"></rect><circle class="cls-23" cx="798.24" cy="648.66" r="6.08"></circle><circle class="cls-23" cx="1201.28" cy="656.65" r="6.08"></circle><circle class="cls-23" cx="1194.6" cy="979.44" r="6.08"></circle><polyline class="cls-22" points="1086.93 552.72 1086.93 578.81 1041.69 578.81 1041.69 552.72"></polyline><rect class="cls-8" x="1046.63" y="552.72" width="35.69" height="18.11"></rect><rect class="cls-3" x="1050.2" y="539.63" width="10.46" height="10.46"></rect><rect class="cls-3" x="1059.25" y="573.47" width="10.46" height="10.46"></rect><rect class="cls-3" x="1068.59" y="539.63" width="10.46" height="10.46"></rect><rect class="cls-24" x="1131.34" y="545.94" width="34.43" height="34.43"></rect><line class="cls-24" x1="1148.56" y1="550.67" x2="1148.56" y2="576.36"></line><path class="cls-24" d="M1135.2,563.52s28.29-.52,27.77,0"></path><rect class="cls-24" x="807.82" y="545.94" width="34.43" height="34.43"></rect><line class="cls-24" x1="825.04" y1="550.67" x2="825.04" y2="576.36"></line><path class="cls-24" d="M811.68,563.52s28.28-.52,27.76,0"></path><circle class="cls-9" cx="1210.93" cy="469.85" r="46.49"></circle><circle class="cls-4" cx="1210.93" cy="469.85" r="21.44"></circle><circle class="cls-13" cx="1210.93" cy="469.85" r="46.49"></circle><circle class="cls-9" cx="792.16" cy="472.86" r="46.49"></circle><circle class="cls-4" cx="792.16" cy="472.86" r="21.44"></circle><circle class="cls-13" cx="792.16" cy="472.86" r="46.49"></circle><rect class="cls-9" x="720.63" y="399.41" width="42.8" height="21.05" rx="1.19"></rect><rect class="cls-3" x="722.28" y="400.76" width="5.42" height="17.71"></rect><rect class="cls-3" x="755.24" y="400.76" width="5.42" height="17.71"></rect><circle class="cls-4" cx="740.78" cy="408.86" r="6.68"></circle><rect class="cls-9" x="814.43" y="399.41" width="42.8" height="21.05" rx="1.19"></rect><rect class="cls-3" x="816.09" y="400.76" width="5.42" height="17.71"></rect><rect class="cls-3" x="849.04" y="400.76" width="5.42" height="17.71"></rect><circle class="cls-4" cx="834.59" cy="408.86" r="6.68"></circle><rect class="cls-9" x="1241.88" y="399.41" width="42.8" height="21.05" rx="1.19"></rect><rect class="cls-3" x="1243.53" y="400.76" width="5.42" height="17.71"></rect><rect class="cls-3" x="1276.49" y="400.76" width="5.42" height="17.71"></rect><circle class="cls-4" cx="1262.03" cy="408.86" r="6.68"></circle><rect class="cls-22" x="866.92" y="498.73" width="100.03" height="39.64"></rect><rect class="cls-9" x="885.8" y="503.45" width="63.7" height="29.96" rx="6.32"></rect><rect class="cls-3" x="986.88" y="367.82" width="159.3" height="159.3"></rect><rect class="cls-13" x="986.88" y="367.82" width="159.3" height="159.3"></rect><path class="cls-8" d="M1146.19,512.23h-22.51a4.27,4.27,0,0,0-4.27,4.27v5.64h-33.35a8.42,8.42,0,0,1-8.42-8.42h0A6.89,6.89,0,0,1,1083,507l11.89-2.7a4.82,4.82,0,0,0,3.75-4.7h0a4.82,4.82,0,0,0-4.82-4.83h-54.57a4.82,4.82,0,0,0-4.82,4.83h0a4.82,4.82,0,0,0,3.76,4.7l11.88,2.7a6.89,6.89,0,0,1,5.36,6.72h0a8.42,8.42,0,0,1-8.42,8.42h-33.34V516.5a4.28,4.28,0,0,0-4.28-4.27H986.88v14.9h159.31Z"></path><rect class="cls-8" x="1036.38" y="462.55" width="16.52" height="5.58"></rect><rect class="cls-8" x="1082.92" y="462.55" width="16.52" height="5.58"></rect><path class="cls-13" d="M1146.19,512.23h-22.51a4.27,4.27,0,0,0-4.27,4.27v5.64h-33.35a8.42,8.42,0,0,1-8.42-8.42h0A6.89,6.89,0,0,1,1083,507l11.89-2.7a4.82,4.82,0,0,0,3.75-4.7h0a4.82,4.82,0,0,0-4.82-4.83h-54.57a4.82,4.82,0,0,0-4.82,4.83h0a4.82,4.82,0,0,0,3.76,4.7l11.88,2.7a6.89,6.89,0,0,1,5.36,6.72h0a8.42,8.42,0,0,1-8.42,8.42h-33.34V516.5a4.28,4.28,0,0,0-4.28-4.27H986.88"></path><rect class="cls-13" x="1169.18" y="519.79" width="120.2" height="88.52" rx="5.18"></rect><rect class="cls-25" x="1179.15" y="527.13" width="100.26" height="73.84"></rect><rect class="cls-26" x="710.62" y="530.47" width="90.23" height="66.62" rx="3.89"></rect><rect class="cls-25" x="718.1" y="535.99" width="75.26" height="55.57"></rect><rect class="cls-25" x="871.06" y="420.45" width="85.41" height="33.31"></rect><rect class="cls-3" x="875.4" y="457.52" width="12.26" height="15.35"></rect><rect class="cls-3" x="940.09" y="457.52" width="12.26" height="15.35"></rect><polygon class="cls-4" points="1256.82 498.47 1284.59 498.47 1270.99 512.07 1256.82 498.47"></polygon><polygon class="cls-4" points="1246.27 1034.9 1274.04 1034.9 1260.44 1048.5 1246.27 1034.9"></polygon><polygon class="cls-4" points="1169.65 1078.76 1169.65 1050.99 1183.25 1064.59 1169.65 1078.76"></polygon><polygon class="cls-4" points="1217.88 1282.29 1217.88 1254.52 1231.48 1268.12 1217.88 1282.29"></polygon><path class="cls-27" d="M940.77,754.14a13.42,13.42,0,0,0-7.74.68s-1.91-3.59-1.3-10.83c.24-2.74.72-6.44,4-7l.14,0c1.45-.21,3.25,0,4.21,1.21a4.51,4.51,0,0,1,.72,3.46C939.84,750.18,941.11,754.1,940.77,754.14Z"></path><path class="cls-27" d="M926.2,736.13a3.51,3.51,0,0,1,3.25,4.44A20.16,20.16,0,0,0,929,747c.41,6.55,2.65,8.87,2.65,8.87s-2.31,2-2.24,4.16a24.37,24.37,0,0,1-7.16-19.6,4.88,4.88,0,0,1,1.42-3.22,3.63,3.63,0,0,1,2.12-1.05Z"></path><path class="cls-27" d="M928.45,771.82a27.61,27.61,0,0,1-15.61-17,30.36,30.36,0,0,1-1.55-12c.12-1.56.37-3.5,1.56-4.65,1.72-1.66,5.61-.81,6.41,1.47a7.35,7.35,0,0,1,.12,3.3,23,23,0,0,0,.94,9c2.1,7.39,10.5,13.69,10.5,13.69A9,9,0,0,0,928.45,771.82Z"></path><path class="cls-27" d="M943.09,745.13a13.42,13.42,0,0,0-.68-7.74s3.59-1.91,10.83-1.3c2.74.24,6.44.72,7,4l0,.14c.21,1.45,0,3.25-1.21,4.21a4.51,4.51,0,0,1-3.46.72C947.05,744.2,943.13,745.47,943.09,745.13Z"></path><path class="cls-27" d="M961.1,730.56a3.51,3.51,0,0,1-4.43,3.25,20.26,20.26,0,0,0-6.44-.49c-6.55.41-8.87,2.65-8.87,2.65s-2-2.31-4.16-2.24a24.37,24.37,0,0,1,19.6-7.16A4.92,4.92,0,0,1,960,728a3.75,3.75,0,0,1,1.05,2.12C961.09,730.26,961.1,730.41,961.1,730.56Z"></path><path class="cls-27" d="M925.41,732.81a27.61,27.61,0,0,1,17-15.61,30.36,30.36,0,0,1,12-1.55c1.56.12,3.5.37,4.65,1.56,1.66,1.72.81,5.61-1.47,6.42a7.45,7.45,0,0,1-3.29.11,23,23,0,0,0-9,.94c-7.39,2.1-13.69,10.5-13.69,10.5A9,9,0,0,0,925.41,732.81Z"></path><path class="cls-27" d="M951.94,748.08a13.42,13.42,0,0,0,7.74-.68s1.91,3.59,1.3,10.83c-.24,2.74-.72,6.44-4,7l-.14,0c-1.45.21-3.25,0-4.21-1.21a4.51,4.51,0,0,1-.72-3.46C952.87,752,951.6,748.12,951.94,748.08Z"></path><path class="cls-27" d="M966.51,766.08a3.51,3.51,0,0,1-3.25-4.43,20.23,20.23,0,0,0,.49-6.44c-.41-6.55-2.65-8.87-2.65-8.87s2.31-2,2.24-4.16a24.39,24.39,0,0,1,7.16,19.6,5,5,0,0,1-1.41,3.23,3.66,3.66,0,0,1-2.13,1A3.39,3.39,0,0,1,966.51,766.08Z"></path><path class="cls-27" d="M964.26,730.4a27.61,27.61,0,0,1,15.61,17,30.34,30.34,0,0,1,1.56,12c-.13,1.57-.38,3.51-1.57,4.66-1.72,1.65-5.61.81-6.41-1.47a7.35,7.35,0,0,1-.12-3.3,22.75,22.75,0,0,0-.94-9c-2.1-7.39-10.5-13.69-10.5-13.69A9,9,0,0,0,964.26,730.4Z"></path><path class="cls-27" d="M949.62,757.08a13.42,13.42,0,0,0,.68,7.74s-3.59,1.91-10.83,1.3c-2.74-.24-6.44-.72-7-4l0-.14c-.21-1.45,0-3.25,1.21-4.21a4.51,4.51,0,0,1,3.46-.72C945.66,758,949.58,756.74,949.62,757.08Z"></path><path class="cls-27" d="M931.61,771.66a3.51,3.51,0,0,1,4.43-3.25,20.26,20.26,0,0,0,6.44.49c6.55-.41,8.87-2.66,8.87-2.66s2,2.31,4.16,2.25a24.35,24.35,0,0,1-19.6,7.15,4.86,4.86,0,0,1-3.23-1.41,3.68,3.68,0,0,1-1-2.13A3.37,3.37,0,0,1,931.61,771.66Z"></path><path class="cls-27" d="M967.3,769.4a27.61,27.61,0,0,1-17,15.61,30.37,30.37,0,0,1-12,1.56c-1.56-.12-3.5-.37-4.65-1.56-1.66-1.72-.81-5.61,1.47-6.42a7.46,7.46,0,0,1,3.29-.12,22.61,22.61,0,0,0,9-.94c7.39-2.1,13.69-10.5,13.69-10.5A9,9,0,0,0,967.3,769.4Z"></path><path class="cls-27" d="M1006.64,756.3v19.55H995.37V727h23.44c11.62,0,17.88,5.87,17.88,13.41a11.7,11.7,0,0,1-7.75,11.56c2.64.89,6.63,3.41,6.63,12.15v2.41c0,3.29,0,7,.76,9.32H1025.4c-.93-2.13-1.11-5.79-1.11-11v-.72c0-5.34-1.47-7.86-10.06-7.86Zm0-8.41h9.67c6.31,0,8.75-2.2,8.75-6.29s-2.84-6.19-8.48-6.19h-9.94Z"></path><path class="cls-27" d="M1053,764.56l-3.68,11.29h-10l16-48.85h12.81l16.71,48.85h-10.72l-3.88-11.29Zm15-8.65c-3.35-10.31-5.49-16.9-6.62-21.29h-.07c-1.17,4.82-3.52,12.48-6.21,21.29Z"></path><path class="cls-27" d="M1088.63,727h10.08v21.8c3.11-3.76,12.82-14.78,18.78-21.8h12.21l-19,20.3,19.64,28.55h-12.23l-14.48-21.7-5,4.92v16.78h-10.08Z"></path><path class="cls-27" d="M1138.93,733.37v2.87h-1.19v-6.62H1141c1.69,0,2.59.75,2.59,1.78a1.59,1.59,0,0,1-1.35,1.56,1.48,1.48,0,0,1,1.2,1.69v.29a3.94,3.94,0,0,0,.11,1.3h-1.16a3.66,3.66,0,0,1-.15-1.43v-.14c0-.9-.3-1.3-1.73-1.3Zm0-.81h1.71c1.19,0,1.7-.37,1.7-1.08s-.53-1.05-1.59-1.05h-1.82Z"></path><path class="cls-27" d="M1140.28,740a7.1,7.1,0,1,1,7.1-7.1A7.1,7.1,0,0,1,1140.28,740Zm0-13.19a6.1,6.1,0,1,0,6.1,6.09A6.09,6.09,0,0,0,1140.28,726.81Z"></path><path class="cls-28" d="M993.87,799.26V781.82h2.53v17.44Z"></path><path class="cls-28" d="M1011.63,793.19c0,3.52-2.21,6.36-6.25,6.36-3.83,0-6.12-2.68-6.12-6.32s2.27-6.36,6.27-6.36C1009.22,786.87,1011.63,789.39,1011.63,793.19Zm-9.77,0c0,2.59,1.37,4.42,3.61,4.42s3.56-1.75,3.56-4.41-1.28-4.43-3.61-4.43S1001.86,790.48,1001.86,793.21Z"></path><path class="cls-28" d="M1016.47,784.82h-5.72v-2.08h14.12v2.08h-5.73v14.44h-2.67Z"></path><path class="cls-28" d="M1049.13,792.38c0-3,0-6.14.12-7.91h-.1c-.78,2.81-3.47,9.6-5.46,14.79h-2.36c-1.5-4.28-4.29-11.91-5.09-14.82h-.09c.14,1.91.21,5.53.21,8.36v6.46h-2.49V782.74h4c1.91,5,4.23,11.37,4.83,13.54h0c.42-1.7,3.18-8.69,5.17-13.54h3.84v16.52h-2.59Z"></path><path class="cls-28" d="M1065.54,796.53a19.69,19.69,0,0,0,.18,2.73h-2.42a6,6,0,0,1-.21-1.5c-.46.78-1.48,1.79-4,1.79-3.11,0-4.44-1.87-4.44-3.72,0-2.71,2.32-4,6.22-4h2.17v-1c0-1-.37-2.24-2.68-2.24-2.06,0-2.43.92-2.65,1.85h-2.44c.18-1.76,1.36-3.65,5.18-3.64,3.27,0,5.07,1.23,5.07,4Zm-2.47-3.09h-2c-2.54,0-3.82.65-3.82,2.26,0,1.18.86,2.06,2.42,2.06,3,0,3.4-1.87,3.4-4Z"></path><path class="cls-28" d="M1080.46,781.82v14c0,1.13,0,2.25,0,3.4h-2.44a15.14,15.14,0,0,1-.12-1.63c-.65,1.21-1.94,1.92-4.06,1.92-3.36,0-5.44-2.51-5.44-6.22s2.24-6.46,5.89-6.46c2.24,0,3.27.82,3.61,1.47v-6.52Zm-9.41,11.44c0,2.82,1.41,4.34,3.42,4.34,3,0,3.56-2.06,3.56-4.54s-.56-4.24-3.4-4.24C1072.39,788.82,1071.05,790.45,1071.05,793.26Z"></path><path class="cls-28" d="M1085.16,793.66c0,2.27,1.26,4,3.41,4a2.85,2.85,0,0,0,3-1.76h2.54c-.5,1.54-1.92,3.68-5.62,3.68-4.17,0-5.89-3.07-5.89-6.2,0-3.64,2-6.48,6-6.48,4.3,0,5.71,3.11,5.71,5.78a8.28,8.28,0,0,1,0,1Zm6.62-1.59c0-1.88-1-3.4-3.17-3.4s-3.16,1.41-3.37,3.4Z"></path><path class="cls-28" d="M1115.51,791.65h-8.85v5.54h9.73l-.34,2.07h-12V782.74h11.87v2.08h-9.27v4.76h8.85Z"></path><path class="cls-28" d="M1129.23,796.53a18.2,18.2,0,0,0,.18,2.73H1127a5.57,5.57,0,0,1-.21-1.5c-.46.78-1.48,1.79-4,1.79-3.11,0-4.43-1.87-4.43-3.72,0-2.71,2.32-4,6.21-4h2.17v-1c0-1-.36-2.24-2.67-2.24-2.06,0-2.43.92-2.65,1.85H1119c.18-1.76,1.36-3.65,5.18-3.64,3.27,0,5.07,1.23,5.07,4Zm-2.47-3.09h-2c-2.54,0-3.83.65-3.83,2.26,0,1.18.87,2.06,2.43,2.06,3,0,3.4-1.87,3.4-4Z"></path><path class="cls-28" d="M1134.28,795.77c.36,1.25,1.38,2,3.08,2s2.52-.7,2.52-1.73-.59-1.55-3-2.08c-3.85-.87-4.62-2-4.62-3.62s1.36-3.45,4.85-3.45,4.89,1.85,5,3.52h-2.44c-.18-.71-.76-1.76-2.72-1.76-1.71,0-2.23.76-2.23,1.5s.51,1.27,2.87,1.78c4.06.89,4.82,2.14,4.82,3.94,0,2.1-1.79,3.7-5.2,3.7s-5.18-1.62-5.51-3.78Z"></path><path class="cls-28" d="M1146.66,787.15c2,5.49,3.15,8.8,3.47,10h0c.4-1.34,1.3-4.1,3.34-10H1156l-4.66,12.63c-1.33,3.53-2.32,4.46-5.1,4.46a13.62,13.62,0,0,1-1.47-.08v-2c.31,0,.7.06,1,.06,1.6,0,2.24-.63,3-2.52l-4.89-12.56Z"></path><path class="cls-28" d="M986.11,821.72v5.67h-3.67V813.22h7.64c3.79,0,5.83,1.7,5.83,3.89a3.44,3.44,0,0,1-2.53,3.35c.86.26,2.16,1,2.16,3.53v.7a9.22,9.22,0,0,0,.25,2.7h-3.56a8.12,8.12,0,0,1-.36-3.18V824c0-1.55-.48-2.28-3.29-2.28Zm0-2.44h3.15c2.06,0,2.85-.64,2.85-1.82s-.92-1.8-2.76-1.8h-3.24Z"></path><path class="cls-28" d="M1002.72,824.12l-1.36,3.27h-3.7l5.91-14.17h4.72l6.16,14.17h-4l-1.43-3.27Zm5.54-2.51c-1.24-3-2-4.91-2.44-6.18h0c-.43,1.4-1.29,3.62-2.28,6.18Z"></path><path class="cls-28" d="M1016.81,813.22h3.71v6.32c1.15-1.09,4.73-4.28,6.92-6.32H1032l-7,5.89,7.24,8.28h-4.51l-5.33-6.29-1.84,1.42v4.87h-3.71Z"></path><path class="cls-28" d="M1040.11,827.39v-3h-7.5v-2.56l6.92-7.93h3.93V822h2l-.33,2.38h-1.67v3Zm0-7.83c0-1.46,0-2.28.08-3.13a59,59,0,0,1-4.39,5.54h4.31Z"></path><path class="cls-28" d="M1055.92,817.16c-.2-.67-.67-1.31-2.12-1.31-2.22,0-2.8,1.7-2.9,3.52a5.15,5.15,0,0,1,3.76-1.25c3,0,5.2,1.83,5.2,4.49,0,2.88-2.27,5-6.1,5-4.81,0-6.41-3-6.41-6.85,0-3.52,1.53-7.17,6.61-7.17,3.61,0,5.29,1.84,5.45,3.54Zm.33,5.69c0-1.29-.58-2.44-2.58-2.44-1.61,0-2.56.77-2.56,2.33a2.44,2.44,0,0,0,2.57,2.56A2.31,2.31,0,0,0,1056.25,822.85Z"></path><path class="cls-28" d="M1061.79,817.34c.23-1.66,1.67-3.72,5.82-3.72,3.84,0,5.55,1.77,5.55,3.68a2.89,2.89,0,0,1-2.06,2.75v.06a3.37,3.37,0,0,1,2.7,3.26c0,2-1.45,4.27-6.22,4.27-4.45,0-6-2.19-6.13-4H1065c.23.93,1,1.73,2.72,1.73s2.49-.88,2.49-2.07-.78-2-2.72-2H1066V819h1.31c1.66,0,2.33-.44,2.33-1.58,0-.93-.68-1.55-2.11-1.55-1.68,0-2.09.76-2.27,1.43Z"></path><path class="cls-28" d="M1088.47,820.54c0,3.72-1.45,7.1-6.37,7.1s-6.38-3.26-6.38-7,1.67-7,6.45-7C1086.8,813.62,1088.47,816.7,1088.47,820.54Zm-9,.06c0,2.48.35,4.69,2.7,4.69s2.59-2.06,2.59-4.73-.39-4.6-2.56-4.6S1079.44,817.67,1079.44,820.6Z"></path><path class="cls-28" d="M980.19,836.09h6v1.12h-4.81v3.19h4.51v1.12h-4.51v4.41h-1.23Z"></path><path class="cls-28" d="M995.4,843.14a3.6,3.6,0,0,1-3.74,2.91c-2.81,0-4.23-2.23-4.23-5s1.42-5.09,4.27-5.09a3.46,3.46,0,0,1,3.7,3h-1.25a2.38,2.38,0,0,0-2.49-1.88c-2.08,0-2.92,2-2.92,4s.8,4,3,4a2.43,2.43,0,0,0,2.44-1.82Z"></path><path class="cls-28" d="M1004.81,843.14a3.6,3.6,0,0,1-3.74,2.91c-2.81,0-4.23-2.23-4.23-5s1.42-5.09,4.27-5.09a3.46,3.46,0,0,1,3.7,3h-1.25a2.38,2.38,0,0,0-2.5-1.88c-2.07,0-2.92,2-2.92,4s.81,4,3,4a2.41,2.41,0,0,0,2.43-1.82Z"></path><path class="cls-28" d="M1011.29,836.09v9.84H1010v-9.84Z"></path><path class="cls-28" d="M1013.89,836.09h3.35c2.64,0,4.43,1.88,4.43,4.82s-1.74,5-4.47,5h-3.31Zm1.24,8.73h2c2.22,0,3.27-1.66,3.27-3.88,0-2-1-3.74-3.26-3.74h-2Z"></path><path class="cls-28" d="M1023.47,840.82v-2h1.2v2Zm0,5.11v-2h1.2v2Z"></path><path class="cls-28" d="M1026.5,845.93v-.08c0-1.34.84-2.74,2.67-4.19,1.43-1.14,1.82-1.5,1.82-2.53a1.46,1.46,0,0,0-1.54-1.64c-1.08,0-1.59.59-1.77,1.73h-1.17a2.8,2.8,0,0,1,2.94-2.77,2.52,2.52,0,0,1,2.76,2.65c0,1.41-.57,2-2.21,3.29a5.81,5.81,0,0,0-2.1,2.45h4.66l-.17,1.09Z"></path><path class="cls-28" d="M1035.5,843l-1,2.95h-1.24l3.35-9.84h1.53l3.49,9.84h-1.33l-1-2.95Zm3.43-1.12c-.9-2.59-1.39-4-1.59-4.71h0c-.22.83-.78,2.5-1.5,4.71Z"></path><path class="cls-28" d="M1043.13,836.09h6v1.12h-4.81v3.19h4.51v1.12h-4.51v4.41h-1.22Z"></path><path class="cls-28" d="M1054.88,838.65a1.41,1.41,0,0,0-1.5-1.18c-1.5,0-2,1.47-2,3.43a2.4,2.4,0,0,1,2.25-1.29c1.72,0,2.73,1.31,2.73,3.1s-1,3.39-3,3.39c-2.45,0-3.17-2.08-3.17-4.7s.8-4.95,3.27-4.95a2.46,2.46,0,0,1,2.63,2.2Zm.23,4.15c0-1-.38-2.15-1.75-2.15-1.1,0-1.88.74-1.88,2.14,0,.77.38,2.26,1.84,2.26C1054.6,845.05,1055.11,844,1055.11,842.8Z"></path><path class="cls-28" d="M1058.15,836.09h3.61c2,0,2.91,1.09,2.91,2.46a2.16,2.16,0,0,1-1.35,2.14,2.42,2.42,0,0,1,1.66,2.36,2.84,2.84,0,0,1-3.14,2.88h-3.69Zm3.37,4.09c1.36,0,1.89-.56,1.89-1.52s-.6-1.49-1.7-1.49h-2.34v3Zm-2.15,4.67h2.32c1.18,0,2-.58,2-1.81,0-1.06-.65-1.78-2.24-1.78h-2.08Z"></path><path class="cls-28" d="M1070.07,841.74v1.13h-3.55v-1.13Z"></path><path class="cls-28" d="M1073.18,841.59v4.34H1072v-9.84h3.67c1.93,0,3,1.09,3,2.63A2.25,2.25,0,0,1,1077,841c.76.21,1.43.81,1.43,2.52V844a7.13,7.13,0,0,0,.13,1.95h-1.22a7.17,7.17,0,0,1-.15-2.12v-.21c0-1.4-.38-2-2.07-2Zm0-1.09h2c1.43,0,2.06-.57,2.06-1.68s-.65-1.63-1.92-1.63h-2.19Z"></path><path class="cls-28" d="M1082.07,843l-1,2.95h-1.24l3.35-9.84h1.53l3.49,9.84h-1.33l-1-2.95Zm3.43-1.12c-.89-2.59-1.39-4-1.59-4.71h0c-.23.83-.78,2.5-1.5,4.71Z"></path><path class="cls-28" d="M1089.7,836.09h1.23v4.83c.7-.76,3.09-3.24,4.57-4.83h1.55l-4,4.15,4.24,5.69h-1.51l-3.6-4.85-1.21,1.14v3.71h-1.23Z"></path><path class="cls-28" d="M1101.75,845.93v-2.4h-4.18v-1.12l4-5.79h1.27v5.85H1104l-.13,1.06h-1v2.4Zm0-5.81c0-.72,0-1.64,0-2.25-.36.72-2.09,3.2-3,4.6h3Z"></path><path class="cls-28" d="M1109.89,838.65a1.41,1.41,0,0,0-1.5-1.18c-1.5,0-2,1.47-2,3.43a2.4,2.4,0,0,1,2.25-1.29c1.72,0,2.73,1.31,2.73,3.1s-1,3.39-3,3.39c-2.45,0-3.17-2.08-3.17-4.7s.8-4.95,3.27-4.95a2.46,2.46,0,0,1,2.63,2.2Zm.23,4.15c0-1-.38-2.15-1.75-2.15-1.1,0-1.88.74-1.88,2.14,0,.77.38,2.26,1.84,2.26C1109.61,845.05,1110.12,844,1110.12,842.8Z"></path><path class="cls-28" d="M1112.73,838.84a2.6,2.6,0,0,1,2.81-2.39,2.41,2.41,0,0,1,2.68,2.42,1.94,1.94,0,0,1-1.19,1.92v0a2.27,2.27,0,0,1,1.57,2.35,3.08,3.08,0,0,1-6.12.34h1.17a1.86,1.86,0,0,0,1.92,1.55,1.71,1.71,0,0,0,1.8-1.89c0-1.24-.72-1.8-1.92-1.8h-.64v-1h.53c1.17,0,1.68-.48,1.68-1.45a1.36,1.36,0,0,0-1.52-1.42,1.51,1.51,0,0,0-1.63,1.35Z"></path><path class="cls-28" d="M1126.09,841.21c0,2.31-.63,4.89-3.11,4.89s-3.1-2.42-3.1-4.82.73-4.83,3.14-4.83S1126.09,838.83,1126.09,841.21Zm-5,.06c0,1.78.3,3.77,1.86,3.77s1.85-1.9,1.85-3.83-.3-3.7-1.81-3.7S1121.13,839.23,1121.13,841.27Z"></path><path class="cls-28" d="M980.21,858.22h3.39c2.67,0,4.48,1.89,4.48,4.82s-1.76,5-4.52,5h-3.35Zm1.26,8.74h2c2.24,0,3.3-1.66,3.3-3.89,0-1.94-1-3.74-3.29-3.74h-2Z"></path><path class="cls-28" d="M990.54,864.7c0,1.46.72,2.5,1.89,2.5a1.6,1.6,0,0,0,1.67-1.11h1.21a2.83,2.83,0,0,1-2.91,2.14c-2.18,0-3.07-1.83-3.07-3.67,0-2.14,1-3.84,3.14-3.84s3,1.86,3,3.39a5.53,5.53,0,0,1,0,.59Zm3.69-.87c0-1.18-.59-2.13-1.77-2.13s-1.76.88-1.88,2.13Z"></path><path class="cls-28" d="M997.59,860.89c.93,2.94,1.62,5.13,1.83,6h0c.17-.8.91-2.94,2-6h1.21l-2.54,7.17h-1.32l-2.42-7.17Z"></path><path class="cls-28" d="M1010,863.46h-4.73V867h5.19l-.16,1.11H1004v-9.84h6.18v1.12h-5v3H1010Z"></path><path class="cls-28" d="M1013.3,858.22v5.93c0,2.32,1.23,3,2.44,3,1.43,0,2.43-.68,2.43-3v-5.93h1.27v5.86c0,3.19-1.7,4.11-3.72,4.11s-3.7-1-3.7-4v-5.95Z"></path><path class="cls-28" d="M1023.17,858.22v9.84h-1.26v-9.84Z"></path><path class="cls-28" d="M1025.51,863v-2h1.21v2Zm0,5.1v-2h1.21v2Z"></path><path class="cls-28" d="M1033.83,865.11l-1,2.95h-1.26l3.39-9.84h1.55l3.53,9.84h-1.35l-1.05-2.95Zm3.47-1.12c-.91-2.58-1.41-4-1.61-4.71h0c-.23.84-.79,2.5-1.51,4.71Z"></path><path class="cls-28" d="M1048.92,865.27a3.64,3.64,0,0,1-3.78,2.92c-2.84,0-4.28-2.24-4.28-5s1.44-5.09,4.33-5.09a3.48,3.48,0,0,1,3.73,3h-1.26a2.41,2.41,0,0,0-2.53-1.88c-2.09,0-3,2-3,4s.82,4,3,4a2.45,2.45,0,0,0,2.46-1.83Z"></path><path class="cls-28" d="M1051.92,868.06v-7.83a5.67,5.67,0,0,1-1.86.82v-1a5.46,5.46,0,0,0,2.17-1.33h.91v9.35Z"></path><path class="cls-28" d="M1055.73,858.22h6.1v1.12H1057v3.19h4.56v1.12H1057v4.41h-1.24Z"></path><path class="cls-28" d="M1069.13,863.35c0,2.3-.63,4.88-3.14,4.88s-3.14-2.41-3.14-4.82.74-4.82,3.18-4.82S1069.13,861,1069.13,863.35Zm-5,.06c0,1.77.3,3.77,1.88,3.77s1.87-1.9,1.87-3.83-.3-3.71-1.83-3.71S1064.12,861.37,1064.12,863.41Z"></path><path class="cls-28" d="M1071.77,866a1.51,1.51,0,0,0,1.6,1.17c1.74,0,1.89-2.46,1.93-3.62a2.26,2.26,0,0,1-2.15,1.11,2.72,2.72,0,0,1-2.74-3,2.93,2.93,0,0,1,3-3.12c2.23,0,3.07,1.83,3.07,4.29s-.5,5.34-3.18,5.34a2.6,2.6,0,0,1-2.79-2.2Zm-.13-4.36a1.73,1.73,0,0,0,1.72,2c1.25,0,1.81-.67,1.81-1.91,0-.58-.2-2.09-1.77-2.09C1072.18,859.63,1071.64,860.53,1071.64,861.66Z"></path><path class="cls-28" d="M980.21,874.69h6.1v1.11h-4.86V879H986v1.12h-4.56v4.41h-1.24Z"></path><path class="cls-28" d="M987.91,874.69H994v1.11h-4.86V879h4.56v1.12h-4.56v4.41h-1.24Z"></path><path class="cls-28" d="M995.61,874.69h6.1v1.11h-4.86V879h4.56v1.12h-4.56v4.41h-1.24Z"></path><path class="cls-28" d="M1009.27,879.93h-4.72v3.48h5.19l-.17,1.12h-6.26v-9.84h6.19v1.11h-5v3h4.72Z"></path><path class="cls-28" d="M1017.16,879.81c0,2.3-.63,4.89-3.14,4.89s-3.13-2.42-3.13-4.83.73-4.82,3.17-4.82S1017.16,877.43,1017.16,879.81Zm-5,.06c0,1.77.3,3.77,1.88,3.77s1.87-1.9,1.87-3.83-.3-3.71-1.83-3.71S1012.15,877.83,1012.15,879.87Z"></path><path class="cls-28" d="M1018.56,877.43a2.63,2.63,0,0,1,2.84-2.38,2.41,2.41,0,0,1,2.71,2.41,1.94,1.94,0,0,1-1.19,1.93v0a2.27,2.27,0,0,1,1.58,2.34,3.12,3.12,0,0,1-6.19.35h1.19a1.87,1.87,0,0,0,1.94,1.55,1.72,1.72,0,0,0,1.82-1.89c0-1.24-.73-1.8-2-1.8h-.64v-1h.54c1.18,0,1.69-.48,1.69-1.45a1.37,1.37,0,0,0-1.54-1.42,1.51,1.51,0,0,0-1.64,1.34Z"></path><path class="cls-28" d="M1026.45,874.69h3.65c2,0,2.94,1.09,2.94,2.45a2.16,2.16,0,0,1-1.36,2.15,2.42,2.42,0,0,1,1.68,2.36,2.85,2.85,0,0,1-3.17,2.88h-3.74Zm3.41,4.09c1.38,0,1.91-.56,1.91-1.52s-.6-1.5-1.72-1.5h-2.36v3Zm-2.17,4.67H1030c1.19,0,2-.58,2-1.81,0-1.07-.66-1.78-2.26-1.78h-2.11Z"></path><path class="cls-28" d="M1036.63,881.58l-1,2.95h-1.26l3.39-9.84h1.55l3.53,9.84h-1.35l-1-2.95Zm3.47-1.12c-.91-2.59-1.41-4-1.61-4.71h0c-.23.83-.79,2.5-1.52,4.71Z"></path><path class="cls-28" d="M1051.72,881.74a3.64,3.64,0,0,1-3.78,2.91c-2.85,0-4.28-2.23-4.28-5s1.44-5.09,4.32-5.09a3.48,3.48,0,0,1,3.74,3h-1.26a2.41,2.41,0,0,0-2.53-1.88c-2.09,0-3,2-3,4s.81,4,3,4a2.46,2.46,0,0,0,2.46-1.82Z"></path><path class="cls-28" d="M1059.66,879.93h-4.73v3.48h5.19l-.16,1.12h-6.26v-9.84h6.18v1.11h-5v3h4.73Z"></path></g></svg>