<svg xmlns="http://www.w3.org/2000/svg" viewBox="0 0 952.33 992.16"><defs><style>.cls-1{fill:#3f3f3f;}.cls-2{fill:#2d2d2d;}.cls-3{fill:#515151;}.cls-4{fill:#f4cd75;}.cls-5{fill:#e9484a;}.cls-6{fill:#4379bd;}.cls-7{fill:#7bb929;}.cls-8,.cls-9{fill:none;stroke:#000;stroke-miterlimit:10;}.cls-8{stroke-width:1.57px;}.cls-9{stroke-width:0.75px;}.cls-10{fill:#fff;}</style></defs><g id="Layer_7" data-name="Layer 7"><path class="cls-1" d="M436.5,145.24a5.49,5.49,0,0,1,1.08-.11c3.77,0,6.83,3.94,6.83,8.8s-3.06,8.8-6.83,8.8a5.47,5.47,0,0,1-2.71-.72l-95.73.12a5.44,5.44,0,0,1-2.48.6c-3.77,0-6.83-3.94-6.83-8.8s3.06-8.8,6.83-8.8a4.47,4.47,0,0,1,.82.07Z"/><rect class="cls-2" x="358.63" y="193.3" width="56.42" height="11.55"/><rect class="cls-2" x="344.7" y="306.24" width="83.6" height="63.53"/><path class="cls-1" d="M417.77,191.26A46,46,0,0,1,387,203.32c-27.37,0-49.56-24.95-49.56-55.72S359.62,91.87,387,91.87c15.49,0,29.31,8,38.4,20.5-.25,23.61-33.61,65.27-33.61,65.27C397.26,199.81,417.22,191.49,417.77,191.26Z"/><path class="cls-3" d="M436.55,147.6c0,17.69-7.33,33.46-18.77,43.65h0c-.55.23-20.51,8.55-26-13.62,0,0,33.36-41.66,33.61-65.27A59.92,59.92,0,0,1,436.55,147.6Z"/><path class="cls-3" d="M337.43,147.6c0,17.69,7.33,33.46,18.77,43.65h0c.55.23,20.51,8.55,26-13.62,0,0-33.36-41.66-33.61-65.27A59.92,59.92,0,0,0,337.43,147.6Z"/><rect class="cls-1" x="340.56" y="204.85" width="92.08" height="101.37"/><rect class="cls-1" x="340.56" y="313.8" width="92.08" height="48.85"/><ellipse class="cls-1" cx="599.18" cy="147.59" rx="49.56" ry="55.73"/><rect class="cls-1" x="553.54" y="204.85" width="92.08" height="101.37" transform="translate(1199.15 511.06) rotate(-180)"/><rect class="cls-1" x="553.54" y="313.8" width="92.08" height="48.85" transform="translate(1199.15 676.45) rotate(-180)"/><path class="cls-1" d="M757.36,636.26c0,70.56-1.77,135.9-4.77,189.27a57.72,57.72,0,0,1-46.72,53.39C648.65,890,574,896.68,492.35,896.68c-80.24,0-153.72-6.47-210.54-17.2A57.65,57.65,0,0,1,235,826.09c-3-53.47-4.8-119-4.8-189.83,0-72.47,1.87-139.41,5-193.56a57.65,57.65,0,0,1,46.88-53.3c22.95-4.32,48.61-8,76.33-10.74,18.91-1.91,38.78-3.42,59.4-4.5,24-1.25,48.92-1.91,74.57-1.91,81.54,0,156.1,6.68,213.29,17.72a57.71,57.71,0,0,1,46.74,53.3C755.51,497.31,757.36,564.05,757.36,636.26Z"/><path class="cls-1" d="M398.68,893.63V896a4.29,4.29,0,0,1-4.29,4.29h-40a4.29,4.29,0,0,1-4.29-4.29v-6.6Z"/><path class="cls-4" d="M417.78,369.77v4.39c-20.62,1.08-40.49,2.59-59.4,4.5v-8.89Z"/><path class="cls-1" d="M648.81,145.2a4.47,4.47,0,0,1,.82-.07c3.77,0,6.83,3.94,6.83,8.8s-3.06,8.8-6.83,8.8a5.44,5.44,0,0,1-2.48-.6L551.42,162a5.47,5.47,0,0,1-2.71.72c-3.77,0-6.83-3.94-6.83-8.8s3.06-8.8,6.83-8.8a5.49,5.49,0,0,1,1.08.11Z"/><rect class="cls-2" x="571.24" y="193.3" width="56.42" height="11.55"/><rect class="cls-2" x="557.98" y="306.24" width="83.6" height="63.53" transform="translate(1199.57 676.01) rotate(-180)"/><path class="cls-1" d="M568.52,191.26a46,46,0,0,0,30.78,12.06c27.37,0,49.56-24.95,49.56-55.72S626.67,91.87,599.3,91.87c-15.49,0-29.31,8-38.4,20.5.25,23.61,33.61,65.27,33.61,65.27C589,199.81,569.07,191.49,568.52,191.26Z"/><path class="cls-3" d="M549.74,147.6c0,17.69,7.33,33.46,18.77,43.65h0c.55.23,20.51,8.55,26-13.62,0,0-33.36-41.66-33.61-65.27A59.92,59.92,0,0,0,549.74,147.6Z"/><path class="cls-3" d="M648.86,147.6c0,17.69-7.33,33.46-18.77,43.65h0c-.55.23-20.51,8.55-26-13.62,0,0,33.36-41.66,33.61-65.27A59.92,59.92,0,0,1,648.86,147.6Z"/><rect class="cls-1" x="553.65" y="204.85" width="92.08" height="101.37" transform="translate(1199.38 511.06) rotate(-180)"/><rect class="cls-1" x="553.65" y="313.8" width="92.08" height="48.85" transform="translate(1199.38 676.45) rotate(-180)"/><path class="cls-4" d="M568.51,369.77v4.39c20.62,1.08,40.49,2.59,59.4,4.5v-8.89Z"/><circle class="cls-5" cx="692.82" cy="661.58" r="6"/><circle class="cls-6" cx="692.82" cy="715" r="6"/><circle class="cls-7" cx="692.82" cy="768.43" r="6"/><ellipse class="cls-8" cx="386.99" cy="147.59" rx="49.56" ry="55.73"/><path class="cls-8" d="M339.14,162.13a5.44,5.44,0,0,1-2.48.6c-3.77,0-6.83-3.94-6.83-8.8s3.06-8.8,6.83-8.8a4.47,4.47,0,0,1,.82.07"/><path class="cls-8" d="M436.5,145.24a5.49,5.49,0,0,1,1.08-.11c3.77,0,6.83,3.94,6.83,8.8s-3.06,8.8-6.83,8.8a5.47,5.47,0,0,1-2.71-.72"/><line class="cls-8" x1="358.63" y1="193.3" x2="358.63" y2="204.85"/><line class="cls-8" x1="415.05" y1="193.3" x2="415.05" y2="204.85"/><rect class="cls-8" x="340.56" y="204.85" width="92.08" height="101.37"/><rect class="cls-8" x="340.56" y="313.8" width="92.08" height="48.85"/><line class="cls-8" x1="344.83" y1="306.22" x2="344.83" y2="313.8"/><line class="cls-8" x1="428.3" y1="306.22" x2="428.3" y2="313.8"/><polyline class="cls-8" points="344.83 362.65 344.83 369.77 428.3 369.77 428.3 362.65"/><line class="cls-8" x1="358.38" y1="378.66" x2="358.38" y2="369.77"/><line class="cls-8" x1="417.78" y1="374.16" x2="417.78" y2="369.77"/><line class="cls-9" x1="343.8" y1="313.8" x2="343.8" y2="362.65"/><line class="cls-9" x1="346.31" y1="313.8" x2="346.31" y2="362.65"/><line class="cls-9" x1="348.83" y1="313.8" x2="348.83" y2="362.65"/><line class="cls-9" x1="351.34" y1="313.8" x2="351.34" y2="362.65"/><line class="cls-9" x1="353.86" y1="313.8" x2="353.86" y2="362.65"/><line class="cls-9" x1="356.37" y1="313.8" x2="356.37" y2="362.65"/><line class="cls-9" x1="358.88" y1="313.8" x2="358.88" y2="362.65"/><line class="cls-9" x1="361.4" y1="313.8" x2="361.4" y2="362.65"/><line class="cls-9" x1="363.91" y1="313.8" x2="363.91" y2="362.65"/><line class="cls-9" x1="366.43" y1="313.8" x2="366.43" y2="362.65"/><line class="cls-9" x1="368.94" y1="313.8" x2="368.94" y2="362.65"/><line class="cls-9" x1="371.46" y1="313.8" x2="371.46" y2="362.65"/><line class="cls-9" x1="373.97" y1="313.8" x2="373.97" y2="362.65"/><line class="cls-9" x1="376.48" y1="313.8" x2="376.48" y2="362.65"/><line class="cls-9" x1="379" y1="313.8" x2="379" y2="362.65"/><line class="cls-9" x1="381.51" y1="313.8" x2="381.51" y2="362.65"/><line class="cls-9" x1="384.03" y1="313.8" x2="384.03" y2="362.65"/><line class="cls-9" x1="386.54" y1="313.8" x2="386.54" y2="362.65"/><line class="cls-9" x1="389.05" y1="313.8" x2="389.05" y2="362.65"/><line class="cls-9" x1="391.57" y1="313.8" x2="391.57" y2="362.65"/><line class="cls-9" x1="394.08" y1="313.8" x2="394.08" y2="362.65"/><line class="cls-9" x1="396.6" y1="313.8" x2="396.6" y2="362.65"/><line class="cls-9" x1="399.11" y1="313.8" x2="399.11" y2="362.65"/><line class="cls-9" x1="401.62" y1="313.8" x2="401.62" y2="362.65"/><line class="cls-9" x1="404.14" y1="313.8" x2="404.14" y2="362.65"/><line class="cls-9" x1="406.65" y1="313.8" x2="406.65" y2="362.65"/><line class="cls-9" x1="409.17" y1="313.8" x2="409.17" y2="362.65"/><line class="cls-9" x1="411.68" y1="313.8" x2="411.68" y2="362.65"/><line class="cls-9" x1="414.2" y1="313.8" x2="414.2" y2="362.65"/><line class="cls-9" x1="416.71" y1="313.8" x2="416.71" y2="362.65"/><line class="cls-9" x1="419.22" y1="313.8" x2="419.22" y2="362.65"/><line class="cls-9" x1="421.74" y1="313.8" x2="421.74" y2="362.65"/><line class="cls-9" x1="424.25" y1="313.8" x2="424.25" y2="362.65"/><line class="cls-9" x1="426.77" y1="313.8" x2="426.77" y2="362.65"/><line class="cls-9" x1="429.28" y1="313.8" x2="429.28" y2="362.65"/><ellipse class="cls-8" cx="599.18" cy="147.59" rx="49.56" ry="55.73"/><path class="cls-8" d="M648.69,145.2a4.47,4.47,0,0,1,.82-.07c3.77,0,6.83,3.94,6.83,8.8s-3.06,8.8-6.83,8.8a5.44,5.44,0,0,1-2.48-.6"/><path class="cls-8" d="M551.3,162a5.47,5.47,0,0,1-2.71.72c-3.77,0-6.83-3.94-6.83-8.8s3.06-8.8,6.83-8.8a5.49,5.49,0,0,1,1.08.11"/><line class="cls-8" x1="627.54" y1="193.3" x2="627.54" y2="204.85"/><line class="cls-8" x1="571.12" y1="193.3" x2="571.12" y2="204.85"/><rect class="cls-8" x="553.54" y="204.85" width="92.08" height="101.37" transform="translate(1199.15 511.06) rotate(-180)"/><rect class="cls-8" x="553.54" y="313.8" width="92.08" height="48.85" transform="translate(1199.15 676.45) rotate(-180)"/><line class="cls-8" x1="641.34" y1="306.22" x2="641.34" y2="313.8"/><line class="cls-8" x1="557.87" y1="306.22" x2="557.87" y2="313.8"/><polyline class="cls-8" points="641.34 362.65 641.34 369.77 557.87 369.77 557.87 362.65"/><line class="cls-8" x1="627.8" y1="378.81" x2="627.8" y2="369.77"/><line class="cls-8" x1="568.4" y1="374.25" x2="568.4" y2="369.77"/><line class="cls-9" x1="642.37" y1="313.8" x2="642.37" y2="362.65"/><line class="cls-9" x1="639.86" y1="313.8" x2="639.86" y2="362.65"/><line class="cls-9" x1="637.34" y1="313.8" x2="637.34" y2="362.65"/><line class="cls-9" x1="634.83" y1="313.8" x2="634.83" y2="362.65"/><line class="cls-9" x1="632.31" y1="313.8" x2="632.31" y2="362.65"/><line class="cls-9" x1="629.8" y1="313.8" x2="629.8" y2="362.65"/><line class="cls-9" x1="627.29" y1="313.8" x2="627.29" y2="362.65"/><line class="cls-9" x1="624.77" y1="313.8" x2="624.77" y2="362.65"/><line class="cls-9" x1="622.26" y1="313.8" x2="622.26" y2="362.65"/><line class="cls-9" x1="619.74" y1="313.8" x2="619.74" y2="362.65"/><line class="cls-9" x1="617.23" y1="313.8" x2="617.23" y2="362.65"/><line class="cls-9" x1="614.71" y1="313.8" x2="614.71" y2="362.65"/><line class="cls-9" x1="612.2" y1="313.8" x2="612.2" y2="362.65"/><line class="cls-9" x1="609.69" y1="313.8" x2="609.69" y2="362.65"/><line class="cls-9" x1="607.17" y1="313.8" x2="607.17" y2="362.65"/><line class="cls-9" x1="604.66" y1="313.8" x2="604.66" y2="362.65"/><line class="cls-9" x1="602.14" y1="313.8" x2="602.14" y2="362.65"/><line class="cls-9" x1="599.63" y1="313.8" x2="599.63" y2="362.65"/><line class="cls-9" x1="597.12" y1="313.8" x2="597.12" y2="362.65"/><line class="cls-9" x1="594.6" y1="313.8" x2="594.6" y2="362.65"/><line class="cls-9" x1="592.09" y1="313.8" x2="592.09" y2="362.65"/><line class="cls-9" x1="589.57" y1="313.8" x2="589.57" y2="362.65"/><line class="cls-9" x1="587.06" y1="313.8" x2="587.06" y2="362.65"/><line class="cls-9" x1="584.55" y1="313.8" x2="584.55" y2="362.65"/><line class="cls-9" x1="582.03" y1="313.8" x2="582.03" y2="362.65"/><line class="cls-9" x1="579.52" y1="313.8" x2="579.52" y2="362.65"/><line class="cls-9" x1="577" y1="313.8" x2="577" y2="362.65"/><line class="cls-9" x1="574.49" y1="313.8" x2="574.49" y2="362.65"/><line class="cls-9" x1="571.97" y1="313.8" x2="571.97" y2="362.65"/><line class="cls-9" x1="569.46" y1="313.8" x2="569.46" y2="362.65"/><line class="cls-9" x1="566.95" y1="313.8" x2="566.95" y2="362.65"/><line class="cls-9" x1="564.43" y1="313.8" x2="564.43" y2="362.65"/><line class="cls-9" x1="561.92" y1="313.8" x2="561.92" y2="362.65"/><line class="cls-9" x1="559.4" y1="313.8" x2="559.4" y2="362.65"/><line class="cls-9" x1="556.89" y1="313.8" x2="556.89" y2="362.65"/><path class="cls-8" d="M757.36,636.26c0,70.56-1.77,135.9-4.78,189.27a57.69,57.69,0,0,1-46.71,53.38C648.65,890,574,896.68,492.35,896.68c-80.25,0-153.72-6.47-210.54-17.2A57.65,57.65,0,0,1,235,826.09c-3-53.48-4.8-119-4.8-189.83,0-72.47,1.86-139.42,5-193.56a57.65,57.65,0,0,1,46.88-53.31c56.79-10.69,130.17-17.14,210.3-17.14,81.54,0,156.1,6.68,213.29,17.71a57.72,57.72,0,0,1,46.73,53.3C755.51,497.31,757.36,564,757.36,636.26Z"/><path class="cls-8" d="M350.11,889.41V896a4.29,4.29,0,0,0,4.29,4.29h40a4.29,4.29,0,0,0,4.29-4.29v-2.38"/><path class="cls-8" d="M417.78,191.25s-20.45,8.86-26-13.62c0,0,33.35-41.66,33.61-65.27"/><path class="cls-8" d="M356.26,191.25s20.45,8.86,26-13.62c0,0-33.35-41.66-33.6-65.27"/><line class="cls-8" x1="382.26" y1="177.63" x2="391.78" y2="177.63"/><path class="cls-8" d="M629.93,191.25s-20.45,8.86-26-13.62c0,0,33.35-41.66,33.6-65.27"/><path class="cls-8" d="M568.41,191.25s20.44,8.86,26-13.62c0,0-33.35-41.66-33.61-65.27"/><line class="cls-8" x1="594.41" y1="177.63" x2="603.93" y2="177.63"/><circle class="cls-9" cx="692.82" cy="661.58" r="6"/><circle class="cls-9" cx="692.82" cy="715" r="6"/><circle class="cls-9" cx="692.82" cy="768.43" r="6"/><path class="cls-10" d="M372.68,410.58V398.64h1.58v10.53h5.88v1.41Z"/><path class="cls-10" d="M382,406.26a4.46,4.46,0,0,1,1.34-3.56,4,4,0,0,1,2.72-1,3.86,3.86,0,0,1,2.91,1.17,4.42,4.42,0,0,1,1.13,3.23,5.63,5.63,0,0,1-.5,2.62,3.53,3.53,0,0,1-1.45,1.49,4.3,4.3,0,0,1-2.09.53,3.89,3.89,0,0,1-2.94-1.17A4.61,4.61,0,0,1,382,406.26Zm1.51,0a3.7,3.7,0,0,0,.72,2.49,2.33,2.33,0,0,0,1.83.82,2.28,2.28,0,0,0,1.81-.83,3.73,3.73,0,0,0,.73-2.53,3.6,3.6,0,0,0-.73-2.43,2.33,2.33,0,0,0-1.81-.83,2.36,2.36,0,0,0-1.83.82A3.7,3.7,0,0,0,383.51,406.26Z"/><path class="cls-10" d="M392.75,410.58V398.64h5.3a6.84,6.84,0,0,1,2.42.33,2.61,2.61,0,0,1,1.33,1.13,3.41,3.41,0,0,1,.5,1.8,3,3,0,0,1-.83,2.14,4.15,4.15,0,0,1-2.54,1.11,4,4,0,0,1,1,.6,8.53,8.53,0,0,1,1.31,1.58l2.07,3.25h-2l-1.58-2.48q-.69-1.08-1.14-1.65a3.44,3.44,0,0,0-.81-.79,2.1,2.1,0,0,0-.72-.32,4.51,4.51,0,0,0-.88-.06h-1.83v5.3Zm1.58-6.67h3.4a5.08,5.08,0,0,0,1.69-.22,1.79,1.79,0,0,0,.93-.72,1.94,1.94,0,0,0,.32-1.07,1.78,1.78,0,0,0-.62-1.39,2.88,2.88,0,0,0-1.94-.55h-3.78Z"/><path class="cls-10" d="M411,409.52a5.59,5.59,0,0,1-1.57,1,4.52,4.52,0,0,1-1.62.29,3.12,3.12,0,0,1-2.19-.7,2.3,2.3,0,0,1-.77-1.78,2.4,2.4,0,0,1,.29-1.16,2.47,2.47,0,0,1,.76-.84,3.66,3.66,0,0,1,1.06-.48,9.41,9.41,0,0,1,1.3-.22,12.92,12.92,0,0,0,2.61-.51c0-.2,0-.32,0-.38a1.63,1.63,0,0,0-.41-1.26,2.49,2.49,0,0,0-1.67-.5,2.62,2.62,0,0,0-1.53.36,2.25,2.25,0,0,0-.73,1.29l-1.43-.2a3.48,3.48,0,0,1,.64-1.48A2.86,2.86,0,0,1,407,402a5.81,5.81,0,0,1,2-.3,5.28,5.28,0,0,1,1.8.26,2.32,2.32,0,0,1,1,.66,2.26,2.26,0,0,1,.45,1,7.9,7.9,0,0,1,.08,1.35v2a21.48,21.48,0,0,0,.09,2.58,3,3,0,0,0,.37,1h-1.53A3.06,3.06,0,0,1,411,409.52Zm-.13-3.28a11,11,0,0,1-2.39.56,5.21,5.21,0,0,0-1.28.29,1.31,1.31,0,0,0-.58.48,1.3,1.3,0,0,0,.24,1.67,1.92,1.92,0,0,0,1.3.39,3,3,0,0,0,1.51-.37,2.36,2.36,0,0,0,1-1,3.72,3.72,0,0,0,.23-1.47Z"/><path class="cls-10" d="M617.07,665.46V653.52h4.5a10.43,10.43,0,0,1,1.82.12,3.58,3.58,0,0,1,1.47.55,2.91,2.91,0,0,1,1,1.16,3.88,3.88,0,0,1-.61,4.2c-.65.71-1.81,1.06-3.5,1.06h-3.06v4.85Zm1.58-6.26h3.08a3.29,3.29,0,0,0,2.18-.57,2,2,0,0,0,.64-1.61,2.18,2.18,0,0,0-.38-1.28,1.74,1.74,0,0,0-1-.7,6.61,6.61,0,0,0-1.47-.11h-3.05Z"/><path class="cls-10" d="M631,665.46l-3.17-11.94h1.63l1.81,7.83c.2.82.37,1.63.51,2.44.3-1.27.48-2,.53-2.2l2.28-8.07h1.9l1.71,6.05a31.46,31.46,0,0,1,.93,4.22c.15-.75.35-1.62.59-2.6l1.88-7.67h1.59l-3.28,11.94h-1.52l-2.52-9.1c-.21-.76-.33-1.22-.37-1.4-.13.55-.24,1-.35,1.4l-2.54,9.1Z"/><path class="cls-10" d="M645.39,665.46V653.52h5.29a7.15,7.15,0,0,1,2.43.32,2.68,2.68,0,0,1,1.33,1.14,3.39,3.39,0,0,1,.5,1.8,3,3,0,0,1-.83,2.14,4.17,4.17,0,0,1-2.54,1.11,4,4,0,0,1,.95.59,8.58,8.58,0,0,1,1.32,1.59l2.07,3.25h-2L652.35,663q-.71-1.08-1.14-1.65a3.74,3.74,0,0,0-.81-.8,2.28,2.28,0,0,0-.72-.31,4.51,4.51,0,0,0-.88-.06H647v5.3Zm1.58-6.67h3.4a5.08,5.08,0,0,0,1.69-.22,1.79,1.79,0,0,0,.93-.72,1.94,1.94,0,0,0,.32-1.07,1.78,1.78,0,0,0-.62-1.39,2.85,2.85,0,0,0-1.94-.55H647Z"/><path class="cls-10" d="M616.89,770.07V758.13h1.58v10.53h5.88v1.41Z"/><path class="cls-10" d="M627.22,770.07V758.13h1.58v11.94Z"/><path class="cls-10" d="M632.28,770.07V758.13h1.62l6.27,9.37v-9.37h1.52v11.94h-1.62l-6.27-9.39v9.39Z"/><path class="cls-10" d="M645,770.07V758.13h1.58v5.92l5.92-5.92h2.15l-5,4.84,5.23,7.1h-2.09L648.53,764l-1.95,1.91v4.14Z"/><path class="cls-10" d="M587.14,864.06V852.13h8.63v1.4h-7v3.66h6.61v1.4h-6.61v4.06h7.33v1.41Z"/><path class="cls-10" d="M602,864.06V853.53h-3.94v-1.4h9.47v1.4h-3.95v10.53Z"/><path class="cls-10" d="M609.9,864.06V852.13h1.58V857h6.21v-4.9h1.58v11.93h-1.58v-5.62h-6.21v5.62Z"/><path class="cls-10" d="M452.64,831h1.58v6.89a8.18,8.18,0,0,1-.41,2.86,3.44,3.44,0,0,1-1.47,1.72,5.15,5.15,0,0,1-2.79.67,5.77,5.77,0,0,1-2.74-.58,3.34,3.34,0,0,1-1.53-1.68,8,8,0,0,1-.45-3V831h1.58v6.88a6.57,6.57,0,0,0,.29,2.3,2.15,2.15,0,0,0,1,1.13,3.39,3.39,0,0,0,1.72.4,3.31,3.31,0,0,0,2.49-.79,4.57,4.57,0,0,0,.74-3Z"/><path class="cls-10" d="M457,839.07l1.49-.13a3.32,3.32,0,0,0,.49,1.47,2.76,2.76,0,0,0,1.2.93,4.66,4.66,0,0,0,1.83.35,4.36,4.36,0,0,0,1.6-.27,2.15,2.15,0,0,0,1-.74,1.67,1.67,0,0,0,.34-1,1.55,1.55,0,0,0-.33-1,2.34,2.34,0,0,0-1.07-.7,20.64,20.64,0,0,0-2.13-.59,11,11,0,0,1-2.3-.74,3.28,3.28,0,0,1-1.28-1.11,2.72,2.72,0,0,1-.42-1.49,3.08,3.08,0,0,1,.52-1.69,3.17,3.17,0,0,1,1.5-1.19,5.66,5.66,0,0,1,2.19-.41,5.92,5.92,0,0,1,2.34.43,3.37,3.37,0,0,1,1.56,1.26,3.56,3.56,0,0,1,.58,1.88l-1.51.11a2.46,2.46,0,0,0-.83-1.71,3.24,3.24,0,0,0-2.08-.58,3.36,3.36,0,0,0-2.09.53A1.59,1.59,0,0,0,459,834a1.34,1.34,0,0,0,.46,1,6.22,6.22,0,0,0,2.38.85,16.24,16.24,0,0,1,2.65.77,3.7,3.7,0,0,1,1.54,1.21,3,3,0,0,1,.49,1.7,3.27,3.27,0,0,1-.54,1.8,3.64,3.64,0,0,1-1.57,1.31,5.5,5.5,0,0,1-2.3.47,7,7,0,0,1-2.72-.47,3.84,3.84,0,0,1-1.72-1.43A4,4,0,0,1,457,839.07Z"/><path class="cls-10" d="M469.34,842.9V831h4.48a5.64,5.64,0,0,1,2.2.36,2.8,2.8,0,0,1,1.29,1.11,3,3,0,0,1,.47,1.58,2.68,2.68,0,0,1-.42,1.44,2.93,2.93,0,0,1-1.25,1.09,3.07,3.07,0,0,1,1.66,1.08,2.91,2.91,0,0,1,.59,1.81A3.44,3.44,0,0,1,478,841a3,3,0,0,1-.87,1.11,3.68,3.68,0,0,1-1.31.59,7.63,7.63,0,0,1-1.93.2Zm1.58-6.92h2.58a5.86,5.86,0,0,0,1.51-.14,1.55,1.55,0,0,0,1.21-1.63,1.92,1.92,0,0,0-.28-1.05,1.43,1.43,0,0,0-.82-.62,6.74,6.74,0,0,0-1.81-.17h-2.39Zm0,5.51h3a6.94,6.94,0,0,0,1.08,0,2.7,2.7,0,0,0,.91-.33,1.61,1.61,0,0,0,.6-.66,2.07,2.07,0,0,0,.24-1,2,2,0,0,0-.34-1.16,1.8,1.8,0,0,0-.95-.69,6,6,0,0,0-1.75-.2h-2.76Z"/><path class="cls-10" d="M480.49,839.32v-1.47H485v1.47Z"/><path class="cls-10" d="M486.93,839.78l1.53-.13a2.8,2.8,0,0,0,.8,1.69,2.16,2.16,0,0,0,1.5.56,2.31,2.31,0,0,0,1.79-.8,3,3,0,0,0,.74-2.11,2.71,2.71,0,0,0-.71-2,2.43,2.43,0,0,0-1.84-.73,2.55,2.55,0,0,0-2.18,1.16l-1.37-.18,1.15-6.13h5.94v1.4h-4.77l-.64,3.21a3.9,3.9,0,0,1,2.26-.75,3.59,3.59,0,0,1,2.64,1.08,3.81,3.81,0,0,1,1.07,2.79,4.34,4.34,0,0,1-.94,2.8,3.81,3.81,0,0,1-3.14,1.45,3.86,3.86,0,0,1-2.66-.92A3.52,3.52,0,0,1,486.93,839.78Z"/><path class="cls-10" d="M500.92,842.9,496.3,831H498l3.1,8.67q.38,1,.63,2c.18-.65.4-1.3.64-2l3.23-8.67h1.61l-4.68,11.93Z"/><path class="cls-10" d="M347.37,864.06V852.12h5.29a6.86,6.86,0,0,1,2.43.33,2.65,2.65,0,0,1,1.33,1.13,3.43,3.43,0,0,1,.49,1.8,3,3,0,0,1-.82,2.14,4.17,4.17,0,0,1-2.54,1.11,3.72,3.72,0,0,1,.95.6,8.15,8.15,0,0,1,1.31,1.58l2.08,3.25h-2l-1.58-2.48q-.69-1.08-1.14-1.65a3.25,3.25,0,0,0-.8-.79,2.1,2.1,0,0,0-.72-.32,4.51,4.51,0,0,0-.88-.06H349v5.3Zm1.58-6.67h3.4a5.08,5.08,0,0,0,1.69-.22,1.79,1.79,0,0,0,.93-.72,1.94,1.94,0,0,0,.31-1.07,1.77,1.77,0,0,0-.61-1.39,2.9,2.9,0,0,0-1.94-.55H349Z"/><path class="cls-10" d="M365.84,861.28l1.51.19a3.69,3.69,0,0,1-1.32,2.06,4.05,4.05,0,0,1-2.48.73,4,4,0,0,1-3-1.17,4.57,4.57,0,0,1-1.11-3.28,4.85,4.85,0,0,1,1.12-3.39,3.83,3.83,0,0,1,2.92-1.2,3.67,3.67,0,0,1,2.83,1.18,4.65,4.65,0,0,1,1.1,3.32v.39H361a3.35,3.35,0,0,0,.8,2.19,2.41,2.41,0,0,0,1.81.75,2.26,2.26,0,0,0,1.38-.42A2.77,2.77,0,0,0,365.84,861.28ZM361,858.91h4.83a2.94,2.94,0,0,0-.56-1.64,2.26,2.26,0,0,0-1.81-.85,2.33,2.33,0,0,0-1.7.68A2.67,2.67,0,0,0,361,858.91Z"/><path class="cls-10" d="M369.88,864.06V852.12h1.47v11.94Z"/><path class="cls-10" d="M373.79,859.74a4.46,4.46,0,0,1,1.33-3.56,4,4,0,0,1,2.72-1,3.88,3.88,0,0,1,2.92,1.17,4.46,4.46,0,0,1,1.13,3.23,5.63,5.63,0,0,1-.5,2.62,3.5,3.5,0,0,1-1.46,1.49,4.24,4.24,0,0,1-2.09.53,3.87,3.87,0,0,1-2.93-1.17A4.61,4.61,0,0,1,373.79,859.74Zm1.51,0a3.7,3.7,0,0,0,.72,2.49,2.42,2.42,0,0,0,3.64,0,3.78,3.78,0,0,0,.73-2.53,3.6,3.6,0,0,0-.73-2.43,2.41,2.41,0,0,0-3.64,0A3.65,3.65,0,0,0,375.3,859.74Z"/><path class="cls-10" d="M390,863a5.32,5.32,0,0,1-1.57,1,4.51,4.51,0,0,1-1.61.29,3.12,3.12,0,0,1-2.19-.7,2.29,2.29,0,0,1-.77-1.78,2.4,2.4,0,0,1,.29-1.16,2.28,2.28,0,0,1,.76-.84,3.6,3.6,0,0,1,1.05-.48,9.7,9.7,0,0,1,1.3-.22,12.9,12.9,0,0,0,2.62-.51c0-.2,0-.32,0-.38a1.59,1.59,0,0,0-.42-1.26,2.45,2.45,0,0,0-1.67-.5,2.48,2.48,0,0,0-1.52.37,2.14,2.14,0,0,0-.73,1.28l-1.44-.2a3.48,3.48,0,0,1,.65-1.48,2.82,2.82,0,0,1,1.29-.88,5.89,5.89,0,0,1,2-.3,5.28,5.28,0,0,1,1.8.26,2.08,2.08,0,0,1,1.48,1.65,8.22,8.22,0,0,1,.07,1.35v2a21.48,21.48,0,0,0,.09,2.58,3.26,3.26,0,0,0,.38,1h-1.54A3.06,3.06,0,0,1,390,863Zm-.12-3.28a10.94,10.94,0,0,1-2.4.56,5.1,5.1,0,0,0-1.27.29,1.26,1.26,0,0,0-.58.48,1.22,1.22,0,0,0-.21.69,1.25,1.25,0,0,0,.45,1,1.91,1.91,0,0,0,1.3.39,3,3,0,0,0,1.5-.37,2.3,2.3,0,0,0,1-1,3.53,3.53,0,0,0,.24-1.47Z"/><path class="cls-10" d="M399.93,864.06V863a2.69,2.69,0,0,1-2.42,1.29,3.39,3.39,0,0,1-1.9-.57,3.68,3.68,0,0,1-1.34-1.59,5.48,5.48,0,0,1-.48-2.35,6.07,6.07,0,0,1,.43-2.35,3.4,3.4,0,0,1,1.3-1.62,3.49,3.49,0,0,1,1.93-.56,2.87,2.87,0,0,1,2.38,1.19v-4.29h1.46v11.94Zm-4.63-4.31a3.74,3.74,0,0,0,.7,2.48,2.1,2.1,0,0,0,1.65.82,2.06,2.06,0,0,0,1.63-.78,3.64,3.64,0,0,0,.68-2.4,4.07,4.07,0,0,0-.69-2.61,2.11,2.11,0,0,0-1.68-.83,2,2,0,0,0-1.64.8A4,4,0,0,0,395.3,859.75Z"/><path class="cls-10" d="M442.32,867.57a14.57,14.57,0,0,1-2.05-3.58,11.14,11.14,0,0,1-.84-4.25,11,11,0,0,1,.63-3.71,15.26,15.26,0,0,1,2.26-4.11h1.05a27,27,0,0,0-1.3,2.42,13.37,13.37,0,0,0-1.13,5.41,14.69,14.69,0,0,0,2.43,7.82Z"/><path class="cls-10" d="M454.49,859.88l1.58.4a5.3,5.3,0,0,1-1.78,3,4.9,4.9,0,0,1-3.16,1,5.71,5.71,0,0,1-3.14-.79,4.9,4.9,0,0,1-1.84-2.28,8.12,8.12,0,0,1-.63-3.2,7.11,7.11,0,0,1,.71-3.25,4.87,4.87,0,0,1,2-2.11,5.94,5.94,0,0,1,2.9-.72,5,5,0,0,1,3,.91,4.78,4.78,0,0,1,1.7,2.57l-1.55.36a3.68,3.68,0,0,0-1.21-1.89,3.2,3.2,0,0,0-2-.6,3.88,3.88,0,0,0-2.3.66,3.52,3.52,0,0,0-1.3,1.77,7.15,7.15,0,0,0-.37,2.3,7.36,7.36,0,0,0,.44,2.65,3.32,3.32,0,0,0,1.38,1.7,3.84,3.84,0,0,0,2,.56,3.4,3.4,0,0,0,2.25-.76A3.9,3.9,0,0,0,454.49,859.88Z"/><path class="cls-10" d="M458,859.74a4.46,4.46,0,0,1,1.34-3.56,4,4,0,0,1,2.72-1,3.89,3.89,0,0,1,2.92,1.17,4.46,4.46,0,0,1,1.13,3.23,5.76,5.76,0,0,1-.5,2.62,3.55,3.55,0,0,1-1.46,1.49,4.3,4.3,0,0,1-2.09.53,3.89,3.89,0,0,1-2.94-1.17A4.66,4.66,0,0,1,458,859.74Zm1.51,0a3.65,3.65,0,0,0,.73,2.49,2.42,2.42,0,0,0,3.64,0,3.78,3.78,0,0,0,.72-2.53,3.55,3.55,0,0,0-.73-2.43,2.32,2.32,0,0,0-1.81-.83,2.34,2.34,0,0,0-1.82.82A3.65,3.65,0,0,0,459.51,859.74Z"/><path class="cls-10" d="M468.54,864.06v-8.65h1.32v1.23a3.12,3.12,0,0,1,2.76-1.42,3.51,3.51,0,0,1,1.43.28,2.18,2.18,0,0,1,1,.74,2.78,2.78,0,0,1,.46,1.08,8.92,8.92,0,0,1,.08,1.42v5.32h-1.46V858.8a3.81,3.81,0,0,0-.18-1.34,1.42,1.42,0,0,0-.6-.71,2,2,0,0,0-1-.26,2.39,2.39,0,0,0-1.62.59,3,3,0,0,0-.68,2.26v4.72Z"/><path class="cls-10" d="M478,861.48l1.45-.23a2,2,0,0,0,.68,1.34,2.36,2.36,0,0,0,1.56.46,2.28,2.28,0,0,0,1.5-.41,1.23,1.23,0,0,0,.49-1,.91.91,0,0,0-.44-.79,6.45,6.45,0,0,0-1.49-.49,13.3,13.3,0,0,1-2.24-.71,2.1,2.1,0,0,1-.94-.82,2.14,2.14,0,0,1-.33-1.16,2.21,2.21,0,0,1,.27-1.07,2.47,2.47,0,0,1,.72-.82,3.11,3.11,0,0,1,.93-.43,4.75,4.75,0,0,1,1.27-.17,5.17,5.17,0,0,1,1.79.29,2.4,2.4,0,0,1,1.13.8,3.11,3.11,0,0,1,.51,1.34l-1.44.19a1.56,1.56,0,0,0-.56-1,2.09,2.09,0,0,0-1.33-.38,2.42,2.42,0,0,0-1.44.34,1,1,0,0,0-.43.78.79.79,0,0,0,.18.51,1.27,1.27,0,0,0,.56.39c.15.06.58.18,1.3.38a18.37,18.37,0,0,1,2.17.68,2.1,2.1,0,0,1,1,.77,2.07,2.07,0,0,1,.35,1.25,2.48,2.48,0,0,1-.42,1.38,2.76,2.76,0,0,1-1.24,1,4.41,4.41,0,0,1-1.82.36,4.1,4.1,0,0,1-2.57-.7A3.25,3.25,0,0,1,478,861.48Z"/><path class="cls-10" d="M487.05,859.74a4.46,4.46,0,0,1,1.33-3.56,4,4,0,0,1,2.72-1,3.89,3.89,0,0,1,2.92,1.17,4.46,4.46,0,0,1,1.13,3.23,5.76,5.76,0,0,1-.5,2.62,3.55,3.55,0,0,1-1.46,1.49,4.27,4.27,0,0,1-2.09.53,3.86,3.86,0,0,1-2.93-1.17A4.61,4.61,0,0,1,487.05,859.74Zm1.5,0a3.65,3.65,0,0,0,.73,2.49,2.42,2.42,0,0,0,3.64,0,3.78,3.78,0,0,0,.72-2.53,3.55,3.55,0,0,0-.73-2.43,2.32,2.32,0,0,0-1.81-.83,2.34,2.34,0,0,0-1.82.82A3.65,3.65,0,0,0,488.55,859.74Z"/><path class="cls-10" d="M497.55,864.06V852.12H499v11.94Z"/><path class="cls-10" d="M507.93,861.28l1.51.19a3.74,3.74,0,0,1-1.32,2.06,4.08,4.08,0,0,1-2.48.73,4,4,0,0,1-3-1.17,4.57,4.57,0,0,1-1.11-3.28,4.8,4.8,0,0,1,1.12-3.39,3.82,3.82,0,0,1,2.92-1.2,3.67,3.67,0,0,1,2.83,1.18,4.65,4.65,0,0,1,1.1,3.32c0,.09,0,.22,0,.39H503a3.4,3.4,0,0,0,.81,2.19,2.41,2.41,0,0,0,1.81.75,2.23,2.23,0,0,0,1.37-.42A2.78,2.78,0,0,0,507.93,861.28Zm-4.81-2.37h4.82a2.94,2.94,0,0,0-.55-1.64,2.26,2.26,0,0,0-1.81-.85,2.33,2.33,0,0,0-1.7.68A2.62,2.62,0,0,0,503.12,858.91Z"/><path class="cls-10" d="M513,867.57h-1.05a14.7,14.7,0,0,0,2.44-7.82,13.57,13.57,0,0,0-.35-3,13.22,13.22,0,0,0-.78-2.35c-.21-.48-.65-1.3-1.31-2.44H513a15.58,15.58,0,0,1,2.27,4.11,11.28,11.28,0,0,1-.22,8A14.57,14.57,0,0,1,513,867.57Z"/><path class="cls-10" d="M602.35,721.32V709.38h4.48a5.55,5.55,0,0,1,2.19.36,2.82,2.82,0,0,1,1.29,1.12,2.87,2.87,0,0,1,.47,1.57,2.7,2.7,0,0,1-.41,1.45,3,3,0,0,1-1.26,1.09,3.1,3.1,0,0,1,1.67,1.08,2.88,2.88,0,0,1,.58,1.81,3.57,3.57,0,0,1-.35,1.56,3,3,0,0,1-.88,1.11,3.6,3.6,0,0,1-1.31.59,8,8,0,0,1-1.92.2Zm1.58-6.92h2.58a5.77,5.77,0,0,0,1.5-.14,1.63,1.63,0,0,0,.91-.6,1.65,1.65,0,0,0,.31-1,2,2,0,0,0-.29-1,1.43,1.43,0,0,0-.81-.61,6.83,6.83,0,0,0-1.82-.17h-2.38Zm0,5.51h3a6.38,6.38,0,0,0,1.07-.06,2.55,2.55,0,0,0,.92-.32,1.79,1.79,0,0,0,.6-.67,2,2,0,0,0,.23-1,2,2,0,0,0-.34-1.16,1.77,1.77,0,0,0-1-.69,5.59,5.59,0,0,0-1.74-.2h-2.76Z"/><path class="cls-10" d="M617.29,721.32V710.79h-3.93v-1.41h9.46v1.41h-4v10.53Z"/><path class="cls-10" d="M623.87,721.52l3.46-12.34h1.17l-3.45,12.34Z"/><path class="cls-10" d="M630.44,721.32V709.38H632v10.53h5.88v1.41Z"/><path class="cls-10" d="M639.77,717a4.44,4.44,0,0,1,1.33-3.55,4,4,0,0,1,2.72-1,3.89,3.89,0,0,1,2.92,1.16,4.47,4.47,0,0,1,1.13,3.23,5.78,5.78,0,0,1-.5,2.63,3.47,3.47,0,0,1-1.46,1.48,4.17,4.17,0,0,1-2.09.53,3.85,3.85,0,0,1-2.93-1.16A4.64,4.64,0,0,1,639.77,717Zm1.51,0a3.7,3.7,0,0,0,.72,2.49,2.41,2.41,0,0,0,3.64,0,3.78,3.78,0,0,0,.73-2.53,3.6,3.6,0,0,0-.73-2.43,2.42,2.42,0,0,0-3.64,0A3.69,3.69,0,0,0,641.28,717Z"/><path class="cls-10" d="M650.52,721.32V709.38h5.29a7.15,7.15,0,0,1,2.43.32,2.72,2.72,0,0,1,1.33,1.14,3.38,3.38,0,0,1,.49,1.8,3,3,0,0,1-.82,2.14,4.17,4.17,0,0,1-2.54,1.11,4,4,0,0,1,.95.59,7.94,7.94,0,0,1,1.31,1.59l2.08,3.25h-2l-1.58-2.48q-.69-1.08-1.14-1.65a3.32,3.32,0,0,0-.8-.8,2.31,2.31,0,0,0-.72-.32,5.8,5.8,0,0,0-.88-.05H652.1v5.3Zm1.58-6.67h3.4a5.36,5.36,0,0,0,1.69-.22,1.79,1.79,0,0,0,.93-.72,2,2,0,0,0,.31-1.07,1.76,1.76,0,0,0-.61-1.39,2.85,2.85,0,0,0-1.94-.55H652.1Z"/><path class="cls-10" d="M668.71,720.25a5.47,5.47,0,0,1-1.56,1,4.6,4.6,0,0,1-1.62.28,3.16,3.16,0,0,1-2.19-.69,2.32,2.32,0,0,1-.77-1.78,2.4,2.4,0,0,1,.29-1.16,2.37,2.37,0,0,1,.76-.84,3.15,3.15,0,0,1,1-.48,9.91,9.91,0,0,1,1.31-.22,13.67,13.67,0,0,0,2.61-.51c0-.2,0-.33,0-.38a1.63,1.63,0,0,0-.42-1.27,2.45,2.45,0,0,0-1.67-.49,2.58,2.58,0,0,0-1.52.36,2.22,2.22,0,0,0-.73,1.28l-1.44-.19a3.66,3.66,0,0,1,.65-1.49,2.79,2.79,0,0,1,1.29-.87,5.91,5.91,0,0,1,2-.3,5.11,5.11,0,0,1,1.8.26,2.05,2.05,0,0,1,1.47,1.65,8.22,8.22,0,0,1,.07,1.35v2a18.84,18.84,0,0,0,.1,2.59,3.09,3.09,0,0,0,.37,1H669A3.05,3.05,0,0,1,668.71,720.25Zm-.12-3.27a10.5,10.5,0,0,1-2.39.55,5.47,5.47,0,0,0-1.28.3,1.22,1.22,0,0,0-.78,1.17,1.25,1.25,0,0,0,.44,1,1.92,1.92,0,0,0,1.3.39,3.13,3.13,0,0,0,1.51-.37,2.25,2.25,0,0,0,1-1,3.48,3.48,0,0,0,.24-1.46Z"/><path class="cls-10" d="M564,410.11l-3.16-11.94h1.62l1.81,7.83c.2.82.37,1.63.51,2.44.3-1.28.48-2,.53-2.21l2.28-8.06h1.9l1.71,6a31.93,31.93,0,0,1,.93,4.23c.15-.76.35-1.62.6-2.6l1.87-7.67h1.59l-3.28,11.94h-1.52l-2.52-9.1c-.21-.76-.33-1.23-.37-1.4-.13.55-.24,1-.35,1.4l-2.53,9.1Z"/><path class="cls-10" d="M578.29,410.11V398.17h1.58V408.7h5.88v1.41Z"/><path class="cls-10" d="M587,410.11l4.58-11.94h1.71l4.88,11.94h-1.8L595,406.49h-5l-1.31,3.62Zm3.44-4.9h4l-1.24-3.31c-.38-1-.67-1.83-.85-2.48a14.38,14.38,0,0,1-.65,2.28Z"/><path class="cls-10" d="M600.18,410.11V398.17h1.62l6.27,9.37v-9.37h1.51v11.94H608l-6.27-9.38v9.38Z"/><path class="cls-10" d="M611.67,410.31,615.13,398h1.17l-3.45,12.34Z"/><path class="cls-10" d="M618.24,410.11V398.17h4.48a5.55,5.55,0,0,1,2.19.36,2.78,2.78,0,0,1,1.3,1.12,2.93,2.93,0,0,1,.47,1.57,2.68,2.68,0,0,1-.42,1.44,2.94,2.94,0,0,1-1.25,1.1,3.11,3.11,0,0,1,1.66,1.08,2.88,2.88,0,0,1,.58,1.81,3.43,3.43,0,0,1-.35,1.56,3,3,0,0,1-.88,1.11,3.55,3.55,0,0,1-1.3.59,8.17,8.17,0,0,1-1.93.2Zm1.58-6.92h2.58a5.91,5.91,0,0,0,1.51-.14,1.59,1.59,0,0,0,1.21-1.64,1.94,1.94,0,0,0-.28-1.05,1.45,1.45,0,0,0-.82-.61,6.39,6.39,0,0,0-1.81-.17h-2.39Zm0,5.51h3a6.61,6.61,0,0,0,1.08-.06,2.57,2.57,0,0,0,.91-.32,1.87,1.87,0,0,0,.6-.67,2.17,2.17,0,0,0-.1-2.16,1.88,1.88,0,0,0-.95-.7,6,6,0,0,0-1.75-.2h-2.76Z"/><path class="cls-10" d="M633.18,410.11V399.58h-3.93v-1.41h9.46v1.41h-4v10.53Z"/><polygon class="cls-10" points="312.24 796 312.24 835.05 305.36 835.05 305.36 808.43 295.19 822.7 293.57 824.97 288.35 824.97 286.73 822.7 276.21 807.94 276.21 835.05 269.33 835.05 269.33 796 276.16 796 276.21 796.07 290.96 816.77 305.36 796.56 305.76 796 312.24 796"/><polygon class="cls-10" points="345.33 796 345.33 800.22 344.04 802.89 328.48 835.05 320.82 835.05 336.39 802.89 317.91 802.89 317.91 796 345.33 796"/></g></svg>