<svg class="svg-icon" style="width: 1em; height: 1em;vertical-align: middle;fill: currentColor;overflow: hidden;" viewBox="0 0 1024 1024" version="1.1" xmlns="http://www.w3.org/2000/svg">
    <path d="M464 784.352c0 26.51 21.49 48 48 48s48-21.49 48-48-21.49-48-48-48-48 21.49-48 48z" fill="#ccc" />
    <path d="M512 960C264.96 960 64 759.04 64 512S264.96 64 512 64s448 200.96 448 448-200.96 448-448 448z m0-831.713c-211.584 0-383.713 172.129-383.713 383.713 0 211.552 172.129 383.713 383.713 383.713 211.552 0 383.713-172.16 383.713-383.713 0-211.584-172.161-383.713-383.713-383.713z" fill="#ccc" />
    <path d="M512 673.695c-17.665 0-32-14.336-32-31.999v-54.112c0-52.353 39.999-92.352 75.327-127.648 25.887-25.92 52.672-52.672 52.672-74.016 0-53.344-43.072-96.736-95.999-96.736-53.823 0-96 41.536-96 94.56 0 17.664-14.335 31.999-32 31.999s-32-14.336-32-32c0-87.423 71.774-158.559 160-158.559S672 297.28 672 385.92c0 47.904-36.32 84.191-71.424 119.296-27.84 27.776-56.575 56.512-56.575 82.335v54.112c0 17.665-14.336 32.032-32.001 32.032z" fill="#ccc" />
</svg>