<svg xmlns="http://www.w3.org/2000/svg" viewBox="431.09 27.94 310.45 1016.52"><defs><style>.cls-1{fill:#3b3b3d;}.cls-2{fill:#242426;}.cls-3{fill:#ec6263;}.cls-4{fill:#595859;}.cls-5{fill:#4c4b4f;}.cls-6{fill:#eb612a;}.cls-7{fill:#f6a75e;}.cls-8{fill:#e0b77b;}.cls-9{fill:#1a1a1c;}.cls-10,.cls-11,.cls-12,.cls-13{fill:none;stroke:#000;stroke-linecap:round;stroke-linejoin:round;}.cls-10{stroke-width:1.36px;}.cls-11{stroke-width:1.34px;}.cls-12{stroke-width:1.23px;}.cls-13{stroke-width:1.46px;}.cls-14{fill:#333335;}</style></defs><g id="Layer_2" data-name="Layer 2"><path class="cls-1" d="M740.86,685.6v336.65a21.54,21.54,0,0,1-21.54,21.53H458.69a21.55,21.55,0,0,1-21.55-21.53V655.32a17.23,17.23,0,0,1,17.22-17.22H555a11.72,11.72,0,0,1,8.14,3.29l13.48,13,8.94,8.65a11.67,11.67,0,0,0,8.13,3.29H721.61A19.25,19.25,0,0,1,740.86,685.6Z"></path><path class="cls-2" d="M619.43,660.89l-11.08-11.08a5.51,5.51,0,0,0-4-1.69h-21.9a5.71,5.71,0,0,0-5.77,5.71v.59l-13.48-13h45.71a16.37,16.37,0,0,1,11.57,4.8l20.16,20.17H617.51A3.2,3.2,0,0,0,619.43,660.89Z"></path><path class="cls-1" d="M617.51,666.36a2.11,2.11,0,0,1-.36,0h-19l0,0Z"></path><path class="cls-2" d="M437.14,874.52l-3.33-3.33a7,7,0,0,1-2-5V764.1a7,7,0,0,1,2-4.94l3.33-3.33Z"></path><path class="cls-3" d="M431.77,774.2h0a2.7,2.7,0,0,1,2.69,2.69v19.68a2.69,2.69,0,0,1-2.69,2.69h0Z"></path><path class="cls-3" d="M431.77,836.51h0a2.69,2.69,0,0,1,2.69,2.69v19.68a2.7,2.7,0,0,1-2.69,2.69h0Z"></path><polygon class="cls-2" points="675.17 97.45 675.39 94.11 675.78 88.11 675.98 84.75 714.35 85.91 714.21 89.27 713.99 95.25 713.86 98.61 675.17 97.45"></polygon><polygon class="cls-1" points="716.32 89.34 716.1 95.32 713.99 95.25 675.39 94.11 673.76 94.05 674.14 88.05 675.77 88.11 714.21 89.27 716.32 89.34"></polygon><path class="cls-1" d="M716,99.47l-11.78,311v72.88a3.3,3.3,0,0,0-3.3-3.3H686.5a3.3,3.3,0,0,0-3.3,3.3v27.48a11.37,11.37,0,0,1-11.36,11.37h-18a2,2,0,0,1-2-2l1.69-109.74L673.5,98.16a.78.78,0,0,1,.81-.74l.86,0,38.69,1.16,1.33,0A.81.81,0,0,1,716,99.47Z"></path><path class="cls-1" d="M675.37,84.73,715.47,86a1,1,0,0,0,1-1l1.33-35.06c0-.26,0-.53,0-.79a20.58,20.58,0,0,0-41.11-1.39l-2.3,35.92A1,1,0,0,0,675.37,84.73Z"></path><path class="cls-2" d="M654.54,525.35V522.2h17.25a11.41,11.41,0,0,0,11.41-11.41V488.93h10.63a3.47,3.47,0,0,1,3.47,3.47v33.22Z"></path><rect class="cls-1" x="649.89" y="592.68" width="52.14" height="45.42" rx="1.47"></rect><rect class="cls-1" x="646.45" y="599.16" width="58.37" height="33.21" rx="1.93"></rect><path class="cls-2" d="M676.07,743.46v84.2a5.37,5.37,0,0,1-5.35,5.35H509.27a5.36,5.36,0,0,1-5.35-5.35v-84.2a5.34,5.34,0,0,1,5.35-5.35H670.72A5.36,5.36,0,0,1,676.07,743.46Z"></path><path class="cls-4" d="M672.07,844.7H507.91a16,16,0,0,1-16-16V742.42a16,16,0,0,1,16-16h91.35a10.82,10.82,0,0,0,5.85-1.71L623,713.22a17.64,17.64,0,0,1,9.57-2.8h40.58a14.9,14.9,0,0,1,14.88,14.88V828.68A16,16,0,0,1,672.07,844.7ZM507.89,733.33a9.1,9.1,0,0,0-9.09,9.09v86.26a9.12,9.12,0,0,0,9.11,9.11H672.07a9.11,9.11,0,0,0,9.09-9.11V725.3a8,8,0,0,0-8-8H632.61a10.82,10.82,0,0,0-5.85,1.71l-18,11.49a17.73,17.73,0,0,1-9.57,2.8Z"></path><path class="cls-5" d="M673.19,713.87H632.62a14.36,14.36,0,0,0-7.71,2.25L607,727.62a14.33,14.33,0,0,1-7.72,2.25H507.9a12.56,12.56,0,0,0-12.55,12.55v86.26a12.56,12.56,0,0,0,12.56,12.56H672.07a12.55,12.55,0,0,0,12.55-12.56V725.3A11.42,11.42,0,0,0,673.19,713.87Zm2.88,113.79a5.37,5.37,0,0,1-5.35,5.35H509.27a5.36,5.36,0,0,1-5.35-5.35v-84.2a5.34,5.34,0,0,1,5.35-5.35H670.72a5.36,5.36,0,0,1,5.35,5.35Z"></path><circle class="cls-5" cx="628.69" cy="926.5" r="18.08"></circle><circle class="cls-5" cx="691.77" cy="926.5" r="25.82"></circle><circle class="cls-6" cx="628.69" cy="926.5" r="14.31"></circle><circle class="cls-6" cx="691.77" cy="926.5" r="21.16"></circle><circle class="cls-7" cx="628.69" cy="926.5" r="11.36"></circle><circle class="cls-7" cx="691.77" cy="926.5" r="17.81"></circle><rect class="cls-8" x="648.82" y="641.17" width="55.25" height="7.02"></rect><rect class="cls-8" x="654.74" y="648.68" width="43.53" height="11.63"></rect><rect class="cls-8" x="651.88" y="638.3" width="48.7" height="1.93"></rect><rect class="cls-2" x="646.45" y="602.01" width="58.37" height="27.76"></rect><rect class="cls-2" x="654.03" y="589.52" width="44.41" height="2.94"></rect><rect class="cls-1" x="651.88" y="525.47" width="48.7" height="64.05" rx="2.38"></rect><path class="cls-2" d="M709.54,662.52v3.84h-68v-3.84a1.85,1.85,0,0,1,1.85-1.85h64.34A1.85,1.85,0,0,1,709.54,662.52Z"></path><path class="cls-9" d="M683.2,488.93H691a0,0,0,0,1,0,0v18.44a3.79,3.79,0,0,1-3.79,3.79h-4a0,0,0,0,1,0,0V488.93A0,0,0,0,1,683.2,488.93Z"></path><path class="cls-9" d="M683.2,488.93v-5.67a3.14,3.14,0,0,1,3.14-3.13H701a3.22,3.22,0,0,1,3.22,3.22v27.81s.43,6.83-7,9.95V492.2a3.27,3.27,0,0,0-3.26-3.27Z"></path><ellipse class="cls-9" cx="662.08" cy="494.33" rx="4.12" ry="4.68"></ellipse><rect class="cls-5" x="506.41" y="970.48" width="170.03" height="9.97" rx="4.98"></rect><rect class="cls-5" x="506.41" y="1004.91" width="170.03" height="9.97" rx="4.98"></rect><path class="cls-5" d="M573.49,709.25h-4.44a3.53,3.53,0,0,1-2.47-1l-42.93-42.7a1.17,1.17,0,0,1,.83-2h4.43a3.5,3.5,0,0,1,2.48,1l42.93,42.7A1.18,1.18,0,0,1,573.49,709.25Z"></path><path class="cls-5" d="M546.14,709.25H541.7a3.5,3.5,0,0,1-2.47-1l-42.94-42.7a1.18,1.18,0,0,1,.83-2h4.44a3.49,3.49,0,0,1,2.47,1L547,707.24A1.17,1.17,0,0,1,546.14,709.25Z"></path><path class="cls-5" d="M518.78,709.25h-4.44a3.53,3.53,0,0,1-2.47-1l-42.93-42.7a1.17,1.17,0,0,1,.82-2h4.44a3.45,3.45,0,0,1,2.47,1l42.94,42.7A1.18,1.18,0,0,1,518.78,709.25Z"></path><path class="cls-5" d="M486.12,709.26h-4.44a3.5,3.5,0,0,1-2.47-1l-7-7a1.17,1.17,0,0,1,.83-2h4.44a3.49,3.49,0,0,1,2.47,1l7,7A1.18,1.18,0,0,1,486.12,709.26Z"></path><path class="cls-5" d="M721.61,666.36H593.73a11.67,11.67,0,0,1-8.13-3.29l-8.94-8.65-13.48-13A11.72,11.72,0,0,0,555,638.1H454.36a17.23,17.23,0,0,0-17.22,17.22v366.93a21.55,21.55,0,0,0,21.55,21.53H719.32a21.54,21.54,0,0,0,21.54-21.53V685.6A19.25,19.25,0,0,0,721.61,666.36Zm13,355.89a15.33,15.33,0,0,1-15.33,15.31H458.69a15.35,15.35,0,0,1-15.33-15.31V655.32a11,11,0,0,1,11-11H555a5.42,5.42,0,0,1,3.81,1.55l22.43,21.67a17.86,17.86,0,0,0,12.45,5H721.61a13.05,13.05,0,0,1,13,13Z"></path><path class="cls-10" d="M437.15,655.32v366.92a21.54,21.54,0,0,0,21.54,21.54H719.32a21.54,21.54,0,0,0,21.54-21.54V685.6a19.24,19.24,0,0,0-19.24-19.23H593.73a11.7,11.7,0,0,1-8.13-3.29l-22.43-21.69A11.7,11.7,0,0,0,555,638.1H454.36A17.21,17.21,0,0,0,437.15,655.32Z"></path><path class="cls-10" d="M563.17,641.39h45.71a16.42,16.42,0,0,1,11.58,4.79l20.15,20.19"></path><path class="cls-10" d="M576.67,654.42v-.6a5.72,5.72,0,0,1,5.76-5.71h21.9a5.53,5.53,0,0,1,4,1.69l11.09,11.08a3.21,3.21,0,0,1-2.29,5.49h-19"></path><path class="cls-10" d="M641.49,666.37v-3.66a2.05,2.05,0,0,1,2-2.05h64a2.05,2.05,0,0,1,2,2.05v3.66"></path><polyline class="cls-10" points="654.74 660.66 654.74 648.67 698.27 648.67 698.27 660.66"></polyline><path class="cls-10" d="M698.27,648.68h4.94a.87.87,0,0,0,.86-.86v-6.14a.86.86,0,0,0-.86-.86H649.57a1,1,0,0,0-1,1v5.84a1,1,0,0,0,1,1h5.17"></path><line class="cls-10" x1="660.22" y1="640.82" x2="660.22" y2="648.68"></line><line class="cls-10" x1="687.8" y1="640.82" x2="687.8" y2="648.68"></line><path class="cls-11" d="M702,632.38v4.5a1.22,1.22,0,0,1-1.21,1.22H651a1.2,1.2,0,0,1-1.21-1.22v-4.5"></path><path class="cls-11" d="M649.8,599.16v-5.27a1.21,1.21,0,0,1,1.21-1.21h49.81a1.22,1.22,0,0,1,1.21,1.21v5.27"></path><line class="cls-11" x1="651.88" y1="638.1" x2="651.88" y2="640.82"></line><line class="cls-11" x1="700.58" y1="638.1" x2="700.58" y2="640.82"></line><rect class="cls-11" x="651.88" y="525.47" width="48.7" height="64.05" rx="2.14"></rect><line class="cls-11" x1="654.03" y1="589.52" x2="654.03" y2="592.68"></line><line class="cls-11" x1="698.44" y1="589.52" x2="698.44" y2="592.68"></line><path class="cls-11" d="M704.17,483.35V410.47h-50.6l-1.69,109.74a2,2,0,0,0,2,2h18a11.37,11.37,0,0,0,11.36-11.37V483.35a3.3,3.3,0,0,1,3.3-3.3h14.37a3.3,3.3,0,0,1,3.3,3.3v27.48a11.33,11.33,0,0,1-6.86,10.43h0"></path><line class="cls-11" x1="654.44" y1="522.2" x2="654.44" y2="525.47"></line><path class="cls-11" d="M697.3,525.47V492.4a3.47,3.47,0,0,0-3.47-3.47H683.2"></path><line class="cls-12" x1="713.99" y1="95.25" x2="713.86" y2="98.61"></line><line class="cls-12" x1="675.98" y1="84.75" x2="675.78" y2="88.11"></line><line class="cls-12" x1="714.35" y1="85.91" x2="714.21" y2="89.27"></line><line class="cls-12" x1="675.39" y1="94.11" x2="675.17" y2="97.45"></line><path class="cls-11" d="M675.37,84.73,715.47,86a1,1,0,0,0,1-1l1.33-35.06c0-.26,0-.53,0-.79a20.58,20.58,0,0,0-41.11-1.39l-2.3,35.92A1,1,0,0,0,675.37,84.73Z"></path><polygon class="cls-11" points="716.32 89.34 716.1 95.32 713.99 95.25 675.39 94.11 673.76 94.05 674.14 88.05 675.78 88.11 714.21 89.27 716.32 89.34"></polygon><path class="cls-11" d="M704.17,410.47,716,99.47a.79.79,0,0,0-.77-.81l-40.87-1.24a.79.79,0,0,0-.81.74L653.57,410.47"></path><ellipse class="cls-11" cx="662.08" cy="494.33" rx="4.12" ry="4.68"></ellipse><rect class="cls-11" x="646.45" y="599.16" width="58.37" height="33.21" rx="1.92"></rect><line class="cls-11" x1="649.89" y1="602.01" x2="649.89" y2="629.77"></line><line class="cls-11" x1="654.63" y1="602.01" x2="654.63" y2="629.77"></line><line class="cls-11" x1="659.36" y1="602.01" x2="659.36" y2="629.77"></line><line class="cls-11" x1="664.09" y1="602.01" x2="664.09" y2="629.77"></line><line class="cls-11" x1="668.82" y1="602.01" x2="668.82" y2="629.77"></line><line class="cls-11" x1="673.55" y1="602.01" x2="673.55" y2="629.77"></line><line class="cls-11" x1="678.28" y1="602.01" x2="678.28" y2="629.77"></line><line class="cls-11" x1="683.01" y1="602.01" x2="683.01" y2="629.77"></line><line class="cls-11" x1="687.74" y1="602.01" x2="687.74" y2="629.77"></line><line class="cls-11" x1="692.47" y1="602.01" x2="692.47" y2="629.77"></line><line class="cls-11" x1="697.2" y1="602.01" x2="697.2" y2="629.77"></line><line class="cls-11" x1="701.93" y1="602.01" x2="701.93" y2="629.77"></line><path class="cls-13" d="M676.07,743.46v84.2a5.37,5.37,0,0,1-5.35,5.35H509.27a5.36,5.36,0,0,1-5.35-5.35v-84.2a5.34,5.34,0,0,1,5.35-5.35H670.72A5.36,5.36,0,0,1,676.07,743.46Z"></path><path class="cls-13" d="M673.19,713.87a11.43,11.43,0,0,1,11.43,11.43V828.68a12.55,12.55,0,0,1-12.55,12.56H507.91a12.56,12.56,0,0,1-12.56-12.56V742.42a12.55,12.55,0,0,1,12.55-12.55h91.34a14.33,14.33,0,0,0,7.72-2.25l17.94-11.49a14.37,14.37,0,0,1,7.72-2.26Z"></path><circle class="cls-5" cx="468.76" cy="746.5" r="20.2"></circle><circle class="cls-2" cx="468.76" cy="746.5" r="11.67"></circle><circle class="cls-14" cx="468.76" cy="746.5" r="9.33"></circle><circle class="cls-13" cx="468.76" cy="746.5" r="20.2"></circle><circle class="cls-13" cx="468.76" cy="746.5" r="9.33"></circle><circle class="cls-13" cx="468.76" cy="746.5" r="11.67"></circle><line class="cls-13" x1="475.11" y1="746.39" x2="462.42" y2="746.39"></line><line class="cls-13" x1="468.76" y1="740.04" x2="468.76" y2="752.73"></line><circle class="cls-5" cx="711.06" cy="746.5" r="20.2"></circle><circle class="cls-2" cx="711.06" cy="746.5" r="11.67"></circle><circle class="cls-14" cx="711.06" cy="746.5" r="9.33"></circle><circle class="cls-13" cx="711.06" cy="746.5" r="20.2"></circle><circle class="cls-13" cx="711.06" cy="746.5" r="9.33"></circle><circle class="cls-13" cx="711.06" cy="746.5" r="11.67"></circle><line class="cls-13" x1="717.41" y1="746.39" x2="704.71" y2="746.39"></line><line class="cls-13" x1="711.06" y1="740.04" x2="711.06" y2="752.73"></line><circle class="cls-5" cx="468.76" cy="1012.62" r="20.2"></circle><circle class="cls-2" cx="468.76" cy="1012.62" r="11.67"></circle><circle class="cls-14" cx="468.76" cy="1012.62" r="9.33"></circle><circle class="cls-13" cx="468.76" cy="1012.62" r="20.2"></circle><circle class="cls-13" cx="468.76" cy="1012.62" r="9.33"></circle><circle class="cls-13" cx="468.76" cy="1012.62" r="11.67"></circle><line class="cls-13" x1="475.11" y1="1012.51" x2="462.42" y2="1012.51"></line><line class="cls-13" x1="468.76" y1="1006.16" x2="468.76" y2="1018.85"></line><circle class="cls-5" cx="711.06" cy="1012.62" r="20.2"></circle><circle class="cls-2" cx="711.06" cy="1012.62" r="11.67"></circle><circle class="cls-14" cx="711.06" cy="1012.62" r="9.33"></circle><circle class="cls-13" cx="711.06" cy="1012.62" r="20.2"></circle><circle class="cls-13" cx="711.06" cy="1012.62" r="9.33"></circle><circle class="cls-13" cx="711.06" cy="1012.62" r="11.67"></circle><line class="cls-13" x1="717.41" y1="1012.51" x2="704.71" y2="1012.51"></line><line class="cls-13" x1="711.06" y1="1006.16" x2="711.06" y2="1018.85"></line><circle class="cls-13" cx="628.69" cy="926.5" r="18.08"></circle><circle class="cls-13" cx="628.69" cy="926.5" r="14.31"></circle><circle class="cls-13" cx="691.77" cy="926.5" r="25.82"></circle><circle class="cls-13" cx="691.77" cy="926.5" r="21.16"></circle><rect class="cls-13" x="506.41" y="970.48" width="170.03" height="9.97" rx="4.98"></rect><rect class="cls-13" x="506.41" y="1004.91" width="170.03" height="9.97" rx="4.98"></rect><path class="cls-13" d="M573.49,709.25h-4.44a3.53,3.53,0,0,1-2.47-1l-42.93-42.7a1.17,1.17,0,0,1,.83-2h4.43a3.5,3.5,0,0,1,2.48,1l42.93,42.7A1.18,1.18,0,0,1,573.49,709.25Z"></path><path class="cls-13" d="M546.14,709.25H541.7a3.5,3.5,0,0,1-2.47-1l-42.94-42.7a1.18,1.18,0,0,1,.83-2h4.44a3.49,3.49,0,0,1,2.47,1L547,707.24A1.17,1.17,0,0,1,546.14,709.25Z"></path><path class="cls-13" d="M518.78,709.25h-4.44a3.53,3.53,0,0,1-2.47-1l-42.93-42.7a1.17,1.17,0,0,1,.82-2h4.44a3.45,3.45,0,0,1,2.47,1l42.94,42.7A1.18,1.18,0,0,1,518.78,709.25Z"></path><path class="cls-13" d="M486.12,709.26h-4.44a3.5,3.5,0,0,1-2.47-1l-7-7a1.17,1.17,0,0,1,.83-2h4.44a3.49,3.49,0,0,1,2.47,1l7,7A1.18,1.18,0,0,1,486.12,709.26Z"></path><path class="cls-10" d="M437.14,874.52l-3.33-3.33a7,7,0,0,1-2-5V764.1a7,7,0,0,1,2-4.94l3.33-3.33"></path><path class="cls-10" d="M431.77,774.2h0a2.7,2.7,0,0,1,2.69,2.69v19.68a2.69,2.69,0,0,1-2.69,2.69h0"></path><path class="cls-10" d="M431.77,836.51h0a2.69,2.69,0,0,1,2.69,2.69v19.68a2.7,2.7,0,0,1-2.69,2.69h0"></path><path class="cls-2" d="M510.56,867.89,482.76,907a5.28,5.28,0,0,1-7.37,1.24h0a5.28,5.28,0,0,1-1.23-7.36L502,861.77a5.27,5.27,0,0,1,7.36-1.24h0A5.28,5.28,0,0,1,510.56,867.89Z"></path><path class="cls-2" d="M568.87,908.2h0a5.3,5.3,0,0,1-7.38-1.24l-24-33.77-24,33.77a5.29,5.29,0,0,1-7.37,1.24h0a5.29,5.29,0,0,1-1.23-7.37L531,864.07l2.18-3.06a5.28,5.28,0,0,1,8.61,0l2.18,3.06,26.16,36.76A5.3,5.3,0,0,1,568.87,908.2Z"></path><path class="cls-2" d="M474.7,958.47a2.76,2.76,0,0,1-2.76-2.76V932.77A2.77,2.77,0,0,1,474.7,930h7.5a9.75,9.75,0,0,1,9.74,9.75,9.75,9.75,0,0,1-9.74,9.74h-4.73v6.22A2.76,2.76,0,0,1,474.7,958.47ZM477.47,944h4.73a4.12,4.12,0,0,0,3-1.22,4.21,4.21,0,0,0-3-7.21h-4.73Z"></path><path class="cls-2" d="M551.49,954.15l-4.7-6.86a8.68,8.68,0,0,0,.7-.65,9.62,9.62,0,0,0,2.86-6.89,9.75,9.75,0,0,0-9.74-9.75h-7.49a2.77,2.77,0,0,0-2.76,2.77v22.94a2.76,2.76,0,0,0,5.52,0v-6.22h4.73c.32,0,.64,0,.95,0l5.36,7.82a2.75,2.75,0,0,0,2.29,1.2,2.76,2.76,0,0,0,2.28-4.32Zm-15.61-18.62h4.73a4.23,4.23,0,0,1,4.21,4.22,4.22,4.22,0,0,1-4.21,4.21h-4.73Z"></path><path class="cls-2" d="M518.81,958.47a2.75,2.75,0,0,1-2.5-1.6l-5.83-12.47-5.82,12.47a2.76,2.76,0,0,1-5.14-.34l-7.16-22.94a2.77,2.77,0,0,1,5.28-1.65l5,16.13,4.56-9.77a3.59,3.59,0,0,1,6.51,0l4.56,9.77,5-16.13a2.76,2.76,0,1,1,5.27,1.65l-7.15,22.94a2.78,2.78,0,0,1-2.46,1.93Z"></path><path class="cls-2" d="M562.65,958.47h-6.13a2.77,2.77,0,0,1-2.77-2.77V932.77a2.77,2.77,0,0,1,2.77-2.77h6.13a14.24,14.24,0,0,1,0,28.47Zm-3.37-5.53h3.37a8.71,8.71,0,0,0,0-17.41h-3.37Z"></path></g></svg>