<svg xmlns="http://www.w3.org/2000/svg" viewBox="374.97 100.14 304.03 769.75"><defs><style>.cls-1{fill:#404246;}.cls-2{fill:#22262a;}.cls-3,.cls-7{fill:#76787f;}.cls-4,.cls-5,.cls-8{fill:none;stroke:#070809;stroke-miterlimit:10;}.cls-5{stroke-width:1.08px;}.cls-6{fill:#fff;}.cls-7{opacity:0.36;}.cls-8{stroke-width:1.23px;}</style></defs><g id="Layer_3" data-name="Layer 3"><path class="cls-1" d="M669.4,268.88h3a6.09,6.09,0,0,1,6.09,6.08v70.36a6.09,6.09,0,0,1-4,5.71"/><path class="cls-1" d="M560,867.23c-73.23,8.17-118.3-6.65-146.55-47a130,130,0,0,1-18.58-40.32c-23.37-85.43-18.44-187.52-19.37-345.55-.6-100.06,7.62-179,16.61-234.94a116.44,116.44,0,0,1,110.28-98c17.55-.68,35.38-.93,53.62-.69,20.56.26,39.25,1.37,55.25,2.77a50.62,50.62,0,0,1,45.81,43.83c8.78,67.07,20.66,188.24,21.39,356.51C679.62,772.59,654.16,856.71,560,867.23Z"/><path class="cls-2" d="M553.41,845.85c-41.62,6.66-92.06,1.89-119.14-31.6-15.2-18.79-24.18-41.9-29.84-65.18-5.75-23.64-9.56-49.05-8.51-73.43.66-15.34,3-45.79,24.46-45.84a19.28,19.28,0,0,1,15.3,7.89c27.95,37.17,78.47,95.73,145.9,138.28,10.35,6.53,23.48,14.89,26.72,27.55,4.09,16-11.61,27-24.06,32.86A113.94,113.94,0,0,1,553.41,845.85Z"/><path class="cls-2" d="M450.13,143.69c-32.43,18-39,68-45.09,102.05-5.84,32.8-7.66,66.27-7.81,99.53-.82,180.08,3.46,220.71,67.55,307.5s133,110.92,158.4,98.22,35.63-60.21,35.61-259.78c0-143.79-11.39-249.16-80.86-311.06-29.52-26.3-80.28-55.82-120.2-40.05A63.88,63.88,0,0,0,450.13,143.69Z"/><path class="cls-1" d="M459.49,173.55c-29.89,16.63-39.21,56.2-44.8,87.59-5.38,30.23-7.05,61.08-7.19,91.74-.76,166-.94,205.3,58.13,285.3s125.84,89,149.26,77.29,33.72-44.11,33.7-228.06c0-132.54-11.34-239.15-73.47-289.13-28.4-22.85-71.82-42.57-108.62-28.05A58.62,58.62,0,0,0,459.49,173.55Z"/><path class="cls-1" d="M572,793a15.47,15.47,0,0,1-3.33,27.7c-35.47,12.12-94.51,15.47-122.58-19.24-25.51-31.56-31.2-88.27-31.88-126.41-.18-10.28,12.84-14.86,19.1-6.7,16.17,21.07,41.49,49.09,80.15,81.51A553.55,553.55,0,0,0,572,793Z"/></g><g id="Layer_2" data-name="Layer 2"><path class="cls-3" d="M522.18,364a12.46,12.46,0,0,0-7.19.63s-1.77-3.33-1.2-10.05c.22-2.55.66-6,3.69-6.49l.13,0c1.35-.19,3,0,3.91,1.13a4.18,4.18,0,0,1,.67,3.21C521.31,360.3,522.49,363.94,522.18,364Z"/><path class="cls-3" d="M508.65,347.27a3.25,3.25,0,0,1,3,4.11,18.73,18.73,0,0,0-.46,6c.38,6.07,2.46,8.23,2.46,8.23s-2.14,1.83-2.08,3.86A22.62,22.62,0,0,1,505,351.26a4.57,4.57,0,0,1,1.31-3,3.39,3.39,0,0,1,2-1A1.88,1.88,0,0,1,508.65,347.27Z"/><path class="cls-3" d="M510.74,380.39a25.64,25.64,0,0,1-14.49-15.78,28.23,28.23,0,0,1-1.44-11.13c.11-1.46.34-3.26,1.45-4.33,1.59-1.53,5.2-.75,5.95,1.37a6.73,6.73,0,0,1,.11,3.06,21,21,0,0,0,.88,8.34c1.95,6.86,9.74,12.71,9.74,12.71A8.29,8.29,0,0,0,510.74,380.39Z"/><path class="cls-3" d="M524.33,355.62a12.41,12.41,0,0,0-.63-7.18s3.33-1.78,10-1.21c2.54.22,6,.67,6.49,3.69l0,.13c.19,1.35,0,3-1.13,3.91a4.18,4.18,0,0,1-3.21.67C528,354.76,524.37,355.93,524.33,355.62Z"/><path class="cls-3" d="M541,342.09a3.25,3.25,0,0,1-4.11,3,19,19,0,0,0-6-.46c-6.08.38-8.23,2.47-8.23,2.47s-1.84-2.15-3.86-2.09a22.6,22.6,0,0,1,18.19-6.64,4.59,4.59,0,0,1,3,1.31,3.39,3.39,0,0,1,1,2A2.88,2.88,0,0,1,541,342.09Z"/><path class="cls-3" d="M507.92,344.18a25.64,25.64,0,0,1,15.78-14.49,28.23,28.23,0,0,1,11.13-1.44c1.45.12,3.26.34,4.32,1.45,1.54,1.59.76,5.21-1.36,6a7,7,0,0,1-3.06.11,21,21,0,0,0-8.34.87c-6.86,1.95-12.71,9.74-12.71,9.74A8.29,8.29,0,0,0,507.92,344.18Z"/><path class="cls-3" d="M532.54,358.35a12.41,12.41,0,0,0,7.18-.63s1.78,3.33,1.21,10c-.22,2.55-.67,6-3.69,6.49l-.13,0c-1.35.19-3,0-3.91-1.13a4.18,4.18,0,0,1-.67-3.21C533.4,362,532.23,358.39,532.54,358.35Z"/><path class="cls-3" d="M546.07,375.06a3.25,3.25,0,0,1-3-4.11,19,19,0,0,0,.46-6c-.38-6.07-2.47-8.23-2.47-8.23s2.15-1.83,2.09-3.86a22.62,22.62,0,0,1,6.64,18.19,4.57,4.57,0,0,1-1.31,3,3.39,3.39,0,0,1-2,1A1.91,1.91,0,0,1,546.07,375.06Z"/><path class="cls-3" d="M544,341.94a25.64,25.64,0,0,1,14.49,15.78,28.23,28.23,0,0,1,1.44,11.13c-.12,1.46-.34,3.26-1.45,4.33-1.59,1.53-5.21.75-6-1.37a7,7,0,0,1-.11-3.06,21,21,0,0,0-.87-8.34c-1.95-6.86-9.74-12.71-9.74-12.71A8.29,8.29,0,0,0,544,341.94Z"/><path class="cls-3" d="M530.39,366.71a12.41,12.41,0,0,0,.63,7.18s-3.33,1.78-10,1.21c-2.55-.22-6-.67-6.49-3.69l0-.13c-.19-1.35,0-3,1.12-3.91a4.21,4.21,0,0,1,3.22-.67C526.71,367.57,530.35,366.4,530.39,366.71Z"/><path class="cls-3" d="M513.67,380.24a3.26,3.26,0,0,1,4.12-3,19,19,0,0,0,6,.46c6.08-.38,8.24-2.47,8.24-2.47s1.83,2.15,3.86,2.09a22.63,22.63,0,0,1-18.2,6.64,4.56,4.56,0,0,1-3-1.31,3.39,3.39,0,0,1-1-2A2.93,2.93,0,0,1,513.67,380.24Z"/><path class="cls-3" d="M546.8,378.15A25.64,25.64,0,0,1,531,392.64a28.28,28.28,0,0,1-11.14,1.44c-1.45-.12-3.25-.34-4.32-1.45-1.53-1.59-.75-5.21,1.37-6a7,7,0,0,1,3.06-.11,21,21,0,0,0,8.34-.87C535.19,383.74,541,376,541,376A8.33,8.33,0,0,0,546.8,378.15Z"/><path class="cls-3" d="M502,410.93v7.88h-4.55v-19.7h9.45c4.69,0,7.21,2.37,7.21,5.41a4.73,4.73,0,0,1-3.12,4.66c1.06.36,2.67,1.38,2.67,4.9v1a14.24,14.24,0,0,0,.31,3.76H509.6a12.67,12.67,0,0,1-.45-4.42v-.29c0-2.16-.59-3.17-4.06-3.17Zm0-3.39h3.89c2.55,0,3.53-.89,3.53-2.54s-1.14-2.5-3.42-2.5h-4Z"/><path class="cls-3" d="M520.73,414.26l-1.48,4.55h-4l6.46-19.7h5.16l6.74,19.7h-4.32l-1.57-4.55Zm6.07-3.49c-1.35-4.16-2.21-6.81-2.67-8.58h0c-.47,1.94-1.42,5-2.5,8.58Z"/><path class="cls-3" d="M535.1,399.11h4.06v8.79c1.26-1.52,5.17-6,7.57-8.79h4.93L544,407.3l7.92,11.51H547l-5.83-8.75-2,2v6.76H535.1Z"/><path class="cls-4" d="M560,867.23c-73.23,8.17-118.3-6.65-146.55-47a130,130,0,0,1-18.58-40.32c-23.37-85.43-18.44-187.52-19.37-345.55-.6-100.06,7.62-179,16.61-234.94a116.44,116.44,0,0,1,110.28-98c17.55-.68,35.38-.93,53.62-.69,20.56.26,39.25,1.37,55.25,2.77a50.62,50.62,0,0,1,45.81,43.83c8.78,67.07,20.66,188.24,21.39,356.51C679.62,772.59,654.16,856.71,560,867.23Z"/><path class="cls-4" d="M669.4,268.88h3a6.09,6.09,0,0,1,6.09,6.08v70.36a6.09,6.09,0,0,1-4,5.71"/><path class="cls-5" d="M450.13,143.69c-32.43,18-39,68-45.09,102.05-5.84,32.8-7.66,66.27-7.81,99.53-.82,180.08,3.46,220.71,67.55,307.5s133,110.92,158.4,98.22,35.63-60.21,35.61-259.78c0-143.79-11.39-249.16-80.86-311.06-29.52-26.3-80.28-55.82-120.2-40.05A63.88,63.88,0,0,0,450.13,143.69Z"/><path class="cls-4" d="M459.45,173.55c-29.89,16.63-39.21,56.2-44.8,87.59-5.38,30.23-7,61.08-7.19,91.74-.76,166-.95,205.3,58.13,285.3s125.84,89,149.25,77.29,33.73-44.11,33.71-228.06c0-132.54-11.34-239.15-73.47-289.13-28.4-22.85-71.83-42.57-108.62-28.05A58.62,58.62,0,0,0,459.45,173.55Z"/><path class="cls-4" d="M572,793a15.47,15.47,0,0,1-3.33,27.7c-35.47,12.12-94.51,15.47-122.58-19.24-25.51-31.56-31.2-88.27-31.88-126.41-.18-10.28,12.84-14.86,19.1-6.7,16.17,21.07,41.49,49.09,80.15,81.51A553.55,553.55,0,0,0,572,793Z"/><path class="cls-6" d="M639.13,153.32c-10-18.06-27.94-30-35-34.16a.73.73,0,0,1,.46-1.36c7,.86,22.75,3.91,30,14.21,4.15,5.91,5.6,13.86,5.92,20.92A.73.73,0,0,1,639.13,153.32Z"/><path class="cls-4" d="M639.13,153.32c-10-18.06-27.94-30-35-34.16a.73.73,0,0,1,.46-1.36c7,.86,22.75,3.91,30,14.21,4.15,5.91,5.6,13.86,5.92,20.92A.73.73,0,0,1,639.13,153.32Z"/><rect class="cls-3" x="489.87" y="491.58" width="16.22" height="16.22" rx="2.84"/><circle class="cls-3" cx="525.32" cy="499.69" r="8.11"/><circle class="cls-7" cx="497.28" cy="478.34" r="7.23"/><circle class="cls-7" cx="525.32" cy="478.34" r="7.23"/><circle class="cls-7" cx="554.88" cy="478.34" r="7.23"/><path class="cls-3" d="M544.84,504.35l8.25-12.2a2.37,2.37,0,0,1,3.93,0l7.93,12A2.37,2.37,0,0,1,563,507.8l-16.18.24A2.36,2.36,0,0,1,544.84,504.35Z"/><path class="cls-8" d="M553.41,845.85c-41.62,6.66-92.06,1.89-119.14-31.6-15.2-18.79-24.18-41.9-29.84-65.18-5.75-23.64-9.56-49.05-8.51-73.43.66-15.34,3-45.79,24.46-45.84a19.28,19.28,0,0,1,15.3,7.89c27.95,37.17,78.47,95.73,145.9,138.28,10.35,6.53,23.48,14.89,26.72,27.55,4.09,16-11.61,27-24.06,32.86A113.94,113.94,0,0,1,553.41,845.85Z"/></g></svg>